<?xml version="1.0" encoding="us-ascii" standalone="no"?>
<svg xmlns="http://www.w3.org/2000/svg" xmlns:xlink="http://www.w3.org/1999/xlink" contentStyleType="text/css"
     height="400.8px" preserveAspectRatio="none" style="width:941px;height:400px;background:#FFFFFF;" version="1.1"
     viewBox="0 0 941 400" width="941.6px" zoomAndPan="magnify">
  <defs>
    <filter height="300%" id="f1kjevkblrhh3" width="300%" x="-1" y="-1">
      <feGaussianBlur result="blurOut" stdDeviation="1.6000000000000003"/>
      <feColorMatrix in="blurOut" result="blurOut2" type="matrix" values="0 0 0 0 0 0 0 0 0 0 0 0 0 0 0 0 0 0 .4 0"/>
      <feOffset dx="3.2000000000000006" dy="3.2000000000000006" in="blurOut2" result="blurOut3"/>
      <feBlend in="SourceGraphic" in2="blurOut3" mode="normal"/>
    </filter>
  </defs>
  <g><!--class FormIndex-->
    <g id="elem_FormIndex">
      <rect codeLine="7" fill="#FEFECE" filter="url(#f1kjevkblrhh3)" height="38.4" id="FormIndex"
            style="stroke:#A80036;stroke-width:0.8000000000000002;" width="78.4" x="420" y="5.6"/>
      <ellipse cx="432" cy="18.4" fill="#ADD1B2" rx="8.8" ry="8.8"
               style="stroke:#A80036;stroke-width:0.8000000000000002;"/>
      <path
          d="M431.475,23.0875 Q429.8875,23.0875 428.95,21.9125 Q428.025,20.725 428.025,18.2625 Q428.025,16.175 429,14.775 Q429.9875,13.375 431.6875,13.375 Q432.0875,13.375 432.5125,13.4875 Q432.8625,13.6375 433.075,13.6375 Q433.25,13.6375 433.325,13.6 Q433.4125,13.5625 433.775,13.0875 L434.3875,16.075 L433.675,16.2875 Q433.3125,15.125 432.825,14.65 Q432.35,14.1625 431.5875,14.1625 Q430.6125,14.1625 430.0375,15.3125 Q429.4625,16.45 429.4625,18.2 Q429.4625,20.125 429.95,21.1625 Q430.45,22.1875 431.5375,22.1875 Q432.3,22.1875 432.85,21.6375 Q433.4,21.075 433.6625,19.875 L434.3875,20.2 Q434.0625,21.5625 433.2875,22.325 Q432.525,23.0875 431.475,23.0875 Z "
          fill="#000000"/>
      <text fill="#000000" font-family="sans-serif" font-size="11.2" lengthAdjust="spacing" textLength="52.8" x="443.2"
            y="23.0375">FormIndex
      </text>
      <line style="stroke:#A80036;stroke-width:0.8000000000000002;" x1="420.8" x2="497.6" y1="31.2" y2="31.2"/>
      <line style="stroke:#A80036;stroke-width:0.8000000000000002;" x1="420.8" x2="497.6" y1="37.6" y2="37.6"/>
    </g><!--class ApplicationForm-->
    <g id="elem_ApplicationForm">
      <rect codeLine="9" fill="#FEFECE" filter="url(#f1kjevkblrhh3)" height="38.4" id="ApplicationForm"
            style="stroke:#A80036;stroke-width:0.8000000000000002;" width="107.2" x="5.6" y="178.4"/>
      <ellipse cx="17.6" cy="191.2" fill="#ADD1B2" rx="8.8" ry="8.8"
               style="stroke:#A80036;stroke-width:0.8000000000000002;"/>
      <path
          d="M17.075,195.8875 Q15.4875,195.8875 14.55,194.7125 Q13.625,193.525 13.625,191.0625 Q13.625,188.975 14.6,187.575 Q15.5875,186.175 17.2875,186.175 Q17.6875,186.175 18.1125,186.2875 Q18.4625,186.4375 18.675,186.4375 Q18.85,186.4375 18.925,186.4 Q19.0125,186.3625 19.375,185.8875 L19.9875,188.875 L19.275,189.0875 Q18.9125,187.925 18.425,187.45 Q17.95,186.9625 17.1875,186.9625 Q16.2125,186.9625 15.6375,188.1125 Q15.0625,189.25 15.0625,191 Q15.0625,192.925 15.55,193.9625 Q16.05,194.9875 17.1375,194.9875 Q17.9,194.9875 18.45,194.4375 Q19,193.875 19.2625,192.675 L19.9875,193 Q19.6625,194.3625 18.8875,195.125 Q18.125,195.8875 17.075,195.8875 Z "
          fill="#000000"/>
      <text fill="#000000" font-family="sans-serif" font-size="11.2" lengthAdjust="spacing" textLength="81.6" x="28.8"
            y="195.8375">ApplicationForm
      </text>
      <line style="stroke:#A80036;stroke-width:0.8000000000000002;" x1="6.4" x2="112" y1="204" y2="204"/>
      <line style="stroke:#A80036;stroke-width:0.8000000000000002;" x1="6.4" x2="112" y1="210.4" y2="210.4"/>
    </g><!--class TestReportForm-->
    <g id="elem_TestReportForm">
      <rect codeLine="12" fill="#FEFECE" filter="url(#f1kjevkblrhh3)" height="38.4" id="TestReportForm"
            style="stroke:#A80036;stroke-width:0.8000000000000002;" width="108.8" x="140.8" y="178.4"/>
      <ellipse cx="152.8" cy="191.2" fill="#ADD1B2" rx="8.8" ry="8.8"
               style="stroke:#A80036;stroke-width:0.8000000000000002;"/>
      <path
          d="M152.275,195.8875 Q150.6875,195.8875 149.75,194.7125 Q148.825,193.525 148.825,191.0625 Q148.825,188.975 149.8,187.575 Q150.7875,186.175 152.4875,186.175 Q152.8875,186.175 153.3125,186.2875 Q153.6625,186.4375 153.875,186.4375 Q154.05,186.4375 154.125,186.4 Q154.2125,186.3625 154.575,185.8875 L155.1875,188.875 L154.475,189.0875 Q154.1125,187.925 153.625,187.45 Q153.15,186.9625 152.3875,186.9625 Q151.4125,186.9625 150.8375,188.1125 Q150.2625,189.25 150.2625,191 Q150.2625,192.925 150.75,193.9625 Q151.25,194.9875 152.3375,194.9875 Q153.1,194.9875 153.65,194.4375 Q154.2,193.875 154.4625,192.675 L155.1875,193 Q154.8625,194.3625 154.0875,195.125 Q153.325,195.8875 152.275,195.8875 Z "
          fill="#000000"/>
      <text fill="#000000" font-family="sans-serif" font-size="11.2" lengthAdjust="spacing" textLength="83.2" x="164"
            y="195.8375">TestReportForm
      </text>
      <line style="stroke:#A80036;stroke-width:0.8000000000000002;" x1="141.6" x2="248.8" y1="204" y2="204"/>
      <line style="stroke:#A80036;stroke-width:0.8000000000000002;" x1="141.6" x2="248.8" y1="210.4" y2="210.4"/>
    </g><!--class TestFunctionForm-->
    <g id="elem_TestFunctionForm">
      <rect codeLine="16" fill="#FEFECE" filter="url(#f1kjevkblrhh3)" height="38.4" id="TestFunctionForm"
            style="stroke:#A80036;stroke-width:0.8000000000000002;" width="118.4" x="109.6" y="264.8"/>
      <ellipse cx="121.6" cy="277.6" fill="#ADD1B2" rx="8.8" ry="8.8"
               style="stroke:#A80036;stroke-width:0.8000000000000002;"/>
      <path
          d="M121.075,282.2875 Q119.4875,282.2875 118.55,281.1125 Q117.625,279.925 117.625,277.4625 Q117.625,275.375 118.6,273.975 Q119.5875,272.575 121.2875,272.575 Q121.6875,272.575 122.1125,272.6875 Q122.4625,272.8375 122.675,272.8375 Q122.85,272.8375 122.925,272.8 Q123.0125,272.7625 123.375,272.2875 L123.9875,275.275 L123.275,275.4875 Q122.9125,274.325 122.425,273.85 Q121.95,273.3625 121.1875,273.3625 Q120.2125,273.3625 119.6375,274.5125 Q119.0625,275.65 119.0625,277.4 Q119.0625,279.325 119.55,280.3625 Q120.05,281.3875 121.1375,281.3875 Q121.9,281.3875 122.45,280.8375 Q123,280.275 123.2625,279.075 L123.9875,279.4 Q123.6625,280.7625 122.8875,281.525 Q122.125,282.2875 121.075,282.2875 Z "
          fill="#000000"/>
      <text fill="#000000" font-family="sans-serif" font-size="11.2" lengthAdjust="spacing" textLength="92.8" x="132.8"
            y="282.2375">TestFunctionForm
      </text>
      <line style="stroke:#A80036;stroke-width:0.8000000000000002;" x1="110.4" x2="227.2" y1="290.4" y2="290.4"/>
      <line style="stroke:#A80036;stroke-width:0.8000000000000002;" x1="110.4" x2="227.2" y1="296.8" y2="296.8"/>
    </g><!--class Form-->
    <g id="elem_Form">
      <rect codeLine="19" fill="#FEFECE" filter="url(#f1kjevkblrhh3)" height="38.4" id="Form"
            style="stroke:#A80036;stroke-width:0.8000000000000002;" width="52" x="433.2" y="92"/>
      <ellipse cx="445.2" cy="104.8" fill="#A9DCDF" rx="8.8" ry="8.8"
               style="stroke:#A80036;stroke-width:0.8000000000000002;"/>
      <path
          d="M445.5375,105.1875 L443.4875,105.1875 L443.0625,107.025 Q443.0125,107.2875 443.0125,107.4125 Q443.0125,107.5875 443.05,107.7125 Q443.1,107.8375 443.325,107.8375 L443.7,107.8375 L443.7,108.5875 L441.3125,108.5875 L441.3125,107.8375 L441.675,107.8375 Q441.8125,107.8375 441.9125,107.7625 Q442.0125,107.675 442.05,107.4375 L444.1625,99.175 L445.2875,98.8 L447.35,107.4125 Q447.4375,107.6625 447.5375,107.75 Q447.65,107.8375 447.7875,107.8375 L448.1625,107.8375 L448.1625,108.5875 L445.45,108.5875 L445.45,107.8375 L445.875,107.8375 Q446.05,107.8375 446.0625,107.8 Q446.0875,107.75 446.0875,107.6875 Q446.0875,107.5125 446.05,107.3625 L445.5375,105.1875 Z M441.8875,108.2625 L441.8875,108.2625 Z M442.425,108.2625 L442.425,108.2625 Z M446.2,108.2625 L446.2,108.2625 Z M447.1,108.2625 L447.1,108.2625 Z M444.55,100.3125 L444.6,100.3125 L443.7125,104.4375 L445.3875,104.4375 L444.55,100.3125 Z "
          fill="#000000"/>
      <text fill="#000000" font-family="sans-serif" font-size="11.2" font-style="italic" lengthAdjust="spacing"
            textLength="26.4" x="456.4" y="109.4375">Form
      </text>
      <line style="stroke:#A80036;stroke-width:0.8000000000000002;" x1="434" x2="484.4" y1="117.6" y2="117.6"/>
      <line style="stroke:#A80036;stroke-width:0.8000000000000002;" x1="434" x2="484.4" y1="124" y2="124"/>
    </g><!--class TestWorkCheckForm-->
    <g id="elem_TestWorkCheckForm">
      <rect codeLine="21" fill="#FEFECE" filter="url(#f1kjevkblrhh3)" height="38.4" id="TestWorkCheckForm"
            style="stroke:#A80036;stroke-width:0.8000000000000002;" width="132.8" x="256" y="264.8"/>
      <ellipse cx="268" cy="277.6" fill="#ADD1B2" rx="8.8" ry="8.8"
               style="stroke:#A80036;stroke-width:0.8000000000000002;"/>
      <path
          d="M267.475,282.2875 Q265.8875,282.2875 264.95,281.1125 Q264.025,279.925 264.025,277.4625 Q264.025,275.375 265,273.975 Q265.9875,272.575 267.6875,272.575 Q268.0875,272.575 268.5125,272.6875 Q268.8625,272.8375 269.075,272.8375 Q269.25,272.8375 269.325,272.8 Q269.4125,272.7625 269.775,272.2875 L270.3875,275.275 L269.675,275.4875 Q269.3125,274.325 268.825,273.85 Q268.35,273.3625 267.5875,273.3625 Q266.6125,273.3625 266.0375,274.5125 Q265.4625,275.65 265.4625,277.4 Q265.4625,279.325 265.95,280.3625 Q266.45,281.3875 267.5375,281.3875 Q268.3,281.3875 268.85,280.8375 Q269.4,280.275 269.6625,279.075 L270.3875,279.4 Q270.0625,280.7625 269.2875,281.525 Q268.525,282.2875 267.475,282.2875 Z "
          fill="#000000"/>
      <text fill="#000000" font-family="sans-serif" font-size="11.2" lengthAdjust="spacing" textLength="107.2" x="279.2"
            y="282.2375">TestWorkCheckForm
      </text>
      <line style="stroke:#A80036;stroke-width:0.8000000000000002;" x1="256.8" x2="388" y1="290.4" y2="290.4"/>
      <line style="stroke:#A80036;stroke-width:0.8000000000000002;" x1="256.8" x2="388" y1="296.8" y2="296.8"/>
    </g><!--class ApplicationVerifyForm-->
    <g id="elem_ApplicationVerifyForm">
      <rect codeLine="24" fill="#FEFECE" filter="url(#f1kjevkblrhh3)" height="38.4" id="ApplicationVerifyForm"
            style="stroke:#A80036;stroke-width:0.8000000000000002;" width="136" x="315.2" y="351.2"/>
      <ellipse cx="327.2" cy="364" fill="#ADD1B2" rx="8.8" ry="8.8"
               style="stroke:#A80036;stroke-width:0.8000000000000002;"/>
      <path
          d="M326.675,368.6875 Q325.0875,368.6875 324.15,367.5125 Q323.225,366.325 323.225,363.8625 Q323.225,361.775 324.2,360.375 Q325.1875,358.975 326.8875,358.975 Q327.2875,358.975 327.7125,359.0875 Q328.0625,359.2375 328.275,359.2375 Q328.45,359.2375 328.525,359.2 Q328.6125,359.1625 328.975,358.6875 L329.5875,361.675 L328.875,361.8875 Q328.5125,360.725 328.025,360.25 Q327.55,359.7625 326.7875,359.7625 Q325.8125,359.7625 325.2375,360.9125 Q324.6625,362.05 324.6625,363.8 Q324.6625,365.725 325.15,366.7625 Q325.65,367.7875 326.7375,367.7875 Q327.5,367.7875 328.05,367.2375 Q328.6,366.675 328.8625,365.475 L329.5875,365.8 Q329.2625,367.1625 328.4875,367.925 Q327.725,368.6875 326.675,368.6875 Z "
          fill="#000000"/>
      <text fill="#000000" font-family="sans-serif" font-size="11.2" lengthAdjust="spacing" textLength="110.4" x="338.4"
            y="368.6375">ApplicationVerifyForm
      </text>
      <line style="stroke:#A80036;stroke-width:0.8000000000000002;" x1="316" x2="450.4" y1="376.8" y2="376.8"/>
      <line style="stroke:#A80036;stroke-width:0.8000000000000002;" x1="316" x2="450.4" y1="383.2" y2="383.2"/>
    </g><!--class ReportVerifyForm-->
    <g id="elem_ReportVerifyForm">
      <rect codeLine="26" fill="#FEFECE" filter="url(#f1kjevkblrhh3)" height="38.4" id="ReportVerifyForm"
            style="stroke:#A80036;stroke-width:0.8000000000000002;" width="115.2" x="479.2" y="351.2"/>
      <ellipse cx="491.2" cy="364" fill="#ADD1B2" rx="8.8" ry="8.8"
               style="stroke:#A80036;stroke-width:0.8000000000000002;"/>
      <path
          d="M490.675,368.6875 Q489.0875,368.6875 488.15,367.5125 Q487.225,366.325 487.225,363.8625 Q487.225,361.775 488.2,360.375 Q489.1875,358.975 490.8875,358.975 Q491.2875,358.975 491.7125,359.0875 Q492.0625,359.2375 492.275,359.2375 Q492.45,359.2375 492.525,359.2 Q492.6125,359.1625 492.975,358.6875 L493.5875,361.675 L492.875,361.8875 Q492.5125,360.725 492.025,360.25 Q491.55,359.7625 490.7875,359.7625 Q489.8125,359.7625 489.2375,360.9125 Q488.6625,362.05 488.6625,363.8 Q488.6625,365.725 489.15,366.7625 Q489.65,367.7875 490.7375,367.7875 Q491.5,367.7875 492.05,367.2375 Q492.6,366.675 492.8625,365.475 L493.5875,365.8 Q493.2625,367.1625 492.4875,367.925 Q491.725,368.6875 490.675,368.6875 Z "
          fill="#000000"/>
      <text fill="#000000" font-family="sans-serif" font-size="11.2" lengthAdjust="spacing" textLength="89.6" x="502.4"
            y="368.6375">ReportVerifyForm
      </text>
      <line style="stroke:#A80036;stroke-width:0.8000000000000002;" x1="480" x2="593.6" y1="376.8" y2="376.8"/>
      <line style="stroke:#A80036;stroke-width:0.8000000000000002;" x1="480" x2="593.6" y1="383.2" y2="383.2"/>
    </g><!--class TestRecordsForm-->
    <g id="elem_TestRecordsForm">
      <rect codeLine="28" fill="#FEFECE" filter="url(#f1kjevkblrhh3)" height="38.4" id="TestRecordsForm"
            style="stroke:#A80036;stroke-width:0.8000000000000002;" width="116.8" x="530.4" y="264.8"/>
      <ellipse cx="542.4" cy="277.6" fill="#ADD1B2" rx="8.8" ry="8.8"
               style="stroke:#A80036;stroke-width:0.8000000000000002;"/>
      <path
          d="M541.875,282.2875 Q540.2875,282.2875 539.35,281.1125 Q538.425,279.925 538.425,277.4625 Q538.425,275.375 539.4,273.975 Q540.3875,272.575 542.0875,272.575 Q542.4875,272.575 542.9125,272.6875 Q543.2625,272.8375 543.475,272.8375 Q543.65,272.8375 543.725,272.8 Q543.8125,272.7625 544.175,272.2875 L544.7875,275.275 L544.075,275.4875 Q543.7125,274.325 543.225,273.85 Q542.75,273.3625 541.9875,273.3625 Q541.0125,273.3625 540.4375,274.5125 Q539.8625,275.65 539.8625,277.4 Q539.8625,279.325 540.35,280.3625 Q540.85,281.3875 541.9375,281.3875 Q542.7,281.3875 543.25,280.8375 Q543.8,280.275 544.0625,279.075 L544.7875,279.4 Q544.4625,280.7625 543.6875,281.525 Q542.925,282.2875 541.875,282.2875 Z "
          fill="#000000"/>
      <text fill="#000000" font-family="sans-serif" font-size="11.2" lengthAdjust="spacing" textLength="91.2" x="553.6"
            y="282.2375">TestRecordsForm
      </text>
      <line style="stroke:#A80036;stroke-width:0.8000000000000002;" x1="531.2" x2="646.4" y1="290.4" y2="290.4"/>
      <line style="stroke:#A80036;stroke-width:0.8000000000000002;" x1="531.2" x2="646.4" y1="296.8" y2="296.8"/>
    </g><!--class TestPlanVerifyForm-->
    <g id="elem_TestPlanVerifyForm">
      <rect codeLine="31" fill="#FEFECE" filter="url(#f1kjevkblrhh3)" height="38.4" id="TestPlanVerifyForm"
            style="stroke:#A80036;stroke-width:0.8000000000000002;" width="125.6" x="675.6" y="264.8"/>
      <ellipse cx="687.6" cy="277.6" fill="#ADD1B2" rx="8.8" ry="8.8"
               style="stroke:#A80036;stroke-width:0.8000000000000002;"/>
      <path
          d="M687.075,282.2875 Q685.4875,282.2875 684.55,281.1125 Q683.625,279.925 683.625,277.4625 Q683.625,275.375 684.6,273.975 Q685.5875,272.575 687.2875,272.575 Q687.6875,272.575 688.1125,272.6875 Q688.4625,272.8375 688.675,272.8375 Q688.85,272.8375 688.925,272.8 Q689.0125,272.7625 689.375,272.2875 L689.9875,275.275 L689.275,275.4875 Q688.9125,274.325 688.425,273.85 Q687.95,273.3625 687.1875,273.3625 Q686.2125,273.3625 685.6375,274.5125 Q685.0625,275.65 685.0625,277.4 Q685.0625,279.325 685.55,280.3625 Q686.05,281.3875 687.1375,281.3875 Q687.9,281.3875 688.45,280.8375 Q689,280.275 689.2625,279.075 L689.9875,279.4 Q689.6625,280.7625 688.8875,281.525 Q688.125,282.2875 687.075,282.2875 Z "
          fill="#000000"/>
      <text fill="#000000" font-family="sans-serif" font-size="11.2" lengthAdjust="spacing" textLength="100" x="698.8"
            y="282.2375">TestPlanVerifyForm
      </text>
      <line style="stroke:#A80036;stroke-width:0.8000000000000002;" x1="676.4" x2="800.4" y1="290.4" y2="290.4"/>
      <line style="stroke:#A80036;stroke-width:0.8000000000000002;" x1="676.4" x2="800.4" y1="296.8" y2="296.8"/>
    </g><!--class DocumentReviewForm-->
    <g id="elem_DocumentReviewForm">
      <rect codeLine="34" fill="#FEFECE" filter="url(#f1kjevkblrhh3)" height="38.4" id="DocumentReviewForm"
            style="stroke:#A80036;stroke-width:0.8000000000000002;" width="139.2" x="666.4" y="178.4"/>
      <ellipse cx="678.4" cy="191.2" fill="#ADD1B2" rx="8.8" ry="8.8"
               style="stroke:#A80036;stroke-width:0.8000000000000002;"/>
      <path
          d="M677.875,195.8875 Q676.2875,195.8875 675.35,194.7125 Q674.425,193.525 674.425,191.0625 Q674.425,188.975 675.4,187.575 Q676.3875,186.175 678.0875,186.175 Q678.4875,186.175 678.9125,186.2875 Q679.2625,186.4375 679.475,186.4375 Q679.65,186.4375 679.725,186.4 Q679.8125,186.3625 680.175,185.8875 L680.7875,188.875 L680.075,189.0875 Q679.7125,187.925 679.225,187.45 Q678.75,186.9625 677.9875,186.9625 Q677.0125,186.9625 676.4375,188.1125 Q675.8625,189.25 675.8625,191 Q675.8625,192.925 676.35,193.9625 Q676.85,194.9875 677.9375,194.9875 Q678.7,194.9875 679.25,194.4375 Q679.8,193.875 680.0625,192.675 L680.7875,193 Q680.4625,194.3625 679.6875,195.125 Q678.925,195.8875 677.875,195.8875 Z "
          fill="#000000"/>
      <text fill="#000000" font-family="sans-serif" font-size="11.2" lengthAdjust="spacing" textLength="113.6" x="689.6"
            y="195.8375">DocumentReviewForm
      </text>
      <line style="stroke:#A80036;stroke-width:0.8000000000000002;" x1="667.2" x2="804.8" y1="204" y2="204"/>
      <line style="stroke:#A80036;stroke-width:0.8000000000000002;" x1="667.2" x2="804.8" y1="210.4" y2="210.4"/>
    </g><!--class TestPlanForm-->
    <g id="elem_TestPlanForm">
      <rect codeLine="37" fill="#FEFECE" filter="url(#f1kjevkblrhh3)" height="38.4" id="TestPlanForm"
            style="stroke:#A80036;stroke-width:0.8000000000000002;" width="96.8" x="834" y="178.4"/>
      <ellipse cx="846" cy="191.2" fill="#ADD1B2" rx="8.8" ry="8.8"
               style="stroke:#A80036;stroke-width:0.8000000000000002;"/>
      <path
          d="M845.475,195.8875 Q843.8875,195.8875 842.95,194.7125 Q842.025,193.525 842.025,191.0625 Q842.025,188.975 843,187.575 Q843.9875,186.175 845.6875,186.175 Q846.0875,186.175 846.5125,186.2875 Q846.8625,186.4375 847.075,186.4375 Q847.25,186.4375 847.325,186.4 Q847.4125,186.3625 847.775,185.8875 L848.3875,188.875 L847.675,189.0875 Q847.3125,187.925 846.825,187.45 Q846.35,186.9625 845.5875,186.9625 Q844.6125,186.9625 844.0375,188.1125 Q843.4625,189.25 843.4625,191 Q843.4625,192.925 843.95,193.9625 Q844.45,194.9875 845.5375,194.9875 Q846.3,194.9875 846.85,194.4375 Q847.4,193.875 847.6625,192.675 L848.3875,193 Q848.0625,194.3625 847.2875,195.125 Q846.525,195.8875 845.475,195.8875 Z "
          fill="#000000"/>
      <text fill="#000000" font-family="sans-serif" font-size="11.2" lengthAdjust="spacing" textLength="71.2" x="857.2"
            y="195.8375">TestPlanForm
      </text>
      <line style="stroke:#A80036;stroke-width:0.8000000000000002;" x1="834.8" x2="930" y1="204" y2="204"/>
      <line style="stroke:#A80036;stroke-width:0.8000000000000002;" x1="834.8" x2="930" y1="210.4" y2="210.4"/>
    </g><!--reverse link FormIndex to Form-->
    <g id="link_FormIndex_Form">
      <path codeLine="40" d="M459.2,54.592 C459.2,54.592 459.2,91.872 459.2,91.872 " fill="none"
            id="FormIndex-backto-Form" style="stroke:#A80036;stroke-width:0.8000000000000002;"/>
      <polygon fill="none" points="459.2,44.192,456,48.992,459.2,53.792,462.4,48.992,459.2,44.192"
               style="stroke:#A80036;stroke-width:0.8000000000000002;"/>
    </g><!--reverse link Form to ApplicationForm-->
    <g id="link_Form_ApplicationForm">
      <path codeLine="42" d="M416.952,104.8 C416.952,104.8 59.2,104.8 59.2,104.8 C59.2,104.8 59.2,151.192 59.2,178.368 "
            fill="none" id="Form-backto-ApplicationForm" style="stroke:#A80036;stroke-width:0.8000000000000002;"/>
      <polygon fill="none" points="416.952,99.2,432.952,104.8,416.952,110.4,416.952,99.2"
               style="stroke:#A80036;stroke-width:0.8000000000000002;"/>
    </g><!--reverse link Form to TestReportForm-->
    <g id="link_Form_TestReportForm">
      <path codeLine="43"
            d="M442.2,146.432 C442.2,146.432 442.2,204 442.2,204 C442.2,204 321.12,204 249.624,204 "
            fill="none" id="Form-backto-TestReportForm" style="stroke:#A80036;stroke-width:0.8000000000000002;"/>
      <polygon fill="none" points="436.6,146.616,442.2,130.616,447.8,146.616,436.6,146.616"
               style="stroke:#A80036;stroke-width:0.8000000000000002;"/>
    </g><!--reverse link Form to TestFunctionForm-->
    <g id="link_Form_TestFunctionForm">
      <path codeLine="44"
            d="M417.12,117.6 C417.12,117.6 126.8,117.6 126.8,117.6 C126.8,117.6 126.8,220.688 126.8,264.584 "
            fill="none" id="Form-backto-TestFunctionForm" style="stroke:#A80036;stroke-width:0.8000000000000002;"/>
      <polygon fill="none" points="417.12,112,433.12,117.6,417.12,123.2,417.12,112"
               style="stroke:#A80036;stroke-width:0.8000000000000002;"/>
    </g><!--reverse link Form to TestWorkCheckForm-->
    <g id="link_Form_TestWorkCheckForm">
      <path codeLine="45"
            d="M442.2,146.616 C442.2,146.616 442.2,277.6 442.2,277.6 C442.2,277.6 416.528,277.6 388.96,277.6 "
            fill="none" id="Form-backto-TestWorkCheckForm" style="stroke:#A80036;stroke-width:0.8000000000000002;"/>
      <polygon fill="none" points="436.6,146.616,442.2,130.616,447.8,146.616,436.6,146.616"
               style="stroke:#A80036;stroke-width:0.8000000000000002;"/>
    </g><!--reverse link Form to ApplicationVerifyForm-->
    <g id="link_Form_ApplicationVerifyForm">
      <path codeLine="46" d="M442.2,146.472 C442.2,146.472 442.2,351 442.2,351 " fill="none"
            id="Form-backto-ApplicationVerifyForm" style="stroke:#A80036;stroke-width:0.8000000000000002;"/>
      <polygon fill="none" points="436.6,146.616,442.2,130.616,447.8,146.616,436.6,146.616"
               style="stroke:#A80036;stroke-width:0.8000000000000002;"/>
    </g><!--reverse link Form to ReportVerifyForm-->
    <g id="link_Form_ReportVerifyForm">
      <path codeLine="47" d="M480.704,146.472 C480.704,146.472 480.704,351 480.704,351 " fill="none"
            id="Form-backto-ReportVerifyForm" style="stroke:#A80036;stroke-width:0.8000000000000002;"/>
      <polygon fill="none" points="475.104,146.472,480.704,130.472,486.304,146.472,475.104,146.472"
               style="stroke:#A80036;stroke-width:0.8000000000000002;"/>
    </g><!--reverse link Form to TestRecordsForm-->
    <g id="link_Form_TestRecordsForm">
      <path codeLine="48"
            d="M480.704,146.72 C480.704,146.72 480.704,290.4 480.704,290.4 C480.704,290.4 505.432,290.4 530.2,290.4 " fill="none"
            id="Form-backto-TestRecordsForm" style="stroke:#A80036;stroke-width:0.8000000000000002;"/>
      <polygon fill="none" points="475.104,146.472,480.704,130.472,486.304,146.472,475.104,146.472"
               style="stroke:#A80036;stroke-width:0.8000000000000002;"/>
    </g><!--reverse link Form to TestPlanVerifyForm-->
    <g id="link_Form_TestPlanVerifyForm">
      <path codeLine="49"
            d="M501.232,117.6 C501.232,117.6 656.8,117.6 656.8,117.6 C656.8,117.6 656.8,284 656.8,284 C656.8,284 664.672,284 675.52,284 "
            fill="none" id="Form-backto-TestPlanVerifyForm" style="stroke:#A80036;stroke-width:0.8000000000000002;"/>
      <polygon fill="none" points="501.232,123.2,485.232,117.6,501.232,112,501.232,123.2"
               style="stroke:#A80036;stroke-width:0.8000000000000002;"/>
    </g><!--reverse link Form to DocumentReviewForm-->
    <g id="link_Form_DocumentReviewForm">
      <path codeLine="50"
            d="M480.704,146.568 C480.704,146.568 480.704,191.2 480.704,191.2 C480.704,191.2 591.712,191.2 666.392,191.2 "
            fill="none" id="Form-backto-DocumentReviewForm" style="stroke:#A80036;stroke-width:0.8000000000000002;"/>
      <polygon fill="none" points="475.104,146.472,480.704,130.472,486.304,146.472,475.104,146.472"
               style="stroke:#A80036;stroke-width:0.8000000000000002;"/>
    </g><!--reverse link Form to TestPlanForm-->
    <g id="link_Form_TestPlanForm">
      <path codeLine="51"
            d="M501.352,104.8 C501.352,104.8 882.4,104.8 882.4,104.8 C882.4,104.8 882.4,151.192 882.4,178.368 "
            fill="none" id="Form-backto-TestPlanForm" style="stroke:#A80036;stroke-width:0.8000000000000002;"/>
      <polygon fill="none" points="501.352,110.4,485.352,104.8,501.352,99.2,501.352,110.4"
               style="stroke:#A80036;stroke-width:0.8000000000000002;"/>
    </g><!--SRC=[TP8zZi8m44Pxdy8NI45FWnOXqI6qOckl6OYLn6EDdGK4t1r3WcmFsIwPb_dvdk8ROoMX1o5yV7IAL2UFXBrRsnh816Kro5a6MsCXN1n8f52Z4BfLtiiLKhUsUpZBgxYFjOLphT4g6BHF_28Z-WOVjk3YY4GojEgjBjlKhm-aT91fNRRfsVE3r7pLe1k-ApjZ5nCTBgnvk6CI3MTgfBsVIh1f5HyvqYNglWCRc_yCdFxhJVMa3wlgbMweoVajlZEH6Iaz9b1zQEIiq9N1QjfNyGKtncTdoZWgbML9Fesnc6zXyKTv0000]-->
  </g>
</svg>