<?xml version="1.0" encoding="us-ascii" standalone="no"?>
<svg xmlns="http://www.w3.org/2000/svg" xmlns:xlink="http://www.w3.org/1999/xlink" contentStyleType="text/css"
     height="501px" preserveAspectRatio="none" style="width:1177px;height:501px;background:#FFFFFF;" version="1.1"
     viewBox="0 0 1177 501" width="1177px" zoomAndPan="magnify">
  <defs>
    <filter height="300%" id="f1768d0mahtkd4" width="300%" x="-1" y="-1">
      <feGaussianBlur result="blurOut" stdDeviation="2.0"/>
      <feColorMatrix in="blurOut" result="blurOut2" type="matrix" values="0 0 0 0 0 0 0 0 0 0 0 0 0 0 0 0 0 0 .4 0"/>
      <feOffset dx="4.0" dy="4.0" in="blurOut2" result="blurOut3"/>
      <feBlend in="SourceGraphic" in2="blurOut3" mode="normal"/>
    </filter>
  </defs>
  <g><!--class FormIndex-->
    <g id="elem_FormIndex">
      <rect codeLine="7" fill="#FEFECE" filter="url(#f1768d0mahtkd4)" height="48" id="FormIndex"
            style="stroke:#A80036;stroke-width:1.0;" width="98" x="525" y="7"/>
      <ellipse cx="540" cy="23" fill="#ADD1B2" rx="11" ry="11" style="stroke:#A80036;stroke-width:1.0;"/>
      <path
          d="M539.3438,28.8594 Q537.3594,28.8594 536.1875,27.3906 Q535.0313,25.9063 535.0313,22.8281 Q535.0313,20.2188 536.25,18.4688 Q537.4844,16.7188 539.6094,16.7188 Q540.1094,16.7188 540.6406,16.8594 Q541.0781,17.0469 541.3438,17.0469 Q541.5625,17.0469 541.6563,17 Q541.7656,16.9531 542.2188,16.3594 L542.9844,20.0938 L542.0938,20.3594 Q541.6406,18.9063 541.0313,18.3125 Q540.4375,17.7031 539.4844,17.7031 Q538.2656,17.7031 537.5469,19.1406 Q536.8281,20.5625 536.8281,22.75 Q536.8281,25.1563 537.4375,26.4531 Q538.0625,27.7344 539.4219,27.7344 Q540.375,27.7344 541.0625,27.0469 Q541.75,26.3438 542.0781,24.8438 L542.9844,25.25 Q542.5781,26.9531 541.6094,27.9063 Q540.6563,28.8594 539.3438,28.8594 Z "
          fill="#000000"/>
      <text fill="#000000" font-family="sans-serif" font-size="14" lengthAdjust="spacing" textLength="66" x="554"
            y="28.7969">FormIndex
      </text>
      <line style="stroke:#A80036;stroke-width:1.0;" x1="526" x2="622" y1="39" y2="39"/>
      <line style="stroke:#A80036;stroke-width:1.0;" x1="526" x2="622" y1="47" y2="47"/>
    </g><!--class ApplicationForm-->
    <g id="elem_ApplicationForm">
      <rect codeLine="9" fill="#FEFECE" filter="url(#f1768d0mahtkd4)" height="48" id="ApplicationForm"
            style="stroke:#A80036;stroke-width:1.0;" width="134" x="7" y="223"/>
      <ellipse cx="22" cy="239" fill="#ADD1B2" rx="11" ry="11" style="stroke:#A80036;stroke-width:1.0;"/>
      <path
          d="M21.3438,244.8594 Q19.3594,244.8594 18.1875,243.3906 Q17.0313,241.9063 17.0313,238.8281 Q17.0313,236.2188 18.25,234.4688 Q19.4844,232.7188 21.6094,232.7188 Q22.1094,232.7188 22.6406,232.8594 Q23.0781,233.0469 23.3438,233.0469 Q23.5625,233.0469 23.6563,233 Q23.7656,232.9531 24.2188,232.3594 L24.9844,236.0938 L24.0938,236.3594 Q23.6406,234.9063 23.0313,234.3125 Q22.4375,233.7031 21.4844,233.7031 Q20.2656,233.7031 19.5469,235.1406 Q18.8281,236.5625 18.8281,238.75 Q18.8281,241.1563 19.4375,242.4531 Q20.0625,243.7344 21.4219,243.7344 Q22.375,243.7344 23.0625,243.0469 Q23.75,242.3438 24.0781,240.8438 L24.9844,241.25 Q24.5781,242.9531 23.6094,243.9063 Q22.6563,244.8594 21.3438,244.8594 Z "
          fill="#000000"/>
      <text fill="#000000" font-family="sans-serif" font-size="14" lengthAdjust="spacing" textLength="102" x="36"
            y="244.7969">ApplicationForm
      </text>
      <line style="stroke:#A80036;stroke-width:1.0;" x1="8" x2="140" y1="255" y2="255"/>
      <line style="stroke:#A80036;stroke-width:1.0;" x1="8" x2="140" y1="263" y2="263"/>
    </g><!--class TestReportForm-->
    <g id="elem_TestReportForm">
      <rect codeLine="12" fill="#FEFECE" filter="url(#f1768d0mahtkd4)" height="48" id="TestReportForm"
            style="stroke:#A80036;stroke-width:1.0;" width="136" x="176" y="223"/>
      <ellipse cx="191" cy="239" fill="#ADD1B2" rx="11" ry="11" style="stroke:#A80036;stroke-width:1.0;"/>
      <path
          d="M190.3438,244.8594 Q188.3594,244.8594 187.1875,243.3906 Q186.0313,241.9063 186.0313,238.8281 Q186.0313,236.2188 187.25,234.4688 Q188.4844,232.7188 190.6094,232.7188 Q191.1094,232.7188 191.6406,232.8594 Q192.0781,233.0469 192.3438,233.0469 Q192.5625,233.0469 192.6563,233 Q192.7656,232.9531 193.2188,232.3594 L193.9844,236.0938 L193.0938,236.3594 Q192.6406,234.9063 192.0313,234.3125 Q191.4375,233.7031 190.4844,233.7031 Q189.2656,233.7031 188.5469,235.1406 Q187.8281,236.5625 187.8281,238.75 Q187.8281,241.1563 188.4375,242.4531 Q189.0625,243.7344 190.4219,243.7344 Q191.375,243.7344 192.0625,243.0469 Q192.75,242.3438 193.0781,240.8438 L193.9844,241.25 Q193.5781,242.9531 192.6094,243.9063 Q191.6563,244.8594 190.3438,244.8594 Z "
          fill="#000000"/>
      <text fill="#000000" font-family="sans-serif" font-size="14" lengthAdjust="spacing" textLength="104" x="205"
            y="244.7969">TestReportForm
      </text>
      <line style="stroke:#A80036;stroke-width:1.0;" x1="177" x2="311" y1="255" y2="255"/>
      <line style="stroke:#A80036;stroke-width:1.0;" x1="177" x2="311" y1="263" y2="263"/>
    </g><!--class TestFunctionForm-->
    <g id="elem_TestFunctionForm">
      <rect codeLine="16" fill="#FEFECE" filter="url(#f1768d0mahtkd4)" height="48" id="TestFunctionForm"
            style="stroke:#A80036;stroke-width:1.0;" width="148" x="137" y="331"/>
      <ellipse cx="152" cy="347" fill="#ADD1B2" rx="11" ry="11" style="stroke:#A80036;stroke-width:1.0;"/>
      <path
          d="M151.3438,352.8594 Q149.3594,352.8594 148.1875,351.3906 Q147.0313,349.9063 147.0313,346.8281 Q147.0313,344.2188 148.25,342.4688 Q149.4844,340.7188 151.6094,340.7188 Q152.1094,340.7188 152.6406,340.8594 Q153.0781,341.0469 153.3438,341.0469 Q153.5625,341.0469 153.6563,341 Q153.7656,340.9531 154.2188,340.3594 L154.9844,344.0938 L154.0938,344.3594 Q153.6406,342.9063 153.0313,342.3125 Q152.4375,341.7031 151.4844,341.7031 Q150.2656,341.7031 149.5469,343.1406 Q148.8281,344.5625 148.8281,346.75 Q148.8281,349.1563 149.4375,350.4531 Q150.0625,351.7344 151.4219,351.7344 Q152.375,351.7344 153.0625,351.0469 Q153.75,350.3438 154.0781,348.8438 L154.9844,349.25 Q154.5781,350.9531 153.6094,351.9063 Q152.6563,352.8594 151.3438,352.8594 Z "
          fill="#000000"/>
      <text fill="#000000" font-family="sans-serif" font-size="14" lengthAdjust="spacing" textLength="116" x="166"
            y="352.7969">TestFunctionForm
      </text>
      <line style="stroke:#A80036;stroke-width:1.0;" x1="138" x2="284" y1="363" y2="363"/>
      <line style="stroke:#A80036;stroke-width:1.0;" x1="138" x2="284" y1="371" y2="371"/>
    </g><!--class Form-->
    <g id="elem_Form">
      <rect codeLine="19" fill="#FEFECE" filter="url(#f1768d0mahtkd4)" height="48" id="Form"
            style="stroke:#A80036;stroke-width:1.0;" width="65" x="541.5" y="115"/>
      <ellipse cx="556.5" cy="131" fill="#A9DCDF" rx="11" ry="11" style="stroke:#A80036;stroke-width:1.0;"/>
      <path
          d="M556.9219,131.4844 L554.3594,131.4844 L553.8281,133.7813 Q553.7656,134.1094 553.7656,134.2656 Q553.7656,134.4844 553.8125,134.6406 Q553.875,134.7969 554.1563,134.7969 L554.625,134.7969 L554.625,135.7344 L551.6406,135.7344 L551.6406,134.7969 L552.0938,134.7969 Q552.2656,134.7969 552.3906,134.7031 Q552.5156,134.5938 552.5625,134.2969 L555.2031,123.9688 L556.6094,123.5 L559.1875,134.2656 Q559.2969,134.5781 559.4219,134.6875 Q559.5625,134.7969 559.7344,134.7969 L560.2031,134.7969 L560.2031,135.7344 L556.8125,135.7344 L556.8125,134.7969 L557.3438,134.7969 Q557.5625,134.7969 557.5781,134.75 Q557.6094,134.6875 557.6094,134.6094 Q557.6094,134.3906 557.5625,134.2031 L556.9219,131.4844 Z M552.3594,135.3281 L552.3594,135.3281 Z M553.0313,135.3281 L553.0313,135.3281 Z M557.75,135.3281 L557.75,135.3281 Z M558.875,135.3281 L558.875,135.3281 Z M555.6875,125.3906 L555.75,125.3906 L554.6406,130.5469 L556.7344,130.5469 L555.6875,125.3906 Z "
          fill="#000000"/>
      <text fill="#000000" font-family="sans-serif" font-size="14" font-style="italic" lengthAdjust="spacing"
            textLength="33" x="570.5" y="136.7969">Form
      </text>
      <line style="stroke:#A80036;stroke-width:1.0;" x1="542.5" x2="605.5" y1="147" y2="147"/>
      <line style="stroke:#A80036;stroke-width:1.0;" x1="542.5" x2="605.5" y1="155" y2="155"/>
    </g><!--class TestWorkCheckForm-->
    <g id="elem_TestWorkCheckForm">
      <rect codeLine="21" fill="#FEFECE" filter="url(#f1768d0mahtkd4)" height="48" id="TestWorkCheckForm"
            style="stroke:#A80036;stroke-width:1.0;" width="166" x="320" y="331"/>
      <ellipse cx="335" cy="347" fill="#ADD1B2" rx="11" ry="11" style="stroke:#A80036;stroke-width:1.0;"/>
      <path
          d="M334.3438,352.8594 Q332.3594,352.8594 331.1875,351.3906 Q330.0313,349.9063 330.0313,346.8281 Q330.0313,344.2188 331.25,342.4688 Q332.4844,340.7188 334.6094,340.7188 Q335.1094,340.7188 335.6406,340.8594 Q336.0781,341.0469 336.3438,341.0469 Q336.5625,341.0469 336.6563,341 Q336.7656,340.9531 337.2188,340.3594 L337.9844,344.0938 L337.0938,344.3594 Q336.6406,342.9063 336.0313,342.3125 Q335.4375,341.7031 334.4844,341.7031 Q333.2656,341.7031 332.5469,343.1406 Q331.8281,344.5625 331.8281,346.75 Q331.8281,349.1563 332.4375,350.4531 Q333.0625,351.7344 334.4219,351.7344 Q335.375,351.7344 336.0625,351.0469 Q336.75,350.3438 337.0781,348.8438 L337.9844,349.25 Q337.5781,350.9531 336.6094,351.9063 Q335.6563,352.8594 334.3438,352.8594 Z "
          fill="#000000"/>
      <text fill="#000000" font-family="sans-serif" font-size="14" lengthAdjust="spacing" textLength="134" x="349"
            y="352.7969">TestWorkCheckForm
      </text>
      <line style="stroke:#A80036;stroke-width:1.0;" x1="321" x2="485" y1="363" y2="363"/>
      <line style="stroke:#A80036;stroke-width:1.0;" x1="321" x2="485" y1="371" y2="371"/>
    </g><!--class ApplicationVerifyForm-->
    <g id="elem_ApplicationVerifyForm">
      <rect codeLine="24" fill="#FEFECE" filter="url(#f1768d0mahtkd4)" height="48" id="ApplicationVerifyForm"
            style="stroke:#A80036;stroke-width:1.0;" width="170" x="394" y="439"/>
      <ellipse cx="409" cy="455" fill="#ADD1B2" rx="11" ry="11" style="stroke:#A80036;stroke-width:1.0;"/>
      <path
          d="M408.3438,460.8594 Q406.3594,460.8594 405.1875,459.3906 Q404.0313,457.9063 404.0313,454.8281 Q404.0313,452.2188 405.25,450.4688 Q406.4844,448.7188 408.6094,448.7188 Q409.1094,448.7188 409.6406,448.8594 Q410.0781,449.0469 410.3438,449.0469 Q410.5625,449.0469 410.6563,449 Q410.7656,448.9531 411.2188,448.3594 L411.9844,452.0938 L411.0938,452.3594 Q410.6406,450.9063 410.0313,450.3125 Q409.4375,449.7031 408.4844,449.7031 Q407.2656,449.7031 406.5469,451.1406 Q405.8281,452.5625 405.8281,454.75 Q405.8281,457.1563 406.4375,458.4531 Q407.0625,459.7344 408.4219,459.7344 Q409.375,459.7344 410.0625,459.0469 Q410.75,458.3438 411.0781,456.8438 L411.9844,457.25 Q411.5781,458.9531 410.6094,459.9063 Q409.6563,460.8594 408.3438,460.8594 Z "
          fill="#000000"/>
      <text fill="#000000" font-family="sans-serif" font-size="14" lengthAdjust="spacing" textLength="138" x="423"
            y="460.7969">ApplicationVerifyForm
      </text>
      <line style="stroke:#A80036;stroke-width:1.0;" x1="395" x2="563" y1="471" y2="471"/>
      <line style="stroke:#A80036;stroke-width:1.0;" x1="395" x2="563" y1="479" y2="479"/>
    </g><!--class ReportVerifyForm-->
    <g id="elem_ReportVerifyForm">
      <rect codeLine="26" fill="#FEFECE" filter="url(#f1768d0mahtkd4)" height="48" id="ReportVerifyForm"
            style="stroke:#A80036;stroke-width:1.0;" width="144" x="599" y="439"/>
      <ellipse cx="614" cy="455" fill="#ADD1B2" rx="11" ry="11" style="stroke:#A80036;stroke-width:1.0;"/>
      <path
          d="M613.3438,460.8594 Q611.3594,460.8594 610.1875,459.3906 Q609.0313,457.9063 609.0313,454.8281 Q609.0313,452.2188 610.25,450.4688 Q611.4844,448.7188 613.6094,448.7188 Q614.1094,448.7188 614.6406,448.8594 Q615.0781,449.0469 615.3438,449.0469 Q615.5625,449.0469 615.6563,449 Q615.7656,448.9531 616.2188,448.3594 L616.9844,452.0938 L616.0938,452.3594 Q615.6406,450.9063 615.0313,450.3125 Q614.4375,449.7031 613.4844,449.7031 Q612.2656,449.7031 611.5469,451.1406 Q610.8281,452.5625 610.8281,454.75 Q610.8281,457.1563 611.4375,458.4531 Q612.0625,459.7344 613.4219,459.7344 Q614.375,459.7344 615.0625,459.0469 Q615.75,458.3438 616.0781,456.8438 L616.9844,457.25 Q616.5781,458.9531 615.6094,459.9063 Q614.6563,460.8594 613.3438,460.8594 Z "
          fill="#000000"/>
      <text fill="#000000" font-family="sans-serif" font-size="14" lengthAdjust="spacing" textLength="112" x="628"
            y="460.7969">ReportVerifyForm
      </text>
      <line style="stroke:#A80036;stroke-width:1.0;" x1="600" x2="742" y1="471" y2="471"/>
      <line style="stroke:#A80036;stroke-width:1.0;" x1="600" x2="742" y1="479" y2="479"/>
    </g><!--class TestRecordsForm-->
    <g id="elem_TestRecordsForm">
      <rect codeLine="28" fill="#FEFECE" filter="url(#f1768d0mahtkd4)" height="48" id="TestRecordsForm"
            style="stroke:#A80036;stroke-width:1.0;" width="146" x="663" y="331"/>
      <ellipse cx="678" cy="347" fill="#ADD1B2" rx="11" ry="11" style="stroke:#A80036;stroke-width:1.0;"/>
      <path
          d="M677.3438,352.8594 Q675.3594,352.8594 674.1875,351.3906 Q673.0313,349.9063 673.0313,346.8281 Q673.0313,344.2188 674.25,342.4688 Q675.4844,340.7188 677.6094,340.7188 Q678.1094,340.7188 678.6406,340.8594 Q679.0781,341.0469 679.3438,341.0469 Q679.5625,341.0469 679.6563,341 Q679.7656,340.9531 680.2188,340.3594 L680.9844,344.0938 L680.0938,344.3594 Q679.6406,342.9063 679.0313,342.3125 Q678.4375,341.7031 677.4844,341.7031 Q676.2656,341.7031 675.5469,343.1406 Q674.8281,344.5625 674.8281,346.75 Q674.8281,349.1563 675.4375,350.4531 Q676.0625,351.7344 677.4219,351.7344 Q678.375,351.7344 679.0625,351.0469 Q679.75,350.3438 680.0781,348.8438 L680.9844,349.25 Q680.5781,350.9531 679.6094,351.9063 Q678.6563,352.8594 677.3438,352.8594 Z "
          fill="#000000"/>
      <text fill="#000000" font-family="sans-serif" font-size="14" lengthAdjust="spacing" textLength="114" x="692"
            y="352.7969">TestRecordsForm
      </text>
      <line style="stroke:#A80036;stroke-width:1.0;" x1="664" x2="808" y1="363" y2="363"/>
      <line style="stroke:#A80036;stroke-width:1.0;" x1="664" x2="808" y1="371" y2="371"/>
    </g><!--class TestPlanVerifyForm-->
    <g id="elem_TestPlanVerifyForm">
      <rect codeLine="31" fill="#FEFECE" filter="url(#f1768d0mahtkd4)" height="48" id="TestPlanVerifyForm"
            style="stroke:#A80036;stroke-width:1.0;" width="157" x="844.5" y="331"/>
      <ellipse cx="859.5" cy="347" fill="#ADD1B2" rx="11" ry="11" style="stroke:#A80036;stroke-width:1.0;"/>
      <path
          d="M858.8438,352.8594 Q856.8594,352.8594 855.6875,351.3906 Q854.5313,349.9063 854.5313,346.8281 Q854.5313,344.2188 855.75,342.4688 Q856.9844,340.7188 859.1094,340.7188 Q859.6094,340.7188 860.1406,340.8594 Q860.5781,341.0469 860.8438,341.0469 Q861.0625,341.0469 861.1563,341 Q861.2656,340.9531 861.7188,340.3594 L862.4844,344.0938 L861.5938,344.3594 Q861.1406,342.9063 860.5313,342.3125 Q859.9375,341.7031 858.9844,341.7031 Q857.7656,341.7031 857.0469,343.1406 Q856.3281,344.5625 856.3281,346.75 Q856.3281,349.1563 856.9375,350.4531 Q857.5625,351.7344 858.9219,351.7344 Q859.875,351.7344 860.5625,351.0469 Q861.25,350.3438 861.5781,348.8438 L862.4844,349.25 Q862.0781,350.9531 861.1094,351.9063 Q860.1563,352.8594 858.8438,352.8594 Z "
          fill="#000000"/>
      <text fill="#000000" font-family="sans-serif" font-size="14" lengthAdjust="spacing" textLength="125" x="873.5"
            y="352.7969">TestPlanVerifyForm
      </text>
      <line style="stroke:#A80036;stroke-width:1.0;" x1="845.5" x2="1000.5" y1="363" y2="363"/>
      <line style="stroke:#A80036;stroke-width:1.0;" x1="845.5" x2="1000.5" y1="371" y2="371"/>
    </g><!--class DocumentReviewForm-->
    <g id="elem_DocumentReviewForm">
      <rect codeLine="34" fill="#FEFECE" filter="url(#f1768d0mahtkd4)" height="48" id="DocumentReviewForm"
            style="stroke:#A80036;stroke-width:1.0;" width="174" x="833" y="223"/>
      <ellipse cx="848" cy="239" fill="#ADD1B2" rx="11" ry="11" style="stroke:#A80036;stroke-width:1.0;"/>
      <path
          d="M847.3438,244.8594 Q845.3594,244.8594 844.1875,243.3906 Q843.0313,241.9063 843.0313,238.8281 Q843.0313,236.2188 844.25,234.4688 Q845.4844,232.7188 847.6094,232.7188 Q848.1094,232.7188 848.6406,232.8594 Q849.0781,233.0469 849.3438,233.0469 Q849.5625,233.0469 849.6563,233 Q849.7656,232.9531 850.2188,232.3594 L850.9844,236.0938 L850.0938,236.3594 Q849.6406,234.9063 849.0313,234.3125 Q848.4375,233.7031 847.4844,233.7031 Q846.2656,233.7031 845.5469,235.1406 Q844.8281,236.5625 844.8281,238.75 Q844.8281,241.1563 845.4375,242.4531 Q846.0625,243.7344 847.4219,243.7344 Q848.375,243.7344 849.0625,243.0469 Q849.75,242.3438 850.0781,240.8438 L850.9844,241.25 Q850.5781,242.9531 849.6094,243.9063 Q848.6563,244.8594 847.3438,244.8594 Z "
          fill="#000000"/>
      <text fill="#000000" font-family="sans-serif" font-size="14" lengthAdjust="spacing" textLength="142" x="862"
            y="244.7969">DocumentReviewForm
      </text>
      <line style="stroke:#A80036;stroke-width:1.0;" x1="834" x2="1006" y1="255" y2="255"/>
      <line style="stroke:#A80036;stroke-width:1.0;" x1="834" x2="1006" y1="263" y2="263"/>
    </g><!--class TestPlanForm-->
    <g id="elem_TestPlanForm">
      <rect codeLine="37" fill="#FEFECE" filter="url(#f1768d0mahtkd4)" height="48" id="TestPlanForm"
            style="stroke:#A80036;stroke-width:1.0;" width="121" x="1042.5" y="223"/>
      <ellipse cx="1057.5" cy="239" fill="#ADD1B2" rx="11" ry="11" style="stroke:#A80036;stroke-width:1.0;"/>
      <path
          d="M1056.8438,244.8594 Q1054.8594,244.8594 1053.6875,243.3906 Q1052.5313,241.9063 1052.5313,238.8281 Q1052.5313,236.2188 1053.75,234.4688 Q1054.9844,232.7188 1057.1094,232.7188 Q1057.6094,232.7188 1058.1406,232.8594 Q1058.5781,233.0469 1058.8438,233.0469 Q1059.0625,233.0469 1059.1563,233 Q1059.2656,232.9531 1059.7188,232.3594 L1060.4844,236.0938 L1059.5938,236.3594 Q1059.1406,234.9063 1058.5313,234.3125 Q1057.9375,233.7031 1056.9844,233.7031 Q1055.7656,233.7031 1055.0469,235.1406 Q1054.3281,236.5625 1054.3281,238.75 Q1054.3281,241.1563 1054.9375,242.4531 Q1055.5625,243.7344 1056.9219,243.7344 Q1057.875,243.7344 1058.5625,243.0469 Q1059.25,242.3438 1059.5781,240.8438 L1060.4844,241.25 Q1060.0781,242.9531 1059.1094,243.9063 Q1058.1563,244.8594 1056.8438,244.8594 Z "
          fill="#000000"/>
      <text fill="#000000" font-family="sans-serif" font-size="14" lengthAdjust="spacing" textLength="89" x="1071.5"
            y="244.7969">TestPlanForm
      </text>
      <line style="stroke:#A80036;stroke-width:1.0;" x1="1043.5" x2="1162.5" y1="255" y2="255"/>
      <line style="stroke:#A80036;stroke-width:1.0;" x1="1043.5" x2="1162.5" y1="263" y2="263"/>
    </g><!--link FormIndex to Form-->
    <g id="link_FormIndex_Form">
      <path codeLine="40" d="M574,55.24 C574,55.24 574,109.84 574,109.84 " fill="none" id="FormIndex-to-Form"
            style="stroke:#A80036;stroke-width:1.0;"/>
      <polygon fill="#A80036" points="574,114.84,578,105.84,574,109.84,570,105.84,574,114.84"
               style="stroke:#A80036;stroke-width:1.0;"/>
    </g><!--reverse link Form to ApplicationForm-->
    <g id="link_Form_ApplicationForm">
      <path codeLine="42" d="M521.19,131 C521.19,131 74,131 74,131 C74,131 74,188.99 74,222.96 " fill="none"
            id="Form-backto-ApplicationForm" style="stroke:#A80036;stroke-width:1.0;"/>
      <polygon fill="none" points="521.19,124,541.19,131,521.19,138,521.19,124"
               style="stroke:#A80036;stroke-width:1.0;"/>
    </g><!--reverse link Form to TestReportForm-->
    <g id="link_Form_TestReportForm">
      <path codeLine="43" d="M552.75,183.04 C552.75,183.04 552.75,255 552.75,255 C552.75,255 401.4,255 312.03,255 "
            fill="none" id="Form-backto-TestReportForm" style="stroke:#A80036;stroke-width:1.0;"/>
      <polygon fill="none" points="545.75,183.27,552.75,163.27,559.75,183.27,545.75,183.27"
               style="stroke:#A80036;stroke-width:1.0;"/>
    </g><!--reverse link Form to TestFunctionForm-->
    <g id="link_Form_TestFunctionForm">
      <path codeLine="44" d="M521.4,147 C521.4,147 158.5,147 158.5,147 C158.5,147 158.5,275.86 158.5,330.73 "
            fill="none" id="Form-backto-TestFunctionForm" style="stroke:#A80036;stroke-width:1.0;"/>
      <polygon fill="none" points="521.4,140,541.4,147,521.4,154,521.4,140" style="stroke:#A80036;stroke-width:1.0;"/>
    </g><!--reverse link Form to TestWorkCheckForm-->
    <g id="link_Form_TestWorkCheckForm">
      <path codeLine="45" d="M552.75,183.27 C552.75,183.27 552.75,347 552.75,347 C552.75,347 520.66,347 486.2,347 "
            fill="none" id="Form-backto-TestWorkCheckForm" style="stroke:#A80036;stroke-width:1.0;"/>
      <polygon fill="none" points="545.75,183.27,552.75,163.27,559.75,183.27,545.75,183.27"
               style="stroke:#A80036;stroke-width:1.0;"/>
    </g><!--reverse link Form to ApplicationVerifyForm-->
    <g id="link_Form_ApplicationVerifyForm">
      <path codeLine="46" d="M552.75,183.09 C552.75,183.09 552.75,438.75 552.75,438.75 " fill="none"
            id="Form-backto-ApplicationVerifyForm" style="stroke:#A80036;stroke-width:1.0;"/>
      <polygon fill="none" points="545.75,183.27,552.75,163.27,559.75,183.27,545.75,183.27"
               style="stroke:#A80036;stroke-width:1.0;"/>
    </g><!--reverse link Form to ReportVerifyForm-->
    <g id="link_Form_ReportVerifyForm">
      <path codeLine="47" d="M600.88,183.09 C600.88,183.09 600.88,438.75 600.88,438.75 " fill="none"
            id="Form-backto-ReportVerifyForm" style="stroke:#A80036;stroke-width:1.0;"/>
      <polygon fill="none" points="593.88,183.09,600.88,163.09,607.88,183.09,593.88,183.09"
               style="stroke:#A80036;stroke-width:1.0;"/>
    </g><!--reverse link Form to TestRecordsForm-->
    <g id="link_Form_TestRecordsForm">
      <path codeLine="48" d="M600.88,183.4 C600.88,183.4 600.88,363 600.88,363 C600.88,363 631.79,363 662.75,363 "
            fill="none" id="Form-backto-TestRecordsForm" style="stroke:#A80036;stroke-width:1.0;"/>
      <polygon fill="none" points="593.88,183.09,600.88,163.09,607.88,183.09,593.88,183.09"
               style="stroke:#A80036;stroke-width:1.0;"/>
    </g><!--reverse link Form to TestPlanVerifyForm-->
    <g id="link_Form_TestPlanVerifyForm">
      <path codeLine="49"
            d="M626.54,147 C626.54,147 821,147 821,147 C821,147 821,355 821,355 C821,355 830.84,355 844.4,355 "
            fill="none" id="Form-backto-TestPlanVerifyForm" style="stroke:#A80036;stroke-width:1.0;"/>
      <polygon fill="none" points="626.54,154,606.54,147,626.54,140,626.54,154"
               style="stroke:#A80036;stroke-width:1.0;"/>
    </g><!--reverse link Form to DocumentReviewForm-->
    <g id="link_Form_DocumentReviewForm">
      <path codeLine="50" d="M600.88,183.21 C600.88,183.21 600.88,239 600.88,239 C600.88,239 739.64,239 832.99,239 "
            fill="none" id="Form-backto-DocumentReviewForm" style="stroke:#A80036;stroke-width:1.0;"/>
      <polygon fill="none" points="593.88,183.09,600.88,163.09,607.88,183.09,593.88,183.09"
               style="stroke:#A80036;stroke-width:1.0;"/>
    </g><!--reverse link Form to TestPlanForm-->
    <g id="link_Form_TestPlanForm">
      <path codeLine="51" d="M626.69,131 C626.69,131 1103,131 1103,131 C1103,131 1103,188.99 1103,222.96 " fill="none"
            id="Form-backto-TestPlanForm" style="stroke:#A80036;stroke-width:1.0;"/>
      <polygon fill="none" points="626.69,138,606.69,131,626.69,124,626.69,138"
               style="stroke:#A80036;stroke-width:1.0;"/>
    </g><!--SRC=[TP9DJiCm44RtFeKlu0LxLAa2HUeELQXTk-v0h2GUQ-nGAk3kE4sGxMdOHVFypSzJGcUT90mWH4YVNfCUv3lXw7Uk1R9HEmFoeO2zTH2l7YHIR548q-iGP8CqxDmPFkMN-5bgM-zxQtIqw2Py8mjwXH3tu5EBJ0hKZCxKCNqAaRI9Ceyh9asP8rBtr8Bf-AnYZKEwwEtAmlCUgsXUqo2Tmze5BxtcBHVwZ6OSmANmXuNBVzbSp_gKsjokcsloyLifBh8WjSSCr9r6pYfT1LJhlgeNt1ZlNIZZg5PMN79lZ9tv9opzABy0]-->
  </g>
</svg>