<?xml version="1.0" encoding="us-ascii" standalone="no"?><svg xmlns="http://www.w3.org/2000/svg" xmlns:xlink="http://www.w3.org/1999/xlink" contentStyleType="text/css" height="112px" preserveAspectRatio="none" style="width:701px;height:112px;background:#FFFFFF;" version="1.1" viewBox="0 0 701 112" width="701.6px" zoomAndPan="magnify"><defs><filter height="300%" id="f143diely461a3" width="300%" x="-1" y="-1"><feGaussianBlur result="blurOut" stdDeviation="0.4000000000000001"/><feColorMatrix in="blurOut" result="blurOut2" type="matrix" values="0 0 0 0 0 0 0 0 0 0 0 0 0 0 0 0 0 0 .4 0"/><feOffset dx="0.8000000000000002" dy="0.8000000000000002" in="blurOut2" result="blurOut3"/><feBlend in="SourceGraphic" in2="blurOut3" mode="normal"/></filter></defs><g><!--class GenContractDraftConfig--><g id="elem_GenContractDraftConfig"><rect codeLine="7" fill="#FEFECE" filter="url(#f143diely461a3)" height="13.3242" id="GenContractDraftConfig" style="stroke:#A80036;stroke-width:0.20000000000000004;" width="46.6" x="1.4" y="37.8"/><ellipse cx="8.72" cy="41" fill="#ADD1B2" rx="2.2" ry="2.2" style="stroke:#A80036;stroke-width:0.20000000000000004;"/><path d="M8.5888,42.1719 Q8.1919,42.1719 7.9575,41.8781 Q7.7263,41.5813 7.7263,40.9656 Q7.7263,40.4438 7.97,40.0938 Q8.2169,39.7438 8.6419,39.7438 Q8.7419,39.7438 8.8481,39.7719 Q8.9356,39.8094 8.9888,39.8094 Q9.0325,39.8094 9.0513,39.8 Q9.0731,39.7906 9.1638,39.6719 L9.3169,40.4188 L9.1388,40.4719 Q9.0481,40.1813 8.9263,40.0625 Q8.8075,39.9406 8.6169,39.9406 Q8.3731,39.9406 8.2294,40.2281 Q8.0856,40.5125 8.0856,40.95 Q8.0856,41.4313 8.2075,41.6906 Q8.3325,41.9469 8.6044,41.9469 Q8.795,41.9469 8.9325,41.8094 Q9.07,41.6688 9.1356,41.3688 L9.3169,41.45 Q9.2356,41.7906 9.0419,41.9813 Q8.8513,42.1719 8.5888,42.1719 Z " fill="#000000"/><text fill="#000000" font-family="sans-serif" font-size="2.8" lengthAdjust="spacing" textLength="30.6" x="12.48" y="42.1594">GenContractDraftConfig</text><line style="stroke:#A80036;stroke-width:0.20000000000000004;" x1="1.6" x2="47.8" y1="44.2" y2="44.2"/><line style="stroke:#A80036;stroke-width:0.20000000000000004;" x1="1.6" x2="47.8" y1="45.8" y2="45.8"/><ellipse cx="3.6" cy="48.7621" fill="#84BE84" rx="0.6" ry="0.6" style="stroke:#038048;stroke-width:0.20000000000000004;"/><text fill="#000000" font-family="sans-serif" font-size="2.8" lengthAdjust="spacing" textLength="41.4" x="5.4" y="49.6215">List&lt;String&gt; getRequiredForms()</text></g><!--class GenTestReportConfig--><g id="elem_GenTestReportConfig"><rect codeLine="10" fill="#FEFECE" filter="url(#f143diely461a3)" height="13.3242" id="GenTestReportConfig" style="stroke:#A80036;stroke-width:0.20000000000000004;" width="46.6" x="55" y="37.8"/><ellipse cx="63.58" cy="41" fill="#ADD1B2" rx="2.2" ry="2.2" style="stroke:#A80036;stroke-width:0.20000000000000004;"/><path d="M63.4488,42.1719 Q63.0519,42.1719 62.8175,41.8781 Q62.5863,41.5813 62.5863,40.9656 Q62.5863,40.4438 62.83,40.0938 Q63.0769,39.7438 63.5019,39.7438 Q63.6019,39.7438 63.7081,39.7719 Q63.7956,39.8094 63.8488,39.8094 Q63.8925,39.8094 63.9113,39.8 Q63.9331,39.7906 64.0238,39.6719 L64.1769,40.4188 L63.9988,40.4719 Q63.9081,40.1813 63.7863,40.0625 Q63.6675,39.9406 63.4769,39.9406 Q63.2331,39.9406 63.0894,40.2281 Q62.9456,40.5125 62.9456,40.95 Q62.9456,41.4313 63.0675,41.6906 Q63.1925,41.9469 63.4644,41.9469 Q63.655,41.9469 63.7925,41.8094 Q63.93,41.6688 63.9956,41.3688 L64.1769,41.45 Q64.0956,41.7906 63.9019,41.9813 Q63.7113,42.1719 63.4488,42.1719 Z " fill="#000000"/><text fill="#000000" font-family="sans-serif" font-size="2.8" lengthAdjust="spacing" textLength="27.8" x="67.62" y="42.1594">GenTestReportConfig</text><line style="stroke:#A80036;stroke-width:0.20000000000000004;" x1="55.2" x2="101.4" y1="44.2" y2="44.2"/><line style="stroke:#A80036;stroke-width:0.20000000000000004;" x1="55.2" x2="101.4" y1="45.8" y2="45.8"/><ellipse cx="57.2" cy="48.7621" fill="#84BE84" rx="0.6" ry="0.6" style="stroke:#038048;stroke-width:0.20000000000000004;"/><text fill="#000000" font-family="sans-serif" font-size="2.8" lengthAdjust="spacing" textLength="41.4" x="59" y="49.6215">List&lt;String&gt; getRequiredForms()</text></g><!--class TaskConfig--><g id="elem_TaskConfig"><rect codeLine="13" fill="#FEFECE" filter="url(#f143diely461a3)" height="24.4969" id="TaskConfig" style="stroke:#A80036;stroke-width:0.20000000000000004;" width="59" x="320.4" y="1.4"/><ellipse cx="341.75" cy="4.6" fill="#A9DCDF" rx="2.2" ry="2.2" style="stroke:#A80036;stroke-width:0.20000000000000004;"/><path d="M341.8344,4.6969 L341.3219,4.6969 L341.2156,5.1563 Q341.2031,5.2219 341.2031,5.2531 Q341.2031,5.2969 341.2125,5.3281 Q341.225,5.3594 341.2813,5.3594 L341.375,5.3594 L341.375,5.5469 L340.7781,5.5469 L340.7781,5.3594 L340.8688,5.3594 Q340.9031,5.3594 340.9281,5.3406 Q340.9531,5.3188 340.9625,5.2594 L341.4906,3.1938 L341.7719,3.1 L342.2875,5.2531 Q342.3094,5.3156 342.3344,5.3375 Q342.3625,5.3594 342.3969,5.3594 L342.4906,5.3594 L342.4906,5.5469 L341.8125,5.5469 L341.8125,5.3594 L341.9188,5.3594 Q341.9625,5.3594 341.9656,5.35 Q341.9719,5.3375 341.9719,5.3219 Q341.9719,5.2781 341.9625,5.2406 L341.8344,4.6969 Z M340.9219,5.4656 L340.9219,5.4656 Z M341.0563,5.4656 L341.0563,5.4656 Z M342,5.4656 L342,5.4656 Z M342.225,5.4656 L342.225,5.4656 Z M341.5875,3.4781 L341.6,3.4781 L341.3781,4.5094 L341.7969,4.5094 L341.5875,3.4781 Z " fill="#000000"/><text fill="#000000" font-family="sans-serif" font-size="2.8" font-style="italic" lengthAdjust="spacing" textLength="14.6" x="345.85" y="5.7594">TaskConfig</text><line style="stroke:#A80036;stroke-width:0.20000000000000004;" x1="320.6" x2="379.2" y1="7.8" y2="7.8"/><line style="stroke:#A80036;stroke-width:0.20000000000000004;" x1="320.6" x2="379.2" y1="9.4" y2="9.4"/><ellipse cx="322.6" cy="12.3621" fill="#84BE84" rx="0.6" ry="0.6" style="stroke:#038048;stroke-width:0.20000000000000004;"/><text fill="#000000" font-family="sans-serif" font-size="2.8" lengthAdjust="spacing" textLength="53.8" x="324.4" y="13.2215">boolean isCompletable(Task,FormService)</text><ellipse cx="322.6" cy="16.0863" fill="#84BE84" rx="0.6" ry="0.6" style="stroke:#038048;stroke-width:0.20000000000000004;"/><text fill="#000000" font-family="sans-serif" font-size="2.8" font-style="italic" lengthAdjust="spacing" textLength="41.4" x="324.4" y="16.9457">List&lt;String&gt; getRequiredForms()</text><ellipse cx="322.6" cy="19.8105" fill="#84BE84" rx="0.6" ry="0.6" style="stroke:#038048;stroke-width:0.20000000000000004;"/><text fill="#000000" font-family="sans-serif" font-size="2.8" lengthAdjust="spacing" textLength="30.4" x="324.4" y="20.6699">String getEmailSubject()</text><ellipse cx="322.6" cy="23.5348" fill="#84BE84" rx="0.6" ry="0.6" style="stroke:#038048;stroke-width:0.20000000000000004;"/><text fill="#000000" font-family="sans-serif" font-size="2.8" lengthAdjust="spacing" textLength="50.6" x="324.4" y="24.3941">String getEmailText(Map&lt;String,String&gt;)</text></g><!--class ArchiveConfig--><g id="elem_ArchiveConfig"><rect codeLine="19" fill="#FEFECE" filter="url(#f143diely461a3)" height="13.3242" id="ArchiveConfig" style="stroke:#A80036;stroke-width:0.20000000000000004;" width="46.6" x="108.6" y="37.8"/><ellipse cx="122.25" cy="41" fill="#ADD1B2" rx="2.2" ry="2.2" style="stroke:#A80036;stroke-width:0.20000000000000004;"/><path d="M122.1188,42.1719 Q121.7219,42.1719 121.4875,41.8781 Q121.2563,41.5813 121.2563,40.9656 Q121.2563,40.4438 121.5,40.0938 Q121.7469,39.7438 122.1719,39.7438 Q122.2719,39.7438 122.3781,39.7719 Q122.4656,39.8094 122.5188,39.8094 Q122.5625,39.8094 122.5813,39.8 Q122.6031,39.7906 122.6938,39.6719 L122.8469,40.4188 L122.6688,40.4719 Q122.5781,40.1813 122.4563,40.0625 Q122.3375,39.9406 122.1469,39.9406 Q121.9031,39.9406 121.7594,40.2281 Q121.6156,40.5125 121.6156,40.95 Q121.6156,41.4313 121.7375,41.6906 Q121.8625,41.9469 122.1344,41.9469 Q122.325,41.9469 122.4625,41.8094 Q122.6,41.6688 122.6656,41.3688 L122.8469,41.45 Q122.7656,41.7906 122.5719,41.9813 Q122.3813,42.1719 122.1188,42.1719 Z " fill="#000000"/><text fill="#000000" font-family="sans-serif" font-size="2.8" lengthAdjust="spacing" textLength="17.6" x="126.35" y="42.1594">ArchiveConfig</text><line style="stroke:#A80036;stroke-width:0.20000000000000004;" x1="108.8" x2="155" y1="44.2" y2="44.2"/><line style="stroke:#A80036;stroke-width:0.20000000000000004;" x1="108.8" x2="155" y1="45.8" y2="45.8"/><ellipse cx="110.8" cy="48.7621" fill="#84BE84" rx="0.6" ry="0.6" style="stroke:#038048;stroke-width:0.20000000000000004;"/><text fill="#000000" font-family="sans-serif" font-size="2.8" lengthAdjust="spacing" textLength="41.4" x="112.6" y="49.6215">List&lt;String&gt; getRequiredForms()</text></g><!--class ModifyQuotationConfig--><g id="elem_ModifyQuotationConfig"><rect codeLine="22" fill="#FEFECE" filter="url(#f143diely461a3)" height="13.3242" id="ModifyQuotationConfig" style="stroke:#A80036;stroke-width:0.20000000000000004;" width="46.6" x="162.2" y="37.8"/><ellipse cx="170.33" cy="41" fill="#ADD1B2" rx="2.2" ry="2.2" style="stroke:#A80036;stroke-width:0.20000000000000004;"/><path d="M170.1988,42.1719 Q169.8019,42.1719 169.5675,41.8781 Q169.3363,41.5813 169.3363,40.9656 Q169.3363,40.4438 169.58,40.0938 Q169.8269,39.7438 170.2519,39.7438 Q170.3519,39.7438 170.4581,39.7719 Q170.5456,39.8094 170.5988,39.8094 Q170.6425,39.8094 170.6613,39.8 Q170.6831,39.7906 170.7738,39.6719 L170.9269,40.4188 L170.7488,40.4719 Q170.6581,40.1813 170.5363,40.0625 Q170.4175,39.9406 170.2269,39.9406 Q169.9831,39.9406 169.8394,40.2281 Q169.6956,40.5125 169.6956,40.95 Q169.6956,41.4313 169.8175,41.6906 Q169.9425,41.9469 170.2144,41.9469 Q170.405,41.9469 170.5425,41.8094 Q170.68,41.6688 170.7456,41.3688 L170.9269,41.45 Q170.8456,41.7906 170.6519,41.9813 Q170.4613,42.1719 170.1988,42.1719 Z " fill="#000000"/><text fill="#000000" font-family="sans-serif" font-size="2.8" lengthAdjust="spacing" textLength="28.8" x="174.27" y="42.1594">ModifyQuotationConfig</text><line style="stroke:#A80036;stroke-width:0.20000000000000004;" x1="162.4" x2="208.6" y1="44.2" y2="44.2"/><line style="stroke:#A80036;stroke-width:0.20000000000000004;" x1="162.4" x2="208.6" y1="45.8" y2="45.8"/><ellipse cx="164.4" cy="48.7621" fill="#84BE84" rx="0.6" ry="0.6" style="stroke:#038048;stroke-width:0.20000000000000004;"/><text fill="#000000" font-family="sans-serif" font-size="2.8" lengthAdjust="spacing" textLength="41.4" x="166.2" y="49.6215">List&lt;String&gt; getRequiredForms()</text></g><!--class ModifyContractDraftConfig--><g id="elem_ModifyContractDraftConfig"><rect codeLine="25" fill="#FEFECE" filter="url(#f143diely461a3)" height="13.3242" id="ModifyContractDraftConfig" style="stroke:#A80036;stroke-width:0.20000000000000004;" width="46.6" x="55.6" y="65"/><ellipse cx="61.66" cy="68.2" fill="#ADD1B2" rx="2.2" ry="2.2" style="stroke:#A80036;stroke-width:0.20000000000000004;"/><path d="M61.5288,69.3719 Q61.1319,69.3719 60.8975,69.0781 Q60.6663,68.7813 60.6663,68.1656 Q60.6663,67.6438 60.91,67.2938 Q61.1569,66.9438 61.5819,66.9438 Q61.6819,66.9438 61.7881,66.9719 Q61.8756,67.0094 61.9288,67.0094 Q61.9725,67.0094 61.9913,67 Q62.0131,66.9906 62.1038,66.8719 L62.2569,67.6188 L62.0788,67.6719 Q61.9881,67.3813 61.8663,67.2625 Q61.7475,67.1406 61.5569,67.1406 Q61.3131,67.1406 61.1694,67.4281 Q61.0256,67.7125 61.0256,68.15 Q61.0256,68.6313 61.1475,68.8906 Q61.2725,69.1469 61.5444,69.1469 Q61.735,69.1469 61.8725,69.0094 Q62.01,68.8688 62.0756,68.5688 L62.2569,68.65 Q62.1756,68.9906 61.9819,69.1813 Q61.7913,69.3719 61.5288,69.3719 Z " fill="#000000"/><text fill="#000000" font-family="sans-serif" font-size="2.8" lengthAdjust="spacing" textLength="33.4" x="65.14" y="69.3594">ModifyContractDraftConfig</text><line style="stroke:#A80036;stroke-width:0.20000000000000004;" x1="55.8" x2="102" y1="71.4" y2="71.4"/><line style="stroke:#A80036;stroke-width:0.20000000000000004;" x1="55.8" x2="102" y1="73" y2="73"/><ellipse cx="57.8" cy="75.9621" fill="#84BE84" rx="0.6" ry="0.6" style="stroke:#038048;stroke-width:0.20000000000000004;"/><text fill="#000000" font-family="sans-serif" font-size="2.8" lengthAdjust="spacing" textLength="41.4" x="59.6" y="76.8215">List&lt;String&gt; getRequiredForms()</text></g><!--class VerifySampleConfig--><g id="elem_VerifySampleConfig"><rect codeLine="28" fill="#FEFECE" filter="url(#f143diely461a3)" height="13.3242" id="VerifySampleConfig" style="stroke:#A80036;stroke-width:0.20000000000000004;" width="46.6" x="109.2" y="65"/><ellipse cx="119.25" cy="68.2" fill="#ADD1B2" rx="2.2" ry="2.2" style="stroke:#A80036;stroke-width:0.20000000000000004;"/><path d="M119.1188,69.3719 Q118.7219,69.3719 118.4875,69.0781 Q118.2563,68.7813 118.2563,68.1656 Q118.2563,67.6438 118.5,67.2938 Q118.7469,66.9438 119.1719,66.9438 Q119.2719,66.9438 119.3781,66.9719 Q119.4656,67.0094 119.5188,67.0094 Q119.5625,67.0094 119.5813,67 Q119.6031,66.9906 119.6938,66.8719 L119.8469,67.6188 L119.6688,67.6719 Q119.5781,67.3813 119.4563,67.2625 Q119.3375,67.1406 119.1469,67.1406 Q118.9031,67.1406 118.7594,67.4281 Q118.6156,67.7125 118.6156,68.15 Q118.6156,68.6313 118.7375,68.8906 Q118.8625,69.1469 119.1344,69.1469 Q119.325,69.1469 119.4625,69.0094 Q119.6,68.8688 119.6656,68.5688 L119.8469,68.65 Q119.7656,68.9906 119.5719,69.1813 Q119.3813,69.3719 119.1188,69.3719 Z " fill="#000000"/><text fill="#000000" font-family="sans-serif" font-size="2.8" lengthAdjust="spacing" textLength="24.8" x="123.35" y="69.3594">VerifySampleConfig</text><line style="stroke:#A80036;stroke-width:0.20000000000000004;" x1="109.4" x2="155.6" y1="71.4" y2="71.4"/><line style="stroke:#A80036;stroke-width:0.20000000000000004;" x1="109.4" x2="155.6" y1="73" y2="73"/><ellipse cx="111.4" cy="75.9621" fill="#84BE84" rx="0.6" ry="0.6" style="stroke:#038048;stroke-width:0.20000000000000004;"/><text fill="#000000" font-family="sans-serif" font-size="2.8" lengthAdjust="spacing" textLength="41.4" x="113.2" y="76.8215">List&lt;String&gt; getRequiredForms()</text></g><!--class AssignMarketingOperatorConfig--><g id="elem_AssignMarketingOperatorConfig"><rect codeLine="31" fill="#FEFECE" filter="url(#f143diely461a3)" height="17.0484" id="AssignMarketingOperatorConfig" style="stroke:#A80036;stroke-width:0.20000000000000004;" width="59" x="162.8" y="63.2"/><ellipse cx="171.29" cy="66.4" fill="#ADD1B2" rx="2.2" ry="2.2" style="stroke:#A80036;stroke-width:0.20000000000000004;"/><path d="M171.1588,67.5719 Q170.7619,67.5719 170.5275,67.2781 Q170.2963,66.9813 170.2963,66.3656 Q170.2963,65.8438 170.54,65.4938 Q170.7869,65.1438 171.2119,65.1438 Q171.3119,65.1438 171.4181,65.1719 Q171.5056,65.2094 171.5588,65.2094 Q171.6025,65.2094 171.6213,65.2 Q171.6431,65.1906 171.7338,65.0719 L171.8869,65.8188 L171.7088,65.8719 Q171.6181,65.5813 171.4963,65.4625 Q171.3775,65.3406 171.1869,65.3406 Q170.9431,65.3406 170.7994,65.6281 Q170.6556,65.9125 170.6556,66.35 Q170.6556,66.8313 170.7775,67.0906 Q170.9025,67.3469 171.1744,67.3469 Q171.365,67.3469 171.5025,67.2094 Q171.64,67.0688 171.7056,66.7688 L171.8869,66.85 Q171.8056,67.1906 171.6119,67.3813 Q171.4213,67.5719 171.1588,67.5719 Z " fill="#000000"/><text fill="#000000" font-family="sans-serif" font-size="2.8" lengthAdjust="spacing" textLength="40.4" x="175.31" y="67.5594">AssignMarketingOperatorConfig</text><line style="stroke:#A80036;stroke-width:0.20000000000000004;" x1="163" x2="221.6" y1="69.6" y2="69.6"/><line style="stroke:#A80036;stroke-width:0.20000000000000004;" x1="163" x2="221.6" y1="71.2" y2="71.2"/><ellipse cx="165" cy="74.1621" fill="#84BE84" rx="0.6" ry="0.6" style="stroke:#038048;stroke-width:0.20000000000000004;"/><text fill="#000000" font-family="sans-serif" font-size="2.8" lengthAdjust="spacing" textLength="53.8" x="166.8" y="75.0215">boolean isCompletable(Task,FormService)</text><ellipse cx="165" cy="77.8863" fill="#84BE84" rx="0.6" ry="0.6" style="stroke:#038048;stroke-width:0.20000000000000004;"/><text fill="#000000" font-family="sans-serif" font-size="2.8" lengthAdjust="spacing" textLength="41.4" x="166.8" y="78.7457">List&lt;String&gt; getRequiredForms()</text></g><!--class VerifyContractDraftConfig--><g id="elem_VerifyContractDraftConfig"><rect codeLine="35" fill="#FEFECE" filter="url(#f143diely461a3)" height="13.3242" id="VerifyContractDraftConfig" style="stroke:#A80036;stroke-width:0.20000000000000004;" width="46.6" x="228.8" y="65"/><ellipse cx="235.31" cy="68.2" fill="#ADD1B2" rx="2.2" ry="2.2" style="stroke:#A80036;stroke-width:0.20000000000000004;"/><path d="M235.1788,69.3719 Q234.7819,69.3719 234.5475,69.0781 Q234.3163,68.7813 234.3163,68.1656 Q234.3163,67.6438 234.56,67.2938 Q234.8069,66.9438 235.2319,66.9438 Q235.3319,66.9438 235.4381,66.9719 Q235.5256,67.0094 235.5788,67.0094 Q235.6225,67.0094 235.6413,67 Q235.6631,66.9906 235.7538,66.8719 L235.9069,67.6188 L235.7288,67.6719 Q235.6381,67.3813 235.5163,67.2625 Q235.3975,67.1406 235.2069,67.1406 Q234.9631,67.1406 234.8194,67.4281 Q234.6756,67.7125 234.6756,68.15 Q234.6756,68.6313 234.7975,68.8906 Q234.9225,69.1469 235.1944,69.1469 Q235.385,69.1469 235.5225,69.0094 Q235.66,68.8688 235.7256,68.5688 L235.9069,68.65 Q235.8256,68.9906 235.6319,69.1813 Q235.4413,69.3719 235.1788,69.3719 Z " fill="#000000"/><text fill="#000000" font-family="sans-serif" font-size="2.8" lengthAdjust="spacing" textLength="32.4" x="238.89" y="69.3594">VerifyContractDraftConfig</text><line style="stroke:#A80036;stroke-width:0.20000000000000004;" x1="229" x2="275.2" y1="71.4" y2="71.4"/><line style="stroke:#A80036;stroke-width:0.20000000000000004;" x1="229" x2="275.2" y1="73" y2="73"/><ellipse cx="231" cy="75.9621" fill="#84BE84" rx="0.6" ry="0.6" style="stroke:#038048;stroke-width:0.20000000000000004;"/><text fill="#000000" font-family="sans-serif" font-size="2.8" lengthAdjust="spacing" textLength="41.4" x="232.8" y="76.8215">List&lt;String&gt; getRequiredForms()</text></g><!--class FillOutAppFormConfig--><g id="elem_FillOutAppFormConfig"><rect codeLine="38" fill="#FEFECE" filter="url(#f143diely461a3)" height="13.3242" id="FillOutAppFormConfig" style="stroke:#A80036;stroke-width:0.20000000000000004;" width="46.6" x="85.6" y="94"/><ellipse cx="94.09" cy="97.2" fill="#ADD1B2" rx="2.2" ry="2.2" style="stroke:#A80036;stroke-width:0.20000000000000004;"/><path d="M93.9588,98.3719 Q93.5619,98.3719 93.3275,98.0781 Q93.0963,97.7813 93.0963,97.1656 Q93.0963,96.6438 93.34,96.2938 Q93.5869,95.9438 94.0119,95.9438 Q94.1119,95.9438 94.2181,95.9719 Q94.3056,96.0094 94.3588,96.0094 Q94.4025,96.0094 94.4213,96 Q94.4431,95.9906 94.5338,95.8719 L94.6869,96.6188 L94.5088,96.6719 Q94.4181,96.3813 94.2963,96.2625 Q94.1775,96.1406 93.9869,96.1406 Q93.7431,96.1406 93.5994,96.4281 Q93.4556,96.7125 93.4556,97.15 Q93.4556,97.6313 93.5775,97.8906 Q93.7025,98.1469 93.9744,98.1469 Q94.165,98.1469 94.3025,98.0094 Q94.44,97.8688 94.5056,97.5688 L94.6869,97.65 Q94.6056,97.9906 94.4119,98.1813 Q94.2213,98.3719 93.9588,98.3719 Z " fill="#000000"/><text fill="#000000" font-family="sans-serif" font-size="2.8" lengthAdjust="spacing" textLength="28" x="98.11" y="98.3594">FillOutAppFormConfig</text><line style="stroke:#A80036;stroke-width:0.20000000000000004;" x1="85.8" x2="132" y1="100.4" y2="100.4"/><line style="stroke:#A80036;stroke-width:0.20000000000000004;" x1="85.8" x2="132" y1="102" y2="102"/><ellipse cx="87.8" cy="104.9621" fill="#84BE84" rx="0.6" ry="0.6" style="stroke:#038048;stroke-width:0.20000000000000004;"/><text fill="#000000" font-family="sans-serif" font-size="2.8" lengthAdjust="spacing" textLength="41.4" x="89.6" y="105.8215">List&lt;String&gt; getRequiredForms()</text></g><!--class ConfirmTestReportConfig--><g id="elem_ConfirmTestReportConfig"><rect codeLine="41" fill="#FEFECE" filter="url(#f143diely461a3)" height="13.3242" id="ConfirmTestReportConfig" style="stroke:#A80036;stroke-width:0.20000000000000004;" width="46.6" x="139.2" y="94"/><ellipse cx="145.8" cy="97.2" fill="#ADD1B2" rx="2.2" ry="2.2" style="stroke:#A80036;stroke-width:0.20000000000000004;"/><path d="M145.6688,98.3719 Q145.2719,98.3719 145.0375,98.0781 Q144.8063,97.7813 144.8063,97.1656 Q144.8063,96.6438 145.05,96.2938 Q145.2969,95.9438 145.7219,95.9438 Q145.8219,95.9438 145.9281,95.9719 Q146.0156,96.0094 146.0688,96.0094 Q146.1125,96.0094 146.1313,96 Q146.1531,95.9906 146.2438,95.8719 L146.3969,96.6188 L146.2188,96.6719 Q146.1281,96.3813 146.0063,96.2625 Q145.8875,96.1406 145.6969,96.1406 Q145.4531,96.1406 145.3094,96.4281 Q145.1656,96.7125 145.1656,97.15 Q145.1656,97.6313 145.2875,97.8906 Q145.4125,98.1469 145.6844,98.1469 Q145.875,98.1469 146.0125,98.0094 Q146.15,97.8688 146.2156,97.5688 L146.3969,97.65 Q146.3156,97.9906 146.1219,98.1813 Q145.9313,98.3719 145.6688,98.3719 Z " fill="#000000"/><text fill="#000000" font-family="sans-serif" font-size="2.8" lengthAdjust="spacing" textLength="32.2" x="149.4" y="98.3594">ConfirmTestReportConfig</text><line style="stroke:#A80036;stroke-width:0.20000000000000004;" x1="139.4" x2="185.6" y1="100.4" y2="100.4"/><line style="stroke:#A80036;stroke-width:0.20000000000000004;" x1="139.4" x2="185.6" y1="102" y2="102"/><ellipse cx="141.4" cy="104.9621" fill="#84BE84" rx="0.6" ry="0.6" style="stroke:#038048;stroke-width:0.20000000000000004;"/><text fill="#000000" font-family="sans-serif" font-size="2.8" lengthAdjust="spacing" textLength="41.4" x="143.2" y="105.8215">List&lt;String&gt; getRequiredForms()</text></g><!--class VerifyApplicationConfig--><g id="elem_VerifyApplicationConfig"><rect codeLine="44" fill="#FEFECE" filter="url(#f143diely461a3)" height="13.3242" id="VerifyApplicationConfig" style="stroke:#A80036;stroke-width:0.20000000000000004;" width="46.6" x="192.8" y="94"/><ellipse cx="200.75" cy="97.2" fill="#ADD1B2" rx="2.2" ry="2.2" style="stroke:#A80036;stroke-width:0.20000000000000004;"/><path d="M200.6188,98.3719 Q200.2219,98.3719 199.9875,98.0781 Q199.7563,97.7813 199.7563,97.1656 Q199.7563,96.6438 200,96.2938 Q200.2469,95.9438 200.6719,95.9438 Q200.7719,95.9438 200.8781,95.9719 Q200.9656,96.0094 201.0188,96.0094 Q201.0625,96.0094 201.0813,96 Q201.1031,95.9906 201.1938,95.8719 L201.3469,96.6188 L201.1688,96.6719 Q201.0781,96.3813 200.9563,96.2625 Q200.8375,96.1406 200.6469,96.1406 Q200.4031,96.1406 200.2594,96.4281 Q200.1156,96.7125 200.1156,97.15 Q200.1156,97.6313 200.2375,97.8906 Q200.3625,98.1469 200.6344,98.1469 Q200.825,98.1469 200.9625,98.0094 Q201.1,97.8688 201.1656,97.5688 L201.3469,97.65 Q201.2656,97.9906 201.0719,98.1813 Q200.8813,98.3719 200.6188,98.3719 Z " fill="#000000"/><text fill="#000000" font-family="sans-serif" font-size="2.8" lengthAdjust="spacing" textLength="29.2" x="204.65" y="98.3594">VerifyApplicationConfig</text><line style="stroke:#A80036;stroke-width:0.20000000000000004;" x1="193" x2="239.2" y1="100.4" y2="100.4"/><line style="stroke:#A80036;stroke-width:0.20000000000000004;" x1="193" x2="239.2" y1="102" y2="102"/><ellipse cx="195" cy="104.9621" fill="#84BE84" rx="0.6" ry="0.6" style="stroke:#038048;stroke-width:0.20000000000000004;"/><text fill="#000000" font-family="sans-serif" font-size="2.8" lengthAdjust="spacing" textLength="41.4" x="196.8" y="105.8215">List&lt;String&gt; getRequiredForms()</text></g><!--class ReUploadSampleConfig--><g id="elem_ReUploadSampleConfig"><rect codeLine="47" fill="#FEFECE" filter="url(#f143diely461a3)" height="13.3242" id="ReUploadSampleConfig" style="stroke:#A80036;stroke-width:0.20000000000000004;" width="46.6" x="246.4" y="94"/><ellipse cx="253.99" cy="97.2" fill="#ADD1B2" rx="2.2" ry="2.2" style="stroke:#A80036;stroke-width:0.20000000000000004;"/><path d="M253.8588,98.3719 Q253.4619,98.3719 253.2275,98.0781 Q252.9963,97.7813 252.9963,97.1656 Q252.9963,96.6438 253.24,96.2938 Q253.4869,95.9438 253.9119,95.9438 Q254.0119,95.9438 254.1181,95.9719 Q254.2056,96.0094 254.2588,96.0094 Q254.3025,96.0094 254.3213,96 Q254.3431,95.9906 254.4338,95.8719 L254.5869,96.6188 L254.4088,96.6719 Q254.3181,96.3813 254.1963,96.2625 Q254.0775,96.1406 253.8869,96.1406 Q253.6431,96.1406 253.4994,96.4281 Q253.3556,96.7125 253.3556,97.15 Q253.3556,97.6313 253.4775,97.8906 Q253.6025,98.1469 253.8744,98.1469 Q254.065,98.1469 254.2025,98.0094 Q254.34,97.8688 254.4056,97.5688 L254.5869,97.65 Q254.5056,97.9906 254.3119,98.1813 Q254.1213,98.3719 253.8588,98.3719 Z " fill="#000000"/><text fill="#000000" font-family="sans-serif" font-size="2.8" lengthAdjust="spacing" textLength="30" x="257.81" y="98.3594">ReUploadSampleConfig</text><line style="stroke:#A80036;stroke-width:0.20000000000000004;" x1="246.6" x2="292.8" y1="100.4" y2="100.4"/><line style="stroke:#A80036;stroke-width:0.20000000000000004;" x1="246.6" x2="292.8" y1="102" y2="102"/><ellipse cx="248.6" cy="104.9621" fill="#84BE84" rx="0.6" ry="0.6" style="stroke:#038048;stroke-width:0.20000000000000004;"/><text fill="#000000" font-family="sans-serif" font-size="2.8" lengthAdjust="spacing" textLength="41.4" x="250.4" y="105.8215">List&lt;String&gt; getRequiredForms()</text></g><!--class VerifyQuotationConfig--><g id="elem_VerifyQuotationConfig"><rect codeLine="50" fill="#FEFECE" filter="url(#f143diely461a3)" height="13.3242" id="VerifyQuotationConfig" style="stroke:#A80036;stroke-width:0.20000000000000004;" width="46.6" x="300" y="94"/><ellipse cx="308.58" cy="97.2" fill="#ADD1B2" rx="2.2" ry="2.2" style="stroke:#A80036;stroke-width:0.20000000000000004;"/><path d="M308.4488,98.3719 Q308.0519,98.3719 307.8175,98.0781 Q307.5863,97.7813 307.5863,97.1656 Q307.5863,96.6438 307.83,96.2938 Q308.0769,95.9438 308.5019,95.9438 Q308.6019,95.9438 308.7081,95.9719 Q308.7956,96.0094 308.8488,96.0094 Q308.8925,96.0094 308.9113,96 Q308.9331,95.9906 309.0238,95.8719 L309.1769,96.6188 L308.9988,96.6719 Q308.9081,96.3813 308.7863,96.2625 Q308.6675,96.1406 308.4769,96.1406 Q308.2331,96.1406 308.0894,96.4281 Q307.9456,96.7125 307.9456,97.15 Q307.9456,97.6313 308.0675,97.8906 Q308.1925,98.1469 308.4644,98.1469 Q308.655,98.1469 308.7925,98.0094 Q308.93,97.8688 308.9956,97.5688 L309.1769,97.65 Q309.0956,97.9906 308.9019,98.1813 Q308.7113,98.3719 308.4488,98.3719 Z " fill="#000000"/><text fill="#000000" font-family="sans-serif" font-size="2.8" lengthAdjust="spacing" textLength="27.8" x="312.62" y="98.3594">VerifyQuotationConfig</text><line style="stroke:#A80036;stroke-width:0.20000000000000004;" x1="300.2" x2="346.4" y1="100.4" y2="100.4"/><line style="stroke:#A80036;stroke-width:0.20000000000000004;" x1="300.2" x2="346.4" y1="102" y2="102"/><ellipse cx="302.2" cy="104.9621" fill="#84BE84" rx="0.6" ry="0.6" style="stroke:#038048;stroke-width:0.20000000000000004;"/><text fill="#000000" font-family="sans-serif" font-size="2.8" lengthAdjust="spacing" textLength="41.4" x="304" y="105.8215">List&lt;String&gt; getRequiredForms()</text></g><!--class VerifyTestReportConfig--><g id="elem_VerifyTestReportConfig"><rect codeLine="53" fill="#FEFECE" filter="url(#f143diely461a3)" height="13.3242" id="VerifyTestReportConfig" style="stroke:#A80036;stroke-width:0.20000000000000004;" width="46.6" x="353.6" y="94"/><ellipse cx="361.37" cy="97.2" fill="#ADD1B2" rx="2.2" ry="2.2" style="stroke:#A80036;stroke-width:0.20000000000000004;"/><path d="M361.2388,98.3719 Q360.8419,98.3719 360.6075,98.0781 Q360.3763,97.7813 360.3763,97.1656 Q360.3763,96.6438 360.62,96.2938 Q360.8669,95.9438 361.2919,95.9438 Q361.3919,95.9438 361.4981,95.9719 Q361.5856,96.0094 361.6388,96.0094 Q361.6825,96.0094 361.7013,96 Q361.7231,95.9906 361.8138,95.8719 L361.9669,96.6188 L361.7888,96.6719 Q361.6981,96.3813 361.5763,96.2625 Q361.4575,96.1406 361.2669,96.1406 Q361.0231,96.1406 360.8794,96.4281 Q360.7356,96.7125 360.7356,97.15 Q360.7356,97.6313 360.8575,97.8906 Q360.9825,98.1469 361.2544,98.1469 Q361.445,98.1469 361.5825,98.0094 Q361.72,97.8688 361.7856,97.5688 L361.9669,97.65 Q361.8856,97.9906 361.6919,98.1813 Q361.5013,98.3719 361.2388,98.3719 Z " fill="#000000"/><text fill="#000000" font-family="sans-serif" font-size="2.8" lengthAdjust="spacing" textLength="29.6" x="365.23" y="98.3594">VerifyTestReportConfig</text><line style="stroke:#A80036;stroke-width:0.20000000000000004;" x1="353.8" x2="400" y1="100.4" y2="100.4"/><line style="stroke:#A80036;stroke-width:0.20000000000000004;" x1="353.8" x2="400" y1="102" y2="102"/><ellipse cx="355.8" cy="104.9621" fill="#84BE84" rx="0.6" ry="0.6" style="stroke:#038048;stroke-width:0.20000000000000004;"/><text fill="#000000" font-family="sans-serif" font-size="2.8" lengthAdjust="spacing" textLength="41.4" x="357.6" y="105.8215">List&lt;String&gt; getRequiredForms()</text></g><!--class GenTestPlanConfig--><g id="elem_GenTestPlanConfig"><rect codeLine="56" fill="#FEFECE" filter="url(#f143diely461a3)" height="13.3242" id="GenTestPlanConfig" style="stroke:#A80036;stroke-width:0.20000000000000004;" width="46.6" x="407.2" y="94"/><ellipse cx="417.25" cy="97.2" fill="#ADD1B2" rx="2.2" ry="2.2" style="stroke:#A80036;stroke-width:0.20000000000000004;"/><path d="M417.1188,98.3719 Q416.7219,98.3719 416.4875,98.0781 Q416.2563,97.7813 416.2563,97.1656 Q416.2563,96.6438 416.5,96.2938 Q416.7469,95.9438 417.1719,95.9438 Q417.2719,95.9438 417.3781,95.9719 Q417.4656,96.0094 417.5188,96.0094 Q417.5625,96.0094 417.5813,96 Q417.6031,95.9906 417.6938,95.8719 L417.8469,96.6188 L417.6688,96.6719 Q417.5781,96.3813 417.4563,96.2625 Q417.3375,96.1406 417.1469,96.1406 Q416.9031,96.1406 416.7594,96.4281 Q416.6156,96.7125 416.6156,97.15 Q416.6156,97.6313 416.7375,97.8906 Q416.8625,98.1469 417.1344,98.1469 Q417.325,98.1469 417.4625,98.0094 Q417.6,97.8688 417.6656,97.5688 L417.8469,97.65 Q417.7656,97.9906 417.5719,98.1813 Q417.3813,98.3719 417.1188,98.3719 Z " fill="#000000"/><text fill="#000000" font-family="sans-serif" font-size="2.8" lengthAdjust="spacing" textLength="24.8" x="421.35" y="98.3594">GenTestPlanConfig</text><line style="stroke:#A80036;stroke-width:0.20000000000000004;" x1="407.4" x2="453.6" y1="100.4" y2="100.4"/><line style="stroke:#A80036;stroke-width:0.20000000000000004;" x1="407.4" x2="453.6" y1="102" y2="102"/><ellipse cx="409.4" cy="104.9621" fill="#84BE84" rx="0.6" ry="0.6" style="stroke:#038048;stroke-width:0.20000000000000004;"/><text fill="#000000" font-family="sans-serif" font-size="2.8" lengthAdjust="spacing" textLength="41.4" x="411.2" y="105.8215">List&lt;String&gt; getRequiredForms()</text></g><!--class SendTestReportConfig--><g id="elem_SendTestReportConfig"><rect codeLine="59" fill="#FEFECE" filter="url(#f143diely461a3)" height="13.3242" id="SendTestReportConfig" style="stroke:#A80036;stroke-width:0.20000000000000004;" width="46.6" x="460.8" y="94"/><ellipse cx="468.84" cy="97.2" fill="#ADD1B2" rx="2.2" ry="2.2" style="stroke:#A80036;stroke-width:0.20000000000000004;"/><path d="M468.7088,98.3719 Q468.3119,98.3719 468.0775,98.0781 Q467.8463,97.7813 467.8463,97.1656 Q467.8463,96.6438 468.09,96.2938 Q468.3369,95.9438 468.7619,95.9438 Q468.8619,95.9438 468.9681,95.9719 Q469.0556,96.0094 469.1088,96.0094 Q469.1525,96.0094 469.1713,96 Q469.1931,95.9906 469.2838,95.8719 L469.4369,96.6188 L469.2588,96.6719 Q469.1681,96.3813 469.0463,96.2625 Q468.9275,96.1406 468.7369,96.1406 Q468.4931,96.1406 468.3494,96.4281 Q468.2056,96.7125 468.2056,97.15 Q468.2056,97.6313 468.3275,97.8906 Q468.4525,98.1469 468.7244,98.1469 Q468.915,98.1469 469.0525,98.0094 Q469.19,97.8688 469.2556,97.5688 L469.4369,97.65 Q469.3556,97.9906 469.1619,98.1813 Q468.9713,98.3719 468.7088,98.3719 Z " fill="#000000"/><text fill="#000000" font-family="sans-serif" font-size="2.8" lengthAdjust="spacing" textLength="29" x="472.76" y="98.3594">SendTestReportConfig</text><line style="stroke:#A80036;stroke-width:0.20000000000000004;" x1="461" x2="507.2" y1="100.4" y2="100.4"/><line style="stroke:#A80036;stroke-width:0.20000000000000004;" x1="461" x2="507.2" y1="102" y2="102"/><ellipse cx="463" cy="104.9621" fill="#84BE84" rx="0.6" ry="0.6" style="stroke:#038048;stroke-width:0.20000000000000004;"/><text fill="#000000" font-family="sans-serif" font-size="2.8" lengthAdjust="spacing" textLength="41.4" x="464.8" y="105.8215">List&lt;String&gt; getRequiredForms()</text></g><!--class VerifyTestPlanConfig--><g id="elem_VerifyTestPlanConfig"><rect codeLine="62" fill="#FEFECE" filter="url(#f143diely461a3)" height="13.3242" id="VerifyTestPlanConfig" style="stroke:#A80036;stroke-width:0.20000000000000004;" width="46.6" x="514.4" y="94"/><ellipse cx="523.55" cy="97.2" fill="#ADD1B2" rx="2.2" ry="2.2" style="stroke:#A80036;stroke-width:0.20000000000000004;"/><path d="M523.4188,98.3719 Q523.0219,98.3719 522.7875,98.0781 Q522.5563,97.7813 522.5563,97.1656 Q522.5563,96.6438 522.8,96.2938 Q523.0469,95.9438 523.4719,95.9438 Q523.5719,95.9438 523.6781,95.9719 Q523.7656,96.0094 523.8188,96.0094 Q523.8625,96.0094 523.8813,96 Q523.9031,95.9906 523.9938,95.8719 L524.1469,96.6188 L523.9688,96.6719 Q523.8781,96.3813 523.7563,96.2625 Q523.6375,96.1406 523.4469,96.1406 Q523.2031,96.1406 523.0594,96.4281 Q522.9156,96.7125 522.9156,97.15 Q522.9156,97.6313 523.0375,97.8906 Q523.1625,98.1469 523.4344,98.1469 Q523.625,98.1469 523.7625,98.0094 Q523.9,97.8688 523.9656,97.5688 L524.1469,97.65 Q524.0656,97.9906 523.8719,98.1813 Q523.6813,98.3719 523.4188,98.3719 Z " fill="#000000"/><text fill="#000000" font-family="sans-serif" font-size="2.8" lengthAdjust="spacing" textLength="26.6" x="527.65" y="98.3594">VerifyTestPlanConfig</text><line style="stroke:#A80036;stroke-width:0.20000000000000004;" x1="514.6" x2="560.8" y1="100.4" y2="100.4"/><line style="stroke:#A80036;stroke-width:0.20000000000000004;" x1="514.6" x2="560.8" y1="102" y2="102"/><ellipse cx="516.6" cy="104.9621" fill="#84BE84" rx="0.6" ry="0.6" style="stroke:#038048;stroke-width:0.20000000000000004;"/><text fill="#000000" font-family="sans-serif" font-size="2.8" lengthAdjust="spacing" textLength="41.4" x="518.4" y="105.8215">List&lt;String&gt; getRequiredForms()</text></g><!--class AssignTestingOperatorConfig--><g id="elem_AssignTestingOperatorConfig"><rect codeLine="65" fill="#FEFECE" filter="url(#f143diely461a3)" height="17.0484" id="AssignTestingOperatorConfig" style="stroke:#A80036;stroke-width:0.20000000000000004;" width="59" x="568" y="92.2"/><ellipse cx="577.95" cy="95.4" fill="#ADD1B2" rx="2.2" ry="2.2" style="stroke:#A80036;stroke-width:0.20000000000000004;"/><path d="M577.8188,96.5719 Q577.4219,96.5719 577.1875,96.2781 Q576.9563,95.9813 576.9563,95.3656 Q576.9563,94.8438 577.2,94.4938 Q577.4469,94.1438 577.8719,94.1438 Q577.9719,94.1438 578.0781,94.1719 Q578.1656,94.2094 578.2188,94.2094 Q578.2625,94.2094 578.2813,94.2 Q578.3031,94.1906 578.3938,94.0719 L578.5469,94.8188 L578.3688,94.8719 Q578.2781,94.5813 578.1563,94.4625 Q578.0375,94.3406 577.8469,94.3406 Q577.6031,94.3406 577.4594,94.6281 Q577.3156,94.9125 577.3156,95.35 Q577.3156,95.8313 577.4375,96.0906 Q577.5625,96.3469 577.8344,96.3469 Q578.025,96.3469 578.1625,96.2094 Q578.3,96.0688 578.3656,95.7688 L578.5469,95.85 Q578.4656,96.1906 578.2719,96.3813 Q578.0813,96.5719 577.8188,96.5719 Z " fill="#000000"/><text fill="#000000" font-family="sans-serif" font-size="2.8" lengthAdjust="spacing" textLength="37.4" x="582.05" y="96.5594">AssignTestingOperatorConfig</text><line style="stroke:#A80036;stroke-width:0.20000000000000004;" x1="568.2" x2="626.8" y1="98.6" y2="98.6"/><line style="stroke:#A80036;stroke-width:0.20000000000000004;" x1="568.2" x2="626.8" y1="100.2" y2="100.2"/><ellipse cx="570.2" cy="103.1621" fill="#84BE84" rx="0.6" ry="0.6" style="stroke:#038048;stroke-width:0.20000000000000004;"/><text fill="#000000" font-family="sans-serif" font-size="2.8" lengthAdjust="spacing" textLength="53.8" x="572" y="104.0215">boolean isCompletable(Task,FormService)</text><ellipse cx="570.2" cy="106.8863" fill="#84BE84" rx="0.6" ry="0.6" style="stroke:#038048;stroke-width:0.20000000000000004;"/><text fill="#000000" font-family="sans-serif" font-size="2.8" lengthAdjust="spacing" textLength="41.4" x="572" y="107.7457">List&lt;String&gt; getRequiredForms()</text></g><!--class ModifyApplicationConfig--><g id="elem_ModifyApplicationConfig"><rect codeLine="69" fill="#FEFECE" filter="url(#f143diely461a3)" height="13.3242" id="ModifyApplicationConfig" style="stroke:#A80036;stroke-width:0.20000000000000004;" width="46.6" x="424.6" y="65"/><ellipse cx="432.1" cy="68.2" fill="#ADD1B2" rx="2.2" ry="2.2" style="stroke:#A80036;stroke-width:0.20000000000000004;"/><path d="M431.9688,69.3719 Q431.5719,69.3719 431.3375,69.0781 Q431.1063,68.7813 431.1063,68.1656 Q431.1063,67.6438 431.35,67.2938 Q431.5969,66.9438 432.0219,66.9438 Q432.1219,66.9438 432.2281,66.9719 Q432.3156,67.0094 432.3688,67.0094 Q432.4125,67.0094 432.4313,67 Q432.4531,66.9906 432.5438,66.8719 L432.6969,67.6188 L432.5188,67.6719 Q432.4281,67.3813 432.3063,67.2625 Q432.1875,67.1406 431.9969,67.1406 Q431.7531,67.1406 431.6094,67.4281 Q431.4656,67.7125 431.4656,68.15 Q431.4656,68.6313 431.5875,68.8906 Q431.7125,69.1469 431.9844,69.1469 Q432.175,69.1469 432.3125,69.0094 Q432.45,68.8688 432.5156,68.5688 L432.6969,68.65 Q432.6156,68.9906 432.4219,69.1813 Q432.2313,69.3719 431.9688,69.3719 Z " fill="#000000"/><text fill="#000000" font-family="sans-serif" font-size="2.8" lengthAdjust="spacing" textLength="30.2" x="435.9" y="69.3594">ModifyApplicationConfig</text><line style="stroke:#A80036;stroke-width:0.20000000000000004;" x1="424.8" x2="471" y1="71.4" y2="71.4"/><line style="stroke:#A80036;stroke-width:0.20000000000000004;" x1="424.8" x2="471" y1="73" y2="73"/><ellipse cx="426.8" cy="75.9621" fill="#84BE84" rx="0.6" ry="0.6" style="stroke:#038048;stroke-width:0.20000000000000004;"/><text fill="#000000" font-family="sans-serif" font-size="2.8" lengthAdjust="spacing" textLength="41.4" x="428.6" y="76.8215">List&lt;String&gt; getRequiredForms()</text></g><!--class ModifyTestPlanConfig--><g id="elem_ModifyTestPlanConfig"><rect codeLine="72" fill="#FEFECE" filter="url(#f143diely461a3)" height="13.3242" id="ModifyTestPlanConfig" style="stroke:#A80036;stroke-width:0.20000000000000004;" width="46.6" x="478.2" y="65"/><ellipse cx="486.87" cy="68.2" fill="#ADD1B2" rx="2.2" ry="2.2" style="stroke:#A80036;stroke-width:0.20000000000000004;"/><path d="M486.7388,69.3719 Q486.3419,69.3719 486.1075,69.0781 Q485.8763,68.7813 485.8763,68.1656 Q485.8763,67.6438 486.12,67.2938 Q486.3669,66.9438 486.7919,66.9438 Q486.8919,66.9438 486.9981,66.9719 Q487.0856,67.0094 487.1388,67.0094 Q487.1825,67.0094 487.2013,67 Q487.2231,66.9906 487.3138,66.8719 L487.4669,67.6188 L487.2888,67.6719 Q487.1981,67.3813 487.0763,67.2625 Q486.9575,67.1406 486.7669,67.1406 Q486.5231,67.1406 486.3794,67.4281 Q486.2356,67.7125 486.2356,68.15 Q486.2356,68.6313 486.3575,68.8906 Q486.4825,69.1469 486.7544,69.1469 Q486.945,69.1469 487.0825,69.0094 Q487.22,68.8688 487.2856,68.5688 L487.4669,68.65 Q487.3856,68.9906 487.1919,69.1813 Q487.0013,69.3719 486.7388,69.3719 Z " fill="#000000"/><text fill="#000000" font-family="sans-serif" font-size="2.8" lengthAdjust="spacing" textLength="27.6" x="490.93" y="69.3594">ModifyTestPlanConfig</text><line style="stroke:#A80036;stroke-width:0.20000000000000004;" x1="478.4" x2="524.6" y1="71.4" y2="71.4"/><line style="stroke:#A80036;stroke-width:0.20000000000000004;" x1="478.4" x2="524.6" y1="73" y2="73"/><ellipse cx="480.4" cy="75.9621" fill="#84BE84" rx="0.6" ry="0.6" style="stroke:#038048;stroke-width:0.20000000000000004;"/><text fill="#000000" font-family="sans-serif" font-size="2.8" lengthAdjust="spacing" textLength="41.4" x="482.2" y="76.8215">List&lt;String&gt; getRequiredForms()</text></g><!--class GenQuotationConfig--><g id="elem_GenQuotationConfig"><rect codeLine="75" fill="#FEFECE" filter="url(#f143diely461a3)" height="13.3242" id="GenQuotationConfig" style="stroke:#A80036;stroke-width:0.20000000000000004;" width="46.6" x="531.8" y="65"/><ellipse cx="541.25" cy="68.2" fill="#ADD1B2" rx="2.2" ry="2.2" style="stroke:#A80036;stroke-width:0.20000000000000004;"/><path d="M541.1188,69.3719 Q540.7219,69.3719 540.4875,69.0781 Q540.2563,68.7813 540.2563,68.1656 Q540.2563,67.6438 540.5,67.2938 Q540.7469,66.9438 541.1719,66.9438 Q541.2719,66.9438 541.3781,66.9719 Q541.4656,67.0094 541.5188,67.0094 Q541.5625,67.0094 541.5813,67 Q541.6031,66.9906 541.6938,66.8719 L541.8469,67.6188 L541.6688,67.6719 Q541.5781,67.3813 541.4563,67.2625 Q541.3375,67.1406 541.1469,67.1406 Q540.9031,67.1406 540.7594,67.4281 Q540.6156,67.7125 540.6156,68.15 Q540.6156,68.6313 540.7375,68.8906 Q540.8625,69.1469 541.1344,69.1469 Q541.325,69.1469 541.4625,69.0094 Q541.6,68.8688 541.6656,68.5688 L541.8469,68.65 Q541.7656,68.9906 541.5719,69.1813 Q541.3813,69.3719 541.1188,69.3719 Z " fill="#000000"/><text fill="#000000" font-family="sans-serif" font-size="2.8" lengthAdjust="spacing" textLength="26" x="545.35" y="69.3594">GenQuotationConfig</text><line style="stroke:#A80036;stroke-width:0.20000000000000004;" x1="532" x2="578.2" y1="71.4" y2="71.4"/><line style="stroke:#A80036;stroke-width:0.20000000000000004;" x1="532" x2="578.2" y1="73" y2="73"/><ellipse cx="534" cy="75.9621" fill="#84BE84" rx="0.6" ry="0.6" style="stroke:#038048;stroke-width:0.20000000000000004;"/><text fill="#000000" font-family="sans-serif" font-size="2.8" lengthAdjust="spacing" textLength="41.4" x="535.8" y="76.8215">List&lt;String&gt; getRequiredForms()</text></g><!--class ModifyTestReportConfig--><g id="elem_ModifyTestReportConfig"><rect codeLine="78" fill="#FEFECE" filter="url(#f143diely461a3)" height="13.3242" id="ModifyTestReportConfig" style="stroke:#A80036;stroke-width:0.20000000000000004;" width="46.6" x="585.4" y="65"/><ellipse cx="592.72" cy="68.2" fill="#ADD1B2" rx="2.2" ry="2.2" style="stroke:#A80036;stroke-width:0.20000000000000004;"/><path d="M592.5888,69.3719 Q592.1919,69.3719 591.9575,69.0781 Q591.7263,68.7813 591.7263,68.1656 Q591.7263,67.6438 591.97,67.2938 Q592.2169,66.9438 592.6419,66.9438 Q592.7419,66.9438 592.8481,66.9719 Q592.9356,67.0094 592.9888,67.0094 Q593.0325,67.0094 593.0513,67 Q593.0731,66.9906 593.1638,66.8719 L593.3169,67.6188 L593.1388,67.6719 Q593.0481,67.3813 592.9263,67.2625 Q592.8075,67.1406 592.6169,67.1406 Q592.3731,67.1406 592.2294,67.4281 Q592.0856,67.7125 592.0856,68.15 Q592.0856,68.6313 592.2075,68.8906 Q592.3325,69.1469 592.6044,69.1469 Q592.795,69.1469 592.9325,69.0094 Q593.07,68.8688 593.1356,68.5688 L593.3169,68.65 Q593.2356,68.9906 593.0419,69.1813 Q592.8513,69.3719 592.5888,69.3719 Z " fill="#000000"/><text fill="#000000" font-family="sans-serif" font-size="2.8" lengthAdjust="spacing" textLength="30.6" x="596.48" y="69.3594">ModifyTestReportConfig</text><line style="stroke:#A80036;stroke-width:0.20000000000000004;" x1="585.6" x2="631.8" y1="71.4" y2="71.4"/><line style="stroke:#A80036;stroke-width:0.20000000000000004;" x1="585.6" x2="631.8" y1="73" y2="73"/><ellipse cx="587.6" cy="75.9621" fill="#84BE84" rx="0.6" ry="0.6" style="stroke:#038048;stroke-width:0.20000000000000004;"/><text fill="#000000" font-family="sans-serif" font-size="2.8" lengthAdjust="spacing" textLength="41.4" x="589.4" y="76.8215">List&lt;String&gt; getRequiredForms()</text></g><!--class ModifyContractConfig--><g id="elem_ModifyContractConfig"><rect codeLine="81" fill="#FEFECE" filter="url(#f143diely461a3)" height="13.3242" id="ModifyContractConfig" style="stroke:#A80036;stroke-width:0.20000000000000004;" width="46.6" x="491.4" y="37.8"/><ellipse cx="500.25" cy="41" fill="#ADD1B2" rx="2.2" ry="2.2" style="stroke:#A80036;stroke-width:0.20000000000000004;"/><path d="M500.1188,42.1719 Q499.7219,42.1719 499.4875,41.8781 Q499.2563,41.5813 499.2563,40.9656 Q499.2563,40.4438 499.5,40.0938 Q499.7469,39.7438 500.1719,39.7438 Q500.2719,39.7438 500.3781,39.7719 Q500.4656,39.8094 500.5188,39.8094 Q500.5625,39.8094 500.5813,39.8 Q500.6031,39.7906 500.6938,39.6719 L500.8469,40.4188 L500.6688,40.4719 Q500.5781,40.1813 500.4563,40.0625 Q500.3375,39.9406 500.1469,39.9406 Q499.9031,39.9406 499.7594,40.2281 Q499.6156,40.5125 499.6156,40.95 Q499.6156,41.4313 499.7375,41.6906 Q499.8625,41.9469 500.1344,41.9469 Q500.325,41.9469 500.4625,41.8094 Q500.6,41.6688 500.6656,41.3688 L500.8469,41.45 Q500.7656,41.7906 500.5719,41.9813 Q500.3813,42.1719 500.1188,42.1719 Z " fill="#000000"/><text fill="#000000" font-family="sans-serif" font-size="2.8" lengthAdjust="spacing" textLength="27.2" x="504.35" y="42.1594">ModifyContractConfig</text><line style="stroke:#A80036;stroke-width:0.20000000000000004;" x1="491.6" x2="537.8" y1="44.2" y2="44.2"/><line style="stroke:#A80036;stroke-width:0.20000000000000004;" x1="491.6" x2="537.8" y1="45.8" y2="45.8"/><ellipse cx="493.6" cy="48.7621" fill="#84BE84" rx="0.6" ry="0.6" style="stroke:#038048;stroke-width:0.20000000000000004;"/><text fill="#000000" font-family="sans-serif" font-size="2.8" lengthAdjust="spacing" textLength="41.4" x="495.4" y="49.6215">List&lt;String&gt; getRequiredForms()</text></g><!--class VerifyContractConfig--><g id="elem_VerifyContractConfig"><rect codeLine="84" fill="#FEFECE" filter="url(#f143diely461a3)" height="13.3242" id="VerifyContractConfig" style="stroke:#A80036;stroke-width:0.20000000000000004;" width="46.6" x="545" y="37.8"/><ellipse cx="554.35" cy="41" fill="#ADD1B2" rx="2.2" ry="2.2" style="stroke:#A80036;stroke-width:0.20000000000000004;"/><path d="M554.2188,42.1719 Q553.8219,42.1719 553.5875,41.8781 Q553.3563,41.5813 553.3563,40.9656 Q553.3563,40.4438 553.6,40.0938 Q553.8469,39.7438 554.2719,39.7438 Q554.3719,39.7438 554.4781,39.7719 Q554.5656,39.8094 554.6188,39.8094 Q554.6625,39.8094 554.6813,39.8 Q554.7031,39.7906 554.7938,39.6719 L554.9469,40.4188 L554.7688,40.4719 Q554.6781,40.1813 554.5563,40.0625 Q554.4375,39.9406 554.2469,39.9406 Q554.0031,39.9406 553.8594,40.2281 Q553.7156,40.5125 553.7156,40.95 Q553.7156,41.4313 553.8375,41.6906 Q553.9625,41.9469 554.2344,41.9469 Q554.425,41.9469 554.5625,41.8094 Q554.7,41.6688 554.7656,41.3688 L554.9469,41.45 Q554.8656,41.7906 554.6719,41.9813 Q554.4813,42.1719 554.2188,42.1719 Z " fill="#000000"/><text fill="#000000" font-family="sans-serif" font-size="2.8" lengthAdjust="spacing" textLength="26.2" x="558.45" y="42.1594">VerifyContractConfig</text><line style="stroke:#A80036;stroke-width:0.20000000000000004;" x1="545.2" x2="591.4" y1="44.2" y2="44.2"/><line style="stroke:#A80036;stroke-width:0.20000000000000004;" x1="545.2" x2="591.4" y1="45.8" y2="45.8"/><ellipse cx="547.2" cy="48.7621" fill="#84BE84" rx="0.6" ry="0.6" style="stroke:#038048;stroke-width:0.20000000000000004;"/><text fill="#000000" font-family="sans-serif" font-size="2.8" lengthAdjust="spacing" textLength="41.4" x="549" y="49.6215">List&lt;String&gt; getRequiredForms()</text></g><!--class UploadSampleConfig--><g id="elem_UploadSampleConfig"><rect codeLine="87" fill="#FEFECE" filter="url(#f143diely461a3)" height="13.3242" id="UploadSampleConfig" style="stroke:#A80036;stroke-width:0.20000000000000004;" width="46.6" x="598.6" y="37.8"/><ellipse cx="607.85" cy="41" fill="#ADD1B2" rx="2.2" ry="2.2" style="stroke:#A80036;stroke-width:0.20000000000000004;"/><path d="M607.7188,42.1719 Q607.3219,42.1719 607.0875,41.8781 Q606.8563,41.5813 606.8563,40.9656 Q606.8563,40.4438 607.1,40.0938 Q607.3469,39.7438 607.7719,39.7438 Q607.8719,39.7438 607.9781,39.7719 Q608.0656,39.8094 608.1188,39.8094 Q608.1625,39.8094 608.1813,39.8 Q608.2031,39.7906 608.2938,39.6719 L608.4469,40.4188 L608.2688,40.4719 Q608.1781,40.1813 608.0563,40.0625 Q607.9375,39.9406 607.7469,39.9406 Q607.5031,39.9406 607.3594,40.2281 Q607.2156,40.5125 607.2156,40.95 Q607.2156,41.4313 607.3375,41.6906 Q607.4625,41.9469 607.7344,41.9469 Q607.925,41.9469 608.0625,41.8094 Q608.2,41.6688 608.2656,41.3688 L608.4469,41.45 Q608.3656,41.7906 608.1719,41.9813 Q607.9813,42.1719 607.7188,42.1719 Z " fill="#000000"/><text fill="#000000" font-family="sans-serif" font-size="2.8" lengthAdjust="spacing" textLength="26.4" x="611.95" y="42.1594">UploadSampleConfig</text><line style="stroke:#A80036;stroke-width:0.20000000000000004;" x1="598.8" x2="645" y1="44.2" y2="44.2"/><line style="stroke:#A80036;stroke-width:0.20000000000000004;" x1="598.8" x2="645" y1="45.8" y2="45.8"/><ellipse cx="600.8" cy="48.7621" fill="#84BE84" rx="0.6" ry="0.6" style="stroke:#038048;stroke-width:0.20000000000000004;"/><text fill="#000000" font-family="sans-serif" font-size="2.8" lengthAdjust="spacing" textLength="41.4" x="602.6" y="49.6215">List&lt;String&gt; getRequiredForms()</text></g><!--class FillOutContractConfig--><g id="elem_FillOutContractConfig"><rect codeLine="90" fill="#FEFECE" filter="url(#f143diely461a3)" height="13.3242" id="FillOutContractConfig" style="stroke:#A80036;stroke-width:0.20000000000000004;" width="46.6" x="652.2" y="37.8"/><ellipse cx="661.05" cy="41" fill="#ADD1B2" rx="2.2" ry="2.2" style="stroke:#A80036;stroke-width:0.20000000000000004;"/><path d="M660.9188,42.1719 Q660.5219,42.1719 660.2875,41.8781 Q660.0563,41.5813 660.0563,40.9656 Q660.0563,40.4438 660.3,40.0938 Q660.5469,39.7438 660.9719,39.7438 Q661.0719,39.7438 661.1781,39.7719 Q661.2656,39.8094 661.3188,39.8094 Q661.3625,39.8094 661.3813,39.8 Q661.4031,39.7906 661.4938,39.6719 L661.6469,40.4188 L661.4688,40.4719 Q661.3781,40.1813 661.2563,40.0625 Q661.1375,39.9406 660.9469,39.9406 Q660.7031,39.9406 660.5594,40.2281 Q660.4156,40.5125 660.4156,40.95 Q660.4156,41.4313 660.5375,41.6906 Q660.6625,41.9469 660.9344,41.9469 Q661.125,41.9469 661.2625,41.8094 Q661.4,41.6688 661.4656,41.3688 L661.6469,41.45 Q661.5656,41.7906 661.3719,41.9813 Q661.1813,42.1719 660.9188,42.1719 Z " fill="#000000"/><text fill="#000000" font-family="sans-serif" font-size="2.8" lengthAdjust="spacing" textLength="27.2" x="665.15" y="42.1594">FillOutContractConfig</text><line style="stroke:#A80036;stroke-width:0.20000000000000004;" x1="652.4" x2="698.6" y1="44.2" y2="44.2"/><line style="stroke:#A80036;stroke-width:0.20000000000000004;" x1="652.4" x2="698.6" y1="45.8" y2="45.8"/><ellipse cx="654.4" cy="48.7621" fill="#84BE84" rx="0.6" ry="0.6" style="stroke:#038048;stroke-width:0.20000000000000004;"/><text fill="#000000" font-family="sans-serif" font-size="2.8" lengthAdjust="spacing" textLength="41.4" x="656.2" y="49.6215">List&lt;String&gt; getRequiredForms()</text></g><!--reverse link TaskConfig to GenContractDraftConfig--><g id="link_TaskConfig_GenContractDraftConfig"><path codeLine="95" d="M316.396,4 C316.396,4 24.7,4 24.7,4 C24.7,4 24.7,26.192 24.7,37.722 " fill="none" id="TaskConfig-backto-GenContractDraftConfig" style="stroke:#A80036;stroke-width:0.20000000000000004;"/><polygon fill="none" points="316.396,2.6,320.396,4,316.396,5.4,316.396,2.6" style="stroke:#A80036;stroke-width:0.20000000000000004;"/></g><!--reverse link TaskConfig to GenTestReportConfig--><g id="link_TaskConfig_GenTestReportConfig"><path codeLine="96" d="M316.382,6.4 C316.382,6.4 78.3,6.4 78.3,6.4 C78.3,6.4 78.3,26.838 78.3,37.776 " fill="none" id="TaskConfig-backto-GenTestReportConfig" style="stroke:#A80036;stroke-width:0.20000000000000004;"/><polygon fill="none" points="316.382,5,320.382,6.4,316.382,7.8,316.382,5" style="stroke:#A80036;stroke-width:0.20000000000000004;"/></g><!--reverse link TaskConfig to ArchiveConfig--><g id="link_TaskConfig_ArchiveConfig"><path codeLine="97" d="M316.386,13.6 C316.386,13.6 131.9,13.6 131.9,13.6 C131.9,13.6 131.9,28.708 131.9,37.796 " fill="none" id="TaskConfig-backto-ArchiveConfig" style="stroke:#A80036;stroke-width:0.20000000000000004;"/><polygon fill="none" points="316.386,12.2,320.386,13.6,316.386,15,316.386,12.2" style="stroke:#A80036;stroke-width:0.20000000000000004;"/></g><!--reverse link TaskConfig to ModifyQuotationConfig--><g id="link_TaskConfig_ModifyQuotationConfig"><path codeLine="98" d="M325.64,29.868 C325.64,29.868 325.64,46.8 325.64,46.8 C325.64,46.8 248.75,46.8 208.878,46.8 " fill="none" id="TaskConfig-backto-ModifyQuotationConfig" style="stroke:#A80036;stroke-width:0.20000000000000004;"/><polygon fill="none" points="324.24,29.868,325.64,25.868,327.04,29.868,324.24,29.868" style="stroke:#A80036;stroke-width:0.20000000000000004;"/></g><!--reverse link TaskConfig to ModifyContractDraftConfig--><g id="link_TaskConfig_ModifyContractDraftConfig"><path codeLine="99" d="M316.34,8.8 C316.34,8.8 104.334,8.8 104.334,8.8 C104.334,8.8 104.334,71.8 104.334,71.8 C104.334,71.8 103.548,71.8 102.252,71.8 " fill="none" id="TaskConfig-backto-ModifyContractDraftConfig" style="stroke:#A80036;stroke-width:0.20000000000000004;"/><polygon fill="none" points="316.34,7.4,320.34,8.8,316.34,10.2,316.34,7.4" style="stroke:#A80036;stroke-width:0.20000000000000004;"/></g><!--reverse link TaskConfig to VerifySampleConfig--><g id="link_TaskConfig_VerifySampleConfig"><path codeLine="100" d="M316.378,16.2 C316.378,16.2 157.934,16.2 157.934,16.2 C157.934,16.2 157.934,71.8 157.934,71.8 C157.934,71.8 157.148,71.8 155.852,71.8 " fill="none" id="TaskConfig-backto-VerifySampleConfig" style="stroke:#A80036;stroke-width:0.20000000000000004;"/><polygon fill="none" points="316.378,14.8,320.378,16.2,316.378,17.6,316.378,14.8" style="stroke:#A80036;stroke-width:0.20000000000000004;"/></g><!--reverse link TaskConfig to AssignMarketingOperatorConfig--><g id="link_TaskConfig_AssignMarketingOperatorConfig"><path codeLine="101" d="M330.88,29.848 C330.88,29.848 330.88,64.2 330.88,64.2 C330.88,64.2 262.558,64.2 221.858,64.2 " fill="none" id="TaskConfig-backto-AssignMarketingOperatorConfig" style="stroke:#A80036;stroke-width:0.20000000000000004;"/><polygon fill="none" points="329.48,29.848,330.88,25.848,332.28,29.848,329.48,29.848" style="stroke:#A80036;stroke-width:0.20000000000000004;"/></g><!--reverse link TaskConfig to VerifyContractDraftConfig--><g id="link_TaskConfig_VerifyContractDraftConfig"><path codeLine="102" d="M336.12,29.822 C336.12,29.822 336.12,74 336.12,74 C336.12,74 300.312,74 275.448,74 " fill="none" id="TaskConfig-backto-VerifyContractDraftConfig" style="stroke:#A80036;stroke-width:0.20000000000000004;"/><polygon fill="none" points="334.72,29.822,336.12,25.822,337.52,29.822,334.72,29.822" style="stroke:#A80036;stroke-width:0.20000000000000004;"/></g><!--reverse link TaskConfig to FillOutAppFormConfig--><g id="link_TaskConfig_FillOutAppFormConfig"><path codeLine="103" d="M316.354,11.2 C316.354,11.2 106.466,11.2 106.466,11.2 C106.466,11.2 106.466,73.158 106.466,93.972 " fill="none" id="TaskConfig-backto-FillOutAppFormConfig" style="stroke:#A80036;stroke-width:0.20000000000000004;"/><polygon fill="none" points="316.354,9.8,320.354,11.2,316.354,12.6,316.354,9.8" style="stroke:#A80036;stroke-width:0.20000000000000004;"/></g><!--reverse link TaskConfig to ConfirmTestReportConfig--><g id="link_TaskConfig_ConfirmTestReportConfig"><path codeLine="104" d="M316.394,18.6 C316.394,18.6 160.066,18.6 160.066,18.6 C160.066,18.6 160.066,74.374 160.066,93.982 " fill="none" id="TaskConfig-backto-ConfirmTestReportConfig" style="stroke:#A80036;stroke-width:0.20000000000000004;"/><polygon fill="none" points="316.394,17.2,320.394,18.6,316.394,20,316.394,17.2" style="stroke:#A80036;stroke-width:0.20000000000000004;"/></g><!--reverse link TaskConfig to VerifyApplicationConfig--><g id="link_TaskConfig_VerifyApplicationConfig"><path codeLine="105" d="M316.372,21 C316.372,21 225.3,21 225.3,21 C225.3,21 225.3,74.758 225.3,93.974 " fill="none" id="TaskConfig-backto-VerifyApplicationConfig" style="stroke:#A80036;stroke-width:0.20000000000000004;"/><polygon fill="none" points="316.372,19.6,320.372,21,316.372,22.4,316.372,19.6" style="stroke:#A80036;stroke-width:0.20000000000000004;"/></g><!--reverse link TaskConfig to ReUploadSampleConfig--><g id="link_TaskConfig_ReUploadSampleConfig"><path codeLine="106" d="M316.318,23.4 C316.318,23.4 284.2,23.4 284.2,23.4 C284.2,23.4 284.2,75.168 284.2,93.976 " fill="none" id="TaskConfig-backto-ReUploadSampleConfig" style="stroke:#A80036;stroke-width:0.20000000000000004;"/><polygon fill="none" points="316.318,22,320.318,23.4,316.318,24.8,316.318,22" style="stroke:#A80036;stroke-width:0.20000000000000004;"/></g><!--reverse link TaskConfig to VerifyQuotationConfig--><g id="link_TaskConfig_VerifyQuotationConfig"><path codeLine="107" d="M341.36,29.802 C341.36,29.802 341.36,93.986 341.36,93.986 " fill="none" id="TaskConfig-backto-VerifyQuotationConfig" style="stroke:#A80036;stroke-width:0.20000000000000004;"/><polygon fill="none" points="339.96,29.802,341.36,25.802,342.76,29.802,339.96,29.802" style="stroke:#A80036;stroke-width:0.20000000000000004;"/></g><!--reverse link TaskConfig to VerifyTestReportConfig--><g id="link_TaskConfig_VerifyTestReportConfig"><path codeLine="108" d="M357.9,29.802 C357.9,29.802 357.9,93.986 357.9,93.986 " fill="none" id="TaskConfig-backto-VerifyTestReportConfig" style="stroke:#A80036;stroke-width:0.20000000000000004;"/><polygon fill="none" points="356.5,29.802,357.9,25.802,359.3,29.802,356.5,29.802" style="stroke:#A80036;stroke-width:0.20000000000000004;"/></g><!--reverse link TaskConfig to GenTestPlanConfig--><g id="link_TaskConfig_GenTestPlanConfig"><path codeLine="109" d="M383.426,23.2 C383.426,23.2 415.9,23.2 415.9,23.2 C415.9,23.2 415.9,75.102 415.9,93.958 " fill="none" id="TaskConfig-backto-GenTestPlanConfig" style="stroke:#A80036;stroke-width:0.20000000000000004;"/><polygon fill="none" points="383.426,24.6,379.426,23.2,383.426,21.8,383.426,24.6" style="stroke:#A80036;stroke-width:0.20000000000000004;"/></g><!--reverse link TaskConfig to SendTestReportConfig--><g id="link_TaskConfig_SendTestReportConfig"><path codeLine="110" d="M383.476,20.4 C383.476,20.4 474.7,20.4 474.7,20.4 C474.7,20.4 474.7,74.692 474.7,93.992 " fill="none" id="TaskConfig-backto-SendTestReportConfig" style="stroke:#A80036;stroke-width:0.20000000000000004;"/><polygon fill="none" points="383.476,21.8,379.476,20.4,383.476,19,383.476,21.8" style="stroke:#A80036;stroke-width:0.20000000000000004;"/></g><!--reverse link TaskConfig to VerifyTestPlanConfig--><g id="link_TaskConfig_VerifyTestPlanConfig"><path codeLine="111" d="M366.5,29.822 C366.5,29.822 366.5,79.4 366.5,79.4 C366.5,79.4 519.6,79.4 519.6,79.4 C519.6,79.4 519.6,87.72 519.6,93.96 " fill="none" id="TaskConfig-backto-VerifyTestPlanConfig" style="stroke:#A80036;stroke-width:0.20000000000000004;"/><polygon fill="none" points="365.1,29.822,366.5,25.822,367.9,29.822,365.1,29.822" style="stroke:#A80036;stroke-width:0.20000000000000004;"/></g><!--reverse link TaskConfig to AssignTestingOperatorConfig--><g id="link_TaskConfig_AssignTestingOperatorConfig"><path codeLine="112" d="M362.2,29.864 C362.2,29.864 362.2,93.2 362.2,93.2 C362.2,93.2 504.83,93.2 567.996,93.2 " fill="none" id="TaskConfig-backto-AssignTestingOperatorConfig" style="stroke:#A80036;stroke-width:0.20000000000000004;"/><polygon fill="none" points="360.8,29.864,362.2,25.864,363.6,29.864,360.8,29.864" style="stroke:#A80036;stroke-width:0.20000000000000004;"/></g><!--reverse link TaskConfig to ModifyApplicationConfig--><g id="link_TaskConfig_ModifyApplicationConfig"><path codeLine="113" d="M370.8,29.82 C370.8,29.82 370.8,69.6 370.8,69.6 C370.8,69.6 401.866,69.6 424.558,69.6 " fill="none" id="TaskConfig-backto-ModifyApplicationConfig" style="stroke:#A80036;stroke-width:0.20000000000000004;"/><polygon fill="none" points="369.4,29.82,370.8,25.82,372.2,29.82,369.4,29.82" style="stroke:#A80036;stroke-width:0.20000000000000004;"/></g><!--reverse link TaskConfig to ModifyTestPlanConfig--><g id="link_TaskConfig_ModifyTestPlanConfig"><path codeLine="114" d="M383.42,17.8 C383.42,17.8 484.8,17.8 484.8,17.8 C484.8,17.8 484.8,50.534 484.8,64.982 " fill="none" id="TaskConfig-backto-ModifyTestPlanConfig" style="stroke:#A80036;stroke-width:0.20000000000000004;"/><polygon fill="none" points="383.42,19.2,379.42,17.8,383.42,16.4,383.42,19.2" style="stroke:#A80036;stroke-width:0.20000000000000004;"/></g><!--reverse link TaskConfig to GenQuotationConfig--><g id="link_TaskConfig_GenQuotationConfig"><path codeLine="115" d="M383.418,15 C383.418,15 541.5,15 541.5,15 C541.5,15 541.5,49.954 541.5,64.974 " fill="none" id="TaskConfig-backto-GenQuotationConfig" style="stroke:#A80036;stroke-width:0.20000000000000004;"/><polygon fill="none" points="383.418,16.4,379.418,15,383.418,13.6,383.418,16.4" style="stroke:#A80036;stroke-width:0.20000000000000004;"/></g><!--reverse link TaskConfig to ModifyTestReportConfig--><g id="link_TaskConfig_ModifyTestReportConfig"><path codeLine="116" d="M383.416,9.6 C383.416,9.6 595.1,9.6 595.1,9.6 C595.1,9.6 595.1,48.938 595.1,64.996 " fill="none" id="TaskConfig-backto-ModifyTestReportConfig" style="stroke:#A80036;stroke-width:0.20000000000000004;"/><polygon fill="none" points="383.416,11,379.416,9.6,383.416,8.2,383.416,11" style="stroke:#A80036;stroke-width:0.20000000000000004;"/></g><!--reverse link TaskConfig to ModifyContractConfig--><g id="link_TaskConfig_ModifyContractConfig"><path codeLine="117" d="M375.1,29.814 C375.1,29.814 375.1,42.4 375.1,42.4 C375.1,42.4 451.594,42.4 491.334,42.4 " fill="none" id="TaskConfig-backto-ModifyContractConfig" style="stroke:#A80036;stroke-width:0.20000000000000004;"/><polygon fill="none" points="373.7,29.814,375.1,25.814,376.5,29.814,373.7,29.814" style="stroke:#A80036;stroke-width:0.20000000000000004;"/></g><!--reverse link TaskConfig to VerifyContractConfig--><g id="link_TaskConfig_VerifyContractConfig"><path codeLine="118" d="M383.412,12.4 C383.412,12.4 568.3,12.4 568.3,12.4 C568.3,12.4 568.3,28.358 568.3,37.77 " fill="none" id="TaskConfig-backto-VerifyContractConfig" style="stroke:#A80036;stroke-width:0.20000000000000004;"/><polygon fill="none" points="383.412,13.8,379.412,12.4,383.412,11,383.412,13.8" style="stroke:#A80036;stroke-width:0.20000000000000004;"/></g><!--reverse link TaskConfig to UploadSampleConfig--><g id="link_TaskConfig_UploadSampleConfig"><path codeLine="119" d="M383.462,7 C383.462,7 621.9,7 621.9,7 C621.9,7 621.9,27.01 621.9,37.796 " fill="none" id="TaskConfig-backto-UploadSampleConfig" style="stroke:#A80036;stroke-width:0.20000000000000004;"/><polygon fill="none" points="383.462,8.4,379.462,7,383.462,5.6,383.462,8.4" style="stroke:#A80036;stroke-width:0.20000000000000004;"/></g><!--reverse link TaskConfig to FillOutContractConfig--><g id="link_TaskConfig_FillOutContractConfig"><path codeLine="120" d="M383.442,4.2 C383.442,4.2 675.5,4.2 675.5,4.2 C675.5,4.2 675.5,26.282 675.5,37.754 " fill="none" id="TaskConfig-backto-FillOutContractConfig" style="stroke:#A80036;stroke-width:0.20000000000000004;"/><polygon fill="none" points="383.442,5.6,379.442,4.2,383.442,2.8,383.442,5.6" style="stroke:#A80036;stroke-width:0.20000000000000004;"/></g><!--SRC=[lLNBRjim4BphAtYqaUYGUn30IEiYG8qyvFQ-bjSoQufao5KG8_6_bufSs0afkI6BtYJix72VitR39JFAOfPPzwd1GCqgenfz8zTeE84iaLqS6GMNI5kDJ1bQgomh1LZBlg6yLf8CbFJ5m8hSpufNx2KxOz-vfSk239VL5QkG7l2nuGQNKsLgEnfdkmF57AqpQyVyANzOsBUNMKSq1xivybye9H0au_PQrLeWmKBWg0MTjnG5cYTUujWXN_uGxKwzUSOwOslxMWCNHRFuXIM5J7Dyfj4Cz9xlV4zxI7nYoZL_meYIpTIIhxRtZI8WhcGqGshhVhf9MMqBQCiRuJwnbbTo1cQ3vB2t6WsGCb4z_5p8gObFkH2t3KsqRYqH16ykfeuS_EDKN0o2bx5py80_j52mZEvX5qJAA7OCIPNOIyYTW9W02fJBVz28X0YwHMW9_jSQTFkVDZiTHqBQhctf6fRKkVSo6Dtw18B4zTiBKLG0MNPqCIzVyxpdceTW7wlkOTuTDyyQF60VKNd_bVAX_YdoCOFtfe_oRrxFWmSX0EkH_G2oHzm3o924znAUAddU8yS1e2Uw0Kn8MWVV76GRaCc-sJbTmA2C-IXVguQO1bSZ93eUA2Gi7kXquyC2yHi0]--></g></svg>