<?xml version="1.0" encoding="us-ascii" standalone="no"?><svg xmlns="http://www.w3.org/2000/svg" xmlns:xlink="http://www.w3.org/1999/xlink" contentStyleType="text/css" height="448px" preserveAspectRatio="none" style="width:2806px;height:448px;background:#FFFFFF;" version="1.1" viewBox="0 0 2806 448" width="2806.4px" zoomAndPan="magnify"><defs><filter height="300%" id="f143diely461a3" width="300%" x="-1" y="-1"><feGaussianBlur result="blurOut" stdDeviation="1.6000000000000003"/><feColorMatrix in="blurOut" result="blurOut2" type="matrix" values="0 0 0 0 0 0 0 0 0 0 0 0 0 0 0 0 0 0 .4 0"/><feOffset dx="3.2000000000000006" dy="3.2000000000000006" in="blurOut2" result="blurOut3"/><feBlend in="SourceGraphic" in2="blurOut3" mode="normal"/></filter></defs><g><!--class GenContractDraftConfig--><g id="elem_GenContractDraftConfig"><rect codeLine="7" fill="#FEFECE" filter="url(#f143diely461a3)" height="53.2969" id="GenContractDraftConfig" style="stroke:#A80036;stroke-width:0.8000000000000002;" width="186.4" x="5.6" y="151.2"/><ellipse cx="34.88" cy="164" fill="#ADD1B2" rx="8.8" ry="8.8" style="stroke:#A80036;stroke-width:0.8000000000000002;"/><path d="M34.355,168.6875 Q32.7675,168.6875 31.83,167.5125 Q30.905,166.325 30.905,163.8625 Q30.905,161.775 31.88,160.375 Q32.8675,158.975 34.5675,158.975 Q34.9675,158.975 35.3925,159.0875 Q35.7425,159.2375 35.955,159.2375 Q36.13,159.2375 36.205,159.2 Q36.2925,159.1625 36.655,158.6875 L37.2675,161.675 L36.555,161.8875 Q36.1925,160.725 35.705,160.25 Q35.23,159.7625 34.4675,159.7625 Q33.4925,159.7625 32.9175,160.9125 Q32.3425,162.05 32.3425,163.8 Q32.3425,165.725 32.83,166.7625 Q33.33,167.7875 34.4175,167.7875 Q35.18,167.7875 35.73,167.2375 Q36.28,166.675 36.5425,165.475 L37.2675,165.8 Q36.9425,167.1625 36.1675,167.925 Q35.405,168.6875 34.355,168.6875 Z " fill="#000000"/><text fill="#000000" font-family="sans-serif" font-size="11.2" lengthAdjust="spacing" textLength="122.4" x="49.92" y="168.6375">GenContractDraftConfig</text><line style="stroke:#A80036;stroke-width:0.8000000000000002;" x1="6.4" x2="191.2" y1="176.8" y2="176.8"/><line style="stroke:#A80036;stroke-width:0.8000000000000002;" x1="6.4" x2="191.2" y1="183.2" y2="183.2"/><ellipse cx="14.4" cy="195.0484" fill="#84BE84" rx="2.4" ry="2.4" style="stroke:#038048;stroke-width:0.8000000000000002;"/><text fill="#000000" font-family="sans-serif" font-size="11.2" lengthAdjust="spacing" textLength="165.6" x="21.6" y="198.4859">List&lt;String&gt; getRequiredForms()</text></g><!--class GenTestReportConfig--><g id="elem_GenTestReportConfig"><rect codeLine="10" fill="#FEFECE" filter="url(#f143diely461a3)" height="53.2969" id="GenTestReportConfig" style="stroke:#A80036;stroke-width:0.8000000000000002;" width="186.4" x="220" y="151.2"/><ellipse cx="254.32" cy="164" fill="#ADD1B2" rx="8.8" ry="8.8" style="stroke:#A80036;stroke-width:0.8000000000000002;"/><path d="M253.795,168.6875 Q252.2075,168.6875 251.27,167.5125 Q250.345,166.325 250.345,163.8625 Q250.345,161.775 251.32,160.375 Q252.3075,158.975 254.0075,158.975 Q254.4075,158.975 254.8325,159.0875 Q255.1825,159.2375 255.395,159.2375 Q255.57,159.2375 255.645,159.2 Q255.7325,159.1625 256.095,158.6875 L256.7075,161.675 L255.995,161.8875 Q255.6325,160.725 255.145,160.25 Q254.67,159.7625 253.9075,159.7625 Q252.9325,159.7625 252.3575,160.9125 Q251.7825,162.05 251.7825,163.8 Q251.7825,165.725 252.27,166.7625 Q252.77,167.7875 253.8575,167.7875 Q254.62,167.7875 255.17,167.2375 Q255.72,166.675 255.9825,165.475 L256.7075,165.8 Q256.3825,167.1625 255.6075,167.925 Q254.845,168.6875 253.795,168.6875 Z " fill="#000000"/><text fill="#000000" font-family="sans-serif" font-size="11.2" lengthAdjust="spacing" textLength="111.2" x="270.48" y="168.6375">GenTestReportConfig</text><line style="stroke:#A80036;stroke-width:0.8000000000000002;" x1="220.8" x2="405.6" y1="176.8" y2="176.8"/><line style="stroke:#A80036;stroke-width:0.8000000000000002;" x1="220.8" x2="405.6" y1="183.2" y2="183.2"/><ellipse cx="228.8" cy="195.0484" fill="#84BE84" rx="2.4" ry="2.4" style="stroke:#038048;stroke-width:0.8000000000000002;"/><text fill="#000000" font-family="sans-serif" font-size="11.2" lengthAdjust="spacing" textLength="165.6" x="236" y="198.4859">List&lt;String&gt; getRequiredForms()</text></g><!--class TaskConfig--><g id="elem_TaskConfig"><rect codeLine="13" fill="#FEFECE" filter="url(#f143diely461a3)" height="97.9875" id="TaskConfig" style="stroke:#A80036;stroke-width:0.8000000000000002;" width="236" x="1281.6" y="5.6"/><ellipse cx="1367" cy="18.4" fill="#A9DCDF" rx="8.8" ry="8.8" style="stroke:#A80036;stroke-width:0.8000000000000002;"/><path d="M1367.3375,18.7875 L1365.2875,18.7875 L1364.8625,20.625 Q1364.8125,20.8875 1364.8125,21.0125 Q1364.8125,21.1875 1364.85,21.3125 Q1364.9,21.4375 1365.125,21.4375 L1365.5,21.4375 L1365.5,22.1875 L1363.1125,22.1875 L1363.1125,21.4375 L1363.475,21.4375 Q1363.6125,21.4375 1363.7125,21.3625 Q1363.8125,21.275 1363.85,21.0375 L1365.9625,12.775 L1367.0875,12.4 L1369.15,21.0125 Q1369.2375,21.2625 1369.3375,21.35 Q1369.45,21.4375 1369.5875,21.4375 L1369.9625,21.4375 L1369.9625,22.1875 L1367.25,22.1875 L1367.25,21.4375 L1367.675,21.4375 Q1367.85,21.4375 1367.8625,21.4 Q1367.8875,21.35 1367.8875,21.2875 Q1367.8875,21.1125 1367.85,20.9625 L1367.3375,18.7875 Z M1363.6875,21.8625 L1363.6875,21.8625 Z M1364.225,21.8625 L1364.225,21.8625 Z M1368,21.8625 L1368,21.8625 Z M1368.9,21.8625 L1368.9,21.8625 Z M1366.35,13.9125 L1366.4,13.9125 L1365.5125,18.0375 L1367.1875,18.0375 L1366.35,13.9125 Z " fill="#000000"/><text fill="#000000" font-family="sans-serif" font-size="11.2" font-style="italic" lengthAdjust="spacing" textLength="58.4" x="1383.4" y="23.0375">TaskConfig</text><line style="stroke:#A80036;stroke-width:0.8000000000000002;" x1="1282.4" x2="1516.8" y1="31.2" y2="31.2"/><line style="stroke:#A80036;stroke-width:0.8000000000000002;" x1="1282.4" x2="1516.8" y1="37.6" y2="37.6"/><ellipse cx="1290.4" cy="49.4484" fill="#84BE84" rx="2.4" ry="2.4" style="stroke:#038048;stroke-width:0.8000000000000002;"/><text fill="#000000" font-family="sans-serif" font-size="11.2" lengthAdjust="spacing" textLength="215.2" x="1297.6" y="52.8859">boolean isCompletable(Task,FormService)</text><ellipse cx="1290.4" cy="64.3453" fill="#84BE84" rx="2.4" ry="2.4" style="stroke:#038048;stroke-width:0.8000000000000002;"/><text fill="#000000" font-family="sans-serif" font-size="11.2" font-style="italic" lengthAdjust="spacing" textLength="165.6" x="1297.6" y="67.7828">List&lt;String&gt; getRequiredForms()</text><ellipse cx="1290.4" cy="79.2422" fill="#84BE84" rx="2.4" ry="2.4" style="stroke:#038048;stroke-width:0.8000000000000002;"/><text fill="#000000" font-family="sans-serif" font-size="11.2" lengthAdjust="spacing" textLength="121.6" x="1297.6" y="82.6797">String getEmailSubject()</text><ellipse cx="1290.4" cy="94.1391" fill="#84BE84" rx="2.4" ry="2.4" style="stroke:#038048;stroke-width:0.8000000000000002;"/><text fill="#000000" font-family="sans-serif" font-size="11.2" lengthAdjust="spacing" textLength="202.4" x="1297.6" y="97.5766">String getEmailText(Map&lt;String,String&gt;)</text></g><!--class ArchiveConfig--><g id="elem_ArchiveConfig"><rect codeLine="19" fill="#FEFECE" filter="url(#f143diely461a3)" height="53.2969" id="ArchiveConfig" style="stroke:#A80036;stroke-width:0.8000000000000002;" width="186.4" x="434.4" y="151.2"/><ellipse cx="489" cy="164" fill="#ADD1B2" rx="8.8" ry="8.8" style="stroke:#A80036;stroke-width:0.8000000000000002;"/><path d="M488.475,168.6875 Q486.8875,168.6875 485.95,167.5125 Q485.025,166.325 485.025,163.8625 Q485.025,161.775 486,160.375 Q486.9875,158.975 488.6875,158.975 Q489.0875,158.975 489.5125,159.0875 Q489.8625,159.2375 490.075,159.2375 Q490.25,159.2375 490.325,159.2 Q490.4125,159.1625 490.775,158.6875 L491.3875,161.675 L490.675,161.8875 Q490.3125,160.725 489.825,160.25 Q489.35,159.7625 488.5875,159.7625 Q487.6125,159.7625 487.0375,160.9125 Q486.4625,162.05 486.4625,163.8 Q486.4625,165.725 486.95,166.7625 Q487.45,167.7875 488.5375,167.7875 Q489.3,167.7875 489.85,167.2375 Q490.4,166.675 490.6625,165.475 L491.3875,165.8 Q491.0625,167.1625 490.2875,167.925 Q489.525,168.6875 488.475,168.6875 Z " fill="#000000"/><text fill="#000000" font-family="sans-serif" font-size="11.2" lengthAdjust="spacing" textLength="70.4" x="505.4" y="168.6375">ArchiveConfig</text><line style="stroke:#A80036;stroke-width:0.8000000000000002;" x1="435.2" x2="620" y1="176.8" y2="176.8"/><line style="stroke:#A80036;stroke-width:0.8000000000000002;" x1="435.2" x2="620" y1="183.2" y2="183.2"/><ellipse cx="443.2" cy="195.0484" fill="#84BE84" rx="2.4" ry="2.4" style="stroke:#038048;stroke-width:0.8000000000000002;"/><text fill="#000000" font-family="sans-serif" font-size="11.2" lengthAdjust="spacing" textLength="165.6" x="450.4" y="198.4859">List&lt;String&gt; getRequiredForms()</text></g><!--class ModifyQuotationConfig--><g id="elem_ModifyQuotationConfig"><rect codeLine="22" fill="#FEFECE" filter="url(#f143diely461a3)" height="53.2969" id="ModifyQuotationConfig" style="stroke:#A80036;stroke-width:0.8000000000000002;" width="186.4" x="648.8" y="151.2"/><ellipse cx="681.32" cy="164" fill="#ADD1B2" rx="8.8" ry="8.8" style="stroke:#A80036;stroke-width:0.8000000000000002;"/><path d="M680.795,168.6875 Q679.2075,168.6875 678.27,167.5125 Q677.345,166.325 677.345,163.8625 Q677.345,161.775 678.32,160.375 Q679.3075,158.975 681.0075,158.975 Q681.4075,158.975 681.8325,159.0875 Q682.1825,159.2375 682.395,159.2375 Q682.57,159.2375 682.645,159.2 Q682.7325,159.1625 683.095,158.6875 L683.7075,161.675 L682.995,161.8875 Q682.6325,160.725 682.145,160.25 Q681.67,159.7625 680.9075,159.7625 Q679.9325,159.7625 679.3575,160.9125 Q678.7825,162.05 678.7825,163.8 Q678.7825,165.725 679.27,166.7625 Q679.77,167.7875 680.8575,167.7875 Q681.62,167.7875 682.17,167.2375 Q682.72,166.675 682.9825,165.475 L683.7075,165.8 Q683.3825,167.1625 682.6075,167.925 Q681.845,168.6875 680.795,168.6875 Z " fill="#000000"/><text fill="#000000" font-family="sans-serif" font-size="11.2" lengthAdjust="spacing" textLength="115.2" x="697.08" y="168.6375">ModifyQuotationConfig</text><line style="stroke:#A80036;stroke-width:0.8000000000000002;" x1="649.6" x2="834.4" y1="176.8" y2="176.8"/><line style="stroke:#A80036;stroke-width:0.8000000000000002;" x1="649.6" x2="834.4" y1="183.2" y2="183.2"/><ellipse cx="657.6" cy="195.0484" fill="#84BE84" rx="2.4" ry="2.4" style="stroke:#038048;stroke-width:0.8000000000000002;"/><text fill="#000000" font-family="sans-serif" font-size="11.2" lengthAdjust="spacing" textLength="165.6" x="664.8" y="198.4859">List&lt;String&gt; getRequiredForms()</text></g><!--class ModifyContractDraftConfig--><g id="elem_ModifyContractDraftConfig"><rect codeLine="25" fill="#FEFECE" filter="url(#f143diely461a3)" height="53.2969" id="ModifyContractDraftConfig" style="stroke:#A80036;stroke-width:0.8000000000000002;" width="186.4" x="222.4" y="260"/><ellipse cx="246.64" cy="272.8" fill="#ADD1B2" rx="8.8" ry="8.8" style="stroke:#A80036;stroke-width:0.8000000000000002;"/><path d="M246.115,277.4875 Q244.5275,277.4875 243.59,276.3125 Q242.665,275.125 242.665,272.6625 Q242.665,270.575 243.64,269.175 Q244.6275,267.775 246.3275,267.775 Q246.7275,267.775 247.1525,267.8875 Q247.5025,268.0375 247.715,268.0375 Q247.89,268.0375 247.965,268 Q248.0525,267.9625 248.415,267.4875 L249.0275,270.475 L248.315,270.6875 Q247.9525,269.525 247.465,269.05 Q246.99,268.5625 246.2275,268.5625 Q245.2525,268.5625 244.6775,269.7125 Q244.1025,270.85 244.1025,272.6 Q244.1025,274.525 244.59,275.5625 Q245.09,276.5875 246.1775,276.5875 Q246.94,276.5875 247.49,276.0375 Q248.04,275.475 248.3025,274.275 L249.0275,274.6 Q248.7025,275.9625 247.9275,276.725 Q247.165,277.4875 246.115,277.4875 Z " fill="#000000"/><text fill="#000000" font-family="sans-serif" font-size="11.2" lengthAdjust="spacing" textLength="133.6" x="260.56" y="277.4375">ModifyContractDraftConfig</text><line style="stroke:#A80036;stroke-width:0.8000000000000002;" x1="223.2" x2="408" y1="285.6" y2="285.6"/><line style="stroke:#A80036;stroke-width:0.8000000000000002;" x1="223.2" x2="408" y1="292" y2="292"/><ellipse cx="231.2" cy="303.8484" fill="#84BE84" rx="2.4" ry="2.4" style="stroke:#038048;stroke-width:0.8000000000000002;"/><text fill="#000000" font-family="sans-serif" font-size="11.2" lengthAdjust="spacing" textLength="165.6" x="238.4" y="307.2859">List&lt;String&gt; getRequiredForms()</text></g><!--class VerifySampleConfig--><g id="elem_VerifySampleConfig"><rect codeLine="28" fill="#FEFECE" filter="url(#f143diely461a3)" height="53.2969" id="VerifySampleConfig" style="stroke:#A80036;stroke-width:0.8000000000000002;" width="186.4" x="436.8" y="260"/><ellipse cx="477" cy="272.8" fill="#ADD1B2" rx="8.8" ry="8.8" style="stroke:#A80036;stroke-width:0.8000000000000002;"/><path d="M476.475,277.4875 Q474.8875,277.4875 473.95,276.3125 Q473.025,275.125 473.025,272.6625 Q473.025,270.575 474,269.175 Q474.9875,267.775 476.6875,267.775 Q477.0875,267.775 477.5125,267.8875 Q477.8625,268.0375 478.075,268.0375 Q478.25,268.0375 478.325,268 Q478.4125,267.9625 478.775,267.4875 L479.3875,270.475 L478.675,270.6875 Q478.3125,269.525 477.825,269.05 Q477.35,268.5625 476.5875,268.5625 Q475.6125,268.5625 475.0375,269.7125 Q474.4625,270.85 474.4625,272.6 Q474.4625,274.525 474.95,275.5625 Q475.45,276.5875 476.5375,276.5875 Q477.3,276.5875 477.85,276.0375 Q478.4,275.475 478.6625,274.275 L479.3875,274.6 Q479.0625,275.9625 478.2875,276.725 Q477.525,277.4875 476.475,277.4875 Z " fill="#000000"/><text fill="#000000" font-family="sans-serif" font-size="11.2" lengthAdjust="spacing" textLength="99.2" x="493.4" y="277.4375">VerifySampleConfig</text><line style="stroke:#A80036;stroke-width:0.8000000000000002;" x1="437.6" x2="622.4" y1="285.6" y2="285.6"/><line style="stroke:#A80036;stroke-width:0.8000000000000002;" x1="437.6" x2="622.4" y1="292" y2="292"/><ellipse cx="445.6" cy="303.8484" fill="#84BE84" rx="2.4" ry="2.4" style="stroke:#038048;stroke-width:0.8000000000000002;"/><text fill="#000000" font-family="sans-serif" font-size="11.2" lengthAdjust="spacing" textLength="165.6" x="452.8" y="307.2859">List&lt;String&gt; getRequiredForms()</text></g><!--class AssignMarketingOperatorConfig--><g id="elem_AssignMarketingOperatorConfig"><rect codeLine="31" fill="#FEFECE" filter="url(#f143diely461a3)" height="68.1938" id="AssignMarketingOperatorConfig" style="stroke:#A80036;stroke-width:0.8000000000000002;" width="236" x="651.2" y="252.8"/><ellipse cx="685.16" cy="265.6" fill="#ADD1B2" rx="8.8" ry="8.8" style="stroke:#A80036;stroke-width:0.8000000000000002;"/><path d="M684.635,270.2875 Q683.0475,270.2875 682.11,269.1125 Q681.185,267.925 681.185,265.4625 Q681.185,263.375 682.16,261.975 Q683.1475,260.575 684.8475,260.575 Q685.2475,260.575 685.6725,260.6875 Q686.0225,260.8375 686.235,260.8375 Q686.41,260.8375 686.485,260.8 Q686.5725,260.7625 686.935,260.2875 L687.5475,263.275 L686.835,263.4875 Q686.4725,262.325 685.985,261.85 Q685.51,261.3625 684.7475,261.3625 Q683.7725,261.3625 683.1975,262.5125 Q682.6225,263.65 682.6225,265.4 Q682.6225,267.325 683.11,268.3625 Q683.61,269.3875 684.6975,269.3875 Q685.46,269.3875 686.01,268.8375 Q686.56,268.275 686.8225,267.075 L687.5475,267.4 Q687.2225,268.7625 686.4475,269.525 Q685.685,270.2875 684.635,270.2875 Z " fill="#000000"/><text fill="#000000" font-family="sans-serif" font-size="11.2" lengthAdjust="spacing" textLength="161.6" x="701.24" y="270.2375">AssignMarketingOperatorConfig</text><line style="stroke:#A80036;stroke-width:0.8000000000000002;" x1="652" x2="886.4" y1="278.4" y2="278.4"/><line style="stroke:#A80036;stroke-width:0.8000000000000002;" x1="652" x2="886.4" y1="284.8" y2="284.8"/><ellipse cx="660" cy="296.6484" fill="#84BE84" rx="2.4" ry="2.4" style="stroke:#038048;stroke-width:0.8000000000000002;"/><text fill="#000000" font-family="sans-serif" font-size="11.2" lengthAdjust="spacing" textLength="215.2" x="667.2" y="300.0859">boolean isCompletable(Task,FormService)</text><ellipse cx="660" cy="311.5453" fill="#84BE84" rx="2.4" ry="2.4" style="stroke:#038048;stroke-width:0.8000000000000002;"/><text fill="#000000" font-family="sans-serif" font-size="11.2" lengthAdjust="spacing" textLength="165.6" x="667.2" y="314.9828">List&lt;String&gt; getRequiredForms()</text></g><!--class VerifyContractDraftConfig--><g id="elem_VerifyContractDraftConfig"><rect codeLine="35" fill="#FEFECE" filter="url(#f143diely461a3)" height="53.2969" id="VerifyContractDraftConfig" style="stroke:#A80036;stroke-width:0.8000000000000002;" width="186.4" x="915.2" y="260"/><ellipse cx="941.24" cy="272.8" fill="#ADD1B2" rx="8.8" ry="8.8" style="stroke:#A80036;stroke-width:0.8000000000000002;"/><path d="M940.715,277.4875 Q939.1275,277.4875 938.19,276.3125 Q937.265,275.125 937.265,272.6625 Q937.265,270.575 938.24,269.175 Q939.2275,267.775 940.9275,267.775 Q941.3275,267.775 941.7525,267.8875 Q942.1025,268.0375 942.315,268.0375 Q942.49,268.0375 942.565,268 Q942.6525,267.9625 943.015,267.4875 L943.6275,270.475 L942.915,270.6875 Q942.5525,269.525 942.065,269.05 Q941.59,268.5625 940.8275,268.5625 Q939.8525,268.5625 939.2775,269.7125 Q938.7025,270.85 938.7025,272.6 Q938.7025,274.525 939.19,275.5625 Q939.69,276.5875 940.7775,276.5875 Q941.54,276.5875 942.09,276.0375 Q942.64,275.475 942.9025,274.275 L943.6275,274.6 Q943.3025,275.9625 942.5275,276.725 Q941.765,277.4875 940.715,277.4875 Z " fill="#000000"/><text fill="#000000" font-family="sans-serif" font-size="11.2" lengthAdjust="spacing" textLength="129.6" x="955.56" y="277.4375">VerifyContractDraftConfig</text><line style="stroke:#A80036;stroke-width:0.8000000000000002;" x1="916" x2="1100.8" y1="285.6" y2="285.6"/><line style="stroke:#A80036;stroke-width:0.8000000000000002;" x1="916" x2="1100.8" y1="292" y2="292"/><ellipse cx="924" cy="303.8484" fill="#84BE84" rx="2.4" ry="2.4" style="stroke:#038048;stroke-width:0.8000000000000002;"/><text fill="#000000" font-family="sans-serif" font-size="11.2" lengthAdjust="spacing" textLength="165.6" x="931.2" y="307.2859">List&lt;String&gt; getRequiredForms()</text></g><!--class FillOutAppFormConfig--><g id="elem_FillOutAppFormConfig"><rect codeLine="38" fill="#FEFECE" filter="url(#f143diely461a3)" height="53.2969" id="FillOutAppFormConfig" style="stroke:#A80036;stroke-width:0.8000000000000002;" width="186.4" x="342.4" y="376"/><ellipse cx="376.36" cy="388.8" fill="#ADD1B2" rx="8.8" ry="8.8" style="stroke:#A80036;stroke-width:0.8000000000000002;"/><path d="M375.835,393.4875 Q374.2475,393.4875 373.31,392.3125 Q372.385,391.125 372.385,388.6625 Q372.385,386.575 373.36,385.175 Q374.3475,383.775 376.0475,383.775 Q376.4475,383.775 376.8725,383.8875 Q377.2225,384.0375 377.435,384.0375 Q377.61,384.0375 377.685,384 Q377.7725,383.9625 378.135,383.4875 L378.7475,386.475 L378.035,386.6875 Q377.6725,385.525 377.185,385.05 Q376.71,384.5625 375.9475,384.5625 Q374.9725,384.5625 374.3975,385.7125 Q373.8225,386.85 373.8225,388.6 Q373.8225,390.525 374.31,391.5625 Q374.81,392.5875 375.8975,392.5875 Q376.66,392.5875 377.21,392.0375 Q377.76,391.475 378.0225,390.275 L378.7475,390.6 Q378.4225,391.9625 377.6475,392.725 Q376.885,393.4875 375.835,393.4875 Z " fill="#000000"/><text fill="#000000" font-family="sans-serif" font-size="11.2" lengthAdjust="spacing" textLength="112" x="392.44" y="393.4375">FillOutAppFormConfig</text><line style="stroke:#A80036;stroke-width:0.8000000000000002;" x1="343.2" x2="528" y1="401.6" y2="401.6"/><line style="stroke:#A80036;stroke-width:0.8000000000000002;" x1="343.2" x2="528" y1="408" y2="408"/><ellipse cx="351.2" cy="419.8484" fill="#84BE84" rx="2.4" ry="2.4" style="stroke:#038048;stroke-width:0.8000000000000002;"/><text fill="#000000" font-family="sans-serif" font-size="11.2" lengthAdjust="spacing" textLength="165.6" x="358.4" y="423.2859">List&lt;String&gt; getRequiredForms()</text></g><!--class ConfirmTestReportConfig--><g id="elem_ConfirmTestReportConfig"><rect codeLine="41" fill="#FEFECE" filter="url(#f143diely461a3)" height="53.2969" id="ConfirmTestReportConfig" style="stroke:#A80036;stroke-width:0.8000000000000002;" width="186.4" x="556.8" y="376"/><ellipse cx="583.2" cy="388.8" fill="#ADD1B2" rx="8.8" ry="8.8" style="stroke:#A80036;stroke-width:0.8000000000000002;"/><path d="M582.675,393.4875 Q581.0875,393.4875 580.15,392.3125 Q579.225,391.125 579.225,388.6625 Q579.225,386.575 580.2,385.175 Q581.1875,383.775 582.8875,383.775 Q583.2875,383.775 583.7125,383.8875 Q584.0625,384.0375 584.275,384.0375 Q584.45,384.0375 584.525,384 Q584.6125,383.9625 584.975,383.4875 L585.5875,386.475 L584.875,386.6875 Q584.5125,385.525 584.025,385.05 Q583.55,384.5625 582.7875,384.5625 Q581.8125,384.5625 581.2375,385.7125 Q580.6625,386.85 580.6625,388.6 Q580.6625,390.525 581.15,391.5625 Q581.65,392.5875 582.7375,392.5875 Q583.5,392.5875 584.05,392.0375 Q584.6,391.475 584.8625,390.275 L585.5875,390.6 Q585.2625,391.9625 584.4875,392.725 Q583.725,393.4875 582.675,393.4875 Z " fill="#000000"/><text fill="#000000" font-family="sans-serif" font-size="11.2" lengthAdjust="spacing" textLength="128.8" x="597.6" y="393.4375">ConfirmTestReportConfig</text><line style="stroke:#A80036;stroke-width:0.8000000000000002;" x1="557.6" x2="742.4" y1="401.6" y2="401.6"/><line style="stroke:#A80036;stroke-width:0.8000000000000002;" x1="557.6" x2="742.4" y1="408" y2="408"/><ellipse cx="565.6" cy="419.8484" fill="#84BE84" rx="2.4" ry="2.4" style="stroke:#038048;stroke-width:0.8000000000000002;"/><text fill="#000000" font-family="sans-serif" font-size="11.2" lengthAdjust="spacing" textLength="165.6" x="572.8" y="423.2859">List&lt;String&gt; getRequiredForms()</text></g><!--class VerifyApplicationConfig--><g id="elem_VerifyApplicationConfig"><rect codeLine="44" fill="#FEFECE" filter="url(#f143diely461a3)" height="53.2969" id="VerifyApplicationConfig" style="stroke:#A80036;stroke-width:0.8000000000000002;" width="186.4" x="771.2" y="376"/><ellipse cx="803" cy="388.8" fill="#ADD1B2" rx="8.8" ry="8.8" style="stroke:#A80036;stroke-width:0.8000000000000002;"/><path d="M802.475,393.4875 Q800.8875,393.4875 799.95,392.3125 Q799.025,391.125 799.025,388.6625 Q799.025,386.575 800,385.175 Q800.9875,383.775 802.6875,383.775 Q803.0875,383.775 803.5125,383.8875 Q803.8625,384.0375 804.075,384.0375 Q804.25,384.0375 804.325,384 Q804.4125,383.9625 804.775,383.4875 L805.3875,386.475 L804.675,386.6875 Q804.3125,385.525 803.825,385.05 Q803.35,384.5625 802.5875,384.5625 Q801.6125,384.5625 801.0375,385.7125 Q800.4625,386.85 800.4625,388.6 Q800.4625,390.525 800.95,391.5625 Q801.45,392.5875 802.5375,392.5875 Q803.3,392.5875 803.85,392.0375 Q804.4,391.475 804.6625,390.275 L805.3875,390.6 Q805.0625,391.9625 804.2875,392.725 Q803.525,393.4875 802.475,393.4875 Z " fill="#000000"/><text fill="#000000" font-family="sans-serif" font-size="11.2" lengthAdjust="spacing" textLength="116.8" x="818.6" y="393.4375">VerifyApplicationConfig</text><line style="stroke:#A80036;stroke-width:0.8000000000000002;" x1="772" x2="956.8" y1="401.6" y2="401.6"/><line style="stroke:#A80036;stroke-width:0.8000000000000002;" x1="772" x2="956.8" y1="408" y2="408"/><ellipse cx="780" cy="419.8484" fill="#84BE84" rx="2.4" ry="2.4" style="stroke:#038048;stroke-width:0.8000000000000002;"/><text fill="#000000" font-family="sans-serif" font-size="11.2" lengthAdjust="spacing" textLength="165.6" x="787.2" y="423.2859">List&lt;String&gt; getRequiredForms()</text></g><!--class ReUploadSampleConfig--><g id="elem_ReUploadSampleConfig"><rect codeLine="47" fill="#FEFECE" filter="url(#f143diely461a3)" height="53.2969" id="ReUploadSampleConfig" style="stroke:#A80036;stroke-width:0.8000000000000002;" width="186.4" x="985.6" y="376"/><ellipse cx="1015.96" cy="388.8" fill="#ADD1B2" rx="8.8" ry="8.8" style="stroke:#A80036;stroke-width:0.8000000000000002;"/><path d="M1015.435,393.4875 Q1013.8475,393.4875 1012.91,392.3125 Q1011.985,391.125 1011.985,388.6625 Q1011.985,386.575 1012.96,385.175 Q1013.9475,383.775 1015.6475,383.775 Q1016.0475,383.775 1016.4725,383.8875 Q1016.8225,384.0375 1017.035,384.0375 Q1017.21,384.0375 1017.285,384 Q1017.3725,383.9625 1017.735,383.4875 L1018.3475,386.475 L1017.635,386.6875 Q1017.2725,385.525 1016.785,385.05 Q1016.31,384.5625 1015.5475,384.5625 Q1014.5725,384.5625 1013.9975,385.7125 Q1013.4225,386.85 1013.4225,388.6 Q1013.4225,390.525 1013.91,391.5625 Q1014.41,392.5875 1015.4975,392.5875 Q1016.26,392.5875 1016.81,392.0375 Q1017.36,391.475 1017.6225,390.275 L1018.3475,390.6 Q1018.0225,391.9625 1017.2475,392.725 Q1016.485,393.4875 1015.435,393.4875 Z " fill="#000000"/><text fill="#000000" font-family="sans-serif" font-size="11.2" lengthAdjust="spacing" textLength="120" x="1031.24" y="393.4375">ReUploadSampleConfig</text><line style="stroke:#A80036;stroke-width:0.8000000000000002;" x1="986.4" x2="1171.2" y1="401.6" y2="401.6"/><line style="stroke:#A80036;stroke-width:0.8000000000000002;" x1="986.4" x2="1171.2" y1="408" y2="408"/><ellipse cx="994.4" cy="419.8484" fill="#84BE84" rx="2.4" ry="2.4" style="stroke:#038048;stroke-width:0.8000000000000002;"/><text fill="#000000" font-family="sans-serif" font-size="11.2" lengthAdjust="spacing" textLength="165.6" x="1001.6" y="423.2859">List&lt;String&gt; getRequiredForms()</text></g><!--class VerifyQuotationConfig--><g id="elem_VerifyQuotationConfig"><rect codeLine="50" fill="#FEFECE" filter="url(#f143diely461a3)" height="53.2969" id="VerifyQuotationConfig" style="stroke:#A80036;stroke-width:0.8000000000000002;" width="186.4" x="1200" y="376"/><ellipse cx="1234.32" cy="388.8" fill="#ADD1B2" rx="8.8" ry="8.8" style="stroke:#A80036;stroke-width:0.8000000000000002;"/><path d="M1233.795,393.4875 Q1232.2075,393.4875 1231.27,392.3125 Q1230.345,391.125 1230.345,388.6625 Q1230.345,386.575 1231.32,385.175 Q1232.3075,383.775 1234.0075,383.775 Q1234.4075,383.775 1234.8325,383.8875 Q1235.1825,384.0375 1235.395,384.0375 Q1235.57,384.0375 1235.645,384 Q1235.7325,383.9625 1236.095,383.4875 L1236.7075,386.475 L1235.995,386.6875 Q1235.6325,385.525 1235.145,385.05 Q1234.67,384.5625 1233.9075,384.5625 Q1232.9325,384.5625 1232.3575,385.7125 Q1231.7825,386.85 1231.7825,388.6 Q1231.7825,390.525 1232.27,391.5625 Q1232.77,392.5875 1233.8575,392.5875 Q1234.62,392.5875 1235.17,392.0375 Q1235.72,391.475 1235.9825,390.275 L1236.7075,390.6 Q1236.3825,391.9625 1235.6075,392.725 Q1234.845,393.4875 1233.795,393.4875 Z " fill="#000000"/><text fill="#000000" font-family="sans-serif" font-size="11.2" lengthAdjust="spacing" textLength="111.2" x="1250.48" y="393.4375">VerifyQuotationConfig</text><line style="stroke:#A80036;stroke-width:0.8000000000000002;" x1="1200.8" x2="1385.6" y1="401.6" y2="401.6"/><line style="stroke:#A80036;stroke-width:0.8000000000000002;" x1="1200.8" x2="1385.6" y1="408" y2="408"/><ellipse cx="1208.8" cy="419.8484" fill="#84BE84" rx="2.4" ry="2.4" style="stroke:#038048;stroke-width:0.8000000000000002;"/><text fill="#000000" font-family="sans-serif" font-size="11.2" lengthAdjust="spacing" textLength="165.6" x="1216" y="423.2859">List&lt;String&gt; getRequiredForms()</text></g><!--class VerifyTestReportConfig--><g id="elem_VerifyTestReportConfig"><rect codeLine="53" fill="#FEFECE" filter="url(#f143diely461a3)" height="53.2969" id="VerifyTestReportConfig" style="stroke:#A80036;stroke-width:0.8000000000000002;" width="186.4" x="1414.4" y="376"/><ellipse cx="1445.48" cy="388.8" fill="#ADD1B2" rx="8.8" ry="8.8" style="stroke:#A80036;stroke-width:0.8000000000000002;"/><path d="M1444.955,393.4875 Q1443.3675,393.4875 1442.43,392.3125 Q1441.505,391.125 1441.505,388.6625 Q1441.505,386.575 1442.48,385.175 Q1443.4675,383.775 1445.1675,383.775 Q1445.5675,383.775 1445.9925,383.8875 Q1446.3425,384.0375 1446.555,384.0375 Q1446.73,384.0375 1446.805,384 Q1446.8925,383.9625 1447.255,383.4875 L1447.8675,386.475 L1447.155,386.6875 Q1446.7925,385.525 1446.305,385.05 Q1445.83,384.5625 1445.0675,384.5625 Q1444.0925,384.5625 1443.5175,385.7125 Q1442.9425,386.85 1442.9425,388.6 Q1442.9425,390.525 1443.43,391.5625 Q1443.93,392.5875 1445.0175,392.5875 Q1445.78,392.5875 1446.33,392.0375 Q1446.88,391.475 1447.1425,390.275 L1447.8675,390.6 Q1447.5425,391.9625 1446.7675,392.725 Q1446.005,393.4875 1444.955,393.4875 Z " fill="#000000"/><text fill="#000000" font-family="sans-serif" font-size="11.2" lengthAdjust="spacing" textLength="118.4" x="1460.92" y="393.4375">VerifyTestReportConfig</text><line style="stroke:#A80036;stroke-width:0.8000000000000002;" x1="1415.2" x2="1600" y1="401.6" y2="401.6"/><line style="stroke:#A80036;stroke-width:0.8000000000000002;" x1="1415.2" x2="1600" y1="408" y2="408"/><ellipse cx="1423.2" cy="419.8484" fill="#84BE84" rx="2.4" ry="2.4" style="stroke:#038048;stroke-width:0.8000000000000002;"/><text fill="#000000" font-family="sans-serif" font-size="11.2" lengthAdjust="spacing" textLength="165.6" x="1430.4" y="423.2859">List&lt;String&gt; getRequiredForms()</text></g><!--class GenTestPlanConfig--><g id="elem_GenTestPlanConfig"><rect codeLine="56" fill="#FEFECE" filter="url(#f143diely461a3)" height="53.2969" id="GenTestPlanConfig" style="stroke:#A80036;stroke-width:0.8000000000000002;" width="186.4" x="1628.8" y="376"/><ellipse cx="1669" cy="388.8" fill="#ADD1B2" rx="8.8" ry="8.8" style="stroke:#A80036;stroke-width:0.8000000000000002;"/><path d="M1668.475,393.4875 Q1666.8875,393.4875 1665.95,392.3125 Q1665.025,391.125 1665.025,388.6625 Q1665.025,386.575 1666,385.175 Q1666.9875,383.775 1668.6875,383.775 Q1669.0875,383.775 1669.5125,383.8875 Q1669.8625,384.0375 1670.075,384.0375 Q1670.25,384.0375 1670.325,384 Q1670.4125,383.9625 1670.775,383.4875 L1671.3875,386.475 L1670.675,386.6875 Q1670.3125,385.525 1669.825,385.05 Q1669.35,384.5625 1668.5875,384.5625 Q1667.6125,384.5625 1667.0375,385.7125 Q1666.4625,386.85 1666.4625,388.6 Q1666.4625,390.525 1666.95,391.5625 Q1667.45,392.5875 1668.5375,392.5875 Q1669.3,392.5875 1669.85,392.0375 Q1670.4,391.475 1670.6625,390.275 L1671.3875,390.6 Q1671.0625,391.9625 1670.2875,392.725 Q1669.525,393.4875 1668.475,393.4875 Z " fill="#000000"/><text fill="#000000" font-family="sans-serif" font-size="11.2" lengthAdjust="spacing" textLength="99.2" x="1685.4" y="393.4375">GenTestPlanConfig</text><line style="stroke:#A80036;stroke-width:0.8000000000000002;" x1="1629.6" x2="1814.4" y1="401.6" y2="401.6"/><line style="stroke:#A80036;stroke-width:0.8000000000000002;" x1="1629.6" x2="1814.4" y1="408" y2="408"/><ellipse cx="1637.6" cy="419.8484" fill="#84BE84" rx="2.4" ry="2.4" style="stroke:#038048;stroke-width:0.8000000000000002;"/><text fill="#000000" font-family="sans-serif" font-size="11.2" lengthAdjust="spacing" textLength="165.6" x="1644.8" y="423.2859">List&lt;String&gt; getRequiredForms()</text></g><!--class SendTestReportConfig--><g id="elem_SendTestReportConfig"><rect codeLine="59" fill="#FEFECE" filter="url(#f143diely461a3)" height="53.2969" id="SendTestReportConfig" style="stroke:#A80036;stroke-width:0.8000000000000002;" width="186.4" x="1843.2" y="376"/><ellipse cx="1875.36" cy="388.8" fill="#ADD1B2" rx="8.8" ry="8.8" style="stroke:#A80036;stroke-width:0.8000000000000002;"/><path d="M1874.835,393.4875 Q1873.2475,393.4875 1872.31,392.3125 Q1871.385,391.125 1871.385,388.6625 Q1871.385,386.575 1872.36,385.175 Q1873.3475,383.775 1875.0475,383.775 Q1875.4475,383.775 1875.8725,383.8875 Q1876.2225,384.0375 1876.435,384.0375 Q1876.61,384.0375 1876.685,384 Q1876.7725,383.9625 1877.135,383.4875 L1877.7475,386.475 L1877.035,386.6875 Q1876.6725,385.525 1876.185,385.05 Q1875.71,384.5625 1874.9475,384.5625 Q1873.9725,384.5625 1873.3975,385.7125 Q1872.8225,386.85 1872.8225,388.6 Q1872.8225,390.525 1873.31,391.5625 Q1873.81,392.5875 1874.8975,392.5875 Q1875.66,392.5875 1876.21,392.0375 Q1876.76,391.475 1877.0225,390.275 L1877.7475,390.6 Q1877.4225,391.9625 1876.6475,392.725 Q1875.885,393.4875 1874.835,393.4875 Z " fill="#000000"/><text fill="#000000" font-family="sans-serif" font-size="11.2" lengthAdjust="spacing" textLength="116" x="1891.04" y="393.4375">SendTestReportConfig</text><line style="stroke:#A80036;stroke-width:0.8000000000000002;" x1="1844" x2="2028.8" y1="401.6" y2="401.6"/><line style="stroke:#A80036;stroke-width:0.8000000000000002;" x1="1844" x2="2028.8" y1="408" y2="408"/><ellipse cx="1852" cy="419.8484" fill="#84BE84" rx="2.4" ry="2.4" style="stroke:#038048;stroke-width:0.8000000000000002;"/><text fill="#000000" font-family="sans-serif" font-size="11.2" lengthAdjust="spacing" textLength="165.6" x="1859.2" y="423.2859">List&lt;String&gt; getRequiredForms()</text></g><!--class VerifyTestPlanConfig--><g id="elem_VerifyTestPlanConfig"><rect codeLine="62" fill="#FEFECE" filter="url(#f143diely461a3)" height="53.2969" id="VerifyTestPlanConfig" style="stroke:#A80036;stroke-width:0.8000000000000002;" width="186.4" x="2057.6" y="376"/><ellipse cx="2094.2" cy="388.8" fill="#ADD1B2" rx="8.8" ry="8.8" style="stroke:#A80036;stroke-width:0.8000000000000002;"/><path d="M2093.675,393.4875 Q2092.0875,393.4875 2091.15,392.3125 Q2090.225,391.125 2090.225,388.6625 Q2090.225,386.575 2091.2,385.175 Q2092.1875,383.775 2093.8875,383.775 Q2094.2875,383.775 2094.7125,383.8875 Q2095.0625,384.0375 2095.275,384.0375 Q2095.45,384.0375 2095.525,384 Q2095.6125,383.9625 2095.975,383.4875 L2096.5875,386.475 L2095.875,386.6875 Q2095.5125,385.525 2095.025,385.05 Q2094.55,384.5625 2093.7875,384.5625 Q2092.8125,384.5625 2092.2375,385.7125 Q2091.6625,386.85 2091.6625,388.6 Q2091.6625,390.525 2092.15,391.5625 Q2092.65,392.5875 2093.7375,392.5875 Q2094.5,392.5875 2095.05,392.0375 Q2095.6,391.475 2095.8625,390.275 L2096.5875,390.6 Q2096.2625,391.9625 2095.4875,392.725 Q2094.725,393.4875 2093.675,393.4875 Z " fill="#000000"/><text fill="#000000" font-family="sans-serif" font-size="11.2" lengthAdjust="spacing" textLength="106.4" x="2110.6" y="393.4375">VerifyTestPlanConfig</text><line style="stroke:#A80036;stroke-width:0.8000000000000002;" x1="2058.4" x2="2243.2" y1="401.6" y2="401.6"/><line style="stroke:#A80036;stroke-width:0.8000000000000002;" x1="2058.4" x2="2243.2" y1="408" y2="408"/><ellipse cx="2066.4" cy="419.8484" fill="#84BE84" rx="2.4" ry="2.4" style="stroke:#038048;stroke-width:0.8000000000000002;"/><text fill="#000000" font-family="sans-serif" font-size="11.2" lengthAdjust="spacing" textLength="165.6" x="2073.6" y="423.2859">List&lt;String&gt; getRequiredForms()</text></g><!--class AssignTestingOperatorConfig--><g id="elem_AssignTestingOperatorConfig"><rect codeLine="65" fill="#FEFECE" filter="url(#f143diely461a3)" height="68.1938" id="AssignTestingOperatorConfig" style="stroke:#A80036;stroke-width:0.8000000000000002;" width="236" x="2272" y="368.8"/><ellipse cx="2311.8" cy="381.6" fill="#ADD1B2" rx="8.8" ry="8.8" style="stroke:#A80036;stroke-width:0.8000000000000002;"/><path d="M2311.275,386.2875 Q2309.6875,386.2875 2308.75,385.1125 Q2307.825,383.925 2307.825,381.4625 Q2307.825,379.375 2308.8,377.975 Q2309.7875,376.575 2311.4875,376.575 Q2311.8875,376.575 2312.3125,376.6875 Q2312.6625,376.8375 2312.875,376.8375 Q2313.05,376.8375 2313.125,376.8 Q2313.2125,376.7625 2313.575,376.2875 L2314.1875,379.275 L2313.475,379.4875 Q2313.1125,378.325 2312.625,377.85 Q2312.15,377.3625 2311.3875,377.3625 Q2310.4125,377.3625 2309.8375,378.5125 Q2309.2625,379.65 2309.2625,381.4 Q2309.2625,383.325 2309.75,384.3625 Q2310.25,385.3875 2311.3375,385.3875 Q2312.1,385.3875 2312.65,384.8375 Q2313.2,384.275 2313.4625,383.075 L2314.1875,383.4 Q2313.8625,384.7625 2313.0875,385.525 Q2312.325,386.2875 2311.275,386.2875 Z " fill="#000000"/><text fill="#000000" font-family="sans-serif" font-size="11.2" lengthAdjust="spacing" textLength="149.6" x="2328.2" y="386.2375">AssignTestingOperatorConfig</text><line style="stroke:#A80036;stroke-width:0.8000000000000002;" x1="2272.8" x2="2507.2" y1="394.4" y2="394.4"/><line style="stroke:#A80036;stroke-width:0.8000000000000002;" x1="2272.8" x2="2507.2" y1="400.8" y2="400.8"/><ellipse cx="2280.8" cy="412.6484" fill="#84BE84" rx="2.4" ry="2.4" style="stroke:#038048;stroke-width:0.8000000000000002;"/><text fill="#000000" font-family="sans-serif" font-size="11.2" lengthAdjust="spacing" textLength="215.2" x="2288" y="416.0859">boolean isCompletable(Task,FormService)</text><ellipse cx="2280.8" cy="427.5453" fill="#84BE84" rx="2.4" ry="2.4" style="stroke:#038048;stroke-width:0.8000000000000002;"/><text fill="#000000" font-family="sans-serif" font-size="11.2" lengthAdjust="spacing" textLength="165.6" x="2288" y="430.9828">List&lt;String&gt; getRequiredForms()</text></g><!--class ModifyApplicationConfig--><g id="elem_ModifyApplicationConfig"><rect codeLine="69" fill="#FEFECE" filter="url(#f143diely461a3)" height="53.2969" id="ModifyApplicationConfig" style="stroke:#A80036;stroke-width:0.8000000000000002;" width="186.4" x="1698.4" y="260"/><ellipse cx="1728.4" cy="272.8" fill="#ADD1B2" rx="8.8" ry="8.8" style="stroke:#A80036;stroke-width:0.8000000000000002;"/><path d="M1727.875,277.4875 Q1726.2875,277.4875 1725.35,276.3125 Q1724.425,275.125 1724.425,272.6625 Q1724.425,270.575 1725.4,269.175 Q1726.3875,267.775 1728.0875,267.775 Q1728.4875,267.775 1728.9125,267.8875 Q1729.2625,268.0375 1729.475,268.0375 Q1729.65,268.0375 1729.725,268 Q1729.8125,267.9625 1730.175,267.4875 L1730.7875,270.475 L1730.075,270.6875 Q1729.7125,269.525 1729.225,269.05 Q1728.75,268.5625 1727.9875,268.5625 Q1727.0125,268.5625 1726.4375,269.7125 Q1725.8625,270.85 1725.8625,272.6 Q1725.8625,274.525 1726.35,275.5625 Q1726.85,276.5875 1727.9375,276.5875 Q1728.7,276.5875 1729.25,276.0375 Q1729.8,275.475 1730.0625,274.275 L1730.7875,274.6 Q1730.4625,275.9625 1729.6875,276.725 Q1728.925,277.4875 1727.875,277.4875 Z " fill="#000000"/><text fill="#000000" font-family="sans-serif" font-size="11.2" lengthAdjust="spacing" textLength="120.8" x="1743.6" y="277.4375">ModifyApplicationConfig</text><line style="stroke:#A80036;stroke-width:0.8000000000000002;" x1="1699.2" x2="1884" y1="285.6" y2="285.6"/><line style="stroke:#A80036;stroke-width:0.8000000000000002;" x1="1699.2" x2="1884" y1="292" y2="292"/><ellipse cx="1707.2" cy="303.8484" fill="#84BE84" rx="2.4" ry="2.4" style="stroke:#038048;stroke-width:0.8000000000000002;"/><text fill="#000000" font-family="sans-serif" font-size="11.2" lengthAdjust="spacing" textLength="165.6" x="1714.4" y="307.2859">List&lt;String&gt; getRequiredForms()</text></g><!--class ModifyTestPlanConfig--><g id="elem_ModifyTestPlanConfig"><rect codeLine="72" fill="#FEFECE" filter="url(#f143diely461a3)" height="53.2969" id="ModifyTestPlanConfig" style="stroke:#A80036;stroke-width:0.8000000000000002;" width="186.4" x="1912.8" y="260"/><ellipse cx="1947.48" cy="272.8" fill="#ADD1B2" rx="8.8" ry="8.8" style="stroke:#A80036;stroke-width:0.8000000000000002;"/><path d="M1946.955,277.4875 Q1945.3675,277.4875 1944.43,276.3125 Q1943.505,275.125 1943.505,272.6625 Q1943.505,270.575 1944.48,269.175 Q1945.4675,267.775 1947.1675,267.775 Q1947.5675,267.775 1947.9925,267.8875 Q1948.3425,268.0375 1948.555,268.0375 Q1948.73,268.0375 1948.805,268 Q1948.8925,267.9625 1949.255,267.4875 L1949.8675,270.475 L1949.155,270.6875 Q1948.7925,269.525 1948.305,269.05 Q1947.83,268.5625 1947.0675,268.5625 Q1946.0925,268.5625 1945.5175,269.7125 Q1944.9425,270.85 1944.9425,272.6 Q1944.9425,274.525 1945.43,275.5625 Q1945.93,276.5875 1947.0175,276.5875 Q1947.78,276.5875 1948.33,276.0375 Q1948.88,275.475 1949.1425,274.275 L1949.8675,274.6 Q1949.5425,275.9625 1948.7675,276.725 Q1948.005,277.4875 1946.955,277.4875 Z " fill="#000000"/><text fill="#000000" font-family="sans-serif" font-size="11.2" lengthAdjust="spacing" textLength="110.4" x="1963.72" y="277.4375">ModifyTestPlanConfig</text><line style="stroke:#A80036;stroke-width:0.8000000000000002;" x1="1913.6" x2="2098.4" y1="285.6" y2="285.6"/><line style="stroke:#A80036;stroke-width:0.8000000000000002;" x1="1913.6" x2="2098.4" y1="292" y2="292"/><ellipse cx="1921.6" cy="303.8484" fill="#84BE84" rx="2.4" ry="2.4" style="stroke:#038048;stroke-width:0.8000000000000002;"/><text fill="#000000" font-family="sans-serif" font-size="11.2" lengthAdjust="spacing" textLength="165.6" x="1928.8" y="307.2859">List&lt;String&gt; getRequiredForms()</text></g><!--class GenQuotationConfig--><g id="elem_GenQuotationConfig"><rect codeLine="75" fill="#FEFECE" filter="url(#f143diely461a3)" height="53.2969" id="GenQuotationConfig" style="stroke:#A80036;stroke-width:0.8000000000000002;" width="186.4" x="2127.2" y="260"/><ellipse cx="2165" cy="272.8" fill="#ADD1B2" rx="8.8" ry="8.8" style="stroke:#A80036;stroke-width:0.8000000000000002;"/><path d="M2164.475,277.4875 Q2162.8875,277.4875 2161.95,276.3125 Q2161.025,275.125 2161.025,272.6625 Q2161.025,270.575 2162,269.175 Q2162.9875,267.775 2164.6875,267.775 Q2165.0875,267.775 2165.5125,267.8875 Q2165.8625,268.0375 2166.075,268.0375 Q2166.25,268.0375 2166.325,268 Q2166.4125,267.9625 2166.775,267.4875 L2167.3875,270.475 L2166.675,270.6875 Q2166.3125,269.525 2165.825,269.05 Q2165.35,268.5625 2164.5875,268.5625 Q2163.6125,268.5625 2163.0375,269.7125 Q2162.4625,270.85 2162.4625,272.6 Q2162.4625,274.525 2162.95,275.5625 Q2163.45,276.5875 2164.5375,276.5875 Q2165.3,276.5875 2165.85,276.0375 Q2166.4,275.475 2166.6625,274.275 L2167.3875,274.6 Q2167.0625,275.9625 2166.2875,276.725 Q2165.525,277.4875 2164.475,277.4875 Z " fill="#000000"/><text fill="#000000" font-family="sans-serif" font-size="11.2" lengthAdjust="spacing" textLength="104" x="2181.4" y="277.4375">GenQuotationConfig</text><line style="stroke:#A80036;stroke-width:0.8000000000000002;" x1="2128" x2="2312.8" y1="285.6" y2="285.6"/><line style="stroke:#A80036;stroke-width:0.8000000000000002;" x1="2128" x2="2312.8" y1="292" y2="292"/><ellipse cx="2136" cy="303.8484" fill="#84BE84" rx="2.4" ry="2.4" style="stroke:#038048;stroke-width:0.8000000000000002;"/><text fill="#000000" font-family="sans-serif" font-size="11.2" lengthAdjust="spacing" textLength="165.6" x="2143.2" y="307.2859">List&lt;String&gt; getRequiredForms()</text></g><!--class ModifyTestReportConfig--><g id="elem_ModifyTestReportConfig"><rect codeLine="78" fill="#FEFECE" filter="url(#f143diely461a3)" height="53.2969" id="ModifyTestReportConfig" style="stroke:#A80036;stroke-width:0.8000000000000002;" width="186.4" x="2341.6" y="260"/><ellipse cx="2370.88" cy="272.8" fill="#ADD1B2" rx="8.8" ry="8.8" style="stroke:#A80036;stroke-width:0.8000000000000002;"/><path d="M2370.355,277.4875 Q2368.7675,277.4875 2367.83,276.3125 Q2366.905,275.125 2366.905,272.6625 Q2366.905,270.575 2367.88,269.175 Q2368.8675,267.775 2370.5675,267.775 Q2370.9675,267.775 2371.3925,267.8875 Q2371.7425,268.0375 2371.955,268.0375 Q2372.13,268.0375 2372.205,268 Q2372.2925,267.9625 2372.655,267.4875 L2373.2675,270.475 L2372.555,270.6875 Q2372.1925,269.525 2371.705,269.05 Q2371.23,268.5625 2370.4675,268.5625 Q2369.4925,268.5625 2368.9175,269.7125 Q2368.3425,270.85 2368.3425,272.6 Q2368.3425,274.525 2368.83,275.5625 Q2369.33,276.5875 2370.4175,276.5875 Q2371.18,276.5875 2371.73,276.0375 Q2372.28,275.475 2372.5425,274.275 L2373.2675,274.6 Q2372.9425,275.9625 2372.1675,276.725 Q2371.405,277.4875 2370.355,277.4875 Z " fill="#000000"/><text fill="#000000" font-family="sans-serif" font-size="11.2" lengthAdjust="spacing" textLength="122.4" x="2385.92" y="277.4375">ModifyTestReportConfig</text><line style="stroke:#A80036;stroke-width:0.8000000000000002;" x1="2342.4" x2="2527.2" y1="285.6" y2="285.6"/><line style="stroke:#A80036;stroke-width:0.8000000000000002;" x1="2342.4" x2="2527.2" y1="292" y2="292"/><ellipse cx="2350.4" cy="303.8484" fill="#84BE84" rx="2.4" ry="2.4" style="stroke:#038048;stroke-width:0.8000000000000002;"/><text fill="#000000" font-family="sans-serif" font-size="11.2" lengthAdjust="spacing" textLength="165.6" x="2357.6" y="307.2859">List&lt;String&gt; getRequiredForms()</text></g><!--class ModifyContractConfig--><g id="elem_ModifyContractConfig"><rect codeLine="81" fill="#FEFECE" filter="url(#f143diely461a3)" height="53.2969" id="ModifyContractConfig" style="stroke:#A80036;stroke-width:0.8000000000000002;" width="186.4" x="1965.6" y="151.2"/><ellipse cx="2001" cy="164" fill="#ADD1B2" rx="8.8" ry="8.8" style="stroke:#A80036;stroke-width:0.8000000000000002;"/><path d="M2000.475,168.6875 Q1998.8875,168.6875 1997.95,167.5125 Q1997.025,166.325 1997.025,163.8625 Q1997.025,161.775 1998,160.375 Q1998.9875,158.975 2000.6875,158.975 Q2001.0875,158.975 2001.5125,159.0875 Q2001.8625,159.2375 2002.075,159.2375 Q2002.25,159.2375 2002.325,159.2 Q2002.4125,159.1625 2002.775,158.6875 L2003.3875,161.675 L2002.675,161.8875 Q2002.3125,160.725 2001.825,160.25 Q2001.35,159.7625 2000.5875,159.7625 Q1999.6125,159.7625 1999.0375,160.9125 Q1998.4625,162.05 1998.4625,163.8 Q1998.4625,165.725 1998.95,166.7625 Q1999.45,167.7875 2000.5375,167.7875 Q2001.3,167.7875 2001.85,167.2375 Q2002.4,166.675 2002.6625,165.475 L2003.3875,165.8 Q2003.0625,167.1625 2002.2875,167.925 Q2001.525,168.6875 2000.475,168.6875 Z " fill="#000000"/><text fill="#000000" font-family="sans-serif" font-size="11.2" lengthAdjust="spacing" textLength="108.8" x="2017.4" y="168.6375">ModifyContractConfig</text><line style="stroke:#A80036;stroke-width:0.8000000000000002;" x1="1966.4" x2="2151.2" y1="176.8" y2="176.8"/><line style="stroke:#A80036;stroke-width:0.8000000000000002;" x1="1966.4" x2="2151.2" y1="183.2" y2="183.2"/><ellipse cx="1974.4" cy="195.0484" fill="#84BE84" rx="2.4" ry="2.4" style="stroke:#038048;stroke-width:0.8000000000000002;"/><text fill="#000000" font-family="sans-serif" font-size="11.2" lengthAdjust="spacing" textLength="165.6" x="1981.6" y="198.4859">List&lt;String&gt; getRequiredForms()</text></g><!--class VerifyContractConfig--><g id="elem_VerifyContractConfig"><rect codeLine="84" fill="#FEFECE" filter="url(#f143diely461a3)" height="53.2969" id="VerifyContractConfig" style="stroke:#A80036;stroke-width:0.8000000000000002;" width="186.4" x="2180" y="151.2"/><ellipse cx="2217.4" cy="164" fill="#ADD1B2" rx="8.8" ry="8.8" style="stroke:#A80036;stroke-width:0.8000000000000002;"/><path d="M2216.875,168.6875 Q2215.2875,168.6875 2214.35,167.5125 Q2213.425,166.325 2213.425,163.8625 Q2213.425,161.775 2214.4,160.375 Q2215.3875,158.975 2217.0875,158.975 Q2217.4875,158.975 2217.9125,159.0875 Q2218.2625,159.2375 2218.475,159.2375 Q2218.65,159.2375 2218.725,159.2 Q2218.8125,159.1625 2219.175,158.6875 L2219.7875,161.675 L2219.075,161.8875 Q2218.7125,160.725 2218.225,160.25 Q2217.75,159.7625 2216.9875,159.7625 Q2216.0125,159.7625 2215.4375,160.9125 Q2214.8625,162.05 2214.8625,163.8 Q2214.8625,165.725 2215.35,166.7625 Q2215.85,167.7875 2216.9375,167.7875 Q2217.7,167.7875 2218.25,167.2375 Q2218.8,166.675 2219.0625,165.475 L2219.7875,165.8 Q2219.4625,167.1625 2218.6875,167.925 Q2217.925,168.6875 2216.875,168.6875 Z " fill="#000000"/><text fill="#000000" font-family="sans-serif" font-size="11.2" lengthAdjust="spacing" textLength="104.8" x="2233.8" y="168.6375">VerifyContractConfig</text><line style="stroke:#A80036;stroke-width:0.8000000000000002;" x1="2180.8" x2="2365.6" y1="176.8" y2="176.8"/><line style="stroke:#A80036;stroke-width:0.8000000000000002;" x1="2180.8" x2="2365.6" y1="183.2" y2="183.2"/><ellipse cx="2188.8" cy="195.0484" fill="#84BE84" rx="2.4" ry="2.4" style="stroke:#038048;stroke-width:0.8000000000000002;"/><text fill="#000000" font-family="sans-serif" font-size="11.2" lengthAdjust="spacing" textLength="165.6" x="2196" y="198.4859">List&lt;String&gt; getRequiredForms()</text></g><!--class UploadSampleConfig--><g id="elem_UploadSampleConfig"><rect codeLine="87" fill="#FEFECE" filter="url(#f143diely461a3)" height="53.2969" id="UploadSampleConfig" style="stroke:#A80036;stroke-width:0.8000000000000002;" width="186.4" x="2394.4" y="151.2"/><ellipse cx="2431.4" cy="164" fill="#ADD1B2" rx="8.8" ry="8.8" style="stroke:#A80036;stroke-width:0.8000000000000002;"/><path d="M2430.875,168.6875 Q2429.2875,168.6875 2428.35,167.5125 Q2427.425,166.325 2427.425,163.8625 Q2427.425,161.775 2428.4,160.375 Q2429.3875,158.975 2431.0875,158.975 Q2431.4875,158.975 2431.9125,159.0875 Q2432.2625,159.2375 2432.475,159.2375 Q2432.65,159.2375 2432.725,159.2 Q2432.8125,159.1625 2433.175,158.6875 L2433.7875,161.675 L2433.075,161.8875 Q2432.7125,160.725 2432.225,160.25 Q2431.75,159.7625 2430.9875,159.7625 Q2430.0125,159.7625 2429.4375,160.9125 Q2428.8625,162.05 2428.8625,163.8 Q2428.8625,165.725 2429.35,166.7625 Q2429.85,167.7875 2430.9375,167.7875 Q2431.7,167.7875 2432.25,167.2375 Q2432.8,166.675 2433.0625,165.475 L2433.7875,165.8 Q2433.4625,167.1625 2432.6875,167.925 Q2431.925,168.6875 2430.875,168.6875 Z " fill="#000000"/><text fill="#000000" font-family="sans-serif" font-size="11.2" lengthAdjust="spacing" textLength="105.6" x="2447.8" y="168.6375">UploadSampleConfig</text><line style="stroke:#A80036;stroke-width:0.8000000000000002;" x1="2395.2" x2="2580" y1="176.8" y2="176.8"/><line style="stroke:#A80036;stroke-width:0.8000000000000002;" x1="2395.2" x2="2580" y1="183.2" y2="183.2"/><ellipse cx="2403.2" cy="195.0484" fill="#84BE84" rx="2.4" ry="2.4" style="stroke:#038048;stroke-width:0.8000000000000002;"/><text fill="#000000" font-family="sans-serif" font-size="11.2" lengthAdjust="spacing" textLength="165.6" x="2410.4" y="198.4859">List&lt;String&gt; getRequiredForms()</text></g><!--class FillOutContractConfig--><g id="elem_FillOutContractConfig"><rect codeLine="90" fill="#FEFECE" filter="url(#f143diely461a3)" height="53.2969" id="FillOutContractConfig" style="stroke:#A80036;stroke-width:0.8000000000000002;" width="186.4" x="2608.8" y="151.2"/><ellipse cx="2644.2" cy="164" fill="#ADD1B2" rx="8.8" ry="8.8" style="stroke:#A80036;stroke-width:0.8000000000000002;"/><path d="M2643.675,168.6875 Q2642.0875,168.6875 2641.15,167.5125 Q2640.225,166.325 2640.225,163.8625 Q2640.225,161.775 2641.2,160.375 Q2642.1875,158.975 2643.8875,158.975 Q2644.2875,158.975 2644.7125,159.0875 Q2645.0625,159.2375 2645.275,159.2375 Q2645.45,159.2375 2645.525,159.2 Q2645.6125,159.1625 2645.975,158.6875 L2646.5875,161.675 L2645.875,161.8875 Q2645.5125,160.725 2645.025,160.25 Q2644.55,159.7625 2643.7875,159.7625 Q2642.8125,159.7625 2642.2375,160.9125 Q2641.6625,162.05 2641.6625,163.8 Q2641.6625,165.725 2642.15,166.7625 Q2642.65,167.7875 2643.7375,167.7875 Q2644.5,167.7875 2645.05,167.2375 Q2645.6,166.675 2645.8625,165.475 L2646.5875,165.8 Q2646.2625,167.1625 2645.4875,167.925 Q2644.725,168.6875 2643.675,168.6875 Z " fill="#000000"/><text fill="#000000" font-family="sans-serif" font-size="11.2" lengthAdjust="spacing" textLength="108.8" x="2660.6" y="168.6375">FillOutContractConfig</text><line style="stroke:#A80036;stroke-width:0.8000000000000002;" x1="2609.6" x2="2794.4" y1="176.8" y2="176.8"/><line style="stroke:#A80036;stroke-width:0.8000000000000002;" x1="2609.6" x2="2794.4" y1="183.2" y2="183.2"/><ellipse cx="2617.6" cy="195.0484" fill="#84BE84" rx="2.4" ry="2.4" style="stroke:#038048;stroke-width:0.8000000000000002;"/><text fill="#000000" font-family="sans-serif" font-size="11.2" lengthAdjust="spacing" textLength="165.6" x="2624.8" y="198.4859">List&lt;String&gt; getRequiredForms()</text></g><!--reverse link TaskConfig to GenContractDraftConfig--><g id="link_TaskConfig_GenContractDraftConfig"><path codeLine="95" d="M1265.584,16 C1265.584,16 98.8,16 98.8,16 C98.8,16 98.8,104.768 98.8,150.888 " fill="none" id="TaskConfig-backto-GenContractDraftConfig" style="stroke:#A80036;stroke-width:0.8000000000000002;"/><polygon fill="none" points="1265.584,10.4,1281.584,16,1265.584,21.6,1265.584,10.4" style="stroke:#A80036;stroke-width:0.8000000000000002;"/></g><!--reverse link TaskConfig to GenTestReportConfig--><g id="link_TaskConfig_GenTestReportConfig"><path codeLine="96" d="M1265.528,25.6 C1265.528,25.6 313.2,25.6 313.2,25.6 C313.2,25.6 313.2,107.352 313.2,151.104 " fill="none" id="TaskConfig-backto-GenTestReportConfig" style="stroke:#A80036;stroke-width:0.8000000000000002;"/><polygon fill="none" points="1265.528,20,1281.528,25.6,1265.528,31.2,1265.528,20" style="stroke:#A80036;stroke-width:0.8000000000000002;"/></g><!--reverse link TaskConfig to ArchiveConfig--><g id="link_TaskConfig_ArchiveConfig"><path codeLine="97" d="M1265.544,54.4 C1265.544,54.4 527.6,54.4 527.6,54.4 C527.6,54.4 527.6,114.832 527.6,151.184 " fill="none" id="TaskConfig-backto-ArchiveConfig" style="stroke:#A80036;stroke-width:0.8000000000000002;"/><polygon fill="none" points="1265.544,48.8,1281.544,54.4,1265.544,60,1265.544,48.8" style="stroke:#A80036;stroke-width:0.8000000000000002;"/></g><!--reverse link TaskConfig to ModifyQuotationConfig--><g id="link_TaskConfig_ModifyQuotationConfig"><path codeLine="98" d="M1302.56,119.472 C1302.56,119.472 1302.56,187.2 1302.56,187.2 C1302.56,187.2 995,187.2 835.512,187.2 " fill="none" id="TaskConfig-backto-ModifyQuotationConfig" style="stroke:#A80036;stroke-width:0.8000000000000002;"/><polygon fill="none" points="1296.96,119.472,1302.56,103.472,1308.16,119.472,1296.96,119.472" style="stroke:#A80036;stroke-width:0.8000000000000002;"/></g><!--reverse link TaskConfig to ModifyContractDraftConfig--><g id="link_TaskConfig_ModifyContractDraftConfig"><path codeLine="99" d="M1265.36,35.2 C1265.36,35.2 417.336,35.2 417.336,35.2 C417.336,35.2 417.336,287.2 417.336,287.2 C417.336,287.2 414.192,287.2 409.008,287.2 " fill="none" id="TaskConfig-backto-ModifyContractDraftConfig" style="stroke:#A80036;stroke-width:0.8000000000000002;"/><polygon fill="none" points="1265.36,29.6,1281.36,35.2,1265.36,40.8,1265.36,29.6" style="stroke:#A80036;stroke-width:0.8000000000000002;"/></g><!--reverse link TaskConfig to VerifySampleConfig--><g id="link_TaskConfig_VerifySampleConfig"><path codeLine="100" d="M1265.512,64.8 C1265.512,64.8 631.736,64.8 631.736,64.8 C631.736,64.8 631.736,287.2 631.736,287.2 C631.736,287.2 628.592,287.2 623.408,287.2 " fill="none" id="TaskConfig-backto-VerifySampleConfig" style="stroke:#A80036;stroke-width:0.8000000000000002;"/><polygon fill="none" points="1265.512,59.2,1281.512,64.8,1265.512,70.4,1265.512,59.2" style="stroke:#A80036;stroke-width:0.8000000000000002;"/></g><!--reverse link TaskConfig to AssignMarketingOperatorConfig--><g id="link_TaskConfig_AssignMarketingOperatorConfig"><path codeLine="101" d="M1323.52,119.392 C1323.52,119.392 1323.52,256.8 1323.52,256.8 C1323.52,256.8 1050.232,256.8 887.432,256.8 " fill="none" id="TaskConfig-backto-AssignMarketingOperatorConfig" style="stroke:#A80036;stroke-width:0.8000000000000002;"/><polygon fill="none" points="1317.92,119.392,1323.52,103.392,1329.12,119.392,1317.92,119.392" style="stroke:#A80036;stroke-width:0.8000000000000002;"/></g><!--reverse link TaskConfig to VerifyContractDraftConfig--><g id="link_TaskConfig_VerifyContractDraftConfig"><path codeLine="102" d="M1344.48,119.288 C1344.48,119.288 1344.48,296 1344.48,296 C1344.48,296 1201.248,296 1101.792,296 " fill="none" id="TaskConfig-backto-VerifyContractDraftConfig" style="stroke:#A80036;stroke-width:0.8000000000000002;"/><polygon fill="none" points="1338.88,119.288,1344.48,103.288,1350.08,119.288,1338.88,119.288" style="stroke:#A80036;stroke-width:0.8000000000000002;"/></g><!--reverse link TaskConfig to FillOutAppFormConfig--><g id="link_TaskConfig_FillOutAppFormConfig"><path codeLine="103" d="M1265.416,44.8 C1265.416,44.8 425.864,44.8 425.864,44.8 C425.864,44.8 425.864,292.632 425.864,375.888 " fill="none" id="TaskConfig-backto-FillOutAppFormConfig" style="stroke:#A80036;stroke-width:0.8000000000000002;"/><polygon fill="none" points="1265.416,39.2,1281.416,44.8,1265.416,50.4,1265.416,39.2" style="stroke:#A80036;stroke-width:0.8000000000000002;"/></g><!--reverse link TaskConfig to ConfirmTestReportConfig--><g id="link_TaskConfig_ConfirmTestReportConfig"><path codeLine="104" d="M1265.576,74.4 C1265.576,74.4 640.264,74.4 640.264,74.4 C640.264,74.4 640.264,297.496 640.264,375.928 " fill="none" id="TaskConfig-backto-ConfirmTestReportConfig" style="stroke:#A80036;stroke-width:0.8000000000000002;"/><polygon fill="none" points="1265.576,68.8,1281.576,74.4,1265.576,80,1265.576,68.8" style="stroke:#A80036;stroke-width:0.8000000000000002;"/></g><!--reverse link TaskConfig to VerifyApplicationConfig--><g id="link_TaskConfig_VerifyApplicationConfig"><path codeLine="105" d="M1265.488,84 C1265.488,84 901.2,84 901.2,84 C901.2,84 901.2,299.032 901.2,375.896 " fill="none" id="TaskConfig-backto-VerifyApplicationConfig" style="stroke:#A80036;stroke-width:0.8000000000000002;"/><polygon fill="none" points="1265.488,78.4,1281.488,84,1265.488,89.6,1265.488,78.4" style="stroke:#A80036;stroke-width:0.8000000000000002;"/></g><!--reverse link TaskConfig to ReUploadSampleConfig--><g id="link_TaskConfig_ReUploadSampleConfig"><path codeLine="106" d="M1265.272,93.6 C1265.272,93.6 1136.8,93.6 1136.8,93.6 C1136.8,93.6 1136.8,300.672 1136.8,375.904 " fill="none" id="TaskConfig-backto-ReUploadSampleConfig" style="stroke:#A80036;stroke-width:0.8000000000000002;"/><polygon fill="none" points="1265.272,88,1281.272,93.6,1265.272,99.2,1265.272,88" style="stroke:#A80036;stroke-width:0.8000000000000002;"/></g><!--reverse link TaskConfig to VerifyQuotationConfig--><g id="link_TaskConfig_VerifyQuotationConfig"><path codeLine="107" d="M1365.44,119.208 C1365.44,119.208 1365.44,375.944 1365.44,375.944 " fill="none" id="TaskConfig-backto-VerifyQuotationConfig" style="stroke:#A80036;stroke-width:0.8000000000000002;"/><polygon fill="none" points="1359.84,119.208,1365.44,103.208,1371.04,119.208,1359.84,119.208" style="stroke:#A80036;stroke-width:0.8000000000000002;"/></g><!--reverse link TaskConfig to VerifyTestReportConfig--><g id="link_TaskConfig_VerifyTestReportConfig"><path codeLine="108" d="M1431.6,119.208 C1431.6,119.208 1431.6,375.944 1431.6,375.944 " fill="none" id="TaskConfig-backto-VerifyTestReportConfig" style="stroke:#A80036;stroke-width:0.8000000000000002;"/><polygon fill="none" points="1426,119.208,1431.6,103.208,1437.2,119.208,1426,119.208" style="stroke:#A80036;stroke-width:0.8000000000000002;"/></g><!--reverse link TaskConfig to GenTestPlanConfig--><g id="link_TaskConfig_GenTestPlanConfig"><path codeLine="109" d="M1533.704,92.8 C1533.704,92.8 1663.6,92.8 1663.6,92.8 C1663.6,92.8 1663.6,300.408 1663.6,375.832 " fill="none" id="TaskConfig-backto-GenTestPlanConfig" style="stroke:#A80036;stroke-width:0.8000000000000002;"/><polygon fill="none" points="1533.704,98.4,1517.704,92.8,1533.704,87.2,1533.704,98.4" style="stroke:#A80036;stroke-width:0.8000000000000002;"/></g><!--reverse link TaskConfig to SendTestReportConfig--><g id="link_TaskConfig_SendTestReportConfig"><path codeLine="110" d="M1533.904,81.6 C1533.904,81.6 1898.8,81.6 1898.8,81.6 C1898.8,81.6 1898.8,298.768 1898.8,375.968 " fill="none" id="TaskConfig-backto-SendTestReportConfig" style="stroke:#A80036;stroke-width:0.8000000000000002;"/><polygon fill="none" points="1533.904,87.2,1517.904,81.6,1533.904,76,1533.904,87.2" style="stroke:#A80036;stroke-width:0.8000000000000002;"/></g><!--reverse link TaskConfig to VerifyTestPlanConfig--><g id="link_TaskConfig_VerifyTestPlanConfig"><path codeLine="111" d="M1466,119.288 C1466,119.288 1466,317.6 1466,317.6 C1466,317.6 2078.4,317.6 2078.4,317.6 C2078.4,317.6 2078.4,350.88 2078.4,375.84 " fill="none" id="TaskConfig-backto-VerifyTestPlanConfig" style="stroke:#A80036;stroke-width:0.8000000000000002;"/><polygon fill="none" points="1460.4,119.288,1466,103.288,1471.6,119.288,1460.4,119.288" style="stroke:#A80036;stroke-width:0.8000000000000002;"/></g><!--reverse link TaskConfig to AssignTestingOperatorConfig--><g id="link_TaskConfig_AssignTestingOperatorConfig"><path codeLine="112" d="M1448.8,119.456 C1448.8,119.456 1448.8,372.8 1448.8,372.8 C1448.8,372.8 2019.32,372.8 2271.984,372.8 " fill="none" id="TaskConfig-backto-AssignTestingOperatorConfig" style="stroke:#A80036;stroke-width:0.8000000000000002;"/><polygon fill="none" points="1443.2,119.456,1448.8,103.456,1454.4,119.456,1443.2,119.456" style="stroke:#A80036;stroke-width:0.8000000000000002;"/></g><!--reverse link TaskConfig to ModifyApplicationConfig--><g id="link_TaskConfig_ModifyApplicationConfig"><path codeLine="113" d="M1483.2,119.28 C1483.2,119.28 1483.2,278.4 1483.2,278.4 C1483.2,278.4 1607.464,278.4 1698.232,278.4 " fill="none" id="TaskConfig-backto-ModifyApplicationConfig" style="stroke:#A80036;stroke-width:0.8000000000000002;"/><polygon fill="none" points="1477.6,119.28,1483.2,103.28,1488.8,119.28,1477.6,119.28" style="stroke:#A80036;stroke-width:0.8000000000000002;"/></g><!--reverse link TaskConfig to ModifyTestPlanConfig--><g id="link_TaskConfig_ModifyTestPlanConfig"><path codeLine="114" d="M1533.68,71.2 C1533.68,71.2 1939.2,71.2 1939.2,71.2 C1939.2,71.2 1939.2,202.136 1939.2,259.928 " fill="none" id="TaskConfig-backto-ModifyTestPlanConfig" style="stroke:#A80036;stroke-width:0.8000000000000002;"/><polygon fill="none" points="1533.68,76.8,1517.68,71.2,1533.68,65.6,1533.68,76.8" style="stroke:#A80036;stroke-width:0.8000000000000002;"/></g><!--reverse link TaskConfig to GenQuotationConfig--><g id="link_TaskConfig_GenQuotationConfig"><path codeLine="115" d="M1533.672,60 C1533.672,60 2166,60 2166,60 C2166,60 2166,199.816 2166,259.896 " fill="none" id="TaskConfig-backto-GenQuotationConfig" style="stroke:#A80036;stroke-width:0.8000000000000002;"/><polygon fill="none" points="1533.672,65.6,1517.672,60,1533.672,54.4,1533.672,65.6" style="stroke:#A80036;stroke-width:0.8000000000000002;"/></g><!--reverse link TaskConfig to ModifyTestReportConfig--><g id="link_TaskConfig_ModifyTestReportConfig"><path codeLine="116" d="M1533.664,38.4 C1533.664,38.4 2380.4,38.4 2380.4,38.4 C2380.4,38.4 2380.4,195.752 2380.4,259.984 " fill="none" id="TaskConfig-backto-ModifyTestReportConfig" style="stroke:#A80036;stroke-width:0.8000000000000002;"/><polygon fill="none" points="1533.664,44,1517.664,38.4,1533.664,32.8,1533.664,44" style="stroke:#A80036;stroke-width:0.8000000000000002;"/></g><!--reverse link TaskConfig to ModifyContractConfig--><g id="link_TaskConfig_ModifyContractConfig"><path codeLine="117" d="M1500.4,119.256 C1500.4,119.256 1500.4,169.6 1500.4,169.6 C1500.4,169.6 1806.376,169.6 1965.336,169.6 " fill="none" id="TaskConfig-backto-ModifyContractConfig" style="stroke:#A80036;stroke-width:0.8000000000000002;"/><polygon fill="none" points="1494.8,119.256,1500.4,103.256,1506,119.256,1494.8,119.256" style="stroke:#A80036;stroke-width:0.8000000000000002;"/></g><!--reverse link TaskConfig to VerifyContractConfig--><g id="link_TaskConfig_VerifyContractConfig"><path codeLine="118" d="M1533.648,49.6 C1533.648,49.6 2273.2,49.6 2273.2,49.6 C2273.2,49.6 2273.2,113.432 2273.2,151.08 " fill="none" id="TaskConfig-backto-VerifyContractConfig" style="stroke:#A80036;stroke-width:0.8000000000000002;"/><polygon fill="none" points="1533.648,55.2,1517.648,49.6,1533.648,44,1533.648,55.2" style="stroke:#A80036;stroke-width:0.8000000000000002;"/></g><!--reverse link TaskConfig to UploadSampleConfig--><g id="link_TaskConfig_UploadSampleConfig"><path codeLine="119" d="M1533.848,28 C1533.848,28 2487.6,28 2487.6,28 C2487.6,28 2487.6,108.04 2487.6,151.184 " fill="none" id="TaskConfig-backto-UploadSampleConfig" style="stroke:#A80036;stroke-width:0.8000000000000002;"/><polygon fill="none" points="1533.848,33.6,1517.848,28,1533.848,22.4,1533.848,33.6" style="stroke:#A80036;stroke-width:0.8000000000000002;"/></g><!--reverse link TaskConfig to FillOutContractConfig--><g id="link_TaskConfig_FillOutContractConfig"><path codeLine="120" d="M1533.768,16.8 C1533.768,16.8 2702,16.8 2702,16.8 C2702,16.8 2702,105.128 2702,151.016 " fill="none" id="TaskConfig-backto-FillOutContractConfig" style="stroke:#A80036;stroke-width:0.8000000000000002;"/><polygon fill="none" points="1533.768,22.4,1517.768,16.8,1533.768,11.2,1533.768,22.4" style="stroke:#A80036;stroke-width:0.8000000000000002;"/></g><!--SRC=[lLNBRjim4BphAtYqaUYGUn30IEiYG8qyvFQ-bjSoQufao5KG8_6_bufSs0afkI6BtYJix72VitR39JFAOfPPzwd1GCqgenfz8zTeE84iaLqS6GMNI5kDJ1bQgomh1LZBlg6yLf8CbFJ5m8hSpufNx2KxOz-vfSk239VL5QkG7l2nuGQNKsLgEnfdkmF57AqpQyVyANzOsBUNMKSq1xivybye9H0au_PQrLeWmKBWg0MTjnG5cYTUujWXN_uGxKwzUSOwOslxMWCNHRFuXIM5J7Dyfj4Cz9xlV4zxI7nYoZL_meYIpTIIhxRtZI8WhcGqGshhVhf9MMqBQCiRuJwnbbTo1cQ3vB2t6WsGCb4z_5p8gObFkH2t3KsqRYqH16ykfeuS_EDKN0o2bx5py80_j52mZEvX5qJAA7OCIPNOIyYTW9W02fJBVz28X0YwHMW9_jSQTFkVDZiTHqBQhctf6fRKkVSo6Dtw18B4zTiBKLG0MNPqCIzVyxpdceTW7wlkOTuTDyyQF60VKNd_bVAX_YdoCOFtfe_oRrxFWmSX0EkH_G2oHzm3o924znAUAddU8yS1e2Uw0Kn8MWVV76GRaCc-sJbTmA2C-IXVguQO1bSZ93eUA2Gi7kXquyC2yHi0]--></g></svg>