<?xml version="1.0" encoding="us-ascii" standalone="no"?><svg xmlns="http://www.w3.org/2000/svg" xmlns:xlink="http://www.w3.org/1999/xlink" contentStyleType="text/css" height="399px" preserveAspectRatio="none" style="width:446px;height:398px;background:#FFFFFF;" version="1.1" viewBox="0 0 446 398" width="446.6px" zoomAndPan="magnify"><defs><filter height="300%" id="fal8w0n97pf2e" width="300%" x="-1" y="-1"><feGaussianBlur result="blurOut" stdDeviation="2.7999999999999994"/><feColorMatrix in="blurOut" result="blurOut2" type="matrix" values="0 0 0 0 0 0 0 0 0 0 0 0 0 0 0 0 0 0 .4 0"/><feOffset dx="5.599999999999999" dy="5.599999999999999" in="blurOut2" result="blurOut3"/><feBlend in="SourceGraphic" in2="blurOut3" mode="normal"/></filter></defs><g><!--class UserDetails--><g id="elem_UserDetails"><rect codeLine="5" fill="#FEFECE" filter="url(#fal8w0n97pf2e)" height="67.2" id="UserDetails" style="stroke:#A80036;stroke-width:1.3999999999999997;" width="147" x="147" y="9.8"/><ellipse cx="168" cy="32.2" fill="#B4A7E5" rx="15.4" ry="15.4" style="stroke:#A80036;stroke-width:1.3999999999999997;"/><path d="M163.2312,24.8937 L163.2312,23.5812 L171.4125,23.5812 L171.4125,24.8937 L168.8969,24.8937 Q168.6562,24.8937 168.5469,24.9812 Q168.4375,25.0687 168.4375,25.2656 L168.4375,38.5437 Q168.4375,38.7406 168.5469,38.8281 Q168.6562,38.9156 168.8969,38.9156 L171.4125,38.9156 L171.4125,40.2281 L163.2312,40.2281 L163.2312,38.9156 L165.7469,38.9156 Q166.0531,38.9156 166.1187,38.85 Q166.2062,38.7625 166.2062,38.5437 L166.2062,25.2656 Q166.2062,25.0469 166.1187,24.9812 Q166.0531,24.8937 165.7469,24.8937 L163.2312,24.8937 Z " fill="#000000"/><text fill="#000000" font-family="sans-serif" font-size="19.6" font-style="italic" lengthAdjust="spacing" textLength="102.2" x="187.6" y="40.3156">UserDetails</text><line style="stroke:#A80036;stroke-width:1.3999999999999997;" x1="148.4" x2="292.6" y1="54.6" y2="54.6"/><line style="stroke:#A80036;stroke-width:1.3999999999999997;" x1="148.4" x2="292.6" y1="65.8" y2="65.8"/></g><!--class User--><g id="elem_User"><rect codeLine="6" fill="#FEFECE" filter="url(#fal8w0n97pf2e)" height="67.2" id="User" style="stroke:#A80036;stroke-width:1.3999999999999997;" width="86.8" x="177.1" y="161"/><ellipse cx="198.1" cy="183.4" fill="#A9DCDF" rx="15.4" ry="15.4" style="stroke:#A80036;stroke-width:1.3999999999999997;"/><path d="M198.6906,184.0781 L195.1031,184.0781 L194.3594,187.2937 Q194.2719,187.7531 194.2719,187.9719 Q194.2719,188.2781 194.3375,188.4969 Q194.425,188.7156 194.8187,188.7156 L195.475,188.7156 L195.475,190.0281 L191.2969,190.0281 L191.2969,188.7156 L191.9312,188.7156 Q192.1719,188.7156 192.3469,188.5844 Q192.5219,188.4312 192.5875,188.0156 L196.2844,173.5562 L198.2531,172.9 L201.8625,187.9719 Q202.0156,188.4094 202.1906,188.5625 Q202.3875,188.7156 202.6281,188.7156 L203.2844,188.7156 L203.2844,190.0281 L198.5375,190.0281 L198.5375,188.7156 L199.2812,188.7156 Q199.5875,188.7156 199.6094,188.65 Q199.6531,188.5625 199.6531,188.4531 Q199.6531,188.1469 199.5875,187.8844 L198.6906,184.0781 Z M192.3031,189.4594 L192.3031,189.4594 Z M193.2437,189.4594 L193.2437,189.4594 Z M199.85,189.4594 L199.85,189.4594 Z M201.425,189.4594 L201.425,189.4594 Z M196.9625,175.5469 L197.05,175.5469 L195.4969,182.7656 L198.4281,182.7656 L196.9625,175.5469 Z " fill="#000000"/><text fill="#000000" font-family="sans-serif" font-size="19.6" font-style="italic" lengthAdjust="spacing" textLength="42" x="217.7" y="191.5156">User</text><line style="stroke:#A80036;stroke-width:1.3999999999999997;" x1="178.5" x2="262.5" y1="205.8" y2="205.8"/><line style="stroke:#A80036;stroke-width:1.3999999999999997;" x1="178.5" x2="262.5" y1="217" y2="217"/></g><!--class Admin--><g id="elem_Admin"><rect codeLine="15" fill="#FEFECE" filter="url(#fal8w0n97pf2e)" height="67.2" id="Admin" style="stroke:#A80036;stroke-width:1.3999999999999997;" width="99.4" x="9.8" y="312.2"/><ellipse cx="30.8" cy="334.6" fill="#ADD1B2" rx="15.4" ry="15.4" style="stroke:#A80036;stroke-width:1.3999999999999997;"/><path d="M29.8812,342.8031 Q27.1031,342.8031 25.4625,340.7469 Q23.8437,338.6687 23.8437,334.3594 Q23.8437,330.7062 25.55,328.2562 Q27.2781,325.8062 30.2531,325.8062 Q30.9531,325.8062 31.6969,326.0031 Q32.3094,326.2656 32.6812,326.2656 Q32.9875,326.2656 33.1187,326.2 Q33.2719,326.1344 33.9062,325.3031 L34.9781,330.5312 L33.7312,330.9031 Q33.0969,328.8687 32.2437,328.0375 Q31.4125,327.1844 30.0781,327.1844 Q28.3719,327.1844 27.3656,329.1969 Q26.3594,331.1875 26.3594,334.25 Q26.3594,337.6187 27.2125,339.4344 Q28.0875,341.2281 29.9906,341.2281 Q31.325,341.2281 32.2875,340.2656 Q33.25,339.2812 33.7094,337.1812 L34.9781,337.75 Q34.4094,340.1344 33.0531,341.4687 Q31.7187,342.8031 29.8812,342.8031 Z " fill="#000000"/><text fill="#000000" font-family="sans-serif" font-size="19.6" lengthAdjust="spacing" textLength="54.6" x="50.4" y="342.7156">Admin</text><line style="stroke:#A80036;stroke-width:1.3999999999999997;" x1="11.2" x2="107.8" y1="357" y2="357"/><line style="stroke:#A80036;stroke-width:1.3999999999999997;" x1="11.2" x2="107.8" y1="368.2" y2="368.2"/></g><!--class Operator--><g id="elem_Operator"><rect codeLine="17" fill="#FEFECE" filter="url(#fal8w0n97pf2e)" height="67.2" id="Operator" style="stroke:#A80036;stroke-width:1.3999999999999997;" width="124.6" x="158.2" y="312.2"/><ellipse cx="179.2" cy="334.6" fill="#ADD1B2" rx="15.4" ry="15.4" style="stroke:#A80036;stroke-width:1.3999999999999997;"/><path d="M178.2812,342.8031 Q175.5031,342.8031 173.8625,340.7469 Q172.2437,338.6687 172.2437,334.3594 Q172.2437,330.7062 173.95,328.2562 Q175.6781,325.8062 178.6531,325.8062 Q179.3531,325.8062 180.0969,326.0031 Q180.7094,326.2656 181.0812,326.2656 Q181.3875,326.2656 181.5187,326.2 Q181.6719,326.1344 182.3062,325.3031 L183.3781,330.5312 L182.1312,330.9031 Q181.4969,328.8687 180.6437,328.0375 Q179.8125,327.1844 178.4781,327.1844 Q176.7719,327.1844 175.7656,329.1969 Q174.7594,331.1875 174.7594,334.25 Q174.7594,337.6187 175.6125,339.4344 Q176.4875,341.2281 178.3906,341.2281 Q179.725,341.2281 180.6875,340.2656 Q181.65,339.2812 182.1094,337.1812 L183.3781,337.75 Q182.8094,340.1344 181.4531,341.4687 Q180.1187,342.8031 178.2812,342.8031 Z " fill="#000000"/><text fill="#000000" font-family="sans-serif" font-size="19.6" lengthAdjust="spacing" textLength="79.8" x="198.8" y="342.7156">Operator</text><line style="stroke:#A80036;stroke-width:1.3999999999999997;" x1="159.6" x2="281.4" y1="357" y2="357"/><line style="stroke:#A80036;stroke-width:1.3999999999999997;" x1="159.6" x2="281.4" y1="368.2" y2="368.2"/></g><!--class Client--><g id="elem_Client"><rect codeLine="19" fill="#FEFECE" filter="url(#fal8w0n97pf2e)" height="67.2" id="Client" style="stroke:#A80036;stroke-width:1.3999999999999997;" width="95.2" x="332.5" y="312.2"/><ellipse cx="353.5" cy="334.6" fill="#ADD1B2" rx="15.4" ry="15.4" style="stroke:#A80036;stroke-width:1.3999999999999997;"/><path d="M352.5812,342.8031 Q349.8031,342.8031 348.1625,340.7469 Q346.5437,338.6687 346.5437,334.3594 Q346.5437,330.7062 348.25,328.2562 Q349.9781,325.8062 352.9531,325.8062 Q353.6531,325.8062 354.3969,326.0031 Q355.0094,326.2656 355.3812,326.2656 Q355.6875,326.2656 355.8187,326.2 Q355.9719,326.1344 356.6062,325.3031 L357.6781,330.5312 L356.4312,330.9031 Q355.7969,328.8687 354.9437,328.0375 Q354.1125,327.1844 352.7781,327.1844 Q351.0719,327.1844 350.0656,329.1969 Q349.0594,331.1875 349.0594,334.25 Q349.0594,337.6187 349.9125,339.4344 Q350.7875,341.2281 352.6906,341.2281 Q354.025,341.2281 354.9875,340.2656 Q355.95,339.2812 356.4094,337.1812 L357.6781,337.75 Q357.1094,340.1344 355.7531,341.4687 Q354.4187,342.8031 352.5812,342.8031 Z " fill="#000000"/><text fill="#000000" font-family="sans-serif" font-size="19.6" lengthAdjust="spacing" textLength="50.4" x="373.1" y="342.7156">Client</text><line style="stroke:#A80036;stroke-width:1.3999999999999997;" x1="333.9" x2="426.3" y1="357" y2="357"/><line style="stroke:#A80036;stroke-width:1.3999999999999997;" x1="333.9" x2="426.3" y1="368.2" y2="368.2"/></g><!--reverse link UserDetails to User--><g id="link_UserDetails_User"><path codeLine="21" d="M220.5,105.028 C220.5,124.012 220.5,144.256 220.5,160.552 " fill="none" id="UserDetails-backto-User" style="stroke:#A80036;stroke-width:1.3999999999999997;stroke-dasharray:7.0,7.0;"/><polygon fill="none" points="210.7,105,220.5,77,230.3,105,210.7,105" style="stroke:#A80036;stroke-width:1.3999999999999997;"/></g><!--reverse link User to Admin--><g id="link_User_Admin"><path codeLine="23" d="M164.948,247.198 C141.736,268.604 115.444,292.838 94.92,311.752 " fill="none" id="User-backto-Admin" style="stroke:#A80036;stroke-width:1.3999999999999997;"/><polygon fill="none" points="158.34,239.974,185.57,228.2,171.626,254.38,158.34,239.974" style="stroke:#A80036;stroke-width:1.3999999999999997;"/></g><!--reverse link User to Operator--><g id="link_User_Operator"><path codeLine="25" d="M220.5,256.228 C220.5,275.212 220.5,295.456 220.5,311.752 " fill="none" id="User-backto-Operator" style="stroke:#A80036;stroke-width:1.3999999999999997;"/><polygon fill="none" points="210.7,256.2,220.5,228.2,230.3,256.2,210.7,256.2" style="stroke:#A80036;stroke-width:1.3999999999999997;"/></g><!--reverse link User to Client--><g id="link_User_Client"><path codeLine="27" d="M275.926,247.534 C298.844,268.856 324.744,292.936 344.988,311.752 " fill="none" id="User-backto-Client" style="stroke:#A80036;stroke-width:1.3999999999999997;"/><polygon fill="none" points="268.968,254.45,255.136,228.2,282.31,240.086,268.968,254.45" style="stroke:#A80036;stroke-width:1.3999999999999997;"/></g><!--SRC=[JOuz4i9028LxJh5TgYIzO-DeR-K1C473k3yP86EXtjsTn4saudqF7bI3sQYxjXqzHfk2RxeKsiwZQjqptWK3W3uuEabA01oDv8OTkOkIdCYGlG9UrGGxS_FYRBaNL2vNxIRkrpOR4GCLFURfPvBLnyc696nCMX25V04-0B1a7_h0iOZpI8AMfEYZPue6yFURsx-RPlvemLdNTKdPm9QqiL_Q5m00]--></g></svg>