<?xml version="1.0" encoding="us-ascii" standalone="no"?><svg xmlns="http://www.w3.org/2000/svg" xmlns:xlink="http://www.w3.org/1999/xlink" contentStyleType="text/css" height="529.2px" preserveAspectRatio="none" style="width:446px;height:529px;background:#FFFFFF;" version="1.1" viewBox="0 0 446 529" width="446.6px" zoomAndPan="magnify"><defs><filter height="300%" id="flrt0eu9e8m6i" width="300%" x="-1" y="-1"><feGaussianBlur result="blurOut" stdDeviation="2.7999999999999994"/><feColorMatrix in="blurOut" result="blurOut2" type="matrix" values="0 0 0 0 0 0 0 0 0 0 0 0 0 0 0 0 0 0 .4 0"/><feOffset dx="5.599999999999999" dy="5.599999999999999" in="blurOut2" result="blurOut3"/><feBlend in="SourceGraphic" in2="blurOut3" mode="normal"/></filter></defs><g><!--class UserDetails--><g id="elem_UserDetails"><rect codeLine="5" fill="#FEFECE" filter="url(#flrt0eu9e8m6i)" height="67.2" id="UserDetails" style="stroke:#A80036;stroke-width:1.3999999999999997;" width="147" x="147" y="9.8"/><ellipse cx="168" cy="32.2" fill="#B4A7E5" rx="15.4" ry="15.4" style="stroke:#A80036;stroke-width:1.3999999999999997;"/><path d="M163.2312,24.8937 L163.2312,23.5812 L171.4125,23.5812 L171.4125,24.8937 L168.8969,24.8937 Q168.6562,24.8937 168.5469,24.9812 Q168.4375,25.0687 168.4375,25.2656 L168.4375,38.5437 Q168.4375,38.7406 168.5469,38.8281 Q168.6562,38.9156 168.8969,38.9156 L171.4125,38.9156 L171.4125,40.2281 L163.2312,40.2281 L163.2312,38.9156 L165.7469,38.9156 Q166.0531,38.9156 166.1187,38.85 Q166.2062,38.7625 166.2062,38.5437 L166.2062,25.2656 Q166.2062,25.0469 166.1187,24.9812 Q166.0531,24.8937 165.7469,24.8937 L163.2312,24.8937 Z " fill="#000000"/><text fill="#000000" font-family="sans-serif" font-size="19.6" font-style="italic" lengthAdjust="spacing" textLength="102.2" x="187.6" y="40.3156">UserDetails</text><line style="stroke:#A80036;stroke-width:1.3999999999999997;" x1="148.4" x2="292.6" y1="54.6" y2="54.6"/><line style="stroke:#A80036;stroke-width:1.3999999999999997;" x1="148.4" x2="292.6" y1="65.8" y2="65.8"/></g><!--class User--><g id="elem_User"><rect codeLine="6" fill="#FEFECE" filter="url(#flrt0eu9e8m6i)" height="197.5477" id="User" style="stroke:#A80036;stroke-width:1.3999999999999997;" width="128.8" x="156.1" y="161"/><ellipse cx="196" cy="183.4" fill="#A9DCDF" rx="15.4" ry="15.4" style="stroke:#A80036;stroke-width:1.3999999999999997;"/><path d="M196.5906,184.0781 L193.0031,184.0781 L192.2594,187.2937 Q192.1719,187.7531 192.1719,187.9719 Q192.1719,188.2781 192.2375,188.4969 Q192.325,188.7156 192.7187,188.7156 L193.375,188.7156 L193.375,190.0281 L189.1969,190.0281 L189.1969,188.7156 L189.8312,188.7156 Q190.0719,188.7156 190.2469,188.5844 Q190.4219,188.4312 190.4875,188.0156 L194.1844,173.5562 L196.1531,172.9 L199.7625,187.9719 Q199.9156,188.4094 200.0906,188.5625 Q200.2875,188.7156 200.5281,188.7156 L201.1844,188.7156 L201.1844,190.0281 L196.4375,190.0281 L196.4375,188.7156 L197.1812,188.7156 Q197.4875,188.7156 197.5094,188.65 Q197.5531,188.5625 197.5531,188.4531 Q197.5531,188.1469 197.4875,187.8844 L196.5906,184.0781 Z M190.2031,189.4594 L190.2031,189.4594 Z M191.1437,189.4594 L191.1437,189.4594 Z M197.75,189.4594 L197.75,189.4594 Z M199.325,189.4594 L199.325,189.4594 Z M194.8625,175.5469 L194.95,175.5469 L193.3969,182.7656 L196.3281,182.7656 L194.8625,175.5469 Z " fill="#000000"/><text fill="#000000" font-family="sans-serif" font-size="19.6" font-style="italic" lengthAdjust="spacing" textLength="42" x="219.8" y="191.5156">User</text><line style="stroke:#A80036;stroke-width:1.3999999999999997;" x1="157.5" x2="283.5" y1="205.8" y2="205.8"/><rect fill="none" height="8.4" style="stroke:#C82930;stroke-width:1.3999999999999997;" width="8.4" x="167.3" y="222.3348"/><text fill="#000000" font-family="sans-serif" font-size="19.6" lengthAdjust="spacing" textLength="26.6" x="184.1" y="232.5504">uid</text><rect fill="none" height="8.4" style="stroke:#C82930;stroke-width:1.3999999999999997;" width="8.4" x="167.3" y="248.4043"/><text fill="#000000" font-family="sans-serif" font-size="19.6" lengthAdjust="spacing" textLength="88.2" x="184.1" y="258.6199">username</text><rect fill="none" height="8.4" style="stroke:#C82930;stroke-width:1.3999999999999997;" width="8.4" x="167.3" y="274.4738"/><text fill="#000000" font-family="sans-serif" font-size="19.6" lengthAdjust="spacing" textLength="84" x="184.1" y="284.6895">password</text><rect fill="none" height="8.4" style="stroke:#C82930;stroke-width:1.3999999999999997;" width="8.4" x="167.3" y="300.5434"/><text fill="#000000" font-family="sans-serif" font-size="19.6" lengthAdjust="spacing" textLength="92.4" x="184.1" y="310.759">authorities</text><rect fill="none" height="8.4" style="stroke:#C82930;stroke-width:1.3999999999999997;" width="8.4" x="167.3" y="326.6129"/><text fill="#000000" font-family="sans-serif" font-size="19.6" lengthAdjust="spacing" textLength="46.2" x="184.1" y="336.8285">email</text><line style="stroke:#A80036;stroke-width:1.3999999999999997;" x1="157.5" x2="283.5" y1="347.3477" y2="347.3477"/></g><!--class Admin--><g id="elem_Admin"><rect codeLine="15" fill="#FEFECE" filter="url(#flrt0eu9e8m6i)" height="67.2" id="Admin" style="stroke:#A80036;stroke-width:1.3999999999999997;" width="99.4" x="9.8" y="442.4"/><ellipse cx="30.8" cy="464.8" fill="#ADD1B2" rx="15.4" ry="15.4" style="stroke:#A80036;stroke-width:1.3999999999999997;"/><path d="M29.8812,473.0031 Q27.1031,473.0031 25.4625,470.9469 Q23.8437,468.8687 23.8437,464.5594 Q23.8437,460.9062 25.55,458.4562 Q27.2781,456.0062 30.2531,456.0062 Q30.9531,456.0062 31.6969,456.2031 Q32.3094,456.4656 32.6812,456.4656 Q32.9875,456.4656 33.1187,456.4 Q33.2719,456.3344 33.9062,455.5031 L34.9781,460.7312 L33.7312,461.1031 Q33.0969,459.0687 32.2437,458.2375 Q31.4125,457.3844 30.0781,457.3844 Q28.3719,457.3844 27.3656,459.3969 Q26.3594,461.3875 26.3594,464.45 Q26.3594,467.8187 27.2125,469.6344 Q28.0875,471.4281 29.9906,471.4281 Q31.325,471.4281 32.2875,470.4656 Q33.25,469.4812 33.7094,467.3812 L34.9781,467.95 Q34.4094,470.3344 33.0531,471.6687 Q31.7187,473.0031 29.8812,473.0031 Z " fill="#000000"/><text fill="#000000" font-family="sans-serif" font-size="19.6" lengthAdjust="spacing" textLength="54.6" x="50.4" y="472.9156">Admin</text><line style="stroke:#A80036;stroke-width:1.3999999999999997;" x1="11.2" x2="107.8" y1="487.2" y2="487.2"/><line style="stroke:#A80036;stroke-width:1.3999999999999997;" x1="11.2" x2="107.8" y1="498.4" y2="498.4"/></g><!--class Operator--><g id="elem_Operator"><rect codeLine="17" fill="#FEFECE" filter="url(#flrt0eu9e8m6i)" height="67.2" id="Operator" style="stroke:#A80036;stroke-width:1.3999999999999997;" width="124.6" x="158.2" y="442.4"/><ellipse cx="179.2" cy="464.8" fill="#ADD1B2" rx="15.4" ry="15.4" style="stroke:#A80036;stroke-width:1.3999999999999997;"/><path d="M178.2812,473.0031 Q175.5031,473.0031 173.8625,470.9469 Q172.2437,468.8687 172.2437,464.5594 Q172.2437,460.9062 173.95,458.4562 Q175.6781,456.0062 178.6531,456.0062 Q179.3531,456.0062 180.0969,456.2031 Q180.7094,456.4656 181.0812,456.4656 Q181.3875,456.4656 181.5187,456.4 Q181.6719,456.3344 182.3062,455.5031 L183.3781,460.7312 L182.1312,461.1031 Q181.4969,459.0687 180.6437,458.2375 Q179.8125,457.3844 178.4781,457.3844 Q176.7719,457.3844 175.7656,459.3969 Q174.7594,461.3875 174.7594,464.45 Q174.7594,467.8187 175.6125,469.6344 Q176.4875,471.4281 178.3906,471.4281 Q179.725,471.4281 180.6875,470.4656 Q181.65,469.4812 182.1094,467.3812 L183.3781,467.95 Q182.8094,470.3344 181.4531,471.6687 Q180.1187,473.0031 178.2812,473.0031 Z " fill="#000000"/><text fill="#000000" font-family="sans-serif" font-size="19.6" lengthAdjust="spacing" textLength="79.8" x="198.8" y="472.9156">Operator</text><line style="stroke:#A80036;stroke-width:1.3999999999999997;" x1="159.6" x2="281.4" y1="487.2" y2="487.2"/><line style="stroke:#A80036;stroke-width:1.3999999999999997;" x1="159.6" x2="281.4" y1="498.4" y2="498.4"/></g><!--class Client--><g id="elem_Client"><rect codeLine="19" fill="#FEFECE" filter="url(#flrt0eu9e8m6i)" height="67.2" id="Client" style="stroke:#A80036;stroke-width:1.3999999999999997;" width="95.2" x="332.5" y="442.4"/><ellipse cx="353.5" cy="464.8" fill="#ADD1B2" rx="15.4" ry="15.4" style="stroke:#A80036;stroke-width:1.3999999999999997;"/><path d="M352.5812,473.0031 Q349.8031,473.0031 348.1625,470.9469 Q346.5437,468.8687 346.5437,464.5594 Q346.5437,460.9062 348.25,458.4562 Q349.9781,456.0062 352.9531,456.0062 Q353.6531,456.0062 354.3969,456.2031 Q355.0094,456.4656 355.3812,456.4656 Q355.6875,456.4656 355.8187,456.4 Q355.9719,456.3344 356.6062,455.5031 L357.6781,460.7312 L356.4312,461.1031 Q355.7969,459.0687 354.9437,458.2375 Q354.1125,457.3844 352.7781,457.3844 Q351.0719,457.3844 350.0656,459.3969 Q349.0594,461.3875 349.0594,464.45 Q349.0594,467.8187 349.9125,469.6344 Q350.7875,471.4281 352.6906,471.4281 Q354.025,471.4281 354.9875,470.4656 Q355.95,469.4812 356.4094,467.3812 L357.6781,467.95 Q357.1094,470.3344 355.7531,471.6687 Q354.4187,473.0031 352.5812,473.0031 Z " fill="#000000"/><text fill="#000000" font-family="sans-serif" font-size="19.6" lengthAdjust="spacing" textLength="50.4" x="373.1" y="472.9156">Client</text><line style="stroke:#A80036;stroke-width:1.3999999999999997;" x1="333.9" x2="426.3" y1="487.2" y2="487.2"/><line style="stroke:#A80036;stroke-width:1.3999999999999997;" x1="333.9" x2="426.3" y1="498.4" y2="498.4"/></g><!--reverse link UserDetails to User--><g id="link_UserDetails_User"><path codeLine="21" d="M220.5,105.574 C220.5,122.78 220.5,141.96 220.5,160.762 " fill="none" id="UserDetails-backto-User" style="stroke:#A80036;stroke-width:1.3999999999999997;stroke-dasharray:7.0,7.0;"/><polygon fill="none" points="210.7,105.224,220.5,77.224,230.3,105.224,210.7,105.224" style="stroke:#A80036;stroke-width:1.3999999999999997;"/></g><!--reverse link User to Admin--><g id="link_User_Admin"><path codeLine="23" d="M138.782,369.46 C118.706,396.074 98.742,422.562 83.86,442.288 " fill="none" id="User-backto-Admin" style="stroke:#A80036;stroke-width:1.3999999999999997;"/><polygon fill="none" points="131.264,363.16,155.946,346.71,146.902,374.962,131.264,363.16" style="stroke:#A80036;stroke-width:1.3999999999999997;"/></g><!--reverse link User to Operator--><g id="link_User_Operator"><path codeLine="25" d="M220.5,386.722 C220.5,407.218 220.5,426.762 220.5,442.19 " fill="none" id="User-backto-Operator" style="stroke:#A80036;stroke-width:1.3999999999999997;"/><polygon fill="none" points="210.7,386.484,220.5,358.484,230.3,386.484,210.7,386.484" style="stroke:#A80036;stroke-width:1.3999999999999997;"/></g><!--reverse link User to Client--><g id="link_User_Client"><path codeLine="27" d="M301.798,369.852 C321.482,396.186 341.054,422.366 355.712,441.966 " fill="none" id="User-backto-Client" style="stroke:#A80036;stroke-width:1.3999999999999997;"/><polygon fill="none" points="293.874,375.62,284.956,347.326,309.568,363.888,293.874,375.62" style="stroke:#A80036;stroke-width:1.3999999999999997;"/></g><!--SRC=[JOw_3i9028Ttdk8sfxQxSJ6wE_a0U4LBl3yDq3Yex-wbxQKoyVk0B-m6ir7tNJS6J3R5qFeSEnzGjUaP7u8HG9-Sd6Gb04v6SaTFxgeaPpBae80tDK5lRZwSH-uDhbJZ9kvhLt32I6iSo-ehIvtYP4CMDYPT2SKYXoy0BDfZ7pdLS1b9qBBKV0fCoG3-tdA7JzlEpoouvAQfbWrifesjjXy0]--></g></svg>