<?xml version="1.0" encoding="us-ascii" standalone="no"?><svg xmlns="http://www.w3.org/2000/svg" xmlns:xlink="http://www.w3.org/1999/xlink" contentStyleType="text/css" height="879.6px" preserveAspectRatio="none" style="width:943px;height:879px;background:#FFFFFF;" version="1.1" viewBox="0 0 943 879" width="943.2px" zoomAndPan="magnify"><defs><filter height="300%" id="f1w4b5y19ff7x5" width="300%" x="-1" y="-1"><feGaussianBlur result="blurOut" stdDeviation="2.4"/><feColorMatrix in="blurOut" result="blurOut2" type="matrix" values="0 0 0 0 0 0 0 0 0 0 0 0 0 0 0 0 0 0 .4 0"/><feOffset dx="4.8" dy="4.8" in="blurOut2" result="blurOut3"/><feBlend in="SourceGraphic" in2="blurOut3" mode="normal"/></filter></defs><g><rect fill="#FFFFFF" filter="url(#f1w4b5y19ff7x5)" height="638.3367" style="stroke:#A80036;stroke-width:1.2;" width="12" x="153.6" y="123.4945"/><rect fill="#FFFFFF" filter="url(#f1w4b5y19ff7x5)" height="37.5492" style="stroke:#A80036;stroke-width:1.2;" width="12" x="159.6" y="198.593"/><rect fill="#FFFFFF" filter="url(#f1w4b5y19ff7x5)" height="563.2383" style="stroke:#A80036;stroke-width:1.2;" width="12" x="309.6" y="161.0438"/><rect fill="#FFFFFF" filter="url(#f1w4b5y19ff7x5)" height="37.5492" style="stroke:#A80036;stroke-width:1.2;" width="12" x="513.6" y="273.6914"/><rect fill="#FFFFFF" filter="url(#f1w4b5y19ff7x5)" height="37.5492" style="stroke:#A80036;stroke-width:1.2;" width="12" x="513.6" y="348.7898"/><rect fill="#FFFFFF" filter="url(#f1w4b5y19ff7x5)" height="37.5492" style="stroke:#A80036;stroke-width:1.2;" width="12" x="653.4" y="649.1836"/><rect fill="#FFFFFF" filter="url(#f1w4b5y19ff7x5)" height="37.5492" style="stroke:#A80036;stroke-width:1.2;" width="12" x="775.2" y="423.8883"/><rect fill="#FFFFFF" filter="url(#f1w4b5y19ff7x5)" height="37.5492" style="stroke:#A80036;stroke-width:1.2;" width="12" x="775.2" y="574.0852"/><rect fill="#FFFFFF" filter="url(#f1w4b5y19ff7x5)" height="37.5492" style="stroke:#A80036;stroke-width:1.2;" width="12" x="889.2" y="498.9867"/><line style="stroke:#A80036;stroke-width:1.2;stroke-dasharray:5.0,5.0;" x1="159" x2="159" y1="83.5453" y2="783.4313"/><line style="stroke:#A80036;stroke-width:1.2;stroke-dasharray:5.0,5.0;" x1="315.6" x2="315.6" y1="83.5453" y2="783.4313"/><line style="stroke:#A80036;stroke-width:1.2;stroke-dasharray:5.0,5.0;" x1="519" x2="519" y1="83.5453" y2="783.4313"/><line style="stroke:#A80036;stroke-width:1.2;stroke-dasharray:5.0,5.0;" x1="659.4" x2="659.4" y1="83.5453" y2="783.4313"/><line style="stroke:#A80036;stroke-width:1.2;stroke-dasharray:5.0,5.0;" x1="780.6" x2="780.6" y1="83.5453" y2="783.4313"/><line style="stroke:#A80036;stroke-width:1.2;stroke-dasharray:5.0,5.0;" x1="894.6" x2="894.6" y1="83.5453" y2="783.4313"/><rect fill="#FEFECE" filter="url(#f1w4b5y19ff7x5)" height="39.1453" style="stroke:#A80036;stroke-width:1.7999999999999998;" width="128.4" x="93" y="38.4"/><text fill="#000000" font-family="sans-serif" font-size="16.8" lengthAdjust="spacing" textLength="111.6" x="101.4" y="64.9289">Spring Context</text><rect fill="#FEFECE" filter="url(#f1w4b5y19ff7x5)" height="39.1453" style="stroke:#A80036;stroke-width:1.7999999999999998;" width="128.4" x="93" y="782.2312"/><text fill="#000000" font-family="sans-serif" font-size="16.8" lengthAdjust="spacing" textLength="111.6" x="101.4" y="808.7602">Spring Context</text><rect fill="#FEFECE" filter="url(#f1w4b5y19ff7x5)" height="39.1453" style="stroke:#A80036;stroke-width:1.7999999999999998;" width="146.4" x="240" y="38.4"/><text fill="#000000" font-family="sans-serif" font-size="16.8" lengthAdjust="spacing" textLength="129.6" x="248.4" y="64.9289">Workflow Service</text><rect fill="#FEFECE" filter="url(#f1w4b5y19ff7x5)" height="39.1453" style="stroke:#A80036;stroke-width:1.7999999999999998;" width="146.4" x="240" y="782.2312"/><text fill="#000000" font-family="sans-serif" font-size="16.8" lengthAdjust="spacing" textLength="129.6" x="248.4" y="808.7602">Workflow Service</text><rect fill="#FEFECE" filter="url(#f1w4b5y19ff7x5)" height="39.1453" style="stroke:#A80036;stroke-width:1.7999999999999998;" width="140.4" x="447" y="38.4"/><text fill="#000000" font-family="sans-serif" font-size="16.8" lengthAdjust="spacing" textLength="123.6" x="455.4" y="64.9289">Runtime Service</text><rect fill="#FEFECE" filter="url(#f1w4b5y19ff7x5)" height="39.1453" style="stroke:#A80036;stroke-width:1.7999999999999998;" width="140.4" x="447" y="782.2312"/><text fill="#000000" font-family="sans-serif" font-size="16.8" lengthAdjust="spacing" textLength="123.6" x="455.4" y="808.7602">Runtime Service</text><rect fill="#FEFECE" filter="url(#f1w4b5y19ff7x5)" height="39.1453" style="stroke:#A80036;stroke-width:1.7999999999999998;" width="105.6" x="604.2" y="38.4"/><text fill="#000000" font-family="sans-serif" font-size="16.8" lengthAdjust="spacing" textLength="88.8" x="612.6" y="64.9289">File Service</text><rect fill="#FEFECE" filter="url(#f1w4b5y19ff7x5)" height="39.1453" style="stroke:#A80036;stroke-width:1.7999999999999998;" width="105.6" x="604.2" y="782.2312"/><text fill="#000000" font-family="sans-serif" font-size="16.8" lengthAdjust="spacing" textLength="88.8" x="612.6" y="808.7602">File Service</text><text fill="#000000" font-family="sans-serif" font-size="16.8" lengthAdjust="spacing" textLength="102" x="726.6" y="79.3289">Form Mapper</text><path d="M759.6,18 C759.6,6 781.2,6 781.2,6 C781.2,6 802.8,6 802.8,18 L802.8,49.2 C802.8,61.2 781.2,61.2 781.2,61.2 C781.2,61.2 759.6,61.2 759.6,49.2 L759.6,18 " fill="#FEFECE" filter="url(#f1w4b5y19ff7x5)" style="stroke:#A80036;stroke-width:1.7999999999999998;"/><path d="M759.6,18 C759.6,30 781.2,30 781.2,30 C781.2,30 802.8,30 802.8,18 " fill="none" style="stroke:#A80036;stroke-width:1.7999999999999998;"/><text fill="#000000" font-family="sans-serif" font-size="16.8" lengthAdjust="spacing" textLength="102" x="726.6" y="800.3602">Form Mapper</text><path d="M759.6,816.5766 C759.6,804.5766 781.2,804.5766 781.2,804.5766 C781.2,804.5766 802.8,804.5766 802.8,816.5766 L802.8,847.7766 C802.8,859.7766 781.2,859.7766 781.2,859.7766 C781.2,859.7766 759.6,859.7766 759.6,847.7766 L759.6,816.5766 " fill="#FEFECE" filter="url(#f1w4b5y19ff7x5)" style="stroke:#A80036;stroke-width:1.7999999999999998;"/><path d="M759.6,816.5766 C759.6,828.5766 781.2,828.5766 781.2,828.5766 C781.2,828.5766 802.8,828.5766 802.8,816.5766 " fill="none" style="stroke:#A80036;stroke-width:1.7999999999999998;"/><text fill="#000000" font-family="sans-serif" font-size="16.8" lengthAdjust="spacing" textLength="87.6" x="847.8" y="79.3289">Sample List</text><ellipse cx="895.2" cy="42" fill="#FEFECE" filter="url(#f1w4b5y19ff7x5)" rx="14.4" ry="14.4" style="stroke:#A80036;stroke-width:2.4;"/><line style="stroke:#A80036;stroke-width:2.4;" x1="880.8" x2="909.6" y1="58.8" y2="58.8"/><text fill="#000000" font-family="sans-serif" font-size="16.8" lengthAdjust="spacing" textLength="87.6" x="847.8" y="800.3602">Sample List</text><ellipse cx="895.2" cy="823.7766" fill="#FEFECE" filter="url(#f1w4b5y19ff7x5)" rx="14.4" ry="14.4" style="stroke:#A80036;stroke-width:2.4;"/><line style="stroke:#A80036;stroke-width:2.4;" x1="880.8" x2="909.6" y1="840.5766" y2="840.5766"/><rect fill="#FFFFFF" filter="url(#f1w4b5y19ff7x5)" height="638.3367" style="stroke:#A80036;stroke-width:1.2;" width="12" x="153.6" y="123.4945"/><rect fill="#FFFFFF" filter="url(#f1w4b5y19ff7x5)" height="37.5492" style="stroke:#A80036;stroke-width:1.2;" width="12" x="159.6" y="198.593"/><rect fill="#FFFFFF" filter="url(#f1w4b5y19ff7x5)" height="563.2383" style="stroke:#A80036;stroke-width:1.2;" width="12" x="309.6" y="161.0438"/><rect fill="#FFFFFF" filter="url(#f1w4b5y19ff7x5)" height="37.5492" style="stroke:#A80036;stroke-width:1.2;" width="12" x="513.6" y="273.6914"/><rect fill="#FFFFFF" filter="url(#f1w4b5y19ff7x5)" height="37.5492" style="stroke:#A80036;stroke-width:1.2;" width="12" x="513.6" y="348.7898"/><rect fill="#FFFFFF" filter="url(#f1w4b5y19ff7x5)" height="37.5492" style="stroke:#A80036;stroke-width:1.2;" width="12" x="653.4" y="649.1836"/><rect fill="#FFFFFF" filter="url(#f1w4b5y19ff7x5)" height="37.5492" style="stroke:#A80036;stroke-width:1.2;" width="12" x="775.2" y="423.8883"/><rect fill="#FFFFFF" filter="url(#f1w4b5y19ff7x5)" height="37.5492" style="stroke:#A80036;stroke-width:1.2;" width="12" x="775.2" y="574.0852"/><rect fill="#FFFFFF" filter="url(#f1w4b5y19ff7x5)" height="37.5492" style="stroke:#A80036;stroke-width:1.2;" width="12" x="889.2" y="498.9867"/><polygon fill="#A80036" points="139.2,118.6945,151.2,123.4945,139.2,128.2945,144,123.4945" style="stroke:#A80036;stroke-width:1.2;"/><line style="stroke:#A80036;stroke-width:1.2;" x1="0" x2="146.4" y1="123.4945" y2="123.4945"/><text fill="#000000" font-family="sans-serif" font-size="15.6" font-weight="bold" lengthAdjust="spacing" textLength="8.4" x="8.4" y="117.1793">1</text><text fill="#000000" font-family="sans-serif" font-size="15.6" lengthAdjust="spacing" textLength="93.6" x="21.6" y="117.1793">&#29992;&#25143;&#21457;&#36865;&#35831;&#27714;</text><polygon fill="#A80036" points="295.2,156.2438,307.2,161.0438,295.2,165.8438,300,161.0438" style="stroke:#A80036;stroke-width:1.2;"/><line style="stroke:#A80036;stroke-width:1.2;" x1="165.6" x2="302.4" y1="161.0438" y2="161.0438"/><text fill="#000000" font-family="sans-serif" font-size="15.6" font-weight="bold" lengthAdjust="spacing" textLength="8.4" x="174" y="154.7285">2</text><text fill="#000000" font-family="sans-serif" font-size="15.6" lengthAdjust="spacing" textLength="93.6" x="187.2" y="154.7285">&#21457;&#36215;&#26032;&#30340;&#27969;&#31243;</text><polygon fill="#A80036" points="184.8,193.793,172.8,198.593,184.8,203.393,180,198.593" style="stroke:#A80036;stroke-width:1.2;"/><line style="stroke:#A80036;stroke-width:1.2;" x1="177.6" x2="308.4" y1="198.593" y2="198.593"/><text fill="#000000" font-family="sans-serif" font-size="15.6" font-weight="bold" lengthAdjust="spacing" textLength="8.4" x="192" y="192.2777">3</text><text fill="#000000" font-family="sans-serif" font-size="15.6" lengthAdjust="spacing" textLength="81.6" x="205.2" y="192.2777">&#33719;&#21462;&#29992;&#25143; ID</text><polygon fill="#A80036" points="295.2,231.3422,307.2,236.1422,295.2,240.9422,300,236.1422" style="stroke:#A80036;stroke-width:1.2;"/><line style="stroke:#A80036;stroke-width:1.2;stroke-dasharray:2.0,2.0;" x1="165.6" x2="302.4" y1="236.1422" y2="236.1422"/><text fill="#000000" font-family="sans-serif" font-size="15.6" font-weight="bold" lengthAdjust="spacing" textLength="8.4" x="174" y="229.827">4</text><text fill="#000000" font-family="sans-serif" font-size="15.6" lengthAdjust="spacing" textLength="50.4" x="187.2" y="229.827">&#29992;&#25143; ID</text><polygon fill="#A80036" points="499.2,268.8914,511.2,273.6914,499.2,278.4914,504,273.6914" style="stroke:#A80036;stroke-width:1.2;"/><line style="stroke:#A80036;stroke-width:1.2;" x1="321.6" x2="506.4" y1="273.6914" y2="273.6914"/><text fill="#000000" font-family="sans-serif" font-size="15.6" font-weight="bold" lengthAdjust="spacing" textLength="8.4" x="330" y="267.3762">5</text><text fill="#000000" font-family="sans-serif" font-size="15.6" lengthAdjust="spacing" textLength="156" x="343.2" y="267.3762">&#21028;&#26029;&#27969;&#31243;&#23454;&#20363;&#26159;&#21542;&#23384;&#22312;</text><polygon fill="#A80036" points="334.8,306.4406,322.8,311.2406,334.8,316.0406,330,311.2406" style="stroke:#A80036;stroke-width:1.2;"/><line style="stroke:#A80036;stroke-width:1.2;stroke-dasharray:2.0,2.0;" x1="327.6" x2="518.4" y1="311.2406" y2="311.2406"/><text fill="#000000" font-family="sans-serif" font-size="15.6" font-weight="bold" lengthAdjust="spacing" textLength="8.4" x="342" y="304.9254">6</text><text fill="#000000" font-family="sans-serif" font-size="15.6" lengthAdjust="spacing" textLength="4.8" x="355.2" y="304.9254">&#160;</text><polygon fill="#A80036" points="499.2,343.9898,511.2,348.7898,499.2,353.5898,504,348.7898" style="stroke:#A80036;stroke-width:1.2;"/><line style="stroke:#A80036;stroke-width:1.2;" x1="321.6" x2="506.4" y1="348.7898" y2="348.7898"/><text fill="#000000" font-family="sans-serif" font-size="15.6" font-weight="bold" lengthAdjust="spacing" textLength="8.4" x="330" y="342.4746">7</text><text fill="#000000" font-family="sans-serif" font-size="15.6" lengthAdjust="spacing" textLength="93.6" x="343.2" y="342.4746">&#33719;&#21462;&#26679;&#21697;&#21015;&#34920;</text><polygon fill="#A80036" points="334.8,381.5391,322.8,386.3391,334.8,391.1391,330,386.3391" style="stroke:#A80036;stroke-width:1.2;"/><line style="stroke:#A80036;stroke-width:1.2;stroke-dasharray:2.0,2.0;" x1="327.6" x2="518.4" y1="386.3391" y2="386.3391"/><text fill="#000000" font-family="sans-serif" font-size="15.6" font-weight="bold" lengthAdjust="spacing" textLength="8.4" x="342" y="380.0238">8</text><text fill="#000000" font-family="sans-serif" font-size="15.6" lengthAdjust="spacing" textLength="81.6" x="355.2" y="380.0238">&#26679;&#21697;&#21015;&#34920; ID</text><polygon fill="#A80036" points="760.8,419.0883,772.8,423.8883,760.8,428.6883,765.6,423.8883" style="stroke:#A80036;stroke-width:1.2;"/><line style="stroke:#A80036;stroke-width:1.2;" x1="321.6" x2="768" y1="423.8883" y2="423.8883"/><text fill="#000000" font-family="sans-serif" font-size="15.6" font-weight="bold" lengthAdjust="spacing" textLength="8.4" x="330" y="417.573">9</text><text fill="#000000" font-family="sans-serif" font-size="15.6" lengthAdjust="spacing" textLength="195.6" x="343.2" y="417.573">&#26681;&#25454;&#26679;&#21697;&#21015;&#34920; ID &#26597;&#25214;&#25968;&#25454;&#24211;</text><polygon fill="#A80036" points="334.8,456.6375,322.8,461.4375,334.8,466.2375,330,461.4375" style="stroke:#A80036;stroke-width:1.2;"/><line style="stroke:#A80036;stroke-width:1.2;stroke-dasharray:2.0,2.0;" x1="327.6" x2="780" y1="461.4375" y2="461.4375"/><text fill="#000000" font-family="sans-serif" font-size="15.6" font-weight="bold" lengthAdjust="spacing" textLength="16.8" x="342" y="455.1223">10</text><text fill="#000000" font-family="sans-serif" font-size="15.6" lengthAdjust="spacing" textLength="93.6" x="363.6" y="455.1223">&#26679;&#21697;&#21015;&#34920;&#23545;&#35937;</text><polygon fill="#A80036" points="874.8,494.1867,886.8,498.9867,874.8,503.7867,879.6,498.9867" style="stroke:#A80036;stroke-width:1.2;"/><line style="stroke:#A80036;stroke-width:1.2;" x1="321.6" x2="882" y1="498.9867" y2="498.9867"/><text fill="#000000" font-family="sans-serif" font-size="15.6" font-weight="bold" lengthAdjust="spacing" textLength="16.8" x="330" y="492.6715">11</text><text fill="#000000" font-family="sans-serif" font-size="15.6" lengthAdjust="spacing" textLength="249.6" x="351.6" y="492.6715">&#21028;&#26029;&#24403;&#21069;&#30331;&#24405;&#29992;&#25143;&#26159;&#21542;&#20855;&#26377;&#19978;&#20256;&#26435;&#38480;</text><polygon fill="#A80036" points="880.8,531.7359,892.8,536.5359,880.8,541.3359,885.6,536.5359" style="stroke:#A80036;stroke-width:1.2;"/><line style="stroke:#A80036;stroke-width:1.2;" x1="321.6" x2="888" y1="536.5359" y2="536.5359"/><text fill="#000000" font-family="sans-serif" font-size="15.6" font-weight="bold" lengthAdjust="spacing" textLength="16.8" x="330" y="530.2207">12</text><text fill="#000000" font-family="sans-serif" font-size="15.6" lengthAdjust="spacing" textLength="109.2" x="351.6" y="530.2207">&#28155;&#21152;&#26032;&#25991;&#20214;&#32034;&#24341;</text><polygon fill="#A80036" points="760.8,569.2852,772.8,574.0852,760.8,578.8852,765.6,574.0852" style="stroke:#A80036;stroke-width:1.2;"/><line style="stroke:#A80036;stroke-width:1.2;" x1="321.6" x2="768" y1="574.0852" y2="574.0852"/><text fill="#000000" font-family="sans-serif" font-size="15.6" font-weight="bold" lengthAdjust="spacing" textLength="16.8" x="330" y="567.7699">13</text><text fill="#000000" font-family="sans-serif" font-size="15.6" lengthAdjust="spacing" textLength="93.6" x="351.6" y="567.7699">&#20445;&#23384;&#26679;&#21697;&#21015;&#34920;</text><polygon fill="#A80036" points="334.8,606.8344,322.8,611.6344,334.8,616.4344,330,611.6344" style="stroke:#A80036;stroke-width:1.2;"/><line style="stroke:#A80036;stroke-width:1.2;stroke-dasharray:2.0,2.0;" x1="327.6" x2="780" y1="611.6344" y2="611.6344"/><text fill="#000000" font-family="sans-serif" font-size="15.6" font-weight="bold" lengthAdjust="spacing" textLength="16.8" x="342" y="605.3191">14</text><text fill="#000000" font-family="sans-serif" font-size="15.6" lengthAdjust="spacing" textLength="4.8" x="363.6" y="605.3191">&#160;</text><polygon fill="#A80036" points="639,644.3836,651,649.1836,639,653.9836,643.8,649.1836" style="stroke:#A80036;stroke-width:1.2;"/><line style="stroke:#A80036;stroke-width:1.2;" x1="321.6" x2="646.2" y1="649.1836" y2="649.1836"/><text fill="#000000" font-family="sans-serif" font-size="15.6" font-weight="bold" lengthAdjust="spacing" textLength="16.8" x="330" y="642.8684">15</text><text fill="#000000" font-family="sans-serif" font-size="15.6" lengthAdjust="spacing" textLength="93.6" x="351.6" y="642.8684">&#20445;&#23384;&#26679;&#21697;&#25991;&#20214;</text><polygon fill="#A80036" points="334.8,681.9328,322.8,686.7328,334.8,691.5328,330,686.7328" style="stroke:#A80036;stroke-width:1.2;"/><line style="stroke:#A80036;stroke-width:1.2;stroke-dasharray:2.0,2.0;" x1="327.6" x2="658.2" y1="686.7328" y2="686.7328"/><text fill="#000000" font-family="sans-serif" font-size="15.6" font-weight="bold" lengthAdjust="spacing" textLength="16.8" x="342" y="680.4176">16</text><text fill="#000000" font-family="sans-serif" font-size="15.6" lengthAdjust="spacing" textLength="4.8" x="363.6" y="680.4176">&#160;</text><polygon fill="#A80036" points="178.8,719.482,166.8,724.282,178.8,729.082,174,724.282" style="stroke:#A80036;stroke-width:1.2;"/><line style="stroke:#A80036;stroke-width:1.2;stroke-dasharray:2.0,2.0;" x1="171.6" x2="314.4" y1="724.282" y2="724.282"/><text fill="#000000" font-family="sans-serif" font-size="15.6" font-weight="bold" lengthAdjust="spacing" textLength="16.8" x="186" y="717.9668">17</text><text fill="#000000" font-family="sans-serif" font-size="15.6" lengthAdjust="spacing" textLength="93.6" x="207.6" y="717.9668">&#25991;&#20214;&#20449;&#24687;&#25688;&#35201;</text><polygon fill="#A80036" points="13.2,757.0313,1.2,761.8313,13.2,766.6313,8.4,761.8313" style="stroke:#A80036;stroke-width:1.2;"/><line style="stroke:#A80036;stroke-width:1.2;stroke-dasharray:2.0,2.0;" x1="6" x2="158.4" y1="761.8313" y2="761.8313"/><text fill="#000000" font-family="sans-serif" font-size="15.6" font-weight="bold" lengthAdjust="spacing" textLength="16.8" x="20.4" y="755.516">18</text><text fill="#000000" font-family="sans-serif" font-size="15.6" lengthAdjust="spacing" textLength="109.2" x="42" y="755.516">&#21521;&#29992;&#25143;&#21457;&#36865;&#21709;&#24212;</text><!--SRC=[RPBBRjD058RtynIZRbYLxBDW0q92WWrTi1xR9sNK-C9uN627kOYaLI1Hcf2Y5X84LJPjMebYslJoCfvZzoqOnNKSespd_yutyn_DdUTIUdwrKl7gp961NRzhkdR5XnS1E2QiMfoj2sOJuczmXmhN1q9O85qdi0qGX7XCI6voJy_IbJLFS6UTtdST2Q_a2cK-PMNYcIisQdNt9Lq3iSbDc356cNaQE9BRK4BCClAGryjvZLXCCeFve4DNsFG9ypmGiymYe8NojNuVipqz-9ZxsUDqbzLxb5LfiZF6HgG-TsxUXEaamfEtX9cIRp89kW6ZcZAgLEVfQOJzu-JhUpmDa_5sGHd4e9ah_QH5_Sn87prO50cGWN1eaSrcJ6rk_CJ-OUPKHz_YgsqSJ5JxG1qErDwuK9YtYlbWTXaE8zKDLUDBEbe2qyLuVgjLrUTds3hwBwNu_HSshx1th3DrtYryrZAVcfob9wDC2NaHTTbLpLQoErMNlQpiRPqF4UuruxzRySKGzz_TxBOBEymT64tLrb2l6ViVu-cVvFSFTT4Z5kGecHU8h_VrXfQtjqghgfNXp5p0jHpE6yxo-7g4uGGxW_GWp1FLxYn-5jLjgVCTyWy0]--></g></svg>