<?xml version="1.0" encoding="us-ascii" standalone="no"?><svg xmlns="http://www.w3.org/2000/svg" xmlns:xlink="http://www.w3.org/1999/xlink" contentStyleType="text/css" height="806.3px" preserveAspectRatio="none" style="width:878px;height:806px;background:#FFFFFF;" version="1.1" viewBox="0 0 878 806" width="878.9px" zoomAndPan="magnify"><defs><filter height="300%" id="fizaliime60hr" width="300%" x="-1" y="-1"><feGaussianBlur result="blurOut" stdDeviation="2.2"/><feColorMatrix in="blurOut" result="blurOut2" type="matrix" values="0 0 0 0 0 0 0 0 0 0 0 0 0 0 0 0 0 0 .4 0"/><feOffset dx="4.4" dy="4.4" in="blurOut2" result="blurOut3"/><feBlend in="SourceGraphic" in2="blurOut3" mode="normal"/></filter></defs><g><rect fill="#FFFFFF" filter="url(#fizaliime60hr)" height="585.142" style="stroke:#A80036;stroke-width:1.1;" width="11" x="140.8" y="113.2033"/><rect fill="#FFFFFF" filter="url(#fizaliime60hr)" height="34.4201" style="stroke:#A80036;stroke-width:1.1;" width="11" x="146.3" y="182.0436"/><rect fill="#FFFFFF" filter="url(#fizaliime60hr)" height="516.3018" style="stroke:#A80036;stroke-width:1.1;" width="11" x="283.8" y="147.6234"/><rect fill="#FFFFFF" filter="url(#fizaliime60hr)" height="34.4201" style="stroke:#A80036;stroke-width:1.1;" width="11" x="470.8" y="250.8838"/><rect fill="#FFFFFF" filter="url(#fizaliime60hr)" height="34.4201" style="stroke:#A80036;stroke-width:1.1;" width="11" x="470.8" y="319.724"/><rect fill="#FFFFFF" filter="url(#fizaliime60hr)" height="34.4201" style="stroke:#A80036;stroke-width:1.1;" width="11" x="598.95" y="595.085"/><rect fill="#FFFFFF" filter="url(#fizaliime60hr)" height="34.4201" style="stroke:#A80036;stroke-width:1.1;" width="11" x="710.6" y="388.5643"/><rect fill="#FFFFFF" filter="url(#fizaliime60hr)" height="34.4201" style="stroke:#A80036;stroke-width:1.1;" width="11" x="710.6" y="526.2447"/><rect fill="#FFFFFF" filter="url(#fizaliime60hr)" height="34.4201" style="stroke:#A80036;stroke-width:1.1;" width="11" x="822.25" y="457.4045"/><line style="stroke:#A80036;stroke-width:1.1;stroke-dasharray:5.0,5.0;" x1="145.75" x2="145.75" y1="76.5832" y2="718.1453"/><line style="stroke:#A80036;stroke-width:1.1;stroke-dasharray:5.0,5.0;" x1="289.3" x2="289.3" y1="76.5832" y2="718.1453"/><line style="stroke:#A80036;stroke-width:1.1;stroke-dasharray:5.0,5.0;" x1="475.75" x2="475.75" y1="76.5832" y2="718.1453"/><line style="stroke:#A80036;stroke-width:1.1;stroke-dasharray:5.0,5.0;" x1="604.45" x2="604.45" y1="76.5832" y2="718.1453"/><line style="stroke:#A80036;stroke-width:1.1;stroke-dasharray:5.0,5.0;" x1="715.55" x2="715.55" y1="76.5832" y2="718.1453"/><line style="stroke:#A80036;stroke-width:1.1;stroke-dasharray:5.0,5.0;" x1="827.75" x2="827.75" y1="76.5832" y2="718.1453"/><rect fill="#FEFECE" filter="url(#fizaliime60hr)" height="35.8832" style="stroke:#A80036;stroke-width:1.6500000000000001;" width="117.7" x="85.25" y="35.2"/><text fill="#000000" font-family="sans-serif" font-size="15.4" lengthAdjust="spacing" textLength="102.3" x="92.95" y="59.5182">Spring Context</text><rect fill="#FEFECE" filter="url(#fizaliime60hr)" height="35.8832" style="stroke:#A80036;stroke-width:1.6500000000000001;" width="117.7" x="85.25" y="717.0453"/><text fill="#000000" font-family="sans-serif" font-size="15.4" lengthAdjust="spacing" textLength="102.3" x="92.95" y="741.3635">Spring Context</text><rect fill="#FEFECE" filter="url(#fizaliime60hr)" height="35.8832" style="stroke:#A80036;stroke-width:1.6500000000000001;" width="134.2" x="220" y="35.2"/><text fill="#000000" font-family="sans-serif" font-size="15.4" lengthAdjust="spacing" textLength="118.8" x="227.7" y="59.5182">Workflow Service</text><rect fill="#FEFECE" filter="url(#fizaliime60hr)" height="35.8832" style="stroke:#A80036;stroke-width:1.6500000000000001;" width="134.2" x="220" y="717.0453"/><text fill="#000000" font-family="sans-serif" font-size="15.4" lengthAdjust="spacing" textLength="118.8" x="227.7" y="741.3635">Workflow Service</text><rect fill="#FEFECE" filter="url(#fizaliime60hr)" height="35.8832" style="stroke:#A80036;stroke-width:1.6500000000000001;" width="128.7" x="409.75" y="35.2"/><text fill="#000000" font-family="sans-serif" font-size="15.4" lengthAdjust="spacing" textLength="113.3" x="417.45" y="59.5182">Runtime Service</text><rect fill="#FEFECE" filter="url(#fizaliime60hr)" height="35.8832" style="stroke:#A80036;stroke-width:1.6500000000000001;" width="128.7" x="409.75" y="717.0453"/><text fill="#000000" font-family="sans-serif" font-size="15.4" lengthAdjust="spacing" textLength="113.3" x="417.45" y="741.3635">Runtime Service</text><rect fill="#FEFECE" filter="url(#fizaliime60hr)" height="35.8832" style="stroke:#A80036;stroke-width:1.6500000000000001;" width="96.8" x="553.85" y="35.2"/><text fill="#000000" font-family="sans-serif" font-size="15.4" lengthAdjust="spacing" textLength="81.4" x="561.55" y="59.5182">File Service</text><rect fill="#FEFECE" filter="url(#fizaliime60hr)" height="35.8832" style="stroke:#A80036;stroke-width:1.6500000000000001;" width="96.8" x="553.85" y="717.0453"/><text fill="#000000" font-family="sans-serif" font-size="15.4" lengthAdjust="spacing" textLength="81.4" x="561.55" y="741.3635">File Service</text><text fill="#000000" font-family="sans-serif" font-size="15.4" lengthAdjust="spacing" textLength="93.5" x="666.05" y="72.7182">Form Mapper</text><path d="M696.3,16.5 C696.3,5.5 716.1,5.5 716.1,5.5 C716.1,5.5 735.9,5.5 735.9,16.5 L735.9,45.1 C735.9,56.1 716.1,56.1 716.1,56.1 C716.1,56.1 696.3,56.1 696.3,45.1 L696.3,16.5 " fill="#FEFECE" filter="url(#fizaliime60hr)" style="stroke:#A80036;stroke-width:1.6500000000000001;"/><path d="M696.3,16.5 C696.3,27.5 716.1,27.5 716.1,27.5 C716.1,27.5 735.9,27.5 735.9,16.5 " fill="none" style="stroke:#A80036;stroke-width:1.6500000000000001;"/><text fill="#000000" font-family="sans-serif" font-size="15.4" lengthAdjust="spacing" textLength="93.5" x="666.05" y="733.6635">Form Mapper</text><path d="M696.3,748.5285 C696.3,737.5285 716.1,737.5285 716.1,737.5285 C716.1,737.5285 735.9,737.5285 735.9,748.5285 L735.9,777.1285 C735.9,788.1285 716.1,788.1285 716.1,788.1285 C716.1,788.1285 696.3,788.1285 696.3,777.1285 L696.3,748.5285 " fill="#FEFECE" filter="url(#fizaliime60hr)" style="stroke:#A80036;stroke-width:1.6500000000000001;"/><path d="M696.3,748.5285 C696.3,759.5285 716.1,759.5285 716.1,759.5285 C716.1,759.5285 735.9,759.5285 735.9,748.5285 " fill="none" style="stroke:#A80036;stroke-width:1.6500000000000001;"/><text fill="#000000" font-family="sans-serif" font-size="15.4" lengthAdjust="spacing" textLength="94.6" x="777.15" y="72.7182">File Index List</text><ellipse cx="827.75" cy="38.5" fill="#FEFECE" filter="url(#fizaliime60hr)" rx="13.2" ry="13.2" style="stroke:#A80036;stroke-width:2.2;"/><line style="stroke:#A80036;stroke-width:2.2;" x1="814.55" x2="840.95" y1="53.9" y2="53.9"/><text fill="#000000" font-family="sans-serif" font-size="15.4" lengthAdjust="spacing" textLength="94.6" x="777.15" y="733.6635">File Index List</text><ellipse cx="827.75" cy="755.1285" fill="#FEFECE" filter="url(#fizaliime60hr)" rx="13.2" ry="13.2" style="stroke:#A80036;stroke-width:2.2;"/><line style="stroke:#A80036;stroke-width:2.2;" x1="814.55" x2="840.95" y1="770.5285" y2="770.5285"/><rect fill="#FFFFFF" filter="url(#fizaliime60hr)" height="585.142" style="stroke:#A80036;stroke-width:1.1;" width="11" x="140.8" y="113.2033"/><rect fill="#FFFFFF" filter="url(#fizaliime60hr)" height="34.4201" style="stroke:#A80036;stroke-width:1.1;" width="11" x="146.3" y="182.0436"/><rect fill="#FFFFFF" filter="url(#fizaliime60hr)" height="516.3018" style="stroke:#A80036;stroke-width:1.1;" width="11" x="283.8" y="147.6234"/><rect fill="#FFFFFF" filter="url(#fizaliime60hr)" height="34.4201" style="stroke:#A80036;stroke-width:1.1;" width="11" x="470.8" y="250.8838"/><rect fill="#FFFFFF" filter="url(#fizaliime60hr)" height="34.4201" style="stroke:#A80036;stroke-width:1.1;" width="11" x="470.8" y="319.724"/><rect fill="#FFFFFF" filter="url(#fizaliime60hr)" height="34.4201" style="stroke:#A80036;stroke-width:1.1;" width="11" x="598.95" y="595.085"/><rect fill="#FFFFFF" filter="url(#fizaliime60hr)" height="34.4201" style="stroke:#A80036;stroke-width:1.1;" width="11" x="710.6" y="388.5643"/><rect fill="#FFFFFF" filter="url(#fizaliime60hr)" height="34.4201" style="stroke:#A80036;stroke-width:1.1;" width="11" x="710.6" y="526.2447"/><rect fill="#FFFFFF" filter="url(#fizaliime60hr)" height="34.4201" style="stroke:#A80036;stroke-width:1.1;" width="11" x="822.25" y="457.4045"/><polygon fill="#A80036" points="127.6,108.8033,138.6,113.2033,127.6,117.6033,132,113.2033" style="stroke:#A80036;stroke-width:1.1;"/><line style="stroke:#A80036;stroke-width:1.1;" x1="0" x2="134.2" y1="113.2033" y2="113.2033"/><text fill="#000000" font-family="sans-serif" font-size="14.3" font-weight="bold" lengthAdjust="spacing" textLength="7.7" x="7.7" y="107.4144">1</text><text fill="#000000" font-family="sans-serif" font-size="14.3" lengthAdjust="spacing" textLength="85.8" x="19.8" y="107.4144">&#29992;&#25143;&#21457;&#36865;&#35831;&#27714;</text><polygon fill="#A80036" points="270.6,143.2234,281.6,147.6234,270.6,152.0234,275,147.6234" style="stroke:#A80036;stroke-width:1.1;"/><line style="stroke:#A80036;stroke-width:1.1;" x1="151.8" x2="277.2" y1="147.6234" y2="147.6234"/><text fill="#000000" font-family="sans-serif" font-size="14.3" font-weight="bold" lengthAdjust="spacing" textLength="7.7" x="159.5" y="141.8345">2</text><text fill="#000000" font-family="sans-serif" font-size="14.3" lengthAdjust="spacing" textLength="85.8" x="171.6" y="141.8345">&#21457;&#36215;&#26032;&#30340;&#27969;&#31243;</text><polygon fill="#A80036" points="169.4,177.6436,158.4,182.0436,169.4,186.4436,165,182.0436" style="stroke:#A80036;stroke-width:1.1;"/><line style="stroke:#A80036;stroke-width:1.1;" x1="162.8" x2="282.7" y1="182.0436" y2="182.0436"/><text fill="#000000" font-family="sans-serif" font-size="14.3" font-weight="bold" lengthAdjust="spacing" textLength="7.7" x="176" y="176.2546">3</text><text fill="#000000" font-family="sans-serif" font-size="14.3" lengthAdjust="spacing" textLength="74.8" x="188.1" y="176.2546">&#33719;&#21462;&#29992;&#25143; ID</text><polygon fill="#A80036" points="270.6,212.0637,281.6,216.4637,270.6,220.8637,275,216.4637" style="stroke:#A80036;stroke-width:1.1;"/><line style="stroke:#A80036;stroke-width:1.1;stroke-dasharray:2.0,2.0;" x1="151.8" x2="277.2" y1="216.4637" y2="216.4637"/><text fill="#000000" font-family="sans-serif" font-size="14.3" font-weight="bold" lengthAdjust="spacing" textLength="7.7" x="159.5" y="210.6747">4</text><text fill="#000000" font-family="sans-serif" font-size="14.3" lengthAdjust="spacing" textLength="46.2" x="171.6" y="210.6747">&#29992;&#25143; ID</text><polygon fill="#A80036" points="457.6,246.4838,468.6,250.8838,457.6,255.2838,462,250.8838" style="stroke:#A80036;stroke-width:1.1;"/><line style="stroke:#A80036;stroke-width:1.1;" x1="294.8" x2="464.2" y1="250.8838" y2="250.8838"/><text fill="#000000" font-family="sans-serif" font-size="14.3" font-weight="bold" lengthAdjust="spacing" textLength="7.7" x="302.5" y="245.0948">5</text><text fill="#000000" font-family="sans-serif" font-size="14.3" lengthAdjust="spacing" textLength="143" x="314.6" y="245.0948">&#21028;&#26029;&#27969;&#31243;&#23454;&#20363;&#26159;&#21542;&#23384;&#22312;</text><polygon fill="#A80036" points="306.9,280.9039,295.9,285.3039,306.9,289.7039,302.5,285.3039" style="stroke:#A80036;stroke-width:1.1;"/><line style="stroke:#A80036;stroke-width:1.1;stroke-dasharray:2.0,2.0;" x1="300.3" x2="475.2" y1="285.3039" y2="285.3039"/><text fill="#000000" font-family="sans-serif" font-size="14.3" font-weight="bold" lengthAdjust="spacing" textLength="7.7" x="313.5" y="279.5149">6</text><text fill="#000000" font-family="sans-serif" font-size="14.3" lengthAdjust="spacing" textLength="4.4" x="325.6" y="279.5149">&#160;</text><polygon fill="#A80036" points="457.6,315.324,468.6,319.724,457.6,324.124,462,319.724" style="stroke:#A80036;stroke-width:1.1;"/><line style="stroke:#A80036;stroke-width:1.1;" x1="294.8" x2="464.2" y1="319.724" y2="319.724"/><text fill="#000000" font-family="sans-serif" font-size="14.3" font-weight="bold" lengthAdjust="spacing" textLength="7.7" x="302.5" y="313.9351">7</text><text fill="#000000" font-family="sans-serif" font-size="14.3" lengthAdjust="spacing" textLength="143" x="314.6" y="313.9351">&#33719;&#21462;&#26679;&#21697;&#25991;&#20214;&#32034;&#24341;&#21015;&#34920;</text><polygon fill="#A80036" points="306.9,349.7441,295.9,354.1441,306.9,358.5441,302.5,354.1441" style="stroke:#A80036;stroke-width:1.1;"/><line style="stroke:#A80036;stroke-width:1.1;stroke-dasharray:2.0,2.0;" x1="300.3" x2="475.2" y1="354.1441" y2="354.1441"/><text fill="#000000" font-family="sans-serif" font-size="14.3" font-weight="bold" lengthAdjust="spacing" textLength="7.7" x="313.5" y="348.3552">8</text><text fill="#000000" font-family="sans-serif" font-size="14.3" lengthAdjust="spacing" textLength="103.4" x="325.6" y="348.3552">&#25991;&#20214;&#32034;&#24341;&#21015;&#34920; ID</text><polygon fill="#A80036" points="697.4,384.1643,708.4,388.5643,697.4,392.9643,701.8,388.5643" style="stroke:#A80036;stroke-width:1.1;"/><line style="stroke:#A80036;stroke-width:1.1;" x1="294.8" x2="704" y1="388.5643" y2="388.5643"/><text fill="#000000" font-family="sans-serif" font-size="14.3" font-weight="bold" lengthAdjust="spacing" textLength="7.7" x="302.5" y="382.7753">9</text><text fill="#000000" font-family="sans-serif" font-size="14.3" lengthAdjust="spacing" textLength="207.9" x="314.6" y="382.7753">&#26681;&#25454;&#25991;&#20214;&#32034;&#24341;&#21015;&#34920; ID &#26597;&#25214;&#25968;&#25454;&#24211;</text><polygon fill="#A80036" points="306.9,418.5844,295.9,422.9844,306.9,427.3844,302.5,422.9844" style="stroke:#A80036;stroke-width:1.1;"/><line style="stroke:#A80036;stroke-width:1.1;stroke-dasharray:2.0,2.0;" x1="300.3" x2="715" y1="422.9844" y2="422.9844"/><text fill="#000000" font-family="sans-serif" font-size="14.3" font-weight="bold" lengthAdjust="spacing" textLength="15.4" x="313.5" y="417.1954">10</text><text fill="#000000" font-family="sans-serif" font-size="14.3" lengthAdjust="spacing" textLength="114.4" x="333.3" y="417.1954">&#25991;&#20214;&#32034;&#24341;&#21015;&#34920;&#23545;&#35937;</text><polygon fill="#A80036" points="809.05,453.0045,820.05,457.4045,809.05,461.8045,813.45,457.4045" style="stroke:#A80036;stroke-width:1.1;"/><line style="stroke:#A80036;stroke-width:1.1;" x1="294.8" x2="815.65" y1="457.4045" y2="457.4045"/><text fill="#000000" font-family="sans-serif" font-size="14.3" font-weight="bold" lengthAdjust="spacing" textLength="15.4" x="302.5" y="451.6155">11</text><text fill="#000000" font-family="sans-serif" font-size="14.3" lengthAdjust="spacing" textLength="228.8" x="322.3" y="451.6155">&#21028;&#26029;&#24403;&#21069;&#30331;&#24405;&#29992;&#25143;&#26159;&#21542;&#20855;&#26377;&#19978;&#20256;&#26435;&#38480;</text><polygon fill="#A80036" points="814.55,487.4246,825.55,491.8246,814.55,496.2246,818.95,491.8246" style="stroke:#A80036;stroke-width:1.1;"/><line style="stroke:#A80036;stroke-width:1.1;" x1="294.8" x2="821.15" y1="491.8246" y2="491.8246"/><text fill="#000000" font-family="sans-serif" font-size="14.3" font-weight="bold" lengthAdjust="spacing" textLength="15.4" x="302.5" y="486.0356">12</text><text fill="#000000" font-family="sans-serif" font-size="14.3" lengthAdjust="spacing" textLength="100.1" x="322.3" y="486.0356">&#28155;&#21152;&#26032;&#25991;&#20214;&#32034;&#24341;</text><polygon fill="#A80036" points="697.4,521.8447,708.4,526.2447,697.4,530.6447,701.8,526.2447" style="stroke:#A80036;stroke-width:1.1;"/><line style="stroke:#A80036;stroke-width:1.1;" x1="294.8" x2="704" y1="526.2447" y2="526.2447"/><text fill="#000000" font-family="sans-serif" font-size="14.3" font-weight="bold" lengthAdjust="spacing" textLength="15.4" x="302.5" y="520.4558">13</text><text fill="#000000" font-family="sans-serif" font-size="14.3" lengthAdjust="spacing" textLength="114.4" x="322.3" y="520.4558">&#20445;&#23384;&#25991;&#20214;&#32034;&#24341;&#21015;&#34920;</text><polygon fill="#A80036" points="306.9,556.2648,295.9,560.6648,306.9,565.0648,302.5,560.6648" style="stroke:#A80036;stroke-width:1.1;"/><line style="stroke:#A80036;stroke-width:1.1;stroke-dasharray:2.0,2.0;" x1="300.3" x2="715" y1="560.6648" y2="560.6648"/><text fill="#000000" font-family="sans-serif" font-size="14.3" font-weight="bold" lengthAdjust="spacing" textLength="15.4" x="313.5" y="554.8759">14</text><text fill="#000000" font-family="sans-serif" font-size="14.3" lengthAdjust="spacing" textLength="4.4" x="333.3" y="554.8759">&#160;</text><polygon fill="#A80036" points="585.75,590.685,596.75,595.085,585.75,599.485,590.15,595.085" style="stroke:#A80036;stroke-width:1.1;"/><line style="stroke:#A80036;stroke-width:1.1;" x1="294.8" x2="592.35" y1="595.085" y2="595.085"/><text fill="#000000" font-family="sans-serif" font-size="14.3" font-weight="bold" lengthAdjust="spacing" textLength="15.4" x="302.5" y="589.296">15</text><text fill="#000000" font-family="sans-serif" font-size="14.3" lengthAdjust="spacing" textLength="85.8" x="322.3" y="589.296">&#20445;&#23384;&#26679;&#21697;&#25991;&#20214;</text><polygon fill="#A80036" points="306.9,625.1051,295.9,629.5051,306.9,633.9051,302.5,629.5051" style="stroke:#A80036;stroke-width:1.1;"/><line style="stroke:#A80036;stroke-width:1.1;stroke-dasharray:2.0,2.0;" x1="300.3" x2="603.35" y1="629.5051" y2="629.5051"/><text fill="#000000" font-family="sans-serif" font-size="14.3" font-weight="bold" lengthAdjust="spacing" textLength="15.4" x="313.5" y="623.7161">16</text><text fill="#000000" font-family="sans-serif" font-size="14.3" lengthAdjust="spacing" textLength="4.4" x="333.3" y="623.7161">&#160;</text><polygon fill="#A80036" points="163.9,659.5252,152.9,663.9252,163.9,668.3252,159.5,663.9252" style="stroke:#A80036;stroke-width:1.1;"/><line style="stroke:#A80036;stroke-width:1.1;stroke-dasharray:2.0,2.0;" x1="157.3" x2="288.2" y1="663.9252" y2="663.9252"/><text fill="#000000" font-family="sans-serif" font-size="14.3" font-weight="bold" lengthAdjust="spacing" textLength="15.4" x="170.5" y="658.1362">17</text><text fill="#000000" font-family="sans-serif" font-size="14.3" lengthAdjust="spacing" textLength="85.8" x="190.3" y="658.1362">&#25991;&#20214;&#20449;&#24687;&#25688;&#35201;</text><polygon fill="#A80036" points="12.1,693.9453,1.1,698.3453,12.1,702.7453,7.7,698.3453" style="stroke:#A80036;stroke-width:1.1;"/><line style="stroke:#A80036;stroke-width:1.1;stroke-dasharray:2.0,2.0;" x1="5.5" x2="145.2" y1="698.3453" y2="698.3453"/><text fill="#000000" font-family="sans-serif" font-size="14.3" font-weight="bold" lengthAdjust="spacing" textLength="15.4" x="18.7" y="692.5563">18</text><text fill="#000000" font-family="sans-serif" font-size="14.3" lengthAdjust="spacing" textLength="100.1" x="38.5" y="692.5563">&#21521;&#29992;&#25143;&#21457;&#36865;&#21709;&#24212;</text><!--SRC=[VPBBRjD058RtynH7tR0gsMVH3GYf4cpeekknFIcZncDtF2vbXxc8f5KWKPgGehOa2AfishGInRJfvMKyO_Sj6CM97Ol2-l_-xymvzeCNGhXUkLHogvW9twu-D1sxv94Ddp2JB5eKht5i8-IjKmRSyGX2s1SEyss3S8HSp0KrgQkxiB3YSihMu9731DaI2u0zm4LYrU7hbQhp4bO8twGccJ16aNdkCq5jKa3C8lA4Lejv1LbOO0DxH8SEj-4PTbt29vc5Y1QALzFQChF85ZobNlf0lS_Y4k0onBj3LGlbfzRTwo0PXUhi3SAce9jO4Bq51aqPPT1vSXwgxcdyvPqw3-BXJauPo83KbNpKecvgXEN7yo9EXCyPvDcaOsfpxRlg7gTEUN8OtUoetaWsZ-HnJ-uFSuKvLMJ5T9ZgXx8TgEw7QFmh_lbDNdLaxNCokAS8VqFPEwmogFw5QfpSou3w-aFLRrJdL1FoifsxhN-xvUWYEHkaUZ9RKrwtPRqHxutbTISznNJPzw7QhqU_jwEhlZfuUxVNp6UGpA72iTpkwuymFmrPP8QYR9deza3VxtzNiGhdh6ILkNFcS6K65xQDRWSg6AbMBpaAPebijkP_ADbkoCjTz0S0]--></g></svg>