<?xml version="1.0" encoding="us-ascii" standalone="no"?><svg xmlns="http://www.w3.org/2000/svg" xmlns:xlink="http://www.w3.org/1999/xlink" contentStyleType="text/css" height="806.3px" preserveAspectRatio="none" style="width:907px;height:806px;background:#FFFFFF;" version="1.1" viewBox="0 0 907 806" width="907.5px" zoomAndPan="magnify"><defs><filter height="300%" id="f1uusj005p5y7d" width="300%" x="-1" y="-1"><feGaussianBlur result="blurOut" stdDeviation="2.2"/><feColorMatrix in="blurOut" result="blurOut2" type="matrix" values="0 0 0 0 0 0 0 0 0 0 0 0 0 0 0 0 0 0 .4 0"/><feOffset dx="4.4" dy="4.4" in="blurOut2" result="blurOut3"/><feBlend in="SourceGraphic" in2="blurOut3" mode="normal"/></filter></defs><g><rect fill="#FFFFFF" filter="url(#f1uusj005p5y7d)" height="585.142" style="stroke:#A80036;stroke-width:1.1;" width="11" x="140.8" y="113.2033"/><rect fill="#FFFFFF" filter="url(#f1uusj005p5y7d)" height="34.4201" style="stroke:#A80036;stroke-width:1.1;" width="11" x="146.3" y="182.0436"/><rect fill="#FFFFFF" filter="url(#f1uusj005p5y7d)" height="516.3018" style="stroke:#A80036;stroke-width:1.1;" width="11" x="312.4" y="147.6234"/><rect fill="#FFFFFF" filter="url(#f1uusj005p5y7d)" height="34.4201" style="stroke:#A80036;stroke-width:1.1;" width="11" x="499.4" y="250.8838"/><rect fill="#FFFFFF" filter="url(#f1uusj005p5y7d)" height="34.4201" style="stroke:#A80036;stroke-width:1.1;" width="11" x="499.4" y="319.724"/><rect fill="#FFFFFF" filter="url(#f1uusj005p5y7d)" height="34.4201" style="stroke:#A80036;stroke-width:1.1;" width="11" x="627.55" y="595.085"/><rect fill="#FFFFFF" filter="url(#f1uusj005p5y7d)" height="34.4201" style="stroke:#A80036;stroke-width:1.1;" width="11" x="739.2" y="388.5643"/><rect fill="#FFFFFF" filter="url(#f1uusj005p5y7d)" height="34.4201" style="stroke:#A80036;stroke-width:1.1;" width="11" x="739.2" y="526.2447"/><rect fill="#FFFFFF" filter="url(#f1uusj005p5y7d)" height="34.4201" style="stroke:#A80036;stroke-width:1.1;" width="11" x="850.85" y="457.4045"/><line style="stroke:#A80036;stroke-width:1.1;stroke-dasharray:5.0,5.0;" x1="145.75" x2="145.75" y1="76.5832" y2="718.1453"/><line style="stroke:#A80036;stroke-width:1.1;stroke-dasharray:5.0,5.0;" x1="317.9" x2="317.9" y1="76.5832" y2="718.1453"/><line style="stroke:#A80036;stroke-width:1.1;stroke-dasharray:5.0,5.0;" x1="504.35" x2="504.35" y1="76.5832" y2="718.1453"/><line style="stroke:#A80036;stroke-width:1.1;stroke-dasharray:5.0,5.0;" x1="633.05" x2="633.05" y1="76.5832" y2="718.1453"/><line style="stroke:#A80036;stroke-width:1.1;stroke-dasharray:5.0,5.0;" x1="744.15" x2="744.15" y1="76.5832" y2="718.1453"/><line style="stroke:#A80036;stroke-width:1.1;stroke-dasharray:5.0,5.0;" x1="856.35" x2="856.35" y1="76.5832" y2="718.1453"/><rect fill="#FEFECE" filter="url(#f1uusj005p5y7d)" height="35.8832" style="stroke:#A80036;stroke-width:1.6500000000000001;" width="117.7" x="85.25" y="35.2"/><text fill="#000000" font-family="sans-serif" font-size="15.4" lengthAdjust="spacing" textLength="102.3" x="92.95" y="59.5182">Spring Context</text><rect fill="#FEFECE" filter="url(#f1uusj005p5y7d)" height="35.8832" style="stroke:#A80036;stroke-width:1.6500000000000001;" width="117.7" x="85.25" y="717.0453"/><text fill="#000000" font-family="sans-serif" font-size="15.4" lengthAdjust="spacing" textLength="102.3" x="92.95" y="741.3635">Spring Context</text><rect fill="#FEFECE" filter="url(#f1uusj005p5y7d)" height="35.8832" style="stroke:#A80036;stroke-width:1.6500000000000001;" width="134.2" x="248.6" y="35.2"/><text fill="#000000" font-family="sans-serif" font-size="15.4" lengthAdjust="spacing" textLength="118.8" x="256.3" y="59.5182">Workflow Service</text><rect fill="#FEFECE" filter="url(#f1uusj005p5y7d)" height="35.8832" style="stroke:#A80036;stroke-width:1.6500000000000001;" width="134.2" x="248.6" y="717.0453"/><text fill="#000000" font-family="sans-serif" font-size="15.4" lengthAdjust="spacing" textLength="118.8" x="256.3" y="741.3635">Workflow Service</text><rect fill="#FEFECE" filter="url(#f1uusj005p5y7d)" height="35.8832" style="stroke:#A80036;stroke-width:1.6500000000000001;" width="128.7" x="438.35" y="35.2"/><text fill="#000000" font-family="sans-serif" font-size="15.4" lengthAdjust="spacing" textLength="113.3" x="446.05" y="59.5182">Runtime Service</text><rect fill="#FEFECE" filter="url(#f1uusj005p5y7d)" height="35.8832" style="stroke:#A80036;stroke-width:1.6500000000000001;" width="128.7" x="438.35" y="717.0453"/><text fill="#000000" font-family="sans-serif" font-size="15.4" lengthAdjust="spacing" textLength="113.3" x="446.05" y="741.3635">Runtime Service</text><rect fill="#FEFECE" filter="url(#f1uusj005p5y7d)" height="35.8832" style="stroke:#A80036;stroke-width:1.6500000000000001;" width="96.8" x="582.45" y="35.2"/><text fill="#000000" font-family="sans-serif" font-size="15.4" lengthAdjust="spacing" textLength="81.4" x="590.15" y="59.5182">File Service</text><rect fill="#FEFECE" filter="url(#f1uusj005p5y7d)" height="35.8832" style="stroke:#A80036;stroke-width:1.6500000000000001;" width="96.8" x="582.45" y="717.0453"/><text fill="#000000" font-family="sans-serif" font-size="15.4" lengthAdjust="spacing" textLength="81.4" x="590.15" y="741.3635">File Service</text><text fill="#000000" font-family="sans-serif" font-size="15.4" lengthAdjust="spacing" textLength="93.5" x="694.65" y="72.7182">Form Mapper</text><path d="M724.9,16.5 C724.9,5.5 744.7,5.5 744.7,5.5 C744.7,5.5 764.5,5.5 764.5,16.5 L764.5,45.1 C764.5,56.1 744.7,56.1 744.7,56.1 C744.7,56.1 724.9,56.1 724.9,45.1 L724.9,16.5 " fill="#FEFECE" filter="url(#f1uusj005p5y7d)" style="stroke:#A80036;stroke-width:1.6500000000000001;"/><path d="M724.9,16.5 C724.9,27.5 744.7,27.5 744.7,27.5 C744.7,27.5 764.5,27.5 764.5,16.5 " fill="none" style="stroke:#A80036;stroke-width:1.6500000000000001;"/><text fill="#000000" font-family="sans-serif" font-size="15.4" lengthAdjust="spacing" textLength="93.5" x="694.65" y="733.6635">Form Mapper</text><path d="M724.9,748.5285 C724.9,737.5285 744.7,737.5285 744.7,737.5285 C744.7,737.5285 764.5,737.5285 764.5,748.5285 L764.5,777.1285 C764.5,788.1285 744.7,788.1285 744.7,788.1285 C744.7,788.1285 724.9,788.1285 724.9,777.1285 L724.9,748.5285 " fill="#FEFECE" filter="url(#f1uusj005p5y7d)" style="stroke:#A80036;stroke-width:1.6500000000000001;"/><path d="M724.9,748.5285 C724.9,759.5285 744.7,759.5285 744.7,759.5285 C744.7,759.5285 764.5,759.5285 764.5,748.5285 " fill="none" style="stroke:#A80036;stroke-width:1.6500000000000001;"/><text fill="#000000" font-family="sans-serif" font-size="15.4" lengthAdjust="spacing" textLength="94.6" x="805.75" y="72.7182">File Index List</text><ellipse cx="856.35" cy="38.5" fill="#FEFECE" filter="url(#f1uusj005p5y7d)" rx="13.2" ry="13.2" style="stroke:#A80036;stroke-width:2.2;"/><line style="stroke:#A80036;stroke-width:2.2;" x1="843.15" x2="869.55" y1="53.9" y2="53.9"/><text fill="#000000" font-family="sans-serif" font-size="15.4" lengthAdjust="spacing" textLength="94.6" x="805.75" y="733.6635">File Index List</text><ellipse cx="856.35" cy="755.1285" fill="#FEFECE" filter="url(#f1uusj005p5y7d)" rx="13.2" ry="13.2" style="stroke:#A80036;stroke-width:2.2;"/><line style="stroke:#A80036;stroke-width:2.2;" x1="843.15" x2="869.55" y1="770.5285" y2="770.5285"/><rect fill="#FFFFFF" filter="url(#f1uusj005p5y7d)" height="585.142" style="stroke:#A80036;stroke-width:1.1;" width="11" x="140.8" y="113.2033"/><rect fill="#FFFFFF" filter="url(#f1uusj005p5y7d)" height="34.4201" style="stroke:#A80036;stroke-width:1.1;" width="11" x="146.3" y="182.0436"/><rect fill="#FFFFFF" filter="url(#f1uusj005p5y7d)" height="516.3018" style="stroke:#A80036;stroke-width:1.1;" width="11" x="312.4" y="147.6234"/><rect fill="#FFFFFF" filter="url(#f1uusj005p5y7d)" height="34.4201" style="stroke:#A80036;stroke-width:1.1;" width="11" x="499.4" y="250.8838"/><rect fill="#FFFFFF" filter="url(#f1uusj005p5y7d)" height="34.4201" style="stroke:#A80036;stroke-width:1.1;" width="11" x="499.4" y="319.724"/><rect fill="#FFFFFF" filter="url(#f1uusj005p5y7d)" height="34.4201" style="stroke:#A80036;stroke-width:1.1;" width="11" x="627.55" y="595.085"/><rect fill="#FFFFFF" filter="url(#f1uusj005p5y7d)" height="34.4201" style="stroke:#A80036;stroke-width:1.1;" width="11" x="739.2" y="388.5643"/><rect fill="#FFFFFF" filter="url(#f1uusj005p5y7d)" height="34.4201" style="stroke:#A80036;stroke-width:1.1;" width="11" x="739.2" y="526.2447"/><rect fill="#FFFFFF" filter="url(#f1uusj005p5y7d)" height="34.4201" style="stroke:#A80036;stroke-width:1.1;" width="11" x="850.85" y="457.4045"/><polygon fill="#A80036" points="127.6,108.8033,138.6,113.2033,127.6,117.6033,132,113.2033" style="stroke:#A80036;stroke-width:1.1;"/><line style="stroke:#A80036;stroke-width:1.1;" x1="0" x2="134.2" y1="113.2033" y2="113.2033"/><text fill="#000000" font-family="sans-serif" font-size="14.3" font-weight="bold" lengthAdjust="spacing" textLength="7.7" x="7.7" y="107.4144">1</text><text fill="#000000" font-family="sans-serif" font-size="14.3" lengthAdjust="spacing" textLength="85.8" x="19.8" y="107.4144">&#29992;&#25143;&#21457;&#36865;&#35831;&#27714;</text><polygon fill="#A80036" points="299.2,143.2234,310.2,147.6234,299.2,152.0234,303.6,147.6234" style="stroke:#A80036;stroke-width:1.1;"/><line style="stroke:#A80036;stroke-width:1.1;" x1="151.8" x2="305.8" y1="147.6234" y2="147.6234"/><text fill="#000000" font-family="sans-serif" font-size="14.3" font-weight="bold" lengthAdjust="spacing" textLength="7.7" x="159.5" y="141.8345">2</text><text fill="#000000" font-family="sans-serif" font-size="14.3" lengthAdjust="spacing" textLength="85.8" x="171.6" y="141.8345">&#21457;&#36215;&#26032;&#30340;&#27969;&#31243;</text><polygon fill="#A80036" points="169.4,177.6436,158.4,182.0436,169.4,186.4436,165,182.0436" style="stroke:#A80036;stroke-width:1.1;"/><line style="stroke:#A80036;stroke-width:1.1;" x1="162.8" x2="311.3" y1="182.0436" y2="182.0436"/><text fill="#000000" font-family="sans-serif" font-size="14.3" font-weight="bold" lengthAdjust="spacing" textLength="7.7" x="176" y="176.2546">3</text><text fill="#000000" font-family="sans-serif" font-size="14.3" lengthAdjust="spacing" textLength="74.8" x="188.1" y="176.2546">&#33719;&#21462;&#29992;&#25143; ID</text><polygon fill="#A80036" points="299.2,212.0637,310.2,216.4637,299.2,220.8637,303.6,216.4637" style="stroke:#A80036;stroke-width:1.1;"/><line style="stroke:#A80036;stroke-width:1.1;stroke-dasharray:2.0,2.0;" x1="151.8" x2="305.8" y1="216.4637" y2="216.4637"/><text fill="#000000" font-family="sans-serif" font-size="14.3" font-weight="bold" lengthAdjust="spacing" textLength="7.7" x="159.5" y="210.6747">4</text><text fill="#000000" font-family="sans-serif" font-size="14.3" lengthAdjust="spacing" textLength="46.2" x="171.6" y="210.6747">&#29992;&#25143; ID</text><polygon fill="#A80036" points="486.2,246.4838,497.2,250.8838,486.2,255.2838,490.6,250.8838" style="stroke:#A80036;stroke-width:1.1;"/><line style="stroke:#A80036;stroke-width:1.1;" x1="323.4" x2="492.8" y1="250.8838" y2="250.8838"/><text fill="#000000" font-family="sans-serif" font-size="14.3" font-weight="bold" lengthAdjust="spacing" textLength="7.7" x="331.1" y="245.0948">5</text><text fill="#000000" font-family="sans-serif" font-size="14.3" lengthAdjust="spacing" textLength="143" x="343.2" y="245.0948">&#21028;&#26029;&#27969;&#31243;&#23454;&#20363;&#26159;&#21542;&#23384;&#22312;</text><polygon fill="#A80036" points="335.5,280.9039,324.5,285.3039,335.5,289.7039,331.1,285.3039" style="stroke:#A80036;stroke-width:1.1;"/><line style="stroke:#A80036;stroke-width:1.1;stroke-dasharray:2.0,2.0;" x1="328.9" x2="503.8" y1="285.3039" y2="285.3039"/><text fill="#000000" font-family="sans-serif" font-size="14.3" font-weight="bold" lengthAdjust="spacing" textLength="7.7" x="342.1" y="279.5149">6</text><text fill="#000000" font-family="sans-serif" font-size="14.3" lengthAdjust="spacing" textLength="4.4" x="354.2" y="279.5149">&#160;</text><polygon fill="#A80036" points="486.2,315.324,497.2,319.724,486.2,324.124,490.6,319.724" style="stroke:#A80036;stroke-width:1.1;"/><line style="stroke:#A80036;stroke-width:1.1;" x1="323.4" x2="492.8" y1="319.724" y2="319.724"/><text fill="#000000" font-family="sans-serif" font-size="14.3" font-weight="bold" lengthAdjust="spacing" textLength="7.7" x="331.1" y="313.9351">7</text><text fill="#000000" font-family="sans-serif" font-size="14.3" lengthAdjust="spacing" textLength="143" x="343.2" y="313.9351">&#33719;&#21462;&#26679;&#21697;&#25991;&#20214;&#32034;&#24341;&#21015;&#34920;</text><polygon fill="#A80036" points="335.5,349.7441,324.5,354.1441,335.5,358.5441,331.1,354.1441" style="stroke:#A80036;stroke-width:1.1;"/><line style="stroke:#A80036;stroke-width:1.1;stroke-dasharray:2.0,2.0;" x1="328.9" x2="503.8" y1="354.1441" y2="354.1441"/><text fill="#000000" font-family="sans-serif" font-size="14.3" font-weight="bold" lengthAdjust="spacing" textLength="7.7" x="342.1" y="348.3552">8</text><text fill="#000000" font-family="sans-serif" font-size="14.3" lengthAdjust="spacing" textLength="103.4" x="354.2" y="348.3552">&#25991;&#20214;&#32034;&#24341;&#21015;&#34920; ID</text><polygon fill="#A80036" points="726,384.1643,737,388.5643,726,392.9643,730.4,388.5643" style="stroke:#A80036;stroke-width:1.1;"/><line style="stroke:#A80036;stroke-width:1.1;" x1="323.4" x2="732.6" y1="388.5643" y2="388.5643"/><text fill="#000000" font-family="sans-serif" font-size="14.3" font-weight="bold" lengthAdjust="spacing" textLength="7.7" x="331.1" y="382.7753">9</text><text fill="#000000" font-family="sans-serif" font-size="14.3" lengthAdjust="spacing" textLength="207.9" x="343.2" y="382.7753">&#26681;&#25454;&#25991;&#20214;&#32034;&#24341;&#21015;&#34920; ID &#26597;&#25214;&#25968;&#25454;&#24211;</text><polygon fill="#A80036" points="335.5,418.5844,324.5,422.9844,335.5,427.3844,331.1,422.9844" style="stroke:#A80036;stroke-width:1.1;"/><line style="stroke:#A80036;stroke-width:1.1;stroke-dasharray:2.0,2.0;" x1="328.9" x2="743.6" y1="422.9844" y2="422.9844"/><text fill="#000000" font-family="sans-serif" font-size="14.3" font-weight="bold" lengthAdjust="spacing" textLength="15.4" x="342.1" y="417.1954">10</text><text fill="#000000" font-family="sans-serif" font-size="14.3" lengthAdjust="spacing" textLength="114.4" x="361.9" y="417.1954">&#25991;&#20214;&#32034;&#24341;&#21015;&#34920;&#23545;&#35937;</text><polygon fill="#A80036" points="837.65,453.0045,848.65,457.4045,837.65,461.8045,842.05,457.4045" style="stroke:#A80036;stroke-width:1.1;"/><line style="stroke:#A80036;stroke-width:1.1;" x1="323.4" x2="844.25" y1="457.4045" y2="457.4045"/><text fill="#000000" font-family="sans-serif" font-size="14.3" font-weight="bold" lengthAdjust="spacing" textLength="15.4" x="331.1" y="451.6155">11</text><text fill="#000000" font-family="sans-serif" font-size="14.3" lengthAdjust="spacing" textLength="228.8" x="350.9" y="451.6155">&#21028;&#26029;&#24403;&#21069;&#30331;&#24405;&#29992;&#25143;&#26159;&#21542;&#20855;&#26377;&#19978;&#20256;&#26435;&#38480;</text><polygon fill="#A80036" points="843.15,487.4246,854.15,491.8246,843.15,496.2246,847.55,491.8246" style="stroke:#A80036;stroke-width:1.1;"/><line style="stroke:#A80036;stroke-width:1.1;" x1="323.4" x2="849.75" y1="491.8246" y2="491.8246"/><text fill="#000000" font-family="sans-serif" font-size="14.3" font-weight="bold" lengthAdjust="spacing" textLength="15.4" x="331.1" y="486.0356">12</text><text fill="#000000" font-family="sans-serif" font-size="14.3" lengthAdjust="spacing" textLength="100.1" x="350.9" y="486.0356">&#28155;&#21152;&#26032;&#25991;&#20214;&#32034;&#24341;</text><polygon fill="#A80036" points="726,521.8447,737,526.2447,726,530.6447,730.4,526.2447" style="stroke:#A80036;stroke-width:1.1;"/><line style="stroke:#A80036;stroke-width:1.1;" x1="323.4" x2="732.6" y1="526.2447" y2="526.2447"/><text fill="#000000" font-family="sans-serif" font-size="14.3" font-weight="bold" lengthAdjust="spacing" textLength="15.4" x="331.1" y="520.4558">13</text><text fill="#000000" font-family="sans-serif" font-size="14.3" lengthAdjust="spacing" textLength="114.4" x="350.9" y="520.4558">&#20445;&#23384;&#25991;&#20214;&#32034;&#24341;&#21015;&#34920;</text><polygon fill="#A80036" points="335.5,556.2648,324.5,560.6648,335.5,565.0648,331.1,560.6648" style="stroke:#A80036;stroke-width:1.1;"/><line style="stroke:#A80036;stroke-width:1.1;stroke-dasharray:2.0,2.0;" x1="328.9" x2="743.6" y1="560.6648" y2="560.6648"/><text fill="#000000" font-family="sans-serif" font-size="14.3" font-weight="bold" lengthAdjust="spacing" textLength="15.4" x="342.1" y="554.8759">14</text><text fill="#000000" font-family="sans-serif" font-size="14.3" lengthAdjust="spacing" textLength="4.4" x="361.9" y="554.8759">&#160;</text><polygon fill="#A80036" points="614.35,590.685,625.35,595.085,614.35,599.485,618.75,595.085" style="stroke:#A80036;stroke-width:1.1;"/><line style="stroke:#A80036;stroke-width:1.1;" x1="323.4" x2="620.95" y1="595.085" y2="595.085"/><text fill="#000000" font-family="sans-serif" font-size="14.3" font-weight="bold" lengthAdjust="spacing" textLength="15.4" x="331.1" y="589.296">15</text><text fill="#000000" font-family="sans-serif" font-size="14.3" lengthAdjust="spacing" textLength="85.8" x="350.9" y="589.296">&#20445;&#23384;&#26679;&#21697;&#25991;&#20214;</text><polygon fill="#A80036" points="335.5,625.1051,324.5,629.5051,335.5,633.9051,331.1,629.5051" style="stroke:#A80036;stroke-width:1.1;"/><line style="stroke:#A80036;stroke-width:1.1;stroke-dasharray:2.0,2.0;" x1="328.9" x2="631.95" y1="629.5051" y2="629.5051"/><text fill="#000000" font-family="sans-serif" font-size="14.3" font-weight="bold" lengthAdjust="spacing" textLength="15.4" x="342.1" y="623.7161">16</text><text fill="#000000" font-family="sans-serif" font-size="14.3" lengthAdjust="spacing" textLength="4.4" x="361.9" y="623.7161">&#160;</text><polygon fill="#A80036" points="163.9,659.5252,152.9,663.9252,163.9,668.3252,159.5,663.9252" style="stroke:#A80036;stroke-width:1.1;"/><line style="stroke:#A80036;stroke-width:1.1;stroke-dasharray:2.0,2.0;" x1="157.3" x2="316.8" y1="663.9252" y2="663.9252"/><text fill="#000000" font-family="sans-serif" font-size="14.3" font-weight="bold" lengthAdjust="spacing" textLength="15.4" x="170.5" y="658.1362">17</text><text fill="#000000" font-family="sans-serif" font-size="14.3" lengthAdjust="spacing" textLength="114.4" x="190.3" y="658.1362">&#26679;&#21697;&#25991;&#20214;&#20449;&#24687;&#25688;&#35201;</text><polygon fill="#A80036" points="12.1,693.9453,1.1,698.3453,12.1,702.7453,7.7,698.3453" style="stroke:#A80036;stroke-width:1.1;"/><line style="stroke:#A80036;stroke-width:1.1;stroke-dasharray:2.0,2.0;" x1="5.5" x2="145.2" y1="698.3453" y2="698.3453"/><text fill="#000000" font-family="sans-serif" font-size="14.3" font-weight="bold" lengthAdjust="spacing" textLength="15.4" x="18.7" y="692.5563">18</text><text fill="#000000" font-family="sans-serif" font-size="14.3" lengthAdjust="spacing" textLength="100.1" x="38.5" y="692.5563">&#21521;&#29992;&#25143;&#21457;&#36865;&#21709;&#24212;</text><!--SRC=[VPBBJjj058RtynGZDbtHxBDWqweIKhif2zPZ-uIEY2-CnvJkwbxK19GsKKWQAg19rQ9i822LkX0kB-CPcxVeA8vlAktw__xlp3dsWnUSEswrKd7gnEAUMN-essR5XGqFB1qM3KhM634HSjUfXPdj0aB4uxRbcHemX1p2EDMfexfuOSLXr5h3ZsoBmnPVmCJ5f4oiscozLhTVuXLWcrI76QELcUUUnQa99KGl8qzelPpNa44uqOWBAhIPYPyHnm4somm4IiXVpMlBbW5R-2bramUgVHQNCAdYQ7Si6u7urBbxxSUJG9wzGKJdT9DmK5iGh2YjYbKUdmUoVnfzUIVF_MYyarCQqd3YYZygKJynukN7HH43xZ4Bvzcieojpuxli7oTESN8Otkp8mKIqZyJnGEoFSuK-LsJ5P9WS1gBho_w7SFeh-lbDNFL4utCykgU8_uQoTnXLB8SNidLoBuFbrn-oUIDxfueGbztSRVpRBIONyTaeqKEwfhZkYcOhsfkAwrvoYlcoxmEvtmn_RuTNGtdmzcwldS-0p263gTWUgezGd8OCI56KBHFU7gZx_UygHkcSjQnIE6SErr8utRP0XRSZwKzaPn0V-MaksftYRoMwBN6vY_u0]--></g></svg>