<?xml version="1.0" encoding="us-ascii" standalone="no"?><svg xmlns="http://www.w3.org/2000/svg" xmlns:xlink="http://www.w3.org/1999/xlink" contentStyleType="text/css" height="772.2px" preserveAspectRatio="none" style="width:877px;height:772px;background:#FFFFFF;" version="1.1" viewBox="0 0 877 772" width="877.8px" zoomAndPan="magnify"><defs><filter height="300%" id="f6chry3ppxsfl" width="300%" x="-1" y="-1"><feGaussianBlur result="blurOut" stdDeviation="2.2"/><feColorMatrix in="blurOut" result="blurOut2" type="matrix" values="0 0 0 0 0 0 0 0 0 0 0 0 0 0 0 0 0 0 .4 0"/><feOffset dx="4.4" dy="4.4" in="blurOut2" result="blurOut3"/><feBlend in="SourceGraphic" in2="blurOut3" mode="normal"/></filter></defs><g><rect fill="#FFFFFF" filter="url(#f6chry3ppxsfl)" height="550.7219" style="stroke:#A80036;stroke-width:1.1;" width="11" x="140.8" y="113.2033"/><rect fill="#FFFFFF" filter="url(#f6chry3ppxsfl)" height="34.4201" style="stroke:#A80036;stroke-width:1.1;" width="11" x="146.3" y="182.0436"/><rect fill="#FFFFFF" filter="url(#f6chry3ppxsfl)" height="481.8816" style="stroke:#A80036;stroke-width:1.1;" width="11" x="282.15" y="147.6234"/><rect fill="#FFFFFF" filter="url(#f6chry3ppxsfl)" height="34.4201" style="stroke:#A80036;stroke-width:1.1;" width="11" x="469.15" y="250.8838"/><rect fill="#FFFFFF" filter="url(#f6chry3ppxsfl)" height="34.4201" style="stroke:#A80036;stroke-width:1.1;" width="11" x="469.15" y="319.724"/><rect fill="#FFFFFF" filter="url(#f6chry3ppxsfl)" height="34.4201" style="stroke:#A80036;stroke-width:1.1;" width="11" x="597.3" y="560.6648"/><rect fill="#FFFFFF" filter="url(#f6chry3ppxsfl)" height="34.4201" style="stroke:#A80036;stroke-width:1.1;" width="11" x="708.95" y="388.5643"/><rect fill="#FFFFFF" filter="url(#f6chry3ppxsfl)" height="68.8402" style="stroke:#A80036;stroke-width:1.1;" width="11" x="820.6" y="457.4045"/><line style="stroke:#A80036;stroke-width:1.1;stroke-dasharray:5.0,5.0;" x1="145.75" x2="145.75" y1="76.5832" y2="683.7252"/><line style="stroke:#A80036;stroke-width:1.1;stroke-dasharray:5.0,5.0;" x1="287.65" x2="287.65" y1="76.5832" y2="683.7252"/><line style="stroke:#A80036;stroke-width:1.1;stroke-dasharray:5.0,5.0;" x1="474.1" x2="474.1" y1="76.5832" y2="683.7252"/><line style="stroke:#A80036;stroke-width:1.1;stroke-dasharray:5.0,5.0;" x1="602.8" x2="602.8" y1="76.5832" y2="683.7252"/><line style="stroke:#A80036;stroke-width:1.1;stroke-dasharray:5.0,5.0;" x1="713.9" x2="713.9" y1="76.5832" y2="683.7252"/><line style="stroke:#A80036;stroke-width:1.1;stroke-dasharray:5.0,5.0;" x1="826.1" x2="826.1" y1="76.5832" y2="683.7252"/><rect fill="#FEFECE" filter="url(#f6chry3ppxsfl)" height="35.8832" style="stroke:#A80036;stroke-width:1.6500000000000001;" width="117.7" x="85.25" y="35.2"/><text fill="#000000" font-family="sans-serif" font-size="15.4" lengthAdjust="spacing" textLength="102.3" x="92.95" y="59.5182">Spring Context</text><rect fill="#FEFECE" filter="url(#f6chry3ppxsfl)" height="35.8832" style="stroke:#A80036;stroke-width:1.6500000000000001;" width="117.7" x="85.25" y="682.6252"/><text fill="#000000" font-family="sans-serif" font-size="15.4" lengthAdjust="spacing" textLength="102.3" x="92.95" y="706.9434">Spring Context</text><rect fill="#FEFECE" filter="url(#f6chry3ppxsfl)" height="35.8832" style="stroke:#A80036;stroke-width:1.6500000000000001;" width="134.2" x="218.35" y="35.2"/><text fill="#000000" font-family="sans-serif" font-size="15.4" lengthAdjust="spacing" textLength="118.8" x="226.05" y="59.5182">Workflow Service</text><rect fill="#FEFECE" filter="url(#f6chry3ppxsfl)" height="35.8832" style="stroke:#A80036;stroke-width:1.6500000000000001;" width="134.2" x="218.35" y="682.6252"/><text fill="#000000" font-family="sans-serif" font-size="15.4" lengthAdjust="spacing" textLength="118.8" x="226.05" y="706.9434">Workflow Service</text><rect fill="#FEFECE" filter="url(#f6chry3ppxsfl)" height="35.8832" style="stroke:#A80036;stroke-width:1.6500000000000001;" width="128.7" x="408.1" y="35.2"/><text fill="#000000" font-family="sans-serif" font-size="15.4" lengthAdjust="spacing" textLength="113.3" x="415.8" y="59.5182">Runtime Service</text><rect fill="#FEFECE" filter="url(#f6chry3ppxsfl)" height="35.8832" style="stroke:#A80036;stroke-width:1.6500000000000001;" width="128.7" x="408.1" y="682.6252"/><text fill="#000000" font-family="sans-serif" font-size="15.4" lengthAdjust="spacing" textLength="113.3" x="415.8" y="706.9434">Runtime Service</text><rect fill="#FEFECE" filter="url(#f6chry3ppxsfl)" height="35.8832" style="stroke:#A80036;stroke-width:1.6500000000000001;" width="96.8" x="552.2" y="35.2"/><text fill="#000000" font-family="sans-serif" font-size="15.4" lengthAdjust="spacing" textLength="81.4" x="559.9" y="59.5182">File Service</text><rect fill="#FEFECE" filter="url(#f6chry3ppxsfl)" height="35.8832" style="stroke:#A80036;stroke-width:1.6500000000000001;" width="96.8" x="552.2" y="682.6252"/><text fill="#000000" font-family="sans-serif" font-size="15.4" lengthAdjust="spacing" textLength="81.4" x="559.9" y="706.9434">File Service</text><text fill="#000000" font-family="sans-serif" font-size="15.4" lengthAdjust="spacing" textLength="93.5" x="664.4" y="72.7182">Form Mapper</text><path d="M694.65,16.5 C694.65,5.5 714.45,5.5 714.45,5.5 C714.45,5.5 734.25,5.5 734.25,16.5 L734.25,45.1 C734.25,56.1 714.45,56.1 714.45,56.1 C714.45,56.1 694.65,56.1 694.65,45.1 L694.65,16.5 " fill="#FEFECE" filter="url(#f6chry3ppxsfl)" style="stroke:#A80036;stroke-width:1.6500000000000001;"/><path d="M694.65,16.5 C694.65,27.5 714.45,27.5 714.45,27.5 C714.45,27.5 734.25,27.5 734.25,16.5 " fill="none" style="stroke:#A80036;stroke-width:1.6500000000000001;"/><text fill="#000000" font-family="sans-serif" font-size="15.4" lengthAdjust="spacing" textLength="93.5" x="664.4" y="699.2434">Form Mapper</text><path d="M694.65,714.1084 C694.65,703.1084 714.45,703.1084 714.45,703.1084 C714.45,703.1084 734.25,703.1084 734.25,714.1084 L734.25,742.7084 C734.25,753.7084 714.45,753.7084 714.45,753.7084 C714.45,753.7084 694.65,753.7084 694.65,742.7084 L694.65,714.1084 " fill="#FEFECE" filter="url(#f6chry3ppxsfl)" style="stroke:#A80036;stroke-width:1.6500000000000001;"/><path d="M694.65,714.1084 C694.65,725.1084 714.45,725.1084 714.45,725.1084 C714.45,725.1084 734.25,725.1084 734.25,714.1084 " fill="none" style="stroke:#A80036;stroke-width:1.6500000000000001;"/><text fill="#000000" font-family="sans-serif" font-size="15.4" lengthAdjust="spacing" textLength="94.6" x="775.5" y="72.7182">File Index List</text><ellipse cx="826.1" cy="38.5" fill="#FEFECE" filter="url(#f6chry3ppxsfl)" rx="13.2" ry="13.2" style="stroke:#A80036;stroke-width:2.2;"/><line style="stroke:#A80036;stroke-width:2.2;" x1="812.9" x2="839.3" y1="53.9" y2="53.9"/><text fill="#000000" font-family="sans-serif" font-size="15.4" lengthAdjust="spacing" textLength="94.6" x="775.5" y="699.2434">File Index List</text><ellipse cx="826.1" cy="720.7084" fill="#FEFECE" filter="url(#f6chry3ppxsfl)" rx="13.2" ry="13.2" style="stroke:#A80036;stroke-width:2.2;"/><line style="stroke:#A80036;stroke-width:2.2;" x1="812.9" x2="839.3" y1="736.1084" y2="736.1084"/><rect fill="#FFFFFF" filter="url(#f6chry3ppxsfl)" height="550.7219" style="stroke:#A80036;stroke-width:1.1;" width="11" x="140.8" y="113.2033"/><rect fill="#FFFFFF" filter="url(#f6chry3ppxsfl)" height="34.4201" style="stroke:#A80036;stroke-width:1.1;" width="11" x="146.3" y="182.0436"/><rect fill="#FFFFFF" filter="url(#f6chry3ppxsfl)" height="481.8816" style="stroke:#A80036;stroke-width:1.1;" width="11" x="282.15" y="147.6234"/><rect fill="#FFFFFF" filter="url(#f6chry3ppxsfl)" height="34.4201" style="stroke:#A80036;stroke-width:1.1;" width="11" x="469.15" y="250.8838"/><rect fill="#FFFFFF" filter="url(#f6chry3ppxsfl)" height="34.4201" style="stroke:#A80036;stroke-width:1.1;" width="11" x="469.15" y="319.724"/><rect fill="#FFFFFF" filter="url(#f6chry3ppxsfl)" height="34.4201" style="stroke:#A80036;stroke-width:1.1;" width="11" x="597.3" y="560.6648"/><rect fill="#FFFFFF" filter="url(#f6chry3ppxsfl)" height="34.4201" style="stroke:#A80036;stroke-width:1.1;" width="11" x="708.95" y="388.5643"/><rect fill="#FFFFFF" filter="url(#f6chry3ppxsfl)" height="68.8402" style="stroke:#A80036;stroke-width:1.1;" width="11" x="820.6" y="457.4045"/><polygon fill="#A80036" points="127.6,108.8033,138.6,113.2033,127.6,117.6033,132,113.2033" style="stroke:#A80036;stroke-width:1.1;"/><line style="stroke:#A80036;stroke-width:1.1;" x1="0" x2="134.2" y1="113.2033" y2="113.2033"/><text fill="#000000" font-family="sans-serif" font-size="14.3" font-weight="bold" lengthAdjust="spacing" textLength="7.7" x="7.7" y="107.4144">1</text><text fill="#000000" font-family="sans-serif" font-size="14.3" lengthAdjust="spacing" textLength="85.8" x="19.8" y="107.4144">&#29992;&#25143;&#21457;&#36865;&#35831;&#27714;</text><polygon fill="#A80036" points="268.95,143.2234,279.95,147.6234,268.95,152.0234,273.35,147.6234" style="stroke:#A80036;stroke-width:1.1;"/><line style="stroke:#A80036;stroke-width:1.1;" x1="151.8" x2="275.55" y1="147.6234" y2="147.6234"/><text fill="#000000" font-family="sans-serif" font-size="14.3" font-weight="bold" lengthAdjust="spacing" textLength="7.7" x="159.5" y="141.8345">2</text><text fill="#000000" font-family="sans-serif" font-size="14.3" lengthAdjust="spacing" textLength="85.8" x="171.6" y="141.8345">&#21457;&#36215;&#26032;&#30340;&#27969;&#31243;</text><polygon fill="#A80036" points="169.4,177.6436,158.4,182.0436,169.4,186.4436,165,182.0436" style="stroke:#A80036;stroke-width:1.1;"/><line style="stroke:#A80036;stroke-width:1.1;" x1="162.8" x2="281.05" y1="182.0436" y2="182.0436"/><text fill="#000000" font-family="sans-serif" font-size="14.3" font-weight="bold" lengthAdjust="spacing" textLength="7.7" x="176" y="176.2546">3</text><text fill="#000000" font-family="sans-serif" font-size="14.3" lengthAdjust="spacing" textLength="74.8" x="188.1" y="176.2546">&#33719;&#21462;&#29992;&#25143; ID</text><polygon fill="#A80036" points="268.95,212.0637,279.95,216.4637,268.95,220.8637,273.35,216.4637" style="stroke:#A80036;stroke-width:1.1;"/><line style="stroke:#A80036;stroke-width:1.1;stroke-dasharray:2.0,2.0;" x1="151.8" x2="275.55" y1="216.4637" y2="216.4637"/><text fill="#000000" font-family="sans-serif" font-size="14.3" font-weight="bold" lengthAdjust="spacing" textLength="7.7" x="159.5" y="210.6747">4</text><text fill="#000000" font-family="sans-serif" font-size="14.3" lengthAdjust="spacing" textLength="46.2" x="171.6" y="210.6747">&#29992;&#25143; ID</text><polygon fill="#A80036" points="455.95,246.4838,466.95,250.8838,455.95,255.2838,460.35,250.8838" style="stroke:#A80036;stroke-width:1.1;"/><line style="stroke:#A80036;stroke-width:1.1;" x1="293.15" x2="462.55" y1="250.8838" y2="250.8838"/><text fill="#000000" font-family="sans-serif" font-size="14.3" font-weight="bold" lengthAdjust="spacing" textLength="7.7" x="300.85" y="245.0948">5</text><text fill="#000000" font-family="sans-serif" font-size="14.3" lengthAdjust="spacing" textLength="143" x="312.95" y="245.0948">&#21028;&#26029;&#27969;&#31243;&#23454;&#20363;&#26159;&#21542;&#23384;&#22312;</text><polygon fill="#A80036" points="305.25,280.9039,294.25,285.3039,305.25,289.7039,300.85,285.3039" style="stroke:#A80036;stroke-width:1.1;"/><line style="stroke:#A80036;stroke-width:1.1;stroke-dasharray:2.0,2.0;" x1="298.65" x2="473.55" y1="285.3039" y2="285.3039"/><text fill="#000000" font-family="sans-serif" font-size="14.3" font-weight="bold" lengthAdjust="spacing" textLength="7.7" x="311.85" y="279.5149">6</text><text fill="#000000" font-family="sans-serif" font-size="14.3" lengthAdjust="spacing" textLength="4.4" x="323.95" y="279.5149">&#160;</text><polygon fill="#A80036" points="455.95,315.324,466.95,319.724,455.95,324.124,460.35,319.724" style="stroke:#A80036;stroke-width:1.1;"/><line style="stroke:#A80036;stroke-width:1.1;" x1="293.15" x2="462.55" y1="319.724" y2="319.724"/><text fill="#000000" font-family="sans-serif" font-size="14.3" font-weight="bold" lengthAdjust="spacing" textLength="7.7" x="300.85" y="313.9351">7</text><text fill="#000000" font-family="sans-serif" font-size="14.3" lengthAdjust="spacing" textLength="143" x="312.95" y="313.9351">&#33719;&#21462;&#26679;&#21697;&#25991;&#20214;&#32034;&#24341;&#21015;&#34920;</text><polygon fill="#A80036" points="305.25,349.7441,294.25,354.1441,305.25,358.5441,300.85,354.1441" style="stroke:#A80036;stroke-width:1.1;"/><line style="stroke:#A80036;stroke-width:1.1;stroke-dasharray:2.0,2.0;" x1="298.65" x2="473.55" y1="354.1441" y2="354.1441"/><text fill="#000000" font-family="sans-serif" font-size="14.3" font-weight="bold" lengthAdjust="spacing" textLength="7.7" x="311.85" y="348.3552">8</text><text fill="#000000" font-family="sans-serif" font-size="14.3" lengthAdjust="spacing" textLength="103.4" x="323.95" y="348.3552">&#25991;&#20214;&#32034;&#24341;&#21015;&#34920; ID</text><polygon fill="#A80036" points="695.75,384.1643,706.75,388.5643,695.75,392.9643,700.15,388.5643" style="stroke:#A80036;stroke-width:1.1;"/><line style="stroke:#A80036;stroke-width:1.1;" x1="293.15" x2="702.35" y1="388.5643" y2="388.5643"/><text fill="#000000" font-family="sans-serif" font-size="14.3" font-weight="bold" lengthAdjust="spacing" textLength="7.7" x="300.85" y="382.7753">9</text><text fill="#000000" font-family="sans-serif" font-size="14.3" lengthAdjust="spacing" textLength="207.9" x="312.95" y="382.7753">&#26681;&#25454;&#25991;&#20214;&#32034;&#24341;&#21015;&#34920; ID &#26597;&#25214;&#25968;&#25454;&#24211;</text><polygon fill="#A80036" points="305.25,418.5844,294.25,422.9844,305.25,427.3844,300.85,422.9844" style="stroke:#A80036;stroke-width:1.1;"/><line style="stroke:#A80036;stroke-width:1.1;stroke-dasharray:2.0,2.0;" x1="298.65" x2="713.35" y1="422.9844" y2="422.9844"/><text fill="#000000" font-family="sans-serif" font-size="14.3" font-weight="bold" lengthAdjust="spacing" textLength="15.4" x="311.85" y="417.1954">10</text><text fill="#000000" font-family="sans-serif" font-size="14.3" lengthAdjust="spacing" textLength="114.4" x="331.65" y="417.1954">&#25991;&#20214;&#32034;&#24341;&#21015;&#34920;&#23545;&#35937;</text><polygon fill="#A80036" points="807.4,453.0045,818.4,457.4045,807.4,461.8045,811.8,457.4045" style="stroke:#A80036;stroke-width:1.1;"/><line style="stroke:#A80036;stroke-width:1.1;" x1="293.15" x2="814" y1="457.4045" y2="457.4045"/><text fill="#000000" font-family="sans-serif" font-size="14.3" font-weight="bold" lengthAdjust="spacing" textLength="15.4" x="300.85" y="451.6155">11</text><text fill="#000000" font-family="sans-serif" font-size="14.3" lengthAdjust="spacing" textLength="228.8" x="320.65" y="451.6155">&#21028;&#26029;&#24403;&#21069;&#30331;&#24405;&#29992;&#25143;&#26159;&#21542;&#20855;&#26377;&#19979;&#36733;&#26435;&#38480;</text><polygon fill="#A80036" points="807.4,487.4246,818.4,491.8246,807.4,496.2246,811.8,491.8246" style="stroke:#A80036;stroke-width:1.1;"/><line style="stroke:#A80036;stroke-width:1.1;" x1="293.15" x2="814" y1="491.8246" y2="491.8246"/><text fill="#000000" font-family="sans-serif" font-size="14.3" font-weight="bold" lengthAdjust="spacing" textLength="15.4" x="300.85" y="486.0356">12</text><text fill="#000000" font-family="sans-serif" font-size="14.3" lengthAdjust="spacing" textLength="114.4" x="320.65" y="486.0356">&#33719;&#21462;&#26679;&#21697;&#25991;&#20214;&#36335;&#24452;</text><polygon fill="#A80036" points="305.25,521.8447,294.25,526.2447,305.25,530.6447,300.85,526.2447" style="stroke:#A80036;stroke-width:1.1;"/><line style="stroke:#A80036;stroke-width:1.1;stroke-dasharray:2.0,2.0;" x1="298.65" x2="825" y1="526.2447" y2="526.2447"/><text fill="#000000" font-family="sans-serif" font-size="14.3" font-weight="bold" lengthAdjust="spacing" textLength="15.4" x="311.85" y="520.4558">13</text><text fill="#000000" font-family="sans-serif" font-size="14.3" lengthAdjust="spacing" textLength="57.2" x="331.65" y="520.4558">&#25991;&#20214;&#36335;&#24452;</text><polygon fill="#A80036" points="584.1,556.2648,595.1,560.6648,584.1,565.0648,588.5,560.6648" style="stroke:#A80036;stroke-width:1.1;"/><line style="stroke:#A80036;stroke-width:1.1;" x1="293.15" x2="590.7" y1="560.6648" y2="560.6648"/><text fill="#000000" font-family="sans-serif" font-size="14.3" font-weight="bold" lengthAdjust="spacing" textLength="15.4" x="300.85" y="554.8759">14</text><text fill="#000000" font-family="sans-serif" font-size="14.3" lengthAdjust="spacing" textLength="85.8" x="320.65" y="554.8759">&#33719;&#21462;&#26679;&#21697;&#25991;&#20214;</text><polygon fill="#A80036" points="305.25,590.685,294.25,595.085,305.25,599.485,300.85,595.085" style="stroke:#A80036;stroke-width:1.1;"/><line style="stroke:#A80036;stroke-width:1.1;stroke-dasharray:2.0,2.0;" x1="298.65" x2="601.7" y1="595.085" y2="595.085"/><text fill="#000000" font-family="sans-serif" font-size="14.3" font-weight="bold" lengthAdjust="spacing" textLength="15.4" x="311.85" y="589.296">15</text><text fill="#000000" font-family="sans-serif" font-size="14.3" lengthAdjust="spacing" textLength="28.6" x="331.65" y="589.296">&#25991;&#20214;</text><polygon fill="#A80036" points="163.9,625.1051,152.9,629.5051,163.9,633.9051,159.5,629.5051" style="stroke:#A80036;stroke-width:1.1;"/><line style="stroke:#A80036;stroke-width:1.1;stroke-dasharray:2.0,2.0;" x1="157.3" x2="286.55" y1="629.5051" y2="629.5051"/><text fill="#000000" font-family="sans-serif" font-size="14.3" font-weight="bold" lengthAdjust="spacing" textLength="15.4" x="170.5" y="623.7161">16</text><text fill="#000000" font-family="sans-serif" font-size="14.3" lengthAdjust="spacing" textLength="28.6" x="190.3" y="623.7161">&#25991;&#20214;</text><polygon fill="#A80036" points="12.1,659.5252,1.1,663.9252,12.1,668.3252,7.7,663.9252" style="stroke:#A80036;stroke-width:1.1;"/><line style="stroke:#A80036;stroke-width:1.1;stroke-dasharray:2.0,2.0;" x1="5.5" x2="145.2" y1="663.9252" y2="663.9252"/><text fill="#000000" font-family="sans-serif" font-size="14.3" font-weight="bold" lengthAdjust="spacing" textLength="15.4" x="18.7" y="658.1362">17</text><text fill="#000000" font-family="sans-serif" font-size="14.3" lengthAdjust="spacing" textLength="100.1" x="38.5" y="658.1362">&#21521;&#29992;&#25143;&#21457;&#36865;&#21709;&#24212;</text><!--SRC=[TPBBJjj058RtynH7R5ZHxBDWKrG9gTsKHTTZ-uIEYCVkU4nXHxYeYQAqGI4f8CgbQgji820LpAN9qsJ6vYqwYjCOYtGvSxx_c_DRddqlfHyK2mM_JBaCtV8BstCB0Nu8aTiuvp2wBAXBIB32E0WlG49eA3qUkXOAGdmg9BEPRx8mi-GBnfVXfSSbhiaPe07GFF7E4okbilSHbb2iCXj7Z9LdtePSCXTpY9r7Nh5oVbuY3fNKeW6QeITSU4Dz7yLevX0qGha-ZYro1zVWDGlI1KsVkNcWHOZtkheQgI-xZnkLf1Vfgqr2RSbMgKJJWeAXh2AOUN8TwSvbVBYjhojnjvvH5h4WTIMVZQYJ6c5nuQb8e0m5XsmsojZ6NFsXE-UfKrqS3mTrlTzJpL_gV5yTTJE5FLPCWkbZ-ZHIhOhkV1e-tCI_lwi_RLNzcfnD2S9pQBA7KmHzUgSR5rCPq2S_TMsWsvU6KFUjpEtytwrwTydLMQh7VpLLlwLgZVZWGVNRwQSObzs9z55jU5jF-dtzRUlne9czWHF7yyP9r5E3xVmIuxjHg3GjbAbB-UJqashkFlr7LAkXxlV8Nm00]--></g></svg>