<?xml version="1.0" encoding="us-ascii" standalone="no"?><svg xmlns="http://www.w3.org/2000/svg" xmlns:xlink="http://www.w3.org/1999/xlink" contentStyleType="text/css" height="415.8px" preserveAspectRatio="none" style="width:836px;height:415px;background:#FFFFFF;" version="1.1" viewBox="0 0 836 415" width="836px" zoomAndPan="magnify"><defs><filter height="300%" id="f1sd8z2szg6exh" width="300%" x="-1" y="-1"><feGaussianBlur result="blurOut" stdDeviation="2.2"/><feColorMatrix in="blurOut" result="blurOut2" type="matrix" values="0 0 0 0 0 0 0 0 0 0 0 0 0 0 0 0 0 0 .4 0"/><feOffset dx="4.4" dy="4.4" in="blurOut2" result="blurOut3"/><feBlend in="SourceGraphic" in2="blurOut3" mode="normal"/></filter></defs><g><!--class FillOutAppFormListener--><g id="elem_FillOutAppFormListener"><rect codeLine="4" fill="#FEFECE" filter="url(#f1sd8z2szg6exh)" height="73.2832" id="FillOutAppFormListener" style="stroke:#A80036;stroke-width:1.1;" width="213.4" x="9.9" y="327.8"/><ellipse cx="32.34" cy="345.4" fill="#ADD1B2" rx="12.1" ry="12.1" style="stroke:#A80036;stroke-width:1.1;"/><path d="M31.6181,351.8453 Q29.4353,351.8453 28.1463,350.2297 Q26.8744,348.5969 26.8744,345.2109 Q26.8744,342.3406 28.215,340.4156 Q29.5728,338.4906 31.9103,338.4906 Q32.4603,338.4906 33.0447,338.6453 Q33.5259,338.8516 33.8181,338.8516 Q34.0588,338.8516 34.1619,338.8 Q34.2822,338.7484 34.7806,338.0953 L35.6228,342.2031 L34.6431,342.4953 Q34.1447,340.8969 33.4744,340.2438 Q32.8213,339.5734 31.7728,339.5734 Q30.4322,339.5734 29.6416,341.1547 Q28.8509,342.7188 28.8509,345.125 Q28.8509,347.7719 29.5213,349.1984 Q30.2088,350.6078 31.7041,350.6078 Q32.7525,350.6078 33.5088,349.8516 Q34.265,349.0781 34.6259,347.4281 L35.6228,347.875 Q35.1759,349.7484 34.1103,350.7969 Q33.0619,351.8453 31.6181,351.8453 Z " fill="#000000"/><text fill="#000000" font-family="sans-serif" font-size="15.4" lengthAdjust="spacing" textLength="165" x="49.06" y="351.7766">FillOutAppFormListener</text><line style="stroke:#A80036;stroke-width:1.1;" x1="11" x2="222.2" y1="363" y2="363"/><line style="stroke:#A80036;stroke-width:1.1;" x1="11" x2="222.2" y1="371.8" y2="371.8"/><polygon fill="#FFFF44" points="22,382.5916,26.4,386.9916,22,391.3916,17.6,386.9916" style="stroke:#B38D22;stroke-width:1.1;"/><text fill="#000000" font-family="sans-serif" font-size="15.4" lengthAdjust="spacing" textLength="184.8" x="31.9" y="392.8182">void create(DelegateTask)</text></g><!--class AssignMarketingOperatorListener--><g id="elem_AssignMarketingOperatorListener"><rect codeLine="7" fill="#FEFECE" filter="url(#f1sd8z2szg6exh)" height="73.2832" id="AssignMarketingOperatorListener" style="stroke:#A80036;stroke-width:1.1;" width="268.4" x="261.8" y="327.8"/><ellipse cx="278.3" cy="345.4" fill="#ADD1B2" rx="12.1" ry="12.1" style="stroke:#A80036;stroke-width:1.1;"/><path d="M277.5781,351.8453 Q275.3953,351.8453 274.1063,350.2297 Q272.8344,348.5969 272.8344,345.2109 Q272.8344,342.3406 274.175,340.4156 Q275.5328,338.4906 277.8703,338.4906 Q278.4203,338.4906 279.0047,338.6453 Q279.4859,338.8516 279.7781,338.8516 Q280.0188,338.8516 280.1219,338.8 Q280.2422,338.7484 280.7406,338.0953 L281.5828,342.2031 L280.6031,342.4953 Q280.1047,340.8969 279.4344,340.2438 Q278.7813,339.5734 277.7328,339.5734 Q276.3922,339.5734 275.6016,341.1547 Q274.8109,342.7188 274.8109,345.125 Q274.8109,347.7719 275.4813,349.1984 Q276.1688,350.6078 277.6641,350.6078 Q278.7125,350.6078 279.4688,349.8516 Q280.225,349.0781 280.5859,347.4281 L281.5828,347.875 Q281.1359,349.7484 280.0703,350.7969 Q279.0219,351.8453 277.5781,351.8453 Z " fill="#000000"/><text fill="#000000" font-family="sans-serif" font-size="15.4" lengthAdjust="spacing" textLength="233.2" x="293.7" y="351.7766">AssignMarketingOperatorListener</text><line style="stroke:#A80036;stroke-width:1.1;" x1="262.9" x2="529.1" y1="363" y2="363"/><line style="stroke:#A80036;stroke-width:1.1;" x1="262.9" x2="529.1" y1="371.8" y2="371.8"/><polygon fill="#FFFF44" points="273.9,382.5916,278.3,386.9916,273.9,391.3916,269.5,386.9916" style="stroke:#B38D22;stroke-width:1.1;"/><text fill="#000000" font-family="sans-serif" font-size="15.4" lengthAdjust="spacing" textLength="184.8" x="283.8" y="392.8182">void create(DelegateTask)</text></g><!--class AssignTestingOperatorListener--><g id="elem_AssignTestingOperatorListener"><rect codeLine="10" fill="#FEFECE" filter="url(#f1sd8z2szg6exh)" height="73.2832" id="AssignTestingOperatorListener" style="stroke:#A80036;stroke-width:1.1;" width="251.9" x="569.25" y="327.8"/><ellipse cx="585.75" cy="345.4" fill="#ADD1B2" rx="12.1" ry="12.1" style="stroke:#A80036;stroke-width:1.1;"/><path d="M585.0281,351.8453 Q582.8453,351.8453 581.5563,350.2297 Q580.2844,348.5969 580.2844,345.2109 Q580.2844,342.3406 581.625,340.4156 Q582.9828,338.4906 585.3203,338.4906 Q585.8703,338.4906 586.4547,338.6453 Q586.9359,338.8516 587.2281,338.8516 Q587.4688,338.8516 587.5719,338.8 Q587.6922,338.7484 588.1906,338.0953 L589.0328,342.2031 L588.0531,342.4953 Q587.5547,340.8969 586.8844,340.2438 Q586.2313,339.5734 585.1828,339.5734 Q583.8422,339.5734 583.0516,341.1547 Q582.2609,342.7188 582.2609,345.125 Q582.2609,347.7719 582.9313,349.1984 Q583.6188,350.6078 585.1141,350.6078 Q586.1625,350.6078 586.9188,349.8516 Q587.675,349.0781 588.0359,347.4281 L589.0328,347.875 Q588.5859,349.7484 587.5203,350.7969 Q586.4719,351.8453 585.0281,351.8453 Z " fill="#000000"/><text fill="#000000" font-family="sans-serif" font-size="15.4" lengthAdjust="spacing" textLength="216.7" x="601.15" y="351.7766">AssignTestingOperatorListener</text><line style="stroke:#A80036;stroke-width:1.1;" x1="570.35" x2="820.05" y1="363" y2="363"/><line style="stroke:#A80036;stroke-width:1.1;" x1="570.35" x2="820.05" y1="371.8" y2="371.8"/><polygon fill="#FFFF44" points="581.35,382.5916,585.75,386.9916,581.35,391.3916,576.95,386.9916" style="stroke:#B38D22;stroke-width:1.1;"/><text fill="#000000" font-family="sans-serif" font-size="15.4" lengthAdjust="spacing" textLength="184.8" x="591.25" y="392.8182">void create(DelegateTask)</text></g><!--class TaskListener--><g id="elem_TaskListener"><rect codeLine="13" fill="#FEFECE" filter="url(#f1sd8z2szg6exh)" height="114.2496" id="TaskListener" style="stroke:#A80036;stroke-width:1.1;" width="232.1" x="279.95" y="147.4"/><ellipse cx="346.225" cy="165" fill="#ADD1B2" rx="12.1" ry="12.1" style="stroke:#A80036;stroke-width:1.1;"/><path d="M345.5031,171.4453 Q343.3203,171.4453 342.0313,169.8297 Q340.7594,168.1969 340.7594,164.8109 Q340.7594,161.9406 342.1,160.0156 Q343.4578,158.0906 345.7953,158.0906 Q346.3453,158.0906 346.9297,158.2453 Q347.4109,158.4516 347.7031,158.4516 Q347.9438,158.4516 348.0469,158.4 Q348.1672,158.3484 348.6656,157.6953 L349.5078,161.8031 L348.5281,162.0953 Q348.0297,160.4969 347.3594,159.8438 Q346.7063,159.1734 345.6578,159.1734 Q344.3172,159.1734 343.5266,160.7547 Q342.7359,162.3188 342.7359,164.725 Q342.7359,167.3719 343.4063,168.7984 Q344.0938,170.2078 345.5891,170.2078 Q346.6375,170.2078 347.3938,169.4516 Q348.15,168.6781 348.5109,167.0281 L349.5078,167.475 Q349.0609,169.3484 347.9953,170.3969 Q346.9469,171.4453 345.5031,171.4453 Z " fill="#000000"/><text fill="#000000" font-family="sans-serif" font-size="15.4" lengthAdjust="spacing" textLength="90.2" x="368.775" y="171.3766">TaskListener</text><line style="stroke:#A80036;stroke-width:1.1;" x1="281.05" x2="510.95" y1="182.6" y2="182.6"/><line style="stroke:#A80036;stroke-width:1.1;" x1="281.05" x2="510.95" y1="191.4" y2="191.4"/><polygon fill="#FFFF44" points="292.05,202.1916,296.45,206.5916,292.05,210.9916,287.65,206.5916" style="stroke:#B38D22;stroke-width:1.1;"/><text fill="#000000" font-family="sans-serif" font-size="15.4" lengthAdjust="spacing" textLength="184.8" x="301.95" y="212.4182">void create(DelegateTask)</text><polygon fill="#FFFF44" points="292.05,222.6748,296.45,227.0748,292.05,231.4748,287.65,227.0748" style="stroke:#B38D22;stroke-width:1.1;"/><text fill="#000000" font-family="sans-serif" font-size="15.4" lengthAdjust="spacing" textLength="203.5" x="301.95" y="232.9014">void complete(DelegateTask)</text><ellipse cx="292.05" cy="248.658" fill="#84BE84" rx="3.3" ry="3.3" style="stroke:#038048;stroke-width:1.1;"/><text fill="#000000" font-family="sans-serif" font-size="15.4" lengthAdjust="spacing" textLength="178.2" x="301.95" y="253.3846">void notify(DelegateTask)</text></g><!--class a--><g id="elem_a"><rect codeLine="19" fill="#FEFECE" filter="url(#f1sd8z2szg6exh)" height="73.2832" id="a" style="stroke:#A80036;stroke-width:1.1;" width="366.3" x="212.85" y="7.7"/><ellipse cx="229.35" cy="25.3" fill="#B4A7E5" rx="12.1" ry="12.1" style="stroke:#A80036;stroke-width:1.1;"/><path d="M225.6031,19.5594 L225.6031,18.5281 L232.0313,18.5281 L232.0313,19.5594 L230.0547,19.5594 Q229.8656,19.5594 229.7797,19.6281 Q229.6938,19.6969 229.6938,19.8516 L229.6938,30.2844 Q229.6938,30.4391 229.7797,30.5078 Q229.8656,30.5766 230.0547,30.5766 L232.0313,30.5766 L232.0313,31.6078 L225.6031,31.6078 L225.6031,30.5766 L227.5797,30.5766 Q227.8203,30.5766 227.8719,30.525 Q227.9406,30.4563 227.9406,30.2844 L227.9406,19.8516 Q227.9406,19.6797 227.8719,19.6281 Q227.8203,19.5594 227.5797,19.5594 L225.6031,19.5594 Z " fill="#000000"/><text fill="#000000" font-family="sans-serif" font-size="15.4" font-style="italic" lengthAdjust="spacing" textLength="331.1" x="244.75" y="31.6766">org.flowable.task.service.delegate.TaskListener</text><line style="stroke:#A80036;stroke-width:1.1;" x1="213.95" x2="578.05" y1="42.9" y2="42.9"/><line style="stroke:#A80036;stroke-width:1.1;" x1="213.95" x2="578.05" y1="51.7" y2="51.7"/><ellipse cx="224.95" cy="67.9916" fill="#84BE84" rx="3.3" ry="3.3" style="stroke:#038048;stroke-width:1.1;"/><text fill="#000000" font-family="sans-serif" font-size="15.4" lengthAdjust="spacing" textLength="178.2" x="234.85" y="72.7182">void notify(DelegateTask)</text></g><!--reverse link TaskListener to FillOutAppFormListener--><g id="link_TaskListener_FillOutAppFormListener"><path codeLine="23" d="M276.958,272.954 C243.672,291.764 208.78,311.465 180.081,327.679 " fill="none" id="TaskListener-backto-FillOutAppFormListener" style="stroke:#A80036;stroke-width:1.1;"/><polygon fill="none" points="273.372,266.134,296.318,262.02,280.951,279.543,273.372,266.134" style="stroke:#A80036;stroke-width:1.1;"/></g><!--reverse link TaskListener to AssignMarketingOperatorListener--><g id="link_TaskListener_AssignMarketingOperatorListener"><path codeLine="24" d="M396,284.735 C396,299.728 396,314.732 396,327.547 " fill="none" id="TaskListener-backto-AssignMarketingOperatorListener" style="stroke:#A80036;stroke-width:1.1;"/><polygon fill="none" points="388.3,284.24,396,262.24,403.7,284.24,388.3,284.24" style="stroke:#A80036;stroke-width:1.1;"/></g><!--reverse link TaskListener to AssignTestingOperatorListener--><g id="link_TaskListener_AssignTestingOperatorListener"><path codeLine="25" d="M522.478,272.426 C558.426,291.39 596.2,311.322 627.22,327.679 " fill="none" id="TaskListener-backto-AssignTestingOperatorListener" style="stroke:#A80036;stroke-width:1.1;"/><polygon fill="none" points="518.617,279.092,502.755,262.02,525.8,265.474,518.617,279.092" style="stroke:#A80036;stroke-width:1.1;"/></g><!--reverse link a to TaskListener--><g id="link_a_TaskListener"><path codeLine="26" d="M396,103.543 C396,117.854 396,133.155 396,147.389 " fill="none" id="a-backto-TaskListener" style="stroke:#A80036;stroke-width:1.1;stroke-dasharray:7.0,7.0;"/><polygon fill="none" points="388.3,103.466,396,81.466,403.7,103.466,388.3,103.466" style="stroke:#A80036;stroke-width:1.1;"/></g><!--SRC=[fL5B2i903DtFAOQwKQHp0ZU2TALqqml4cfRGwKn9HaNKkrjHmL9BHNS9xvFFaugSPY-eL6v1H2TaRReFowP9FDThae0EMP_LH1yyxNJE206dAxHOjaK6KitKzIbUYb3fDi0L1d9bsY13yFoJIuRoXyUz-rBomdpTMEoXymVgVA3Yr1kco0Na0dBKaUVI5DOVOMlHX9PW1Fb0EPhTKsNUjueqY8Psjv49dKiMbpWUYEW3SIIEGSN0wnMq96Cwlxq1]--></g></svg>