<?xml version="1.0" encoding="us-ascii" standalone="no"?><svg xmlns="http://www.w3.org/2000/svg" xmlns:xlink="http://www.w3.org/1999/xlink" contentStyleType="text/css" height="938px" preserveAspectRatio="none" style="width:970px;height:937px;background:#FFFFFF;" version="1.1" viewBox="0 0 970 937" width="970.2px" zoomAndPan="magnify"><defs><filter height="300%" id="f1681npbpwf041" width="300%" x="-1" y="-1"><feGaussianBlur result="blurOut" stdDeviation="2.7999999999999994"/><feColorMatrix in="blurOut" result="blurOut2" type="matrix" values="0 0 0 0 0 0 0 0 0 0 0 0 0 0 0 0 0 0 .4 0"/><feOffset dx="5.599999999999999" dy="5.599999999999999" in="blurOut2" result="blurOut3"/><feBlend in="SourceGraphic" in2="blurOut3" mode="normal"/></filter></defs><g><rect fill="#FFFFFF" filter="url(#f1681npbpwf041)" height="657.1113" style="stroke:#A80036;stroke-width:1.3999999999999997;" width="14" x="179.2" y="144.077"/><rect fill="#FFFFFF" filter="url(#f1681npbpwf041)" height="43.8074" style="stroke:#A80036;stroke-width:1.3999999999999997;" width="14" x="186.2" y="231.6918"/><rect fill="#FFFFFF" filter="url(#f1681npbpwf041)" height="569.4965" style="stroke:#A80036;stroke-width:1.3999999999999997;" width="14" x="359.1" y="187.8844"/><rect fill="#FFFFFF" filter="url(#f1681npbpwf041)" height="43.8074" style="stroke:#A80036;stroke-width:1.3999999999999997;" width="14" x="615.3" y="319.3066"/><rect fill="#FFFFFF" filter="url(#f1681npbpwf041)" height="43.8074" style="stroke:#A80036;stroke-width:1.3999999999999997;" width="14" x="615.3" y="406.9215"/><rect fill="#FFFFFF" filter="url(#f1681npbpwf041)" height="43.8074" style="stroke:#A80036;stroke-width:1.3999999999999997;" width="14" x="777.7" y="494.5363"/><rect fill="#FFFFFF" filter="url(#f1681npbpwf041)" height="43.8074" style="stroke:#A80036;stroke-width:1.3999999999999997;" width="14" x="777.7" y="669.766"/><rect fill="#FFFFFF" filter="url(#f1681npbpwf041)" height="43.8074" style="stroke:#A80036;stroke-width:1.3999999999999997;" width="14" x="908.6" y="582.1512"/><line style="stroke:#A80036;stroke-width:1.3999999999999997;stroke-dasharray:5.0,5.0;" x1="185.5" x2="185.5" y1="97.4695" y2="826.3883"/><line style="stroke:#A80036;stroke-width:1.3999999999999997;stroke-dasharray:5.0,5.0;" x1="366.1" x2="366.1" y1="97.4695" y2="826.3883"/><line style="stroke:#A80036;stroke-width:1.3999999999999997;stroke-dasharray:5.0,5.0;" x1="621.6" x2="621.6" y1="97.4695" y2="826.3883"/><line style="stroke:#A80036;stroke-width:1.3999999999999997;stroke-dasharray:5.0,5.0;" x1="784" x2="784" y1="97.4695" y2="826.3883"/><line style="stroke:#A80036;stroke-width:1.3999999999999997;stroke-dasharray:5.0,5.0;" x1="915.6" x2="915.6" y1="97.4695" y2="826.3883"/><rect fill="#FEFECE" filter="url(#f1681npbpwf041)" height="45.6695" style="stroke:#A80036;stroke-width:2.0999999999999996;" width="149.8" x="108.5" y="44.8"/><text fill="#000000" font-family="sans-serif" font-size="19.6" lengthAdjust="spacing" textLength="130.2" x="118.3" y="75.7504">Spring Context</text><rect fill="#FEFECE" filter="url(#f1681npbpwf041)" height="45.6695" style="stroke:#A80036;stroke-width:2.0999999999999996;" width="149.8" x="108.5" y="824.9883"/><text fill="#000000" font-family="sans-serif" font-size="19.6" lengthAdjust="spacing" textLength="130.2" x="118.3" y="855.9387">Spring Context</text><rect fill="#FEFECE" filter="url(#f1681npbpwf041)" height="45.6695" style="stroke:#A80036;stroke-width:2.0999999999999996;" width="170.8" x="277.9" y="44.8"/><text fill="#000000" font-family="sans-serif" font-size="19.6" lengthAdjust="spacing" textLength="151.2" x="287.7" y="75.7504">Workflow Service</text><rect fill="#FEFECE" filter="url(#f1681npbpwf041)" height="45.6695" style="stroke:#A80036;stroke-width:2.0999999999999996;" width="170.8" x="277.9" y="824.9883"/><text fill="#000000" font-family="sans-serif" font-size="19.6" lengthAdjust="spacing" textLength="151.2" x="287.7" y="855.9387">Workflow Service</text><rect fill="#FEFECE" filter="url(#f1681npbpwf041)" height="45.6695" style="stroke:#A80036;stroke-width:2.0999999999999996;" width="163.8" x="537.6" y="44.8"/><text fill="#000000" font-family="sans-serif" font-size="19.6" lengthAdjust="spacing" textLength="144.2" x="547.4" y="75.7504">Runtime Service</text><rect fill="#FEFECE" filter="url(#f1681npbpwf041)" height="45.6695" style="stroke:#A80036;stroke-width:2.0999999999999996;" width="163.8" x="537.6" y="824.9883"/><text fill="#000000" font-family="sans-serif" font-size="19.6" lengthAdjust="spacing" textLength="144.2" x="547.4" y="855.9387">Runtime Service</text><text fill="#000000" font-family="sans-serif" font-size="19.6" lengthAdjust="spacing" textLength="119" x="721" y="92.5504">Form Mapper</text><path d="M759.5,21 C759.5,7 784.7,7 784.7,7 C784.7,7 809.9,7 809.9,21 L809.9,57.4 C809.9,71.4 784.7,71.4 784.7,71.4 C784.7,71.4 759.5,71.4 759.5,57.4 L759.5,21 " fill="#FEFECE" filter="url(#f1681npbpwf041)" style="stroke:#A80036;stroke-width:2.0999999999999996;"/><path d="M759.5,21 C759.5,35 784.7,35 784.7,35 C784.7,35 809.9,35 809.9,21 " fill="none" style="stroke:#A80036;stroke-width:2.0999999999999996;"/><text fill="#000000" font-family="sans-serif" font-size="19.6" lengthAdjust="spacing" textLength="119" x="721" y="846.1387">Form Mapper</text><path d="M759.5,865.0578 C759.5,851.0578 784.7,851.0578 784.7,851.0578 C784.7,851.0578 809.9,851.0578 809.9,865.0578 L809.9,901.4578 C809.9,915.4578 784.7,915.4578 784.7,915.4578 C784.7,915.4578 759.5,915.4578 759.5,901.4578 L759.5,865.0578 " fill="#FEFECE" filter="url(#f1681npbpwf041)" style="stroke:#A80036;stroke-width:2.0999999999999996;"/><path d="M759.5,865.0578 C759.5,879.0578 784.7,879.0578 784.7,879.0578 C784.7,879.0578 809.9,879.0578 809.9,865.0578 " fill="none" style="stroke:#A80036;stroke-width:2.0999999999999996;"/><text fill="#000000" font-family="sans-serif" font-size="19.6" lengthAdjust="spacing" textLength="98" x="862.4" y="92.5504">Form Index</text><ellipse cx="915.6" cy="49" fill="#FEFECE" filter="url(#f1681npbpwf041)" rx="16.8" ry="16.8" style="stroke:#A80036;stroke-width:2.7999999999999994;"/><line style="stroke:#A80036;stroke-width:2.7999999999999994;" x1="898.8" x2="932.4" y1="68.6" y2="68.6"/><text fill="#000000" font-family="sans-serif" font-size="19.6" lengthAdjust="spacing" textLength="98" x="862.4" y="846.1387">Form Index</text><ellipse cx="915.6" cy="873.4578" fill="#FEFECE" filter="url(#f1681npbpwf041)" rx="16.8" ry="16.8" style="stroke:#A80036;stroke-width:2.7999999999999994;"/><line style="stroke:#A80036;stroke-width:2.7999999999999994;" x1="898.8" x2="932.4" y1="893.0578" y2="893.0578"/><rect fill="#FFFFFF" filter="url(#f1681npbpwf041)" height="657.1113" style="stroke:#A80036;stroke-width:1.3999999999999997;" width="14" x="179.2" y="144.077"/><rect fill="#FFFFFF" filter="url(#f1681npbpwf041)" height="43.8074" style="stroke:#A80036;stroke-width:1.3999999999999997;" width="14" x="186.2" y="231.6918"/><rect fill="#FFFFFF" filter="url(#f1681npbpwf041)" height="569.4965" style="stroke:#A80036;stroke-width:1.3999999999999997;" width="14" x="359.1" y="187.8844"/><rect fill="#FFFFFF" filter="url(#f1681npbpwf041)" height="43.8074" style="stroke:#A80036;stroke-width:1.3999999999999997;" width="14" x="615.3" y="319.3066"/><rect fill="#FFFFFF" filter="url(#f1681npbpwf041)" height="43.8074" style="stroke:#A80036;stroke-width:1.3999999999999997;" width="14" x="615.3" y="406.9215"/><rect fill="#FFFFFF" filter="url(#f1681npbpwf041)" height="43.8074" style="stroke:#A80036;stroke-width:1.3999999999999997;" width="14" x="777.7" y="494.5363"/><rect fill="#FFFFFF" filter="url(#f1681npbpwf041)" height="43.8074" style="stroke:#A80036;stroke-width:1.3999999999999997;" width="14" x="777.7" y="669.766"/><rect fill="#FFFFFF" filter="url(#f1681npbpwf041)" height="43.8074" style="stroke:#A80036;stroke-width:1.3999999999999997;" width="14" x="908.6" y="582.1512"/><polygon fill="#A80036" points="162.4,138.477,176.4,144.077,162.4,149.677,168,144.077" style="stroke:#A80036;stroke-width:1.3999999999999997;"/><line style="stroke:#A80036;stroke-width:1.3999999999999997;" x1="0" x2="170.8" y1="144.077" y2="144.077"/><text fill="#000000" font-family="sans-serif" font-size="18.2" font-weight="bold" lengthAdjust="spacing" textLength="9.8" x="9.8" y="136.7092">1</text><text fill="#000000" font-family="sans-serif" font-size="18.2" lengthAdjust="spacing" textLength="109.2" x="25.2" y="136.7092">&#29992;&#25143;&#21457;&#36865;&#35831;&#27714;</text><polygon fill="#A80036" points="342.3,182.2844,356.3,187.8844,342.3,193.4844,347.9,187.8844" style="stroke:#A80036;stroke-width:1.3999999999999997;"/><line style="stroke:#A80036;stroke-width:1.3999999999999997;" x1="193.2" x2="350.7" y1="187.8844" y2="187.8844"/><text fill="#000000" font-family="sans-serif" font-size="18.2" font-weight="bold" lengthAdjust="spacing" textLength="9.8" x="203" y="180.5166">2</text><text fill="#000000" font-family="sans-serif" font-size="18.2" lengthAdjust="spacing" textLength="109.2" x="218.4" y="180.5166">&#21457;&#36215;&#26032;&#30340;&#27969;&#31243;</text><polygon fill="#A80036" points="215.6,226.0918,201.6,231.6918,215.6,237.2918,210,231.6918" style="stroke:#A80036;stroke-width:1.3999999999999997;"/><line style="stroke:#A80036;stroke-width:1.3999999999999997;" x1="207.2" x2="357.7" y1="231.6918" y2="231.6918"/><text fill="#000000" font-family="sans-serif" font-size="18.2" font-weight="bold" lengthAdjust="spacing" textLength="9.8" x="224" y="224.324">3</text><text fill="#000000" font-family="sans-serif" font-size="18.2" lengthAdjust="spacing" textLength="95.2" x="239.4" y="224.324">&#33719;&#21462;&#29992;&#25143; ID</text><polygon fill="#A80036" points="342.3,269.8992,356.3,275.4992,342.3,281.0992,347.9,275.4992" style="stroke:#A80036;stroke-width:1.3999999999999997;"/><line style="stroke:#A80036;stroke-width:1.3999999999999997;stroke-dasharray:2.0,2.0;" x1="193.2" x2="350.7" y1="275.4992" y2="275.4992"/><text fill="#000000" font-family="sans-serif" font-size="18.2" font-weight="bold" lengthAdjust="spacing" textLength="9.8" x="203" y="268.1314">4</text><text fill="#000000" font-family="sans-serif" font-size="18.2" lengthAdjust="spacing" textLength="58.8" x="218.4" y="268.1314">&#29992;&#25143; ID</text><polygon fill="#A80036" points="598.5,313.7066,612.5,319.3066,598.5,324.9066,604.1,319.3066" style="stroke:#A80036;stroke-width:1.3999999999999997;"/><line style="stroke:#A80036;stroke-width:1.3999999999999997;" x1="373.1" x2="606.9" y1="319.3066" y2="319.3066"/><text fill="#000000" font-family="sans-serif" font-size="18.2" font-weight="bold" lengthAdjust="spacing" textLength="9.8" x="382.9" y="311.9389">5</text><text fill="#000000" font-family="sans-serif" font-size="18.2" lengthAdjust="spacing" textLength="182" x="398.3" y="311.9389">&#21028;&#26029;&#27969;&#31243;&#23454;&#20363;&#26159;&#21542;&#23384;&#22312;</text><polygon fill="#A80036" points="388.5,357.5141,374.5,363.1141,388.5,368.7141,382.9,363.1141" style="stroke:#A80036;stroke-width:1.3999999999999997;"/><line style="stroke:#A80036;stroke-width:1.3999999999999997;stroke-dasharray:2.0,2.0;" x1="380.1" x2="620.9" y1="363.1141" y2="363.1141"/><text fill="#000000" font-family="sans-serif" font-size="18.2" font-weight="bold" lengthAdjust="spacing" textLength="9.8" x="396.9" y="355.7463">6</text><text fill="#000000" font-family="sans-serif" font-size="18.2" lengthAdjust="spacing" textLength="5.6" x="412.3" y="355.7463">&#160;</text><polygon fill="#A80036" points="598.5,401.3215,612.5,406.9215,598.5,412.5215,604.1,406.9215" style="stroke:#A80036;stroke-width:1.3999999999999997;"/><line style="stroke:#A80036;stroke-width:1.3999999999999997;" x1="373.1" x2="606.9" y1="406.9215" y2="406.9215"/><text fill="#000000" font-family="sans-serif" font-size="18.2" font-weight="bold" lengthAdjust="spacing" textLength="9.8" x="382.9" y="399.5537">7</text><text fill="#000000" font-family="sans-serif" font-size="18.2" lengthAdjust="spacing" textLength="200.2" x="398.3" y="399.5537">&#26681;&#25454;&#34920;&#21333;&#21517;&#33719;&#21462;&#34920;&#21333;&#32034;&#24341;</text><polygon fill="#A80036" points="388.5,445.1289,374.5,450.7289,388.5,456.3289,382.9,450.7289" style="stroke:#A80036;stroke-width:1.3999999999999997;"/><line style="stroke:#A80036;stroke-width:1.3999999999999997;stroke-dasharray:2.0,2.0;" x1="380.1" x2="620.9" y1="450.7289" y2="450.7289"/><text fill="#000000" font-family="sans-serif" font-size="18.2" font-weight="bold" lengthAdjust="spacing" textLength="9.8" x="396.9" y="443.3611">8</text><text fill="#000000" font-family="sans-serif" font-size="18.2" lengthAdjust="spacing" textLength="95.2" x="412.3" y="443.3611">&#34920;&#21333;&#32034;&#24341; ID</text><polygon fill="#A80036" points="760.9,488.9363,774.9,494.5363,760.9,500.1363,766.5,494.5363" style="stroke:#A80036;stroke-width:1.3999999999999997;"/><line style="stroke:#A80036;stroke-width:1.3999999999999997;" x1="373.1" x2="769.3" y1="494.5363" y2="494.5363"/><text fill="#000000" font-family="sans-serif" font-size="18.2" font-weight="bold" lengthAdjust="spacing" textLength="9.8" x="382.9" y="487.1686">9</text><text fill="#000000" font-family="sans-serif" font-size="18.2" lengthAdjust="spacing" textLength="228.2" x="398.3" y="487.1686">&#26681;&#25454;&#34920;&#21333;&#32034;&#24341; ID &#26597;&#25214;&#25968;&#25454;&#24211;</text><polygon fill="#A80036" points="388.5,532.7437,374.5,538.3437,388.5,543.9437,382.9,538.3437" style="stroke:#A80036;stroke-width:1.3999999999999997;"/><line style="stroke:#A80036;stroke-width:1.3999999999999997;stroke-dasharray:2.0,2.0;" x1="380.1" x2="783.3" y1="538.3437" y2="538.3437"/><text fill="#000000" font-family="sans-serif" font-size="18.2" font-weight="bold" lengthAdjust="spacing" textLength="19.6" x="396.9" y="530.976">10</text><text fill="#000000" font-family="sans-serif" font-size="18.2" lengthAdjust="spacing" textLength="109.2" x="422.1" y="530.976">&#34920;&#21333;&#32034;&#24341;&#23545;&#35937;</text><polygon fill="#A80036" points="891.8,576.5512,905.8,582.1512,891.8,587.7512,897.4,582.1512" style="stroke:#A80036;stroke-width:1.3999999999999997;"/><line style="stroke:#A80036;stroke-width:1.3999999999999997;" x1="373.1" x2="900.2" y1="582.1512" y2="582.1512"/><text fill="#000000" font-family="sans-serif" font-size="18.2" font-weight="bold" lengthAdjust="spacing" textLength="19.6" x="382.9" y="574.7834">11</text><text fill="#000000" font-family="sans-serif" font-size="18.2" lengthAdjust="spacing" textLength="291.2" x="408.1" y="574.7834">&#21028;&#26029;&#24403;&#21069;&#30331;&#24405;&#29992;&#25143;&#26159;&#21542;&#20855;&#26377;&#20462;&#25913;&#26435;&#38480;</text><polygon fill="#A80036" points="898.8,620.3586,912.8,625.9586,898.8,631.5586,904.4,625.9586" style="stroke:#A80036;stroke-width:1.3999999999999997;"/><line style="stroke:#A80036;stroke-width:1.3999999999999997;" x1="373.1" x2="907.2" y1="625.9586" y2="625.9586"/><text fill="#000000" font-family="sans-serif" font-size="18.2" font-weight="bold" lengthAdjust="spacing" textLength="19.6" x="382.9" y="618.5908">12</text><text fill="#000000" font-family="sans-serif" font-size="18.2" lengthAdjust="spacing" textLength="163.8" x="408.1" y="618.5908">&#26356;&#26032;&#34920;&#21333;&#21644;&#34920;&#21333;&#32034;&#24341;</text><polygon fill="#A80036" points="760.9,664.166,774.9,669.766,760.9,675.366,766.5,669.766" style="stroke:#A80036;stroke-width:1.3999999999999997;"/><line style="stroke:#A80036;stroke-width:1.3999999999999997;" x1="373.1" x2="769.3" y1="669.766" y2="669.766"/><text fill="#000000" font-family="sans-serif" font-size="18.2" font-weight="bold" lengthAdjust="spacing" textLength="19.6" x="382.9" y="662.3982">13</text><text fill="#000000" font-family="sans-serif" font-size="18.2" lengthAdjust="spacing" textLength="163.8" x="408.1" y="662.3982">&#20445;&#23384;&#34920;&#21333;&#21644;&#34920;&#21333;&#32034;&#24341;</text><polygon fill="#A80036" points="388.5,707.9734,374.5,713.5734,388.5,719.1734,382.9,713.5734" style="stroke:#A80036;stroke-width:1.3999999999999997;"/><line style="stroke:#A80036;stroke-width:1.3999999999999997;stroke-dasharray:2.0,2.0;" x1="380.1" x2="783.3" y1="713.5734" y2="713.5734"/><text fill="#000000" font-family="sans-serif" font-size="18.2" font-weight="bold" lengthAdjust="spacing" textLength="19.6" x="396.9" y="706.2057">14</text><text fill="#000000" font-family="sans-serif" font-size="18.2" lengthAdjust="spacing" textLength="5.6" x="422.1" y="706.2057">&#160;</text><polygon fill="#A80036" points="208.6,751.7809,194.6,757.3809,208.6,762.9809,203,757.3809" style="stroke:#A80036;stroke-width:1.3999999999999997;"/><line style="stroke:#A80036;stroke-width:1.3999999999999997;stroke-dasharray:2.0,2.0;" x1="200.2" x2="364.7" y1="757.3809" y2="757.3809"/><text fill="#000000" font-family="sans-serif" font-size="18.2" font-weight="bold" lengthAdjust="spacing" textLength="19.6" x="217" y="750.0131">15</text><text fill="#000000" font-family="sans-serif" font-size="18.2" lengthAdjust="spacing" textLength="5.6" x="242.2" y="750.0131">&#160;</text><polygon fill="#A80036" points="15.4,795.5883,1.4,801.1883,15.4,806.7883,9.8,801.1883" style="stroke:#A80036;stroke-width:1.3999999999999997;"/><line style="stroke:#A80036;stroke-width:1.3999999999999997;stroke-dasharray:2.0,2.0;" x1="7" x2="184.8" y1="801.1883" y2="801.1883"/><text fill="#000000" font-family="sans-serif" font-size="18.2" font-weight="bold" lengthAdjust="spacing" textLength="19.6" x="23.8" y="793.8205">16</text><text fill="#000000" font-family="sans-serif" font-size="18.2" lengthAdjust="spacing" textLength="127.4" x="49" y="793.8205">&#21521;&#29992;&#25143;&#21457;&#36865;&#21709;&#24212;</text><!--SRC=[RPBDJjj058NtynHNsNG5sMV1fXKI2pQmO3ssRy4Y7hlZSQ0xQ44Y0aCWFm8ABLHjbKqIa41HeC3BPCRcBHZ5mOu5gz7edFFDFLVpOKK8poyLYrwPCX4uvMdJTOe-VWcGcJXbsNIPKuSGVzLcm5qV2Q61S5dW6CW9yIWNjcbxEWk5HO_RR1a-kapWkYW0zO7c7KikN_rSTjTW4Nd5Dd7aCVAUXO09sy6SnIGM5TIWFa9XrkKEp5FFGpxIB88w8BwEbJbcuVf8qADEpG0jGTHegvs-F3XytjYCUtrr_OrGKzWLAb0FI46xZ19eFRxjgzPLTBgbRZUZzcxcCeW12IlUrw1MGeIvJvCWZYBW339jb34rUUUFQdKIfkp-73xkgkEUhFsJdMDvriuGvXYH1jN5G8NT-B8jmwQiXSdRoJMw-It_DzzcOL9EXx3oh5G5zUklgZwgvfNMv5qzurdlyMHl45zV9aXyxIKVwh8QHYVtyg6PT1-ts-whi-hmgQiQ0tN-_Vcabj4nPQWVDthbuuf7Uxbo5hu6I5fZ-7Ikr_Q-_ytm-GDaxN3oAyXwAEyQv0K0]--></g></svg>