<?xml version="1.0" encoding="us-ascii" standalone="no"?><svg xmlns="http://www.w3.org/2000/svg" xmlns:xlink="http://www.w3.org/1999/xlink" contentStyleType="text/css" height="1136.4px" preserveAspectRatio="none" style="width:1110px;height:1136px;background:#FFFFFF;" version="1.1" viewBox="0 0 1110 1136" width="1110px" zoomAndPan="magnify"><defs><filter height="300%" id="f1l2ba017mn71p" width="300%" x="-1" y="-1"><feGaussianBlur result="blurOut" stdDeviation="2.4"/><feColorMatrix in="blurOut" result="blurOut2" type="matrix" values="0 0 0 0 0 0 0 0 0 0 0 0 0 0 0 0 0 0 .4 0"/><feOffset dx="4.8" dy="4.8" in="blurOut2" result="blurOut3"/><feBlend in="SourceGraphic" in2="blurOut3" mode="normal"/></filter></defs><g><rect fill="#FFFFFF" filter="url(#f1l2ba017mn71p)" height="894.832" style="stroke:#A80036;stroke-width:1.2;" width="12" x="153.6" y="123.4945"/><rect fill="#FFFFFF" filter="url(#f1l2ba017mn71p)" height="37.5492" style="stroke:#A80036;stroke-width:1.2;" width="12" x="159.6" y="498.9867"/><rect fill="#FFFFFF" filter="url(#f1l2ba017mn71p)" height="819.7336" style="stroke:#A80036;stroke-width:1.2;" width="12" x="330" y="161.0438"/><rect fill="#FFFFFF" filter="url(#f1l2ba017mn71p)" height="37.5492" style="stroke:#A80036;stroke-width:1.2;" width="12" x="534" y="198.593"/><rect fill="#FFFFFF" filter="url(#f1l2ba017mn71p)" height="37.5492" style="stroke:#A80036;stroke-width:1.2;" width="12" x="534" y="273.6914"/><rect fill="#FFFFFF" filter="url(#f1l2ba017mn71p)" height="594.4383" style="stroke:#A80036;stroke-width:1.2;" width="12" x="673.8" y="348.7898"/><rect fill="#FFFFFF" filter="url(#f1l2ba017mn71p)" height="75.0984" style="stroke:#A80036;stroke-width:1.2;" width="12" x="862.2" y="386.3391"/><rect fill="#FFFFFF" filter="url(#f1l2ba017mn71p)" height="75.0984" style="stroke:#A80036;stroke-width:1.2;" width="12" x="862.2" y="717.9328"/><rect fill="#FFFFFF" filter="url(#f1l2ba017mn71p)" height="75.0984" style="stroke:#A80036;stroke-width:1.2;" width="12" x="862.2" y="830.5805"/><rect fill="#FFFFFF" filter="url(#f1l2ba017mn71p)" height="444.2414" style="stroke:#A80036;stroke-width:1.2;" width="12" x="1033.8" y="423.8883"/><line style="stroke:#A80036;stroke-width:1.2;stroke-dasharray:5.0,5.0;" x1="159" x2="159" y1="83.5453" y2="1039.9266"/><line style="stroke:#A80036;stroke-width:1.2;stroke-dasharray:5.0,5.0;" x1="336" x2="336" y1="83.5453" y2="1039.9266"/><line style="stroke:#A80036;stroke-width:1.2;stroke-dasharray:5.0,5.0;" x1="539.4" x2="539.4" y1="83.5453" y2="1039.9266"/><line style="stroke:#A80036;stroke-width:1.2;stroke-dasharray:5.0,5.0;" x1="679.8" x2="679.8" y1="83.5453" y2="1039.9266"/><line style="stroke:#A80036;stroke-width:1.2;stroke-dasharray:5.0,5.0;" x1="867.6" x2="867.6" y1="83.5453" y2="1039.9266"/><line style="stroke:#A80036;stroke-width:1.2;stroke-dasharray:5.0,5.0;" x1="1039.8" x2="1039.8" y1="83.5453" y2="1039.9266"/><rect fill="#FEFECE" filter="url(#f1l2ba017mn71p)" height="39.1453" style="stroke:#A80036;stroke-width:1.7999999999999998;" width="128.4" x="93" y="38.4"/><text fill="#000000" font-family="sans-serif" font-size="16.8" lengthAdjust="spacing" textLength="111.6" x="101.4" y="64.9289">Spring Context</text><rect fill="#FEFECE" filter="url(#f1l2ba017mn71p)" height="39.1453" style="stroke:#A80036;stroke-width:1.7999999999999998;" width="128.4" x="93" y="1038.7266"/><text fill="#000000" font-family="sans-serif" font-size="16.8" lengthAdjust="spacing" textLength="111.6" x="101.4" y="1065.2555">Spring Context</text><rect fill="#FEFECE" filter="url(#f1l2ba017mn71p)" height="39.1453" style="stroke:#A80036;stroke-width:1.7999999999999998;" width="146.4" x="260.4" y="38.4"/><text fill="#000000" font-family="sans-serif" font-size="16.8" lengthAdjust="spacing" textLength="129.6" x="268.8" y="64.9289">Workflow Service</text><rect fill="#FEFECE" filter="url(#f1l2ba017mn71p)" height="39.1453" style="stroke:#A80036;stroke-width:1.7999999999999998;" width="146.4" x="260.4" y="1038.7266"/><text fill="#000000" font-family="sans-serif" font-size="16.8" lengthAdjust="spacing" textLength="129.6" x="268.8" y="1065.2555">Workflow Service</text><rect fill="#FEFECE" filter="url(#f1l2ba017mn71p)" height="39.1453" style="stroke:#A80036;stroke-width:1.7999999999999998;" width="140.4" x="467.4" y="38.4"/><text fill="#000000" font-family="sans-serif" font-size="16.8" lengthAdjust="spacing" textLength="123.6" x="475.8" y="64.9289">Runtime Service</text><rect fill="#FEFECE" filter="url(#f1l2ba017mn71p)" height="39.1453" style="stroke:#A80036;stroke-width:1.7999999999999998;" width="140.4" x="467.4" y="1038.7266"/><text fill="#000000" font-family="sans-serif" font-size="16.8" lengthAdjust="spacing" textLength="123.6" x="475.8" y="1065.2555">Runtime Service</text><rect fill="#FEFECE" filter="url(#f1l2ba017mn71p)" height="39.1453" style="stroke:#A80036;stroke-width:1.7999999999999998;" width="105.6" x="624.6" y="38.4"/><text fill="#000000" font-family="sans-serif" font-size="16.8" lengthAdjust="spacing" textLength="88.8" x="633" y="64.9289">File Service</text><rect fill="#FEFECE" filter="url(#f1l2ba017mn71p)" height="39.1453" style="stroke:#A80036;stroke-width:1.7999999999999998;" width="105.6" x="624.6" y="1038.7266"/><text fill="#000000" font-family="sans-serif" font-size="16.8" lengthAdjust="spacing" textLength="88.8" x="633" y="1065.2555">File Service</text><text fill="#000000" font-family="sans-serif" font-size="16.8" lengthAdjust="spacing" textLength="114" x="807.6" y="79.3289">File Repository</text><path d="M846.6,18 C846.6,6 868.2,6 868.2,6 C868.2,6 889.8,6 889.8,18 L889.8,49.2 C889.8,61.2 868.2,61.2 868.2,61.2 C868.2,61.2 846.6,61.2 846.6,49.2 L846.6,18 " fill="#FEFECE" filter="url(#f1l2ba017mn71p)" style="stroke:#A80036;stroke-width:1.7999999999999998;"/><path d="M846.6,18 C846.6,30 868.2,30 868.2,30 C868.2,30 889.8,30 889.8,18 " fill="none" style="stroke:#A80036;stroke-width:1.7999999999999998;"/><text fill="#000000" font-family="sans-serif" font-size="16.8" lengthAdjust="spacing" textLength="114" x="807.6" y="1056.8555">File Repository</text><path d="M846.6,1073.0719 C846.6,1061.0719 868.2,1061.0719 868.2,1061.0719 C868.2,1061.0719 889.8,1061.0719 889.8,1073.0719 L889.8,1104.2719 C889.8,1116.2719 868.2,1116.2719 868.2,1116.2719 C868.2,1116.2719 846.6,1116.2719 846.6,1104.2719 L846.6,1073.0719 " fill="#FEFECE" filter="url(#f1l2ba017mn71p)" style="stroke:#A80036;stroke-width:1.7999999999999998;"/><path d="M846.6,1073.0719 C846.6,1085.0719 868.2,1085.0719 868.2,1085.0719 C868.2,1085.0719 889.8,1085.0719 889.8,1073.0719 " fill="none" style="stroke:#A80036;stroke-width:1.7999999999999998;"/><text fill="#000000" font-family="sans-serif" font-size="16.8" lengthAdjust="spacing" textLength="132" x="970.2" y="79.3289">Sample Metadata</text><ellipse cx="1039.8" cy="42" fill="#FEFECE" filter="url(#f1l2ba017mn71p)" rx="14.4" ry="14.4" style="stroke:#A80036;stroke-width:2.4;"/><line style="stroke:#A80036;stroke-width:2.4;" x1="1025.4" x2="1054.2" y1="58.8" y2="58.8"/><text fill="#000000" font-family="sans-serif" font-size="16.8" lengthAdjust="spacing" textLength="132" x="970.2" y="1056.8555">Sample Metadata</text><ellipse cx="1039.8" cy="1080.2719" fill="#FEFECE" filter="url(#f1l2ba017mn71p)" rx="14.4" ry="14.4" style="stroke:#A80036;stroke-width:2.4;"/><line style="stroke:#A80036;stroke-width:2.4;" x1="1025.4" x2="1054.2" y1="1097.0719" y2="1097.0719"/><rect fill="#FFFFFF" filter="url(#f1l2ba017mn71p)" height="894.832" style="stroke:#A80036;stroke-width:1.2;" width="12" x="153.6" y="123.4945"/><rect fill="#FFFFFF" filter="url(#f1l2ba017mn71p)" height="37.5492" style="stroke:#A80036;stroke-width:1.2;" width="12" x="159.6" y="498.9867"/><rect fill="#FFFFFF" filter="url(#f1l2ba017mn71p)" height="819.7336" style="stroke:#A80036;stroke-width:1.2;" width="12" x="330" y="161.0438"/><rect fill="#FFFFFF" filter="url(#f1l2ba017mn71p)" height="37.5492" style="stroke:#A80036;stroke-width:1.2;" width="12" x="534" y="198.593"/><rect fill="#FFFFFF" filter="url(#f1l2ba017mn71p)" height="37.5492" style="stroke:#A80036;stroke-width:1.2;" width="12" x="534" y="273.6914"/><rect fill="#FFFFFF" filter="url(#f1l2ba017mn71p)" height="594.4383" style="stroke:#A80036;stroke-width:1.2;" width="12" x="673.8" y="348.7898"/><rect fill="#FFFFFF" filter="url(#f1l2ba017mn71p)" height="75.0984" style="stroke:#A80036;stroke-width:1.2;" width="12" x="862.2" y="386.3391"/><rect fill="#FFFFFF" filter="url(#f1l2ba017mn71p)" height="75.0984" style="stroke:#A80036;stroke-width:1.2;" width="12" x="862.2" y="717.9328"/><rect fill="#FFFFFF" filter="url(#f1l2ba017mn71p)" height="75.0984" style="stroke:#A80036;stroke-width:1.2;" width="12" x="862.2" y="830.5805"/><rect fill="#FFFFFF" filter="url(#f1l2ba017mn71p)" height="444.2414" style="stroke:#A80036;stroke-width:1.2;" width="12" x="1033.8" y="423.8883"/><polygon fill="#A80036" points="139.2,118.6945,151.2,123.4945,139.2,128.2945,144,123.4945" style="stroke:#A80036;stroke-width:1.2;"/><line style="stroke:#A80036;stroke-width:1.2;" x1="0" x2="146.4" y1="123.4945" y2="123.4945"/><text fill="#000000" font-family="sans-serif" font-size="15.6" font-weight="bold" lengthAdjust="spacing" textLength="8.4" x="8.4" y="117.1793">1</text><text fill="#000000" font-family="sans-serif" font-size="15.6" lengthAdjust="spacing" textLength="93.6" x="21.6" y="117.1793">&#29992;&#25143;&#21457;&#36865;&#35831;&#27714;</text><polygon fill="#A80036" points="315.6,156.2438,327.6,161.0438,315.6,165.8438,320.4,161.0438" style="stroke:#A80036;stroke-width:1.2;"/><line style="stroke:#A80036;stroke-width:1.2;" x1="165.6" x2="322.8" y1="161.0438" y2="161.0438"/><text fill="#000000" font-family="sans-serif" font-size="15.6" font-weight="bold" lengthAdjust="spacing" textLength="8.4" x="174" y="154.7285">2</text><text fill="#000000" font-family="sans-serif" font-size="15.6" lengthAdjust="spacing" textLength="109.2" x="187.2" y="154.7285">&#35843;&#29992;&#19994;&#21153;&#23618;&#26041;&#27861;</text><polygon fill="#A80036" points="519.6,193.793,531.6,198.593,519.6,203.393,524.4,198.593" style="stroke:#A80036;stroke-width:1.2;"/><line style="stroke:#A80036;stroke-width:1.2;" x1="342" x2="526.8" y1="198.593" y2="198.593"/><text fill="#000000" font-family="sans-serif" font-size="15.6" font-weight="bold" lengthAdjust="spacing" textLength="8.4" x="350.4" y="192.2777">3</text><text fill="#000000" font-family="sans-serif" font-size="15.6" lengthAdjust="spacing" textLength="156" x="363.6" y="192.2777">&#21028;&#26029;&#27969;&#31243;&#23454;&#20363;&#26159;&#21542;&#23384;&#22312;</text><polygon fill="#A80036" points="355.2,231.3422,343.2,236.1422,355.2,240.9422,350.4,236.1422" style="stroke:#A80036;stroke-width:1.2;"/><line style="stroke:#A80036;stroke-width:1.2;stroke-dasharray:2.0,2.0;" x1="348" x2="538.8" y1="236.1422" y2="236.1422"/><text fill="#000000" font-family="sans-serif" font-size="15.6" font-weight="bold" lengthAdjust="spacing" textLength="8.4" x="362.4" y="229.827">4</text><text fill="#000000" font-family="sans-serif" font-size="15.6" lengthAdjust="spacing" textLength="4.8" x="375.6" y="229.827">&#160;</text><polygon fill="#A80036" points="519.6,268.8914,531.6,273.6914,519.6,278.4914,524.4,273.6914" style="stroke:#A80036;stroke-width:1.2;"/><line style="stroke:#A80036;stroke-width:1.2;" x1="342" x2="526.8" y1="273.6914" y2="273.6914"/><text fill="#000000" font-family="sans-serif" font-size="15.6" font-weight="bold" lengthAdjust="spacing" textLength="8.4" x="350.4" y="267.3762">5</text><text fill="#000000" font-family="sans-serif" font-size="15.6" lengthAdjust="spacing" textLength="128.4" x="363.6" y="267.3762">&#26597;&#35810;&#26679;&#21697;&#20803;&#25968;&#25454; ID</text><polygon fill="#A80036" points="355.2,306.4406,343.2,311.2406,355.2,316.0406,350.4,311.2406" style="stroke:#A80036;stroke-width:1.2;"/><line style="stroke:#A80036;stroke-width:1.2;stroke-dasharray:2.0,2.0;" x1="348" x2="538.8" y1="311.2406" y2="311.2406"/><text fill="#000000" font-family="sans-serif" font-size="15.6" font-weight="bold" lengthAdjust="spacing" textLength="8.4" x="362.4" y="304.9254">6</text><text fill="#000000" font-family="sans-serif" font-size="15.6" lengthAdjust="spacing" textLength="97.2" x="375.6" y="304.9254">&#26679;&#21697;&#20803;&#25968;&#25454; ID</text><polygon fill="#A80036" points="659.4,343.9898,671.4,348.7898,659.4,353.5898,664.2,348.7898" style="stroke:#A80036;stroke-width:1.2;"/><line style="stroke:#A80036;stroke-width:1.2;" x1="342" x2="666.6" y1="348.7898" y2="348.7898"/><text fill="#000000" font-family="sans-serif" font-size="15.6" font-weight="bold" lengthAdjust="spacing" textLength="8.4" x="350.4" y="342.4746">7</text><text fill="#000000" font-family="sans-serif" font-size="15.6" lengthAdjust="spacing" textLength="140.4" x="363.6" y="342.4746">&#23545;&#26679;&#21697;&#25991;&#20214;&#36827;&#34892;&#26356;&#26032;</text><polygon fill="#A80036" points="847.8,381.5391,859.8,386.3391,847.8,391.1391,852.6,386.3391" style="stroke:#A80036;stroke-width:1.2;"/><line style="stroke:#A80036;stroke-width:1.2;" x1="685.8" x2="855" y1="386.3391" y2="386.3391"/><text fill="#000000" font-family="sans-serif" font-size="15.6" font-weight="bold" lengthAdjust="spacing" textLength="8.4" x="694.2" y="380.0238">8</text><text fill="#000000" font-family="sans-serif" font-size="15.6" lengthAdjust="spacing" textLength="140.4" x="707.4" y="380.0238">&#33719;&#21462;&#26679;&#21697;&#20803;&#25968;&#25454;&#23545;&#35937;</text><polygon fill="#A80036" points="1019.4,419.0883,1031.4,423.8883,1019.4,428.6883,1024.2,423.8883" style="stroke:#A80036;stroke-width:1.2;"/><line style="stroke:#A80036;stroke-width:1.2;" x1="874.2" x2="1026.6" y1="423.8883" y2="423.8883"/><text fill="#000000" font-family="sans-serif" font-size="15.6" font-weight="bold" lengthAdjust="spacing" textLength="8.4" x="882.6" y="417.573">9</text><text fill="#000000" font-family="sans-serif" font-size="15.6" lengthAdjust="spacing" textLength="109.2" x="895.8" y="417.573">&#26597;&#25214;&#26679;&#21697;&#20803;&#25968;&#25454;</text><polygon fill="#A80036" points="699,456.6375,687,461.4375,699,466.2375,694.2,461.4375" style="stroke:#A80036;stroke-width:1.2;"/><line style="stroke:#A80036;stroke-width:1.2;stroke-dasharray:2.0,2.0;" x1="691.8" x2="867" y1="461.4375" y2="461.4375"/><text fill="#000000" font-family="sans-serif" font-size="15.6" font-weight="bold" lengthAdjust="spacing" textLength="16.8" x="706.2" y="455.1223">10</text><text fill="#000000" font-family="sans-serif" font-size="15.6" lengthAdjust="spacing" textLength="109.2" x="727.8" y="455.1223">&#26679;&#21697;&#20803;&#25968;&#25454;&#23545;&#35937;</text><polygon fill="#A80036" points="184.8,494.1867,172.8,498.9867,184.8,503.7867,180,498.9867" style="stroke:#A80036;stroke-width:1.2;"/><line style="stroke:#A80036;stroke-width:1.2;" x1="177.6" x2="672.6" y1="498.9867" y2="498.9867"/><text fill="#000000" font-family="sans-serif" font-size="15.6" font-weight="bold" lengthAdjust="spacing" textLength="16.8" x="192" y="492.6715">11</text><text fill="#000000" font-family="sans-serif" font-size="15.6" lengthAdjust="spacing" textLength="81.6" x="213.6" y="492.6715">&#33719;&#21462;&#29992;&#25143; ID</text><polygon fill="#A80036" points="659.4,531.7359,671.4,536.5359,659.4,541.3359,664.2,536.5359" style="stroke:#A80036;stroke-width:1.2;"/><line style="stroke:#A80036;stroke-width:1.2;stroke-dasharray:2.0,2.0;" x1="165.6" x2="666.6" y1="536.5359" y2="536.5359"/><text fill="#000000" font-family="sans-serif" font-size="15.6" font-weight="bold" lengthAdjust="spacing" textLength="16.8" x="174" y="530.2207">12</text><text fill="#000000" font-family="sans-serif" font-size="15.6" lengthAdjust="spacing" textLength="50.4" x="195.6" y="530.2207">&#29992;&#25143; ID</text><polygon fill="#A80036" points="1019.4,569.2852,1031.4,574.0852,1019.4,578.8852,1024.2,574.0852" style="stroke:#A80036;stroke-width:1.2;"/><line style="stroke:#A80036;stroke-width:1.2;" x1="685.8" x2="1026.6" y1="574.0852" y2="574.0852"/><text fill="#000000" font-family="sans-serif" font-size="15.6" font-weight="bold" lengthAdjust="spacing" textLength="16.8" x="694.2" y="567.7699">13</text><text fill="#000000" font-family="sans-serif" font-size="15.6" lengthAdjust="spacing" textLength="78" x="715.8" y="567.7699">&#21028;&#26029;&#20889;&#26435;&#38480;</text><line style="stroke:#A80036;stroke-width:1.2;" x1="685.8" x2="736.2" y1="611.6344" y2="611.6344"/><line style="stroke:#A80036;stroke-width:1.2;" x1="736.2" x2="736.2" y1="611.6344" y2="627.2344"/><line style="stroke:#A80036;stroke-width:1.2;" x1="687" x2="736.2" y1="627.2344" y2="627.2344"/><polygon fill="#A80036" points="699,622.4344,687,627.2344,699,632.0344,694.2,627.2344" style="stroke:#A80036;stroke-width:1.2;"/><text fill="#000000" font-family="sans-serif" font-size="15.6" font-weight="bold" lengthAdjust="spacing" textLength="16.8" x="694.2" y="605.3191">14</text><text fill="#000000" font-family="sans-serif" font-size="15.6" lengthAdjust="spacing" textLength="62.4" x="715.8" y="605.3191">&#20445;&#23384;&#25991;&#20214;</text><line style="stroke:#A80036;stroke-width:1.2;" x1="685.8" x2="736.2" y1="664.7836" y2="664.7836"/><line style="stroke:#A80036;stroke-width:1.2;" x1="736.2" x2="736.2" y1="664.7836" y2="680.3836"/><line style="stroke:#A80036;stroke-width:1.2;" x1="687" x2="736.2" y1="680.3836" y2="680.3836"/><polygon fill="#A80036" points="699,675.5836,687,680.3836,699,685.1836,694.2,680.3836" style="stroke:#A80036;stroke-width:1.2;"/><text fill="#000000" font-family="sans-serif" font-size="15.6" font-weight="bold" lengthAdjust="spacing" textLength="16.8" x="694.2" y="658.4684">15</text><text fill="#000000" font-family="sans-serif" font-size="15.6" lengthAdjust="spacing" textLength="109.2" x="715.8" y="658.4684">&#29983;&#25104;&#25991;&#20214;&#20803;&#25968;&#25454;</text><polygon fill="#A80036" points="847.8,713.1328,859.8,717.9328,847.8,722.7328,852.6,717.9328" style="stroke:#A80036;stroke-width:1.2;"/><line style="stroke:#A80036;stroke-width:1.2;" x1="685.8" x2="855" y1="717.9328" y2="717.9328"/><text fill="#000000" font-family="sans-serif" font-size="15.6" font-weight="bold" lengthAdjust="spacing" textLength="16.8" x="694.2" y="711.6176">16</text><text fill="#000000" font-family="sans-serif" font-size="15.6" lengthAdjust="spacing" textLength="109.2" x="715.8" y="711.6176">&#20445;&#23384;&#25991;&#20214;&#20803;&#25968;&#25454;</text><polygon fill="#A80036" points="1019.4,750.682,1031.4,755.482,1019.4,760.282,1024.2,755.482" style="stroke:#A80036;stroke-width:1.2;"/><line style="stroke:#A80036;stroke-width:1.2;" x1="874.2" x2="1026.6" y1="755.482" y2="755.482"/><text fill="#000000" font-family="sans-serif" font-size="15.6" font-weight="bold" lengthAdjust="spacing" textLength="16.8" x="882.6" y="749.1668">17</text><text fill="#000000" font-family="sans-serif" font-size="15.6" lengthAdjust="spacing" textLength="109.2" x="904.2" y="749.1668">&#21152;&#20837;&#25991;&#20214;&#20803;&#25968;&#25454;</text><polygon fill="#A80036" points="699,788.2312,687,793.0313,699,797.8313,694.2,793.0313" style="stroke:#A80036;stroke-width:1.2;"/><line style="stroke:#A80036;stroke-width:1.2;stroke-dasharray:2.0,2.0;" x1="691.8" x2="867" y1="793.0313" y2="793.0313"/><text fill="#000000" font-family="sans-serif" font-size="15.6" font-weight="bold" lengthAdjust="spacing" textLength="16.8" x="706.2" y="786.716">18</text><text fill="#000000" font-family="sans-serif" font-size="15.6" lengthAdjust="spacing" textLength="97.2" x="727.8" y="786.716">&#25991;&#20214;&#20803;&#25968;&#25454; ID</text><polygon fill="#A80036" points="847.8,825.7805,859.8,830.5805,847.8,835.3805,852.6,830.5805" style="stroke:#A80036;stroke-width:1.2;"/><line style="stroke:#A80036;stroke-width:1.2;" x1="685.8" x2="855" y1="830.5805" y2="830.5805"/><text fill="#000000" font-family="sans-serif" font-size="15.6" font-weight="bold" lengthAdjust="spacing" textLength="16.8" x="694.2" y="824.2652">19</text><text fill="#000000" font-family="sans-serif" font-size="15.6" lengthAdjust="spacing" textLength="109.2" x="715.8" y="824.2652">&#20445;&#23384;&#26679;&#21697;&#20803;&#25968;&#25454;</text><polygon fill="#A80036" points="1025.4,863.3297,1037.4,868.1297,1025.4,872.9297,1030.2,868.1297" style="stroke:#A80036;stroke-width:1.2;"/><line style="stroke:#A80036;stroke-width:1.2;" x1="874.2" x2="1032.6" y1="868.1297" y2="868.1297"/><text fill="#000000" font-family="sans-serif" font-size="15.6" font-weight="bold" lengthAdjust="spacing" textLength="16.8" x="882.6" y="861.8145">20</text><text fill="#000000" font-family="sans-serif" font-size="15.6" lengthAdjust="spacing" textLength="78" x="904.2" y="861.8145">&#20889;&#22238;&#25968;&#25454;&#24211;</text><polygon fill="#A80036" points="699,900.8789,687,905.6789,699,910.4789,694.2,905.6789" style="stroke:#A80036;stroke-width:1.2;"/><line style="stroke:#A80036;stroke-width:1.2;stroke-dasharray:2.0,2.0;" x1="691.8" x2="867" y1="905.6789" y2="905.6789"/><text fill="#000000" font-family="sans-serif" font-size="15.6" font-weight="bold" lengthAdjust="spacing" textLength="16.8" x="706.2" y="899.3637">21</text><text fill="#000000" font-family="sans-serif" font-size="15.6" lengthAdjust="spacing" textLength="4.8" x="727.8" y="899.3637">&#160;</text><polygon fill="#A80036" points="355.2,938.4281,343.2,943.2281,355.2,948.0281,350.4,943.2281" style="stroke:#A80036;stroke-width:1.2;"/><line style="stroke:#A80036;stroke-width:1.2;stroke-dasharray:2.0,2.0;" x1="348" x2="678.6" y1="943.2281" y2="943.2281"/><text fill="#000000" font-family="sans-serif" font-size="15.6" font-weight="bold" lengthAdjust="spacing" textLength="16.8" x="362.4" y="936.9129">22</text><text fill="#000000" font-family="sans-serif" font-size="15.6" lengthAdjust="spacing" textLength="109.2" x="384" y="936.9129">&#26679;&#21697;&#20803;&#25968;&#25454;&#23545;&#35937;</text><polygon fill="#A80036" points="178.8,975.9773,166.8,980.7773,178.8,985.5773,174,980.7773" style="stroke:#A80036;stroke-width:1.2;"/><line style="stroke:#A80036;stroke-width:1.2;stroke-dasharray:2.0,2.0;" x1="171.6" x2="334.8" y1="980.7773" y2="980.7773"/><text fill="#000000" font-family="sans-serif" font-size="15.6" font-weight="bold" lengthAdjust="spacing" textLength="16.8" x="186" y="974.4621">23</text><text fill="#000000" font-family="sans-serif" font-size="15.6" lengthAdjust="spacing" textLength="114" x="207.6" y="974.4621">&#26679;&#21697;&#20803;&#25968;&#25454; DTO</text><polygon fill="#A80036" points="13.2,1013.5266,1.2,1018.3266,13.2,1023.1266,8.4,1018.3266" style="stroke:#A80036;stroke-width:1.2;"/><line style="stroke:#A80036;stroke-width:1.2;stroke-dasharray:2.0,2.0;" x1="6" x2="158.4" y1="1018.3266" y2="1018.3266"/><text fill="#000000" font-family="sans-serif" font-size="15.6" font-weight="bold" lengthAdjust="spacing" textLength="16.8" x="20.4" y="1012.0113">24</text><text fill="#000000" font-family="sans-serif" font-size="15.6" lengthAdjust="spacing" textLength="109.2" x="42" y="1012.0113">&#21521;&#29992;&#25143;&#21457;&#36865;&#21709;&#24212;</text><!--SRC=[TPFBJjj058RtynGZDgpIxBFefgXI5rKbGEfwR1zJY_ZIyPYMNKC4JQ6qGGaM8UKILAfi88bwIG49NYOpCM_HiHtZE3NR-Rzpvl_FcPb_mvZZbef5fqmivfdb9wfj5bruwu6bGa4po0eb9aBkgc5XQhk04F6ORNcc0XGXXr1cg8OZQ_7SaaCDQmK_ioq6xzaS9YucMUArJLVrilqEBm5TCrI862NBB7eMCqp886eMUMwKixgEDCA8GboOY8lWsAx1RBeUwHe2sPIjIu_4TAJ-4XW9Io9LPaA5fvYKyBZP5RKX_xft_w4Iz8PYi868oemrma168LXIIWa7_Qe4HtyF-NQ73pQ4VoL-xgUWWfGGL4kOrxuB_qByheoxE_poU7Ix8mvwlFw3NnpmRzsqGaKKc4UjXq9nSXxqpiJfa3SgVBCgzljYznA_MFY_1ET0KHTTNj-xYbNXVnpT_0dksa7disZ_4du_RQGZFSGr6UkBJExFz9CzWa4dnJMaXJX47iMdsnay1I442x6H_9uQJ7MDJ934HBo7J62I14wrUJsnChpXswTnojHAeiPRu5ijSLIzRzNZS-bgT7Sa5n5NFHoEcoUYLizjfMLBSZAdmv5s-ERvB9YiB7iSHfcvuB6XJbsmrUBjuyayhnlJmuJaDUM_aCdq7ta-2ykl4edNzwR_0s_iykic-WS0]--></g></svg>