<?xml version="1.0" encoding="us-ascii" standalone="no"?><svg xmlns="http://www.w3.org/2000/svg" xmlns:xlink="http://www.w3.org/1999/xlink" contentStyleType="text/css" height="510px" preserveAspectRatio="none" style="width:507px;height:510px;background:#FFFFFF;" version="1.1" viewBox="0 0 507 510" width="507px" zoomAndPan="magnify"><defs><filter height="300%" id="f1of22d7k0wgv8" width="300%" x="-1" y="-1"><feGaussianBlur result="blurOut" stdDeviation="2.0"/><feColorMatrix in="blurOut" result="blurOut2" type="matrix" values="0 0 0 0 0 0 0 0 0 0 0 0 0 0 0 0 0 0 .4 0"/><feOffset dx="4.0" dy="4.0" in="blurOut2" result="blurOut3"/><feBlend in="SourceGraphic" in2="blurOut3" mode="normal"/></filter></defs><g><rect fill="#FFFFFF" filter="url(#f1of22d7k0wgv8)" height="353.2012" style="stroke:#A80036;stroke-width:1.0;" width="10" x="108" y="88.9121"/><rect fill="#FFFFFF" filter="url(#f1of22d7k0wgv8)" height="31.291" style="stroke:#A80036;stroke-width:1.0;" width="10" x="113" y="151.4941"/><rect fill="#FFFFFF" filter="url(#f1of22d7k0wgv8)" height="312.9102" style="stroke:#A80036;stroke-width:1.0;" width="10" x="236.5" y="120.2031"/><rect fill="#FFFFFF" filter="url(#f1of22d7k0wgv8)" height="31.291" style="stroke:#A80036;stroke-width:1.0;" width="10" x="359.5" y="214.0762"/><rect fill="#FFFFFF" filter="url(#f1of22d7k0wgv8)" height="31.291" style="stroke:#A80036;stroke-width:1.0;" width="10" x="359.5" y="370.5313"/><rect fill="#FFFFFF" filter="url(#f1of22d7k0wgv8)" height="62.582" style="stroke:#A80036;stroke-width:1.0;" width="10" x="460.5" y="276.6582"/><line style="stroke:#A80036;stroke-width:1.0;stroke-dasharray:5.0,5.0;" x1="112.5" x2="112.5" y1="55.6211" y2="451.1133"/><line style="stroke:#A80036;stroke-width:1.0;stroke-dasharray:5.0,5.0;" x1="241.5" x2="241.5" y1="55.6211" y2="451.1133"/><line style="stroke:#A80036;stroke-width:1.0;stroke-dasharray:5.0,5.0;" x1="364.5" x2="364.5" y1="55.6211" y2="451.1133"/><line style="stroke:#A80036;stroke-width:1.0;stroke-dasharray:5.0,5.0;" x1="465.5" x2="465.5" y1="55.6211" y2="451.1133"/><rect fill="#FEFECE" filter="url(#f1of22d7k0wgv8)" height="32.6211" style="stroke:#A80036;stroke-width:1.5;" width="107" x="57.5" y="18"/><text fill="#000000" font-family="sans-serif" font-size="14" lengthAdjust="spacing" textLength="93" x="64.5" y="40.1074">Spring Context</text><rect fill="#FEFECE" filter="url(#f1of22d7k0wgv8)" height="32.6211" style="stroke:#A80036;stroke-width:1.5;" width="107" x="57.5" y="450.1133"/><text fill="#000000" font-family="sans-serif" font-size="14" lengthAdjust="spacing" textLength="93" x="64.5" y="472.2207">Spring Context</text><rect fill="#FEFECE" filter="url(#f1of22d7k0wgv8)" height="32.6211" style="stroke:#A80036;stroke-width:1.5;" width="122" x="178.5" y="18"/><text fill="#000000" font-family="sans-serif" font-size="14" lengthAdjust="spacing" textLength="108" x="185.5" y="40.1074">Workflow Service</text><rect fill="#FEFECE" filter="url(#f1of22d7k0wgv8)" height="32.6211" style="stroke:#A80036;stroke-width:1.5;" width="122" x="178.5" y="450.1133"/><text fill="#000000" font-family="sans-serif" font-size="14" lengthAdjust="spacing" textLength="108" x="185.5" y="472.2207">Workflow Service</text><rect fill="#FEFECE" filter="url(#f1of22d7k0wgv8)" height="32.6211" style="stroke:#A80036;stroke-width:1.5;" width="96" x="314.5" y="18"/><text fill="#000000" font-family="sans-serif" font-size="14" lengthAdjust="spacing" textLength="82" x="321.5" y="40.1074">Task Service</text><rect fill="#FEFECE" filter="url(#f1of22d7k0wgv8)" height="32.6211" style="stroke:#A80036;stroke-width:1.5;" width="96" x="314.5" y="450.1133"/><text fill="#000000" font-family="sans-serif" font-size="14" lengthAdjust="spacing" textLength="82" x="321.5" y="472.2207">Task Service</text><text fill="#000000" font-family="sans-serif" font-size="14" lengthAdjust="spacing" textLength="76" x="424.5" y="52.1074">Task Config</text><ellipse cx="465.5" cy="21" fill="#FEFECE" filter="url(#f1of22d7k0wgv8)" rx="12" ry="12" style="stroke:#A80036;stroke-width:2.0;"/><line style="stroke:#A80036;stroke-width:2.0;" x1="453.5" x2="477.5" y1="35" y2="35"/><text fill="#000000" font-family="sans-serif" font-size="14" lengthAdjust="spacing" textLength="76" x="424.5" y="465.2207">Task Config</text><ellipse cx="465.5" cy="484.7344" fill="#FEFECE" filter="url(#f1of22d7k0wgv8)" rx="12" ry="12" style="stroke:#A80036;stroke-width:2.0;"/><line style="stroke:#A80036;stroke-width:2.0;" x1="453.5" x2="477.5" y1="498.7344" y2="498.7344"/><rect fill="#FFFFFF" filter="url(#f1of22d7k0wgv8)" height="353.2012" style="stroke:#A80036;stroke-width:1.0;" width="10" x="108" y="88.9121"/><rect fill="#FFFFFF" filter="url(#f1of22d7k0wgv8)" height="31.291" style="stroke:#A80036;stroke-width:1.0;" width="10" x="113" y="151.4941"/><rect fill="#FFFFFF" filter="url(#f1of22d7k0wgv8)" height="312.9102" style="stroke:#A80036;stroke-width:1.0;" width="10" x="236.5" y="120.2031"/><rect fill="#FFFFFF" filter="url(#f1of22d7k0wgv8)" height="31.291" style="stroke:#A80036;stroke-width:1.0;" width="10" x="359.5" y="214.0762"/><rect fill="#FFFFFF" filter="url(#f1of22d7k0wgv8)" height="31.291" style="stroke:#A80036;stroke-width:1.0;" width="10" x="359.5" y="370.5313"/><rect fill="#FFFFFF" filter="url(#f1of22d7k0wgv8)" height="62.582" style="stroke:#A80036;stroke-width:1.0;" width="10" x="460.5" y="276.6582"/><polygon fill="#A80036" points="96,84.9121,106,88.9121,96,92.9121,100,88.9121" style="stroke:#A80036;stroke-width:1.0;"/><line style="stroke:#A80036;stroke-width:1.0;" x1="0" x2="102" y1="88.9121" y2="88.9121"/><text fill="#000000" font-family="sans-serif" font-size="13" font-weight="bold" lengthAdjust="spacing" textLength="7" x="7" y="83.6494">1</text><text fill="#000000" font-family="sans-serif" font-size="13" lengthAdjust="spacing" textLength="78" x="18" y="83.6494">&#29992;&#25143;&#21457;&#36865;&#35831;&#27714;</text><polygon fill="#A80036" points="224.5,116.2031,234.5,120.2031,224.5,124.2031,228.5,120.2031" style="stroke:#A80036;stroke-width:1.0;"/><line style="stroke:#A80036;stroke-width:1.0;" x1="118" x2="230.5" y1="120.2031" y2="120.2031"/><text fill="#000000" font-family="sans-serif" font-size="13" font-weight="bold" lengthAdjust="spacing" textLength="7" x="125" y="114.9404">2</text><text fill="#000000" font-family="sans-serif" font-size="13" lengthAdjust="spacing" textLength="78" x="136" y="114.9404">&#21457;&#36215;&#26032;&#30340;&#27969;&#31243;</text><polygon fill="#A80036" points="134,147.4941,124,151.4941,134,155.4941,130,151.4941" style="stroke:#A80036;stroke-width:1.0;"/><line style="stroke:#A80036;stroke-width:1.0;" x1="128" x2="235.5" y1="151.4941" y2="151.4941"/><text fill="#000000" font-family="sans-serif" font-size="13" font-weight="bold" lengthAdjust="spacing" textLength="7" x="140" y="146.2314">3</text><text fill="#000000" font-family="sans-serif" font-size="13" lengthAdjust="spacing" textLength="68" x="151" y="146.2314">&#33719;&#21462;&#29992;&#25143; ID</text><polygon fill="#A80036" points="224.5,178.7852,234.5,182.7852,224.5,186.7852,228.5,182.7852" style="stroke:#A80036;stroke-width:1.0;"/><line style="stroke:#A80036;stroke-width:1.0;stroke-dasharray:2.0,2.0;" x1="118" x2="230.5" y1="182.7852" y2="182.7852"/><text fill="#000000" font-family="sans-serif" font-size="13" font-weight="bold" lengthAdjust="spacing" textLength="7" x="125" y="177.5225">4</text><text fill="#000000" font-family="sans-serif" font-size="13" lengthAdjust="spacing" textLength="42" x="136" y="177.5225">&#29992;&#25143; ID</text><polygon fill="#A80036" points="347.5,210.0762,357.5,214.0762,347.5,218.0762,351.5,214.0762" style="stroke:#A80036;stroke-width:1.0;"/><line style="stroke:#A80036;stroke-width:1.0;" x1="246.5" x2="353.5" y1="214.0762" y2="214.0762"/><text fill="#000000" font-family="sans-serif" font-size="13" font-weight="bold" lengthAdjust="spacing" textLength="7" x="253.5" y="208.8135">5</text><text fill="#000000" font-family="sans-serif" font-size="13" lengthAdjust="spacing" textLength="52" x="264.5" y="208.8135">&#26597;&#25214;&#20219;&#21153;</text><polygon fill="#A80036" points="257.5,241.3672,247.5,245.3672,257.5,249.3672,253.5,245.3672" style="stroke:#A80036;stroke-width:1.0;"/><line style="stroke:#A80036;stroke-width:1.0;stroke-dasharray:2.0,2.0;" x1="251.5" x2="363.5" y1="245.3672" y2="245.3672"/><text fill="#000000" font-family="sans-serif" font-size="13" font-weight="bold" lengthAdjust="spacing" textLength="7" x="263.5" y="240.1045">6</text><text fill="#000000" font-family="sans-serif" font-size="13" lengthAdjust="spacing" textLength="52" x="274.5" y="240.1045">&#20219;&#21153;&#23454;&#20363;</text><polygon fill="#A80036" points="448.5,272.6582,458.5,276.6582,448.5,280.6582,452.5,276.6582" style="stroke:#A80036;stroke-width:1.0;"/><line style="stroke:#A80036;stroke-width:1.0;" x1="246.5" x2="454.5" y1="276.6582" y2="276.6582"/><text fill="#000000" font-family="sans-serif" font-size="13" font-weight="bold" lengthAdjust="spacing" textLength="7" x="253.5" y="271.3955">7</text><text fill="#000000" font-family="sans-serif" font-size="13" lengthAdjust="spacing" textLength="143" x="264.5" y="271.3955">&#26681;&#25454;&#20219;&#21153;&#21517;&#33719;&#21462;&#20219;&#21153;&#37197;&#32622;</text><polygon fill="#A80036" points="448.5,303.9492,458.5,307.9492,448.5,311.9492,452.5,307.9492" style="stroke:#A80036;stroke-width:1.0;"/><line style="stroke:#A80036;stroke-width:1.0;" x1="246.5" x2="454.5" y1="307.9492" y2="307.9492"/><text fill="#000000" font-family="sans-serif" font-size="13" font-weight="bold" lengthAdjust="spacing" textLength="7" x="253.5" y="302.6865">8</text><text fill="#000000" font-family="sans-serif" font-size="13" lengthAdjust="spacing" textLength="130" x="264.5" y="302.6865">&#21028;&#26029;&#26159;&#21542;&#28385;&#36275;&#23436;&#20840;&#26465;&#20214;</text><polygon fill="#A80036" points="257.5,335.2402,247.5,339.2402,257.5,343.2402,253.5,339.2402" style="stroke:#A80036;stroke-width:1.0;"/><line style="stroke:#A80036;stroke-width:1.0;stroke-dasharray:2.0,2.0;" x1="251.5" x2="464.5" y1="339.2402" y2="339.2402"/><text fill="#000000" font-family="sans-serif" font-size="13" font-weight="bold" lengthAdjust="spacing" textLength="7" x="263.5" y="333.9775">9</text><text fill="#000000" font-family="sans-serif" font-size="13" lengthAdjust="spacing" textLength="4" x="274.5" y="333.9775">&#160;</text><polygon fill="#A80036" points="347.5,366.5313,357.5,370.5313,347.5,374.5313,351.5,370.5313" style="stroke:#A80036;stroke-width:1.0;"/><line style="stroke:#A80036;stroke-width:1.0;" x1="246.5" x2="353.5" y1="370.5313" y2="370.5313"/><text fill="#000000" font-family="sans-serif" font-size="13" font-weight="bold" lengthAdjust="spacing" textLength="14" x="253.5" y="365.2686">10</text><text fill="#000000" font-family="sans-serif" font-size="13" lengthAdjust="spacing" textLength="52" x="271.5" y="365.2686">&#23436;&#25104;&#20219;&#21153;</text><polygon fill="#A80036" points="257.5,397.8223,247.5,401.8223,257.5,405.8223,253.5,401.8223" style="stroke:#A80036;stroke-width:1.0;"/><line style="stroke:#A80036;stroke-width:1.0;stroke-dasharray:2.0,2.0;" x1="251.5" x2="363.5" y1="401.8223" y2="401.8223"/><text fill="#000000" font-family="sans-serif" font-size="13" font-weight="bold" lengthAdjust="spacing" textLength="14" x="263.5" y="396.5596">11</text><text fill="#000000" font-family="sans-serif" font-size="13" lengthAdjust="spacing" textLength="4" x="281.5" y="396.5596">&#160;</text><polygon fill="#A80036" points="129,429.1133,119,433.1133,129,437.1133,125,433.1133" style="stroke:#A80036;stroke-width:1.0;"/><line style="stroke:#A80036;stroke-width:1.0;stroke-dasharray:2.0,2.0;" x1="123" x2="240.5" y1="433.1133" y2="433.1133"/><text fill="#000000" font-family="sans-serif" font-size="13" font-weight="bold" lengthAdjust="spacing" textLength="14" x="135" y="427.8506">12</text><text fill="#000000" font-family="sans-serif" font-size="13" lengthAdjust="spacing" textLength="4" x="153" y="427.8506">&#160;</text><!--SRC=[TOu_Jy906CRt-nHlN9oGlOEBBiwOE5-l1rwWrtgzecvY944HnSGGO-8V4ZKi5eq1OXhvDFHQleKN2bG6fylbz_oUzrdVbzBrZ7pUhM0kVRkoGHmxxz43dt92SnR39O5jXBmouo0SZoA4VUbmtpQfGCZ5GZB2NEt2Mi4LZ9TWo-6I7iarm1xWrSIU8yh5YdC81IggZD1PnbpDx6AllC89ebmoUJn7khx8IZDY8PJR16n0VDjJZL5qVJCzgINzaVeyHPX8LiMIwWaOTCeqGFDaC5ATZ_Z-J0rgSQ-PfKnaGjgLNEcYJje8Ezj_YmILlk2GiPb3351Fh-fyF0d3wAAR2MGXf20A7YVZPkfOsdd-LgrWZjgjz6pwdTPRyK-G5LbBAMgygCwxkkj7xJSLTfFXLnHSHlMUUkXEmk7ytdAMPghH_c_Mula5]--></g></svg>