<?xml version="1.0" encoding="us-ascii" standalone="no"?><svg xmlns="http://www.w3.org/2000/svg" xmlns:xlink="http://www.w3.org/1999/xlink" contentStyleType="text/css" height="766.8px" preserveAspectRatio="none" style="width:831px;height:766px;background:#FFFFFF;" version="1.1" viewBox="0 0 831 766" width="831.6px" zoomAndPan="magnify"><defs><filter height="300%" id="f1v5c2kfnc3mgv" width="300%" x="-1" y="-1"><feGaussianBlur result="blurOut" stdDeviation="2.4"/><feColorMatrix in="blurOut" result="blurOut2" type="matrix" values="0 0 0 0 0 0 0 0 0 0 0 0 0 0 0 0 0 0 .4 0"/><feOffset dx="4.8" dy="4.8" in="blurOut2" result="blurOut3"/><feBlend in="SourceGraphic" in2="blurOut3" mode="normal"/></filter></defs><g><rect fill="#FFFFFF" filter="url(#f1v5c2kfnc3mgv)" height="525.6891" style="stroke:#A80036;stroke-width:1.2;" width="12" x="153.6" y="123.4945"/><rect fill="#FFFFFF" filter="url(#f1v5c2kfnc3mgv)" height="37.5492" style="stroke:#A80036;stroke-width:1.2;" width="12" x="159.6" y="198.593"/><rect fill="#FFFFFF" filter="url(#f1v5c2kfnc3mgv)" height="450.5906" style="stroke:#A80036;stroke-width:1.2;" width="12" x="307.8" y="161.0438"/><rect fill="#FFFFFF" filter="url(#f1v5c2kfnc3mgv)" height="37.5492" style="stroke:#A80036;stroke-width:1.2;" width="12" x="527.4" y="273.6914"/><rect fill="#FFFFFF" filter="url(#f1v5c2kfnc3mgv)" height="37.5492" style="stroke:#A80036;stroke-width:1.2;" width="12" x="527.4" y="348.7898"/><rect fill="#FFFFFF" filter="url(#f1v5c2kfnc3mgv)" height="37.5492" style="stroke:#A80036;stroke-width:1.2;" width="12" x="666.6" y="423.8883"/><rect fill="#FFFFFF" filter="url(#f1v5c2kfnc3mgv)" height="75.0984" style="stroke:#A80036;stroke-width:1.2;" width="12" x="778.8" y="498.9867"/><line style="stroke:#A80036;stroke-width:1.2;stroke-dasharray:5.0,5.0;" x1="159" x2="159" y1="83.5453" y2="670.7836"/><line style="stroke:#A80036;stroke-width:1.2;stroke-dasharray:5.0,5.0;" x1="313.8" x2="313.8" y1="83.5453" y2="670.7836"/><line style="stroke:#A80036;stroke-width:1.2;stroke-dasharray:5.0,5.0;" x1="532.8" x2="532.8" y1="83.5453" y2="670.7836"/><line style="stroke:#A80036;stroke-width:1.2;stroke-dasharray:5.0,5.0;" x1="672" x2="672" y1="83.5453" y2="670.7836"/><line style="stroke:#A80036;stroke-width:1.2;stroke-dasharray:5.0,5.0;" x1="784.8" x2="784.8" y1="83.5453" y2="670.7836"/><rect fill="#FEFECE" filter="url(#f1v5c2kfnc3mgv)" height="39.1453" style="stroke:#A80036;stroke-width:1.7999999999999998;" width="128.4" x="93" y="38.4"/><text fill="#000000" font-family="sans-serif" font-size="16.8" lengthAdjust="spacing" textLength="111.6" x="101.4" y="64.9289">Spring Context</text><rect fill="#FEFECE" filter="url(#f1v5c2kfnc3mgv)" height="39.1453" style="stroke:#A80036;stroke-width:1.7999999999999998;" width="128.4" x="93" y="669.5836"/><text fill="#000000" font-family="sans-serif" font-size="16.8" lengthAdjust="spacing" textLength="111.6" x="101.4" y="696.1125">Spring Context</text><rect fill="#FEFECE" filter="url(#f1v5c2kfnc3mgv)" height="39.1453" style="stroke:#A80036;stroke-width:1.7999999999999998;" width="146.4" x="238.2" y="38.4"/><text fill="#000000" font-family="sans-serif" font-size="16.8" lengthAdjust="spacing" textLength="129.6" x="246.6" y="64.9289">Workflow Service</text><rect fill="#FEFECE" filter="url(#f1v5c2kfnc3mgv)" height="39.1453" style="stroke:#A80036;stroke-width:1.7999999999999998;" width="146.4" x="238.2" y="669.5836"/><text fill="#000000" font-family="sans-serif" font-size="16.8" lengthAdjust="spacing" textLength="129.6" x="246.6" y="696.1125">Workflow Service</text><rect fill="#FEFECE" filter="url(#f1v5c2kfnc3mgv)" height="39.1453" style="stroke:#A80036;stroke-width:1.7999999999999998;" width="140.4" x="460.8" y="38.4"/><text fill="#000000" font-family="sans-serif" font-size="16.8" lengthAdjust="spacing" textLength="123.6" x="469.2" y="64.9289">Runtime Service</text><rect fill="#FEFECE" filter="url(#f1v5c2kfnc3mgv)" height="39.1453" style="stroke:#A80036;stroke-width:1.7999999999999998;" width="140.4" x="460.8" y="669.5836"/><text fill="#000000" font-family="sans-serif" font-size="16.8" lengthAdjust="spacing" textLength="123.6" x="469.2" y="696.1125">Runtime Service</text><text fill="#000000" font-family="sans-serif" font-size="16.8" lengthAdjust="spacing" textLength="102" x="618" y="79.3289">Form Mapper</text><path d="M651,18 C651,6 672.6,6 672.6,6 C672.6,6 694.2,6 694.2,18 L694.2,49.2 C694.2,61.2 672.6,61.2 672.6,61.2 C672.6,61.2 651,61.2 651,49.2 L651,18 " fill="#FEFECE" filter="url(#f1v5c2kfnc3mgv)" style="stroke:#A80036;stroke-width:1.7999999999999998;"/><path d="M651,18 C651,30 672.6,30 672.6,30 C672.6,30 694.2,30 694.2,18 " fill="none" style="stroke:#A80036;stroke-width:1.7999999999999998;"/><text fill="#000000" font-family="sans-serif" font-size="16.8" lengthAdjust="spacing" textLength="102" x="618" y="687.7125">Form Mapper</text><path d="M651,703.9289 C651,691.9289 672.6,691.9289 672.6,691.9289 C672.6,691.9289 694.2,691.9289 694.2,703.9289 L694.2,735.1289 C694.2,747.1289 672.6,747.1289 672.6,747.1289 C672.6,747.1289 651,747.1289 651,735.1289 L651,703.9289 " fill="#FEFECE" filter="url(#f1v5c2kfnc3mgv)" style="stroke:#A80036;stroke-width:1.7999999999999998;"/><path d="M651,703.9289 C651,715.9289 672.6,715.9289 672.6,715.9289 C672.6,715.9289 694.2,715.9289 694.2,703.9289 " fill="none" style="stroke:#A80036;stroke-width:1.7999999999999998;"/><text fill="#000000" font-family="sans-serif" font-size="16.8" lengthAdjust="spacing" textLength="84" x="739.2" y="79.3289">Form Index</text><ellipse cx="784.8" cy="42" fill="#FEFECE" filter="url(#f1v5c2kfnc3mgv)" rx="14.4" ry="14.4" style="stroke:#A80036;stroke-width:2.4;"/><line style="stroke:#A80036;stroke-width:2.4;" x1="770.4" x2="799.2" y1="58.8" y2="58.8"/><text fill="#000000" font-family="sans-serif" font-size="16.8" lengthAdjust="spacing" textLength="84" x="739.2" y="687.7125">Form Index</text><ellipse cx="784.8" cy="711.1289" fill="#FEFECE" filter="url(#f1v5c2kfnc3mgv)" rx="14.4" ry="14.4" style="stroke:#A80036;stroke-width:2.4;"/><line style="stroke:#A80036;stroke-width:2.4;" x1="770.4" x2="799.2" y1="727.9289" y2="727.9289"/><rect fill="#FFFFFF" filter="url(#f1v5c2kfnc3mgv)" height="525.6891" style="stroke:#A80036;stroke-width:1.2;" width="12" x="153.6" y="123.4945"/><rect fill="#FFFFFF" filter="url(#f1v5c2kfnc3mgv)" height="37.5492" style="stroke:#A80036;stroke-width:1.2;" width="12" x="159.6" y="198.593"/><rect fill="#FFFFFF" filter="url(#f1v5c2kfnc3mgv)" height="450.5906" style="stroke:#A80036;stroke-width:1.2;" width="12" x="307.8" y="161.0438"/><rect fill="#FFFFFF" filter="url(#f1v5c2kfnc3mgv)" height="37.5492" style="stroke:#A80036;stroke-width:1.2;" width="12" x="527.4" y="273.6914"/><rect fill="#FFFFFF" filter="url(#f1v5c2kfnc3mgv)" height="37.5492" style="stroke:#A80036;stroke-width:1.2;" width="12" x="527.4" y="348.7898"/><rect fill="#FFFFFF" filter="url(#f1v5c2kfnc3mgv)" height="37.5492" style="stroke:#A80036;stroke-width:1.2;" width="12" x="666.6" y="423.8883"/><rect fill="#FFFFFF" filter="url(#f1v5c2kfnc3mgv)" height="75.0984" style="stroke:#A80036;stroke-width:1.2;" width="12" x="778.8" y="498.9867"/><polygon fill="#A80036" points="139.2,118.6945,151.2,123.4945,139.2,128.2945,144,123.4945" style="stroke:#A80036;stroke-width:1.2;"/><line style="stroke:#A80036;stroke-width:1.2;" x1="0" x2="146.4" y1="123.4945" y2="123.4945"/><text fill="#000000" font-family="sans-serif" font-size="15.6" font-weight="bold" lengthAdjust="spacing" textLength="8.4" x="8.4" y="117.1793">1</text><text fill="#000000" font-family="sans-serif" font-size="15.6" lengthAdjust="spacing" textLength="93.6" x="21.6" y="117.1793">&#29992;&#25143;&#21457;&#36865;&#35831;&#27714;</text><polygon fill="#A80036" points="293.4,156.2438,305.4,161.0438,293.4,165.8438,298.2,161.0438" style="stroke:#A80036;stroke-width:1.2;"/><line style="stroke:#A80036;stroke-width:1.2;" x1="165.6" x2="300.6" y1="161.0438" y2="161.0438"/><text fill="#000000" font-family="sans-serif" font-size="15.6" font-weight="bold" lengthAdjust="spacing" textLength="8.4" x="174" y="154.7285">2</text><text fill="#000000" font-family="sans-serif" font-size="15.6" lengthAdjust="spacing" textLength="93.6" x="187.2" y="154.7285">&#21457;&#36215;&#26032;&#30340;&#27969;&#31243;</text><polygon fill="#A80036" points="184.8,193.793,172.8,198.593,184.8,203.393,180,198.593" style="stroke:#A80036;stroke-width:1.2;"/><line style="stroke:#A80036;stroke-width:1.2;" x1="177.6" x2="306.6" y1="198.593" y2="198.593"/><text fill="#000000" font-family="sans-serif" font-size="15.6" font-weight="bold" lengthAdjust="spacing" textLength="8.4" x="192" y="192.2777">3</text><text fill="#000000" font-family="sans-serif" font-size="15.6" lengthAdjust="spacing" textLength="81.6" x="205.2" y="192.2777">&#33719;&#21462;&#29992;&#25143; ID</text><polygon fill="#A80036" points="293.4,231.3422,305.4,236.1422,293.4,240.9422,298.2,236.1422" style="stroke:#A80036;stroke-width:1.2;"/><line style="stroke:#A80036;stroke-width:1.2;stroke-dasharray:2.0,2.0;" x1="165.6" x2="300.6" y1="236.1422" y2="236.1422"/><text fill="#000000" font-family="sans-serif" font-size="15.6" font-weight="bold" lengthAdjust="spacing" textLength="8.4" x="174" y="229.827">4</text><text fill="#000000" font-family="sans-serif" font-size="15.6" lengthAdjust="spacing" textLength="50.4" x="187.2" y="229.827">&#29992;&#25143; ID</text><polygon fill="#A80036" points="513,268.8914,525,273.6914,513,278.4914,517.8,273.6914" style="stroke:#A80036;stroke-width:1.2;"/><line style="stroke:#A80036;stroke-width:1.2;" x1="319.8" x2="520.2" y1="273.6914" y2="273.6914"/><text fill="#000000" font-family="sans-serif" font-size="15.6" font-weight="bold" lengthAdjust="spacing" textLength="8.4" x="328.2" y="267.3762">5</text><text fill="#000000" font-family="sans-serif" font-size="15.6" lengthAdjust="spacing" textLength="156" x="341.4" y="267.3762">&#21028;&#26029;&#27969;&#31243;&#23454;&#20363;&#26159;&#21542;&#23384;&#22312;</text><polygon fill="#A80036" points="333,306.4406,321,311.2406,333,316.0406,328.2,311.2406" style="stroke:#A80036;stroke-width:1.2;"/><line style="stroke:#A80036;stroke-width:1.2;stroke-dasharray:2.0,2.0;" x1="325.8" x2="532.2" y1="311.2406" y2="311.2406"/><text fill="#000000" font-family="sans-serif" font-size="15.6" font-weight="bold" lengthAdjust="spacing" textLength="8.4" x="340.2" y="304.9254">6</text><text fill="#000000" font-family="sans-serif" font-size="15.6" lengthAdjust="spacing" textLength="4.8" x="353.4" y="304.9254">&#160;</text><polygon fill="#A80036" points="513,343.9898,525,348.7898,513,353.5898,517.8,348.7898" style="stroke:#A80036;stroke-width:1.2;"/><line style="stroke:#A80036;stroke-width:1.2;" x1="319.8" x2="520.2" y1="348.7898" y2="348.7898"/><text fill="#000000" font-family="sans-serif" font-size="15.6" font-weight="bold" lengthAdjust="spacing" textLength="8.4" x="328.2" y="342.4746">7</text><text fill="#000000" font-family="sans-serif" font-size="15.6" lengthAdjust="spacing" textLength="171.6" x="341.4" y="342.4746">&#26681;&#25454;&#34920;&#21333;&#21517;&#33719;&#21462;&#34920;&#21333;&#32034;&#24341;</text><polygon fill="#A80036" points="333,381.5391,321,386.3391,333,391.1391,328.2,386.3391" style="stroke:#A80036;stroke-width:1.2;"/><line style="stroke:#A80036;stroke-width:1.2;stroke-dasharray:2.0,2.0;" x1="325.8" x2="532.2" y1="386.3391" y2="386.3391"/><text fill="#000000" font-family="sans-serif" font-size="15.6" font-weight="bold" lengthAdjust="spacing" textLength="8.4" x="340.2" y="380.0238">8</text><text fill="#000000" font-family="sans-serif" font-size="15.6" lengthAdjust="spacing" textLength="81.6" x="353.4" y="380.0238">&#34920;&#21333;&#32034;&#24341; ID</text><polygon fill="#A80036" points="652.2,419.0883,664.2,423.8883,652.2,428.6883,657,423.8883" style="stroke:#A80036;stroke-width:1.2;"/><line style="stroke:#A80036;stroke-width:1.2;" x1="319.8" x2="659.4" y1="423.8883" y2="423.8883"/><text fill="#000000" font-family="sans-serif" font-size="15.6" font-weight="bold" lengthAdjust="spacing" textLength="8.4" x="328.2" y="417.573">9</text><text fill="#000000" font-family="sans-serif" font-size="15.6" lengthAdjust="spacing" textLength="195.6" x="341.4" y="417.573">&#26681;&#25454;&#34920;&#21333;&#32034;&#24341; ID &#26597;&#25214;&#25968;&#25454;&#24211;</text><polygon fill="#A80036" points="333,456.6375,321,461.4375,333,466.2375,328.2,461.4375" style="stroke:#A80036;stroke-width:1.2;"/><line style="stroke:#A80036;stroke-width:1.2;stroke-dasharray:2.0,2.0;" x1="325.8" x2="671.4" y1="461.4375" y2="461.4375"/><text fill="#000000" font-family="sans-serif" font-size="15.6" font-weight="bold" lengthAdjust="spacing" textLength="16.8" x="340.2" y="455.1223">10</text><text fill="#000000" font-family="sans-serif" font-size="15.6" lengthAdjust="spacing" textLength="93.6" x="361.8" y="455.1223">&#34920;&#21333;&#32034;&#24341;&#23545;&#35937;</text><polygon fill="#A80036" points="764.4,494.1867,776.4,498.9867,764.4,503.7867,769.2,498.9867" style="stroke:#A80036;stroke-width:1.2;"/><line style="stroke:#A80036;stroke-width:1.2;" x1="319.8" x2="771.6" y1="498.9867" y2="498.9867"/><text fill="#000000" font-family="sans-serif" font-size="15.6" font-weight="bold" lengthAdjust="spacing" textLength="16.8" x="328.2" y="492.6715">11</text><text fill="#000000" font-family="sans-serif" font-size="15.6" lengthAdjust="spacing" textLength="249.6" x="349.8" y="492.6715">&#21028;&#26029;&#24403;&#21069;&#30331;&#24405;&#29992;&#25143;&#26159;&#21542;&#20855;&#26377;&#35835;&#21462;&#26435;&#38480;</text><polygon fill="#A80036" points="764.4,531.7359,776.4,536.5359,764.4,541.3359,769.2,536.5359" style="stroke:#A80036;stroke-width:1.2;"/><line style="stroke:#A80036;stroke-width:1.2;" x1="319.8" x2="771.6" y1="536.5359" y2="536.5359"/><text fill="#000000" font-family="sans-serif" font-size="15.6" font-weight="bold" lengthAdjust="spacing" textLength="16.8" x="328.2" y="530.2207">12</text><text fill="#000000" font-family="sans-serif" font-size="15.6" lengthAdjust="spacing" textLength="93.6" x="349.8" y="530.2207">&#33719;&#21462;&#34920;&#21333;&#25968;&#25454;</text><polygon fill="#A80036" points="333,569.2852,321,574.0852,333,578.8852,328.2,574.0852" style="stroke:#A80036;stroke-width:1.2;"/><line style="stroke:#A80036;stroke-width:1.2;stroke-dasharray:2.0,2.0;" x1="325.8" x2="783.6" y1="574.0852" y2="574.0852"/><text fill="#000000" font-family="sans-serif" font-size="15.6" font-weight="bold" lengthAdjust="spacing" textLength="16.8" x="340.2" y="567.7699">13</text><text fill="#000000" font-family="sans-serif" font-size="15.6" lengthAdjust="spacing" textLength="72" x="361.8" y="567.7699">Form &#23545;&#35937;</text><polygon fill="#A80036" points="178.8,606.8344,166.8,611.6344,178.8,616.4344,174,611.6344" style="stroke:#A80036;stroke-width:1.2;"/><line style="stroke:#A80036;stroke-width:1.2;stroke-dasharray:2.0,2.0;" x1="171.6" x2="312.6" y1="611.6344" y2="611.6344"/><text fill="#000000" font-family="sans-serif" font-size="15.6" font-weight="bold" lengthAdjust="spacing" textLength="16.8" x="186" y="605.3191">14</text><text fill="#000000" font-family="sans-serif" font-size="15.6" lengthAdjust="spacing" textLength="31.2" x="207.6" y="605.3191">&#34920;&#21333;</text><polygon fill="#A80036" points="13.2,644.3836,1.2,649.1836,13.2,653.9836,8.4,649.1836" style="stroke:#A80036;stroke-width:1.2;"/><line style="stroke:#A80036;stroke-width:1.2;stroke-dasharray:2.0,2.0;" x1="6" x2="158.4" y1="649.1836" y2="649.1836"/><text fill="#000000" font-family="sans-serif" font-size="15.6" font-weight="bold" lengthAdjust="spacing" textLength="16.8" x="20.4" y="642.8684">15</text><text fill="#000000" font-family="sans-serif" font-size="15.6" lengthAdjust="spacing" textLength="109.2" x="42" y="642.8684">&#21521;&#29992;&#25143;&#21457;&#36865;&#21709;&#24212;</text><!--SRC=[RP6xJiD044Nx_OfH6Yf8du86X4H1GmhgjJs0HRmswpMFZgT4X0n18H4WtWAK1W8IAEBvDUpQ_0KhEubZGJcwzvwvencQ5yBpIyMYLw5C14vbn7ITee-B0J8JXosRpd7g4E8ls0ouwoCXD10k2nm3EI4UvS8sRKzdeL3skCtcOCnb0bT40QWFDE-OSVd2RCLTXZBo9Tl4n6FaFTC14xQ3EOj9B2geGNs4meJB7PYYdeSyqIo2EY1Mkyeait0b4NJLuL6W9OWEMsgd8_SFVjRMutP7FMqGQWfxYGhK1Ibebr42hSSl7TLyZ4wsrCjwrDhDN0On86N5UnhKJ8amEJu8uYW2pY3JaeofoJitgdcVCkN3-VVNhZfgozgTl3-IfwqCONOH_Q2wV5NXGtpLac53ri9qTpf6pzVoe_4t2uDoluILP_LLK1Utglgb6ezQas_rZ6VznvFjr_ZfAaLYxoxvMPVLC3f-bv-DzFRkTTiTTLgDs- -wiphR_3ckPNJiCmPlIclq5YVVx6xCTUbDidOm-5bP3-NR8Va5]--></g></svg>