<?xml version="1.0" encoding="us-ascii" standalone="no"?><svg xmlns="http://www.w3.org/2000/svg" xmlns:xlink="http://www.w3.org/1999/xlink" contentStyleType="text/css" height="342px" preserveAspectRatio="none" style="width:382px;height:342px;background:#FFFFFF;" version="1.1" viewBox="0 0 382 342" width="382.8px" zoomAndPan="magnify"><defs><filter height="300%" id="f16qlltbpvfx2t" width="300%" x="-1" y="-1"><feGaussianBlur result="blurOut" stdDeviation="2.4"/><feColorMatrix in="blurOut" result="blurOut2" type="matrix" values="0 0 0 0 0 0 0 0 0 0 0 0 0 0 0 0 0 0 .4 0"/><feOffset dx="4.8" dy="4.8" in="blurOut2" result="blurOut3"/><feBlend in="SourceGraphic" in2="blurOut3" mode="normal"/></filter></defs><g><!--class UserDetails--><g id="elem_UserDetails"><rect codeLine="5" fill="#FEFECE" filter="url(#f16qlltbpvfx2t)" height="57.6" id="UserDetails" style="stroke:#A80036;stroke-width:1.2;" width="126" x="126" y="8.4"/><ellipse cx="144" cy="27.6" fill="#B4A7E5" rx="13.2" ry="13.2" style="stroke:#A80036;stroke-width:1.2;"/><path d="M139.9125,21.3375 L139.9125,20.2125 L146.925,20.2125 L146.925,21.3375 L144.7687,21.3375 Q144.5625,21.3375 144.4688,21.4125 Q144.375,21.4875 144.375,21.6563 L144.375,33.0375 Q144.375,33.2063 144.4688,33.2813 Q144.5625,33.3562 144.7687,33.3562 L146.925,33.3562 L146.925,34.4812 L139.9125,34.4812 L139.9125,33.3562 L142.0688,33.3562 Q142.3312,33.3562 142.3875,33.3 Q142.4625,33.225 142.4625,33.0375 L142.4625,21.6563 Q142.4625,21.4688 142.3875,21.4125 Q142.3312,21.3375 142.0688,21.3375 L139.9125,21.3375 Z " fill="#000000"/><text fill="#000000" font-family="sans-serif" font-size="16.8" font-style="italic" lengthAdjust="spacing" textLength="87.6" x="160.8" y="34.5563">UserDetails</text><line style="stroke:#A80036;stroke-width:1.2;" x1="127.2" x2="250.8" y1="46.8" y2="46.8"/><line style="stroke:#A80036;stroke-width:1.2;" x1="127.2" x2="250.8" y1="56.4" y2="56.4"/></g><!--class User--><g id="elem_User"><rect codeLine="6" fill="#FEFECE" filter="url(#f16qlltbpvfx2t)" height="57.6" id="User" style="stroke:#A80036;stroke-width:1.2;" width="74.4" x="151.8" y="138"/><ellipse cx="169.8" cy="157.2" fill="#B4A7E5" rx="13.2" ry="13.2" style="stroke:#A80036;stroke-width:1.2;"/><path d="M165.7125,150.9375 L165.7125,149.8125 L172.725,149.8125 L172.725,150.9375 L170.5688,150.9375 Q170.3625,150.9375 170.2687,151.0125 Q170.175,151.0875 170.175,151.2563 L170.175,162.6375 Q170.175,162.8063 170.2687,162.8813 Q170.3625,162.9562 170.5688,162.9562 L172.725,162.9562 L172.725,164.0812 L165.7125,164.0812 L165.7125,162.9562 L167.8688,162.9562 Q168.1313,162.9562 168.1875,162.9 Q168.2625,162.825 168.2625,162.6375 L168.2625,151.2563 Q168.2625,151.0688 168.1875,151.0125 Q168.1313,150.9375 167.8688,150.9375 L165.7125,150.9375 Z " fill="#000000"/><text fill="#000000" font-family="sans-serif" font-size="16.8" font-style="italic" lengthAdjust="spacing" textLength="36" x="186.6" y="164.1563">User</text><line style="stroke:#A80036;stroke-width:1.2;" x1="153" x2="225" y1="176.4" y2="176.4"/><line style="stroke:#A80036;stroke-width:1.2;" x1="153" x2="225" y1="186" y2="186"/></g><!--class Admin--><g id="elem_Admin"><rect codeLine="39" fill="#FEFECE" filter="url(#f16qlltbpvfx2t)" height="57.6" id="Admin" style="stroke:#A80036;stroke-width:1.2;" width="85.2" x="8.4" y="267.6"/><ellipse cx="26.4" cy="286.8" fill="#ADD1B2" rx="13.2" ry="13.2" style="stroke:#A80036;stroke-width:1.2;"/><path d="M25.6125,293.8313 Q23.2313,293.8313 21.825,292.0687 Q20.4375,290.2875 20.4375,286.5938 Q20.4375,283.4625 21.9,281.3625 Q23.3812,279.2625 25.9313,279.2625 Q26.5313,279.2625 27.1688,279.4313 Q27.6937,279.6563 28.0125,279.6563 Q28.275,279.6563 28.3875,279.6 Q28.5188,279.5438 29.0625,278.8313 L29.9813,283.3125 L28.9125,283.6312 Q28.3688,281.8875 27.6375,281.175 Q26.925,280.4437 25.7813,280.4437 Q24.3187,280.4437 23.4563,282.1688 Q22.5938,283.875 22.5938,286.5 Q22.5938,289.3875 23.325,290.9437 Q24.075,292.4813 25.7063,292.4813 Q26.85,292.4813 27.675,291.6563 Q28.5,290.8125 28.8937,289.0125 L29.9813,289.5 Q29.4938,291.5438 28.3313,292.6875 Q27.1875,293.8313 25.6125,293.8313 Z " fill="#000000"/><text fill="#000000" font-family="sans-serif" font-size="16.8" lengthAdjust="spacing" textLength="46.8" x="43.2" y="293.7562">Admin</text><line style="stroke:#A80036;stroke-width:1.2;" x1="9.6" x2="92.4" y1="306" y2="306"/><line style="stroke:#A80036;stroke-width:1.2;" x1="9.6" x2="92.4" y1="315.6" y2="315.6"/></g><!--class Operator--><g id="elem_Operator"><rect codeLine="41" fill="#FEFECE" filter="url(#f16qlltbpvfx2t)" height="57.6" id="Operator" style="stroke:#A80036;stroke-width:1.2;" width="106.8" x="135.6" y="267.6"/><ellipse cx="153.6" cy="286.8" fill="#ADD1B2" rx="13.2" ry="13.2" style="stroke:#A80036;stroke-width:1.2;"/><path d="M152.8125,293.8313 Q150.4313,293.8313 149.025,292.0687 Q147.6375,290.2875 147.6375,286.5938 Q147.6375,283.4625 149.1,281.3625 Q150.5812,279.2625 153.1313,279.2625 Q153.7313,279.2625 154.3688,279.4313 Q154.8937,279.6563 155.2125,279.6563 Q155.475,279.6563 155.5875,279.6 Q155.7188,279.5438 156.2625,278.8313 L157.1813,283.3125 L156.1125,283.6312 Q155.5688,281.8875 154.8375,281.175 Q154.125,280.4437 152.9813,280.4437 Q151.5187,280.4437 150.6563,282.1688 Q149.7938,283.875 149.7938,286.5 Q149.7938,289.3875 150.525,290.9437 Q151.275,292.4813 152.9063,292.4813 Q154.05,292.4813 154.875,291.6563 Q155.7,290.8125 156.0938,289.0125 L157.1813,289.5 Q156.6938,291.5438 155.5313,292.6875 Q154.3875,293.8313 152.8125,293.8313 Z " fill="#000000"/><text fill="#000000" font-family="sans-serif" font-size="16.8" lengthAdjust="spacing" textLength="68.4" x="170.4" y="293.7562">Operator</text><line style="stroke:#A80036;stroke-width:1.2;" x1="136.8" x2="241.2" y1="306" y2="306"/><line style="stroke:#A80036;stroke-width:1.2;" x1="136.8" x2="241.2" y1="315.6" y2="315.6"/></g><!--class Client--><g id="elem_Client"><rect codeLine="43" fill="#FEFECE" filter="url(#f16qlltbpvfx2t)" height="57.6" id="Client" style="stroke:#A80036;stroke-width:1.2;" width="81.6" x="285" y="267.6"/><ellipse cx="303" cy="286.8" fill="#ADD1B2" rx="13.2" ry="13.2" style="stroke:#A80036;stroke-width:1.2;"/><path d="M302.2125,293.8313 Q299.8313,293.8313 298.425,292.0687 Q297.0375,290.2875 297.0375,286.5938 Q297.0375,283.4625 298.5,281.3625 Q299.9813,279.2625 302.5313,279.2625 Q303.1312,279.2625 303.7688,279.4313 Q304.2938,279.6563 304.6125,279.6563 Q304.875,279.6563 304.9875,279.6 Q305.1188,279.5438 305.6625,278.8313 L306.5813,283.3125 L305.5125,283.6312 Q304.9688,281.8875 304.2375,281.175 Q303.525,280.4437 302.3812,280.4437 Q300.9188,280.4437 300.0563,282.1688 Q299.1937,283.875 299.1937,286.5 Q299.1937,289.3875 299.925,290.9437 Q300.675,292.4813 302.3063,292.4813 Q303.45,292.4813 304.275,291.6563 Q305.1,290.8125 305.4938,289.0125 L306.5813,289.5 Q306.0938,291.5438 304.9313,292.6875 Q303.7875,293.8313 302.2125,293.8313 Z " fill="#000000"/><text fill="#000000" font-family="sans-serif" font-size="16.8" lengthAdjust="spacing" textLength="43.2" x="319.8" y="293.7562">Client</text><line style="stroke:#A80036;stroke-width:1.2;" x1="286.2" x2="365.4" y1="306" y2="306"/><line style="stroke:#A80036;stroke-width:1.2;" x1="286.2" x2="365.4" y1="315.6" y2="315.6"/></g><!--reverse link UserDetails to User--><g id="link_UserDetails_User"><path codeLine="45" d="M189,90.024 C189,106.296 189,123.648 189,137.616 " fill="none" id="UserDetails-backto-User" style="stroke:#A80036;stroke-width:1.2;stroke-dasharray:7.0,7.0;"/><polygon fill="none" points="180.6,90,189,66,197.4,90,180.6,90" style="stroke:#A80036;stroke-width:1.2;"/></g><!--reverse link User to Admin--><g id="link_User_Admin"><path codeLine="47" d="M141.384,211.884 C121.488,230.232 98.952,251.004 81.36,267.216 " fill="none" id="User-backto-Admin" style="stroke:#A80036;stroke-width:1.2;"/><polygon fill="none" points="135.72,205.692,159.06,195.6,147.108,218.04,135.72,205.692" style="stroke:#A80036;stroke-width:1.2;"/></g><!--reverse link User to Operator--><g id="link_User_Operator"><path codeLine="49" d="M189,219.624 C189,235.896 189,253.248 189,267.216 " fill="none" id="User-backto-Operator" style="stroke:#A80036;stroke-width:1.2;"/><polygon fill="none" points="180.6,219.6,189,195.6,197.4,219.6,180.6,219.6" style="stroke:#A80036;stroke-width:1.2;"/></g><!--reverse link User to Client--><g id="link_User_Client"><path codeLine="51" d="M236.508,212.172 C256.152,230.448 278.352,251.088 295.704,267.216 " fill="none" id="User-backto-Client" style="stroke:#A80036;stroke-width:1.2;"/><polygon fill="none" points="230.544,218.1,218.688,195.6,241.98,205.788,230.544,218.1" style="stroke:#A80036;stroke-width:1.2;"/></g><!--SRC=[XL8xJWCn4ErzYkdoaJPBJI8ab52a0PGe1nZMayJ2QwziBqr8JyD70d45k04d2d0CTkFzXKIAAy_pcpTlnjDQEfVOqp1C92gNnh8NwJYC95eRS84BWp5ZzbOeCDeIOq8vCdEC26QMp8WS2caRw1Q65Mj1TW9Oa9iGoakCgTrfW3F1w_XE2mx8-RNH4LaxLjQXYgWzTKQeHKMRaXjuw2oN-CUsjHx5cIcsPYtFpiaNETJkz5dBay9krr-W2xzFNvldzv-tp- -7hyt7w-RbiNmA_QMGEPeCuz6HJ4vpJANp7SDgVH2l9p6XI1jUp06ItOR7lDDGE3gSoaFsLmq6sQ5EbMkybrvsUTvAmLqPSgbHSD9VLsatMaj21KkqX_-nyi_tQ-qd7swTLwNdA2tbvTbsL-6SnqALmLL21fqsPJoKWfHZhB6oCBZlzRRBwk4i3e9IfGPgfHehrFu0]--></g></svg>